<svg xmlns="http://www.w3.org/2000/svg" viewBox="0 0 449.38 617.31"><defs><style>.cls-1{fill:none;stroke:#000;stroke-miterlimit:10;stroke-width:0.5px;}.cls-2{fill-rule:evenodd;}</style></defs><g id="Layer_2" data-name="Layer 2"><g id="Layer_1-2" data-name="Layer 1"><path d="M242.75,72.27c-1.61.73-3.57,1.53-5.75,2.31s-4.58,1.56-7,2.28c-9.78,2.92-20.3,5-20.3,5s10.26-2.41,19.57-5.59c2.34-.78,4.59-1.63,6.63-2.45s3.82-1.65,5.26-2.39l-4,.07c-1.15.42-2.34.84-3.54,1.24-9.44,3.19-19.71,5.57-19.71,5.57s10-2.7,18.92-6.14l1.58-.63-5.82.07c-7.21,2.21-13.47,3.71-13.47,3.71s5.4-1.5,11.78-3.7l-6,0h-1.46c-16.57,3.19-16.88,8.63-15.82,10.82.53,1.1,2.81,1.72,4.95,1.4,18.72-2.81,36.92-11.09,40.17-12.62l-4.1.1C244.05,71.64,243.47,72,242.75,72.27Z"/><path d="M296.53,69.82l.13,0Z"/><path d="M299.44,69l1-.29Z"/><path d="M293.34,70.83h0l.07,0Z"/><path d="M302.25,68.17l2.07-.54Z"/><path d="M307.53,66.83a217.15,217.15,0,0,1,23.86-4.28A212.86,212.86,0,0,0,307.53,66.83Z"/><path d="M336,62l-.21,0,.21,0Z"/><path d="M331.45,62.54l2.1-.24Z"/><path d="M305.44,67.34l1.7-.42Z"/><path d="M157,65.73h.05c-1,.44-2.39,1-4.05,1.62A147.49,147.49,0,0,1,138.41,72c-2.76.74-5.61,1.39-8.33,2-1.34.29-2.68.53-3.94.75s-2.46.44-3.58.6c-2.23.35-4.12.58-5.45.73l-2.08.24,2-.32c1.3-.19,3.15-.49,5.31-.92,1.09-.2,2.25-.44,3.46-.72s2.5-.54,3.78-.89c2.6-.64,5.31-1.39,7.91-2.21a129.65,129.65,0,0,0,13.6-5.06c.65-.28,1.22-.54,1.76-.79-2.71-.25-5.62-.54-8.64-.88-1.76.67-3.59,1.34-5.49,2-2.61.88-5.31,1.68-7.9,2.37-1.28.37-2.56.67-3.78,1s-2.35.56-3.44.77c-2.15.47-4,.8-5.28,1l-2,.35,2-.43c1.26-.25,3-.64,5.1-1.18,1-.25,2.15-.56,3.3-.9s2.38-.67,3.59-1.07c2.45-.78,5-1.66,7.43-2.62,1.3-.5,2.56-1,3.79-1.54-1.94-.23-3.9-.47-5.86-.73l-2.32-.31h0c-.91.3-1.81.6-2.71.86-1.25.4-2.5.74-3.71,1s-2.32.62-3.41.84l-2.94.64-2.33.41-2,.35,2-.42,2.25-.49,2.82-.75c1-.25,2.12-.59,3.26-.94s2.32-.73,3.5-1.16c.55-.19,1.09-.41,1.64-.61-6.8-1-13.28-2.08-18.37-3.09l-4-.82-.09,0c2.22,4.59,4.72,12.83-.3,20.91,0,0,33.68-2.52,56.81-13.48l-7.33-.57Z"/><path d="M334,62.25l.78-.08Z"/><path d="M119,26.93l.33.13,23.38-1.45c-5-1.7-10.82-3.55-16.23-5a13,13,0,0,0-7.84.48l-.12,0C114.9,22.71,115.14,25.55,119,26.93Z"/><path d="M66.85,56.11c-.84.11-1.77.22-2.79.29-.47.05-.94.07-1.48.09-.35.19-.74.4-1.18.61l-2.8,1.32c-1,.48-2.22,1-3.45,1.48s-2.6,1-4,1.54c-2.81,1.05-5.89,2.08-9,3.06-6.29,2-12.84,3.65-17.83,4.83s-8.4,1.85-8.4,1.85,3.33-.78,8.15-2.1,11.13-3.22,17.1-5.34c3-1.07,5.89-2.17,8.5-3.27,1.28-.57,2.57-1.09,3.69-1.63s2.22-1,3.17-1.53l1.8-1a27.9,27.9,0,0,1-5.07-.94c-.48-.14-.94-.29-1.4-.46l-1.52.73c-.74.37-1.63.72-2.52,1.11S46,57.57,44.93,58c-2,.79-4.28,1.58-6.56,2.34-4.56,1.51-9.36,2.8-13,3.71s-6.16,1.42-6.16,1.42,2.42-.61,5.89-1.66,8-2.54,12.24-4.21c2.12-.84,4.19-1.7,6-2.56.92-.43,1.82-.83,2.61-1.25s1.6-.78,2.24-1.17c.45-.24.82-.46,1.21-.68a15.39,15.39,0,0,1-2.54-1.57c-.21-.16-.42-.33-.62-.51l-1.12.38c-2,.67-4.22,1.33-6.46,2-4.47,1.26-9.12,2.33-12.65,3s-5.94,1.13-5.94,1.13,2.34-.5,5.71-1.38,7.78-2.15,12-3.58c2.08-.71,4.13-1.45,6-2.19l1.34-.55L45,50.53l-.18-.26a11.77,11.77,0,0,1-1.44-2.16l0,0c-2.63.52-6.27,1.2-10,1.75-3.53.54-7.09,1-9.77,1.32s-4.49.47-4.49.47,1.77-.25,4.37-.68,6-1.07,9.43-1.77c3.81-.77,7.44-1.65,9.93-2.29a12.3,12.3,0,0,1-.66-2.5l-21.64-.5L42,43.17a11,11,0,0,1,.19-2.62c-2.49-.61-5.94-1.4-9.53-2.08-3.4-.67-6.86-1.27-9.49-1.68s-4.4-.64-4.4-.64,1.82.14,4.51.43,6.27.72,9.82,1.23,6.83,1.06,9.41,1.53c0-.11.06-.23.11-.34a11,11,0,0,1,.9-1.86l-2.13-.85c-1.87-.74-3.95-1.48-6.06-2.19-4.22-1.43-8.66-2.71-12-3.6s-5.75-1.41-5.75-1.41,2.43.41,6,1.16,8.23,1.82,12.74,3.07c2.26.63,4.49,1.28,6.53,2,.58.18,1.1.37,1.65.55a15.51,15.51,0,0,1,1-1.19c.35-.32.83-.75,1.36-1.16l-1.06-.59c-.67-.38-1.48-.75-2.3-1.16s-1.73-.82-2.66-1.25c-1.88-.85-4-1.71-6.13-2.55-4.29-1.67-8.87-3.16-12.36-4.22S16.41,22,16.41,22s2.53.52,6.2,1.44,8.49,2.22,13.11,3.73c2.31.75,4.58,1.54,6.65,2.33,1,.4,2,.77,2.94,1.17s1.8.73,2.56,1.1l1,.44a18.63,18.63,0,0,1,2.26-1,24.13,24.13,0,0,1,2.54-.79c-.93-.53-2.25-1.2-3.86-2-.87-.44-1.92-.87-3-1.35s-2.24-1-3.44-1.45-2.51-1-3.81-1.48-2.7-1-4.06-1.46c-5.49-1.91-11.3-3.6-15.73-4.79S12.23,16,12.23,16s3.16.58,7.75,1.62,10.64,2.54,16.45,4.28c1.43.45,2.91.87,4.29,1.34s2.79.9,4.07,1.37,2.57.9,3.71,1.36,2.28.86,3.24,1.29c2,.83,3.57,1.55,4.63,2.09l.8.39,1.06-.12a37.17,37.17,0,0,1,8.68.22C59.88,26.58,29.54,13.21,0,11.48c0,0,25.6,31.5,0,66.59,1.53-.26,50.3-8.67,71.9-22.89l-.78.19C70,55.59,68.57,55.88,66.85,56.11Z"/><path d="M47.86,32.75q-.28.18-.57.39Q47.58,32.93,47.86,32.75Z"/><path d="M154.82,65.54l.3,0Z"/><path d="M44.43,35.85c-.18.22-.34.45-.5.68C44.09,36.3,44.25,36.07,44.43,35.85Z"/><path d="M206,19.57c-3.71-1.19-6.18-1.88-6.18-1.88s2.83.68,7,1.86c4.19-.09,8.58-.16,13.06-.2-2.34-.83-4.58-1.6-6.54-2.24-4.55-1.49-7.72-2.39-7.72-2.39s3.27.79,8,2.14c2.42.69,5.24,1.53,8.2,2.47,2.82,0,5.68,0,8.53,0h3.09c-5-2-10.21-3.83-14.28-5.16-4.55-1.49-7.72-2.38-7.72-2.38s3.27.79,8,2.14,10.95,3.26,16.89,5.4h0c3.42,0,6.81.05,10.11.1-1.73-.79-3.52-1.58-5.38-2.35-5.6-2.3-11.54-4.39-16.1-5.88s-7.72-2.38-7.72-2.38,3.27.79,8,2.14,11,3.25,16.89,5.39c2.78,1,5.51,2.08,8,3.14,3,.05,5.9.11,8.69.19l-.58-.32c-1-.57-2.24-1.12-3.43-1.72-2.44-1.18-5.16-2.37-7.94-3.53-5.6-2.29-11.54-4.38-16.1-5.87s-7.72-2.38-7.72-2.38,3.27.79,8,2.13,10.95,3.26,16.89,5.4c3,1.08,5.85,2.2,8.48,3.32,1.28.58,2.58,1.1,3.72,1.66s2.05,1,3,1.43q3.57.11,6.77.22l.4,0c-.28-.2-.59-.41-.95-.62L267.09,18c-.87-.51-1.89-1-2.93-1.61s-2.24-1.12-3.43-1.72c-2.44-1.18-5.16-2.37-7.94-3.53-5.6-2.29-11.54-4.39-16.09-5.88S229,2.87,229,2.87s3.27.79,8,2.14,11,3.26,16.89,5.4c2.95,1.08,5.85,2.2,8.48,3.32,1.28.57,2.58,1.1,3.72,1.65s2.25,1.06,3.22,1.56l2.6,1.39c.78.41,1.37.82,1.9,1.13l1.2.73c3.16.13,5.87.25,7.95.36l.73.05C280.33,18.63,259.72,7,228,0c0,0-12.17,11.53-39.45,20.09l2.22-.09C195.26,19.84,200.45,19.69,206,19.57Z"/><path d="M448.5,49.85a5.29,5.29,0,0,0-3.64-.19c-9.19,2.65-22,3.14-27,3.22l-1.29.36c.42-.12.87-.26,1.29-.36h-2.13a51.36,51.36,0,0,1,8-3.51c-.63.15-1.38.37-2.13.61,1.77-.59,3.15-.93,3.15-.93a109.36,109.36,0,0,1,17.49-4.12c1.8-.28,2.46-1.42,1.23-2.14C433.36,37,388,30.1,388,30.1a800.15,800.15,0,0,0-100.51-9.3h-.21a.55.55,0,0,0-.18,0c-.21,0-.42,0-.63,0l-2.67-.08-5-.12c-5.56-.15-11.09-.23-16.53-.26-4.62,0-9.22,0-13.76,0-1.83,0-3.66,0-5.47,0s-3.57,0-5.34.06-3.64.05-5.41.1c-3.37.07-6.67.15-9.95.24a5.15,5.15,0,0,0-.57,0l-5.17.16c-1.71.05-3.42.11-5.1.19q-5.1.19-10,.42l-4.9.25c-1.62.07-3.24.17-4.83.26-3.19.17-6.31.35-9.38.55L179,22.8h0c-.37,0-.73,0-1.09.07-1.5.09-3,.2-4.47.31-10.34.72-19.92,1.54-28.67,2.37-.57.06-1.14.12-1.71.16l0,0-3.61.35-4.23.43a4.75,4.75,0,0,0-.57.06L130.7,27l-2.16.23c-1.41.17-2.83.32-4.18.47-.9.09-1.8.2-2.64.31-3.73.43-7.15.84-10.28,1.24l-1.14.13C103.66,30.22,98.49,31,95,31.47a69.35,69.35,0,0,1-18.15.38c-1.47-.18-3-.41-4.42-.7h0l0,0h-.06a.54.54,0,0,0-.18,0l-.24,0c-.45-.08-1.14-.2-2-.31l-.63-.07-.87-.1c-.27,0-.55,0-.82-.07a5.6,5.6,0,0,0-.6,0l-.66-.05-.72,0C57.84,30.08,46.06,31.52,46.06,43c.57,16.72,25.18,12.09,26.38,11.86h0c.33-.06.69-.14,1-.19,12.38-2.23,25.18-.38,32.12,1,.3,0,.57.11.84.17.12,0,.21.05.33.06l.42.09.4.08.42.11.36.09.66.15.72.18.63.17.39.11a.3.3,0,0,1,.12,0c1.14.29,2.28.58,3.46.85l1.74.42c.57.15,1.17.29,1.77.41.93.21,1.86.43,2.8.62,3.36.74,6.79,1.44,10.3,2.07l3.52.62c10,1.76,20.55,3.19,31.45,4.37l-.06,0,2.47.26.42,0c14.84,1.54,30.26,2.59,45.7,3.3,3.55.15,7.12.29,10.67.41s7.12.23,10.63.32l1.9,0c2.91.06,5.79.12,8.68.16,3.54.06,7.06.11,10.54.14,12.11.09,23.89,0,35-.15,1.23-.44,2.64-.93,4.18-1.44,1.74-.61,3.72-1.17,5.79-1.8s4.33-1.22,6.73-1.79,4.84-1.16,7.4-1.71,5.19-1,7.87-1.49,5.35-.92,8.05-1.27l4-.52c.69-.06,1.35-.14,2-.21l1.05-.09.57-.05h.93a8.88,8.88,0,0,1,1.72.19,7.38,7.38,0,0,1,.78.19l.45.15,1.62.5c1.08.37,2,.63,3.19,1.06,1.83.72,2.46,1.86,2,2.82a3.06,3.06,0,0,1-1.44,1.25c-.54.26-.84.39-1.3.57-1.65.66-3.12,1.27-4.5,1.77-.27.09-.51.2-.78.29,20.49-1,33.29-2,33.29-2q3.47-.28,6.76-.6c-6.31-2.27-11.57-5.15-14.69-9-4.09-5.1-4.51-11.44-.22-16.57-2.58,5.71-1,12.46,5.35,17.41a47.19,47.19,0,0,0,15.24,7.25c.24.08.57.15,1,.24,37.65-4.16,53.84-11.14,59.61-14C449.67,51.4,449.67,50.45,448.5,49.85ZM333.77,29.71c1.65,0,3.44.67,3.5,1.5s-1.65,1.61-3.29,1.63-2.5-.7-2.56-1.53S332.13,29.74,333.77,29.71Zm0,7.82c1.64,0,3.48.8,3.53,1.63s-1.68,1.58-3.32,1.61-2.85-.67-2.9-1.51S332.13,37.56,333.77,37.53Zm-9.08-5.67c0,.42-.8.78-1.62.79s-1.44-.32-1.47-.74.55-.8,1.37-.82S324.66,31.44,324.69,31.86Zm-.43,8.35c0,.42-.37.68-1.2.7s-1.79-.23-1.82-.65.9-.86,1.73-.87S324.23,39.79,324.26,40.21Zm-2.79-15c.83,0,1.6.38,1.63.8s-.7.81-1.52.82-1.74-.34-1.77-.76S320.65,25.17,321.47,25.16Zm-3.9,8.31c2.11,0,4.41.86,4.48,1.94s-2.09,2.37-4.2,2.4-3.18-1.2-3.25-2.28S315.45,33.51,317.57,33.47Zm-6.76-7.88c1.64,0,3.27.44,3.32,1.27s-1.48,1.71-3.13,1.73-3.26-.79-3.32-1.62S309.17,25.62,310.81,25.59Zm.26,6.27c0,.42-.79.68-1.61.69s-1.71-.22-1.73-.63.81-.9,1.63-.92S311.05,31.44,311.07,31.86Zm-7,5.54c0,.42-.48.82-1.31.84s-1.73-.36-1.76-.78.83-.87,1.65-.88S304,37,304,37.4ZM298.72,29c2.11,0,3.4.73,3.47,1.8s-1.13,1.63-3.25,1.67S295.6,32,295.53,31,296.6,29.08,298.72,29Zm-4.5-4.95c.82,0,1.52.18,1.54.6s-.62.86-1.45.87-1.24-.41-1.27-.83S293.39,24.1,294.22,24.09Zm.31,10.44c1.64,0,2.64.83,2.69,1.67s-.85,1.37-2.49,1.4-2.64-.48-2.7-1.32S292.89,34.55,294.53,34.53Zm-10.44-9.22c1.64,0,3.22.54,3.27,1.38s-1.43,1.63-3.07,1.66-2.84-.73-2.89-1.56S282.45,25.34,284.09,25.31Zm2.1,7.42c0,.42-.37.69-1.2.7s-1.31-.24-1.33-.66.41-.77,1.24-.78S286.16,32.31,286.19,32.73Zm-3.54,3.42c.83,0,1.54.4,1.56.82s-.64.68-1.46.7-1.65-.22-1.67-.64S281.83,36.16,282.65,36.15Zm-3.86-13.89c.82,0,1.72.26,1.74.68s-.83.66-1.66.68-1.69-.2-1.72-.62S278,22.27,278.79,22.26Zm-6.17,4.22c.82,0,1.53.25,1.56.67s-.64.86-1.46.87-1.49-.4-1.51-.82S271.8,26.5,272.62,26.48Zm2.27,4.58c2.11,0,3.39.65,3.46,1.73s-1.12,1.81-3.23,1.85-4.56-.65-4.63-1.72S272.77,31.09,274.89,31.06Zm-6.8-9.31c.82,0,1.81.4,1.84.82s-.91.9-1.73.91-1.65-.43-1.67-.85S267.26,21.77,268.09,21.75Zm-1.94,12.48c0,.42-.69.67-1.52.68s-1.75-.2-1.78-.62.86-.9,1.69-.91S266.12,33.81,266.15,34.23ZM261.33,22.9c2.11,0,3.95,1.19,4,2.26s-1.63,2-3.75,2-4.39-.82-4.46-1.9S259.21,22.94,261.33,22.9Zm-1.08,7c0,.42-.47.7-1.29.72s-1.7-.25-1.72-.67.81-.64,1.63-.66S260.23,29.44,260.25,29.86Zm-2.34,4.8c0,.84-1.73,1.46-3.37,1.49s-2.44-.55-2.49-1.39.66-1.42,2.3-1.45S257.86,33.83,257.91,34.66Zm-5.36-10.59c.82,0,1.61.2,1.64.62s-.73.75-1.55.76-1.5-.29-1.53-.71S251.72,24.08,252.55,24.07Zm-2,5.34c.83,0,1.61.45,1.64.87s-.7.88-1.52.89-1.82-.42-1.84-.84S249.77,29.43,250.59,29.41ZM249,26.68c.05.84-1.58,1.64-3.22,1.67s-3.38-.72-3.44-1.55,1.6-1.49,3.24-1.52S248.91,25.85,249,26.68Zm-5.05,8.78c0,.42-.38.8-1.2.81s-1.66-.34-1.68-.76.75-.91,1.57-.92S243.89,35,243.92,35.46ZM242.1,22.08c.83,0,1.77.44,1.79.86s-.86.65-1.69.67-1.26-.2-1.29-.62S241.28,22.09,242.1,22.08ZM237.69,30c2.11,0,3.67.8,3.74,1.88S240.06,34,238,34.05s-3.56-1-3.63-2.1S235.57,30,237.69,30Zm-5.84-6.15c1.64,0,3.19.54,3.24,1.38s-1.4,1.62-3,1.65-2.91-.72-3-1.55S230.21,23.83,231.85,23.8Zm-2.92,5.79c.82,0,1.23.27,1.26.69s-.35.75-1.17.77-1.24-.31-1.27-.73S228.1,29.61,228.93,29.59Zm1.12,5.25c0,.83-1.28,1.38-2.92,1.4s-3.37-.46-3.43-1.29,1.6-1.63,3.24-1.65S230,34,230.05,34.84Zm-6-11.61c.83,0,1.32.28,1.35.7s-.43.77-1.25.78-1.78-.31-1.81-.73S223.2,23.25,224,23.23Zm-3.91,4.15c2.12,0,4.23.8,4.3,1.87s-1.95,1.64-4.07,1.68-4.07-.47-4.14-1.54S218,27.41,220.11,27.38Zm-4.34,4.7c.82,0,1.23.32,1.26.74s-.35.67-1.17.68-1.34-.22-1.36-.63S214.94,32.09,215.77,32.08ZM213,25.27c.83,0,1.26.28,1.29.7s-.38.67-1.2.68-1.8-.21-1.82-.63S212.22,25.28,213,25.27Zm-4.53,3.35c1.64,0,2.86.88,2.91,1.71s-1.07,1.35-2.71,1.37-3.41-.43-3.46-1.27S206.87,28.65,208.51,28.62Zm-5.12-4.78c.82,0,1.44.43,1.47.85s-.55.71-1.37.72-1.3-.26-1.32-.68S202.56,23.85,203.39,23.84Zm0,10.3c.82,0,1.37.44,1.4.85s-.46.92-1.29.93-1.56-.46-1.59-.88S202.56,34.15,203.39,34.14ZM201,32.24c.07,1.07-1.33,2.18-3.44,2.22s-3.54-1-3.61-2.1,1.23-1.87,3.35-1.9S200.91,31.17,201,32.24Zm-4.52-6.78c1.64,0,2.43.41,2.48,1.25s-.66,1.5-2.3,1.52-3.59-.59-3.65-1.42S194.82,25.49,196.46,25.46Zm-7.38,5c.82,0,1.77.19,1.8.61s-.89.63-1.72.65-1.66-.17-1.69-.59S188.26,30.43,189.08,30.42Zm-.46,3.8c.06.83-.74,1.46-2.38,1.49s-2.5-.58-2.55-1.41.71-1.73,2.35-1.76S188.57,33.38,188.62,34.22Zm-5.49-8.28c.82,0,1.69.36,1.72.78s-.79.86-1.62.88-1.42-.41-1.45-.83S182.3,26,183.13,25.94Zm-6.08,1.7c2.11,0,3.6,1.11,3.67,2.18s-1.28,2.05-3.39,2.08S172.81,31,172.74,30,174.94,27.68,177.05,27.64Zm1.38,7.06c0,.41-.76.67-1.58.68s-1.41-.22-1.44-.63.52-.75,1.35-.76S178.4,34.28,178.43,34.7Zm-15.07-6.64c.83,0,1.46.36,1.48.78s-.55.76-1.38.77-1.59-.3-1.61-.72S162.54,28.07,163.36,28.06Zm-1.23,4c2.11,0,3.41,1.07,3.48,2.14s-1.1,1.93-3.22,2-3.76-.77-3.83-1.84S160,32.09,162.13,32.05Zm-10.9-4.19c1.64,0,3.47.8,3.53,1.63s-1.7,1.34-3.34,1.36-2.91-.42-3-1.25S149.59,27.89,151.23,27.86Zm.62,7.13c0,.42-.77.69-1.59.71S149,35.46,149,35s.36-.71,1.19-.73S151.82,34.57,151.85,35Zm-9.78-3.78c2.11,0,3.92.6,4,1.67s-1.65,1.79-3.77,1.83-3.49-.63-3.56-1.71S140,31.25,142.07,31.21Zm-5.83-2.5c.82,0,1.59.16,1.61.58s-.71.7-1.53.71-1.48-.24-1.51-.66S135.41,28.72,136.24,28.71Zm-3.58,3.77c.82,0,1.24.18,1.27.6s-.36.7-1.18.72-1.33-.26-1.36-.67S131.84,32.49,132.66,32.48Zm-4.32,2.34c1.65,0,3,.62,3.1,1.45s-1.28,1.25-2.92,1.28S126,37.2,126,36.37,126.7,34.85,128.34,34.82Zm-11-4.31c2.12,0,3.32,1,3.39,2s-1,2.27-3.11,2.31-4.38-1.11-4.45-2.19S115.2,30.55,117.31,30.51Zm-7.68,3.31c.82,0,1.51.46,1.54.88s-.61.82-1.43.84-1.56-.37-1.59-.79S108.8,33.83,109.63,33.82Zm-6.54,4c.82,0,1.31.24,1.34.66s-.42.9-1.24.91-1.29-.45-1.31-.87S102.26,37.82,103.09,37.81ZM93.7,35.25c1.64,0,2.67.73,2.73,1.56s-.87,1.81-2.51,1.84-3.18-.91-3.23-1.74S92.06,35.28,93.7,35.25Zm-10.42-.2c.82,0,1.59.17,1.62.59s-.71.69-1.54.7-1.48-.23-1.51-.65S82.45,35.07,83.28,35.05Zm-6.71,3.64c.82,0,1.64.28,1.67.7s-.76.68-1.58.69-1.41-.22-1.44-.64S75.74,38.7,76.57,38.69ZM72.13,34c1.64,0,3,.62,3.09,1.45s-1.28,1.25-2.92,1.28-2.51-.35-2.56-1.19S70.48,34.05,72.13,34Zm255.43,9.36c-3.71-.17-8.17-.51-13.35-.66L296.88,42l-20.52-.6c-7.28-.23-15-.3-22.93-.47l-24.54-.29-25.35-.07c-8.49.07-17,.08-25.35.2l-24.55.35c-8,.11-15.67.27-23,.45s-14.19.39-20.56.54c-12.74.34-23.35.69-30.77,1l-11.66.43L79.3,42.8c7.4-.42,18-1,30.7-1.55s27.58-1.08,43.52-1.5c8-.25,16.21-.4,24.59-.55s16.89-.19,25.4-.29l25.42,0c8.38.08,16.64.08,24.62.3s15.69.34,23,.63,14.21.56,20.56.91l17.32,1.07c5.15.32,9.59.82,13.26,1.12C335,43.56,339.2,44,339.2,44S335,43.8,327.56,43.38Zm13.19-6.29c-.83,0-1.34-.42-1.37-.83s.44-.71,1.27-.72,1.57.25,1.59.67S341.57,37.08,340.75,37.09Zm0-7.11c-.83,0-1.78-.41-1.81-.83s.88-.83,1.7-.85,1.69.37,1.72.79S341.57,30,340.75,30ZM364.8,65.54c-5.43-2.53-10-5.11-13.55-8.42a14.91,14.91,0,0,1-5.12-10.57c-.17-6.25,5.16-13.23,14.25-17.48-6.72,5.44-10.53,12-10.1,18.41C350.74,54.39,357.47,60,364.8,65.54Zm39.33-26.7c4.52,0,8.18,1.86,8.18,4.16s-3.66,4.15-8.18,4.15S396,45.29,396,43,399.62,38.84,404.13,38.84Zm40.93,13a23.62,23.62,0,0,1-2.24,1.1c-.92.39-1.89.89-3.12,1.31s-2.48.94-3.92,1.4-2.92,1-4.56,1.41-3.28.94-5.05,1.35-3.52.86-5.34,1.26c-3.61.8-7.29,1.51-10.78,2.12s-6.8,1.09-9.63,1.5c-5.68.79-9.56,1.13-9.56,1.13l9.19-1.73c2.76-.5,5.93-1.15,9.34-1.82s7-1.41,10.57-2.23,7.09-1.62,10.35-2.45c1.63-.41,3.16-.85,4.65-1.24s2.78-.84,4-1.21,2.3-.8,3.31-1.13a25.41,25.41,0,0,0,2.46-.93l2.11-.86Z"/><path d="M244.61,71.35l-3.48.07h0l3.48-.08Z"/><path d="M234.38,71.54h0l1.24,0Z"/><path d="M237.13,71.5l-1.51,0,1.51,0Z"/><path d="M228.56,71.61h0Z"/><path d="M155.12,65.56l1.89.17Z"/><path d="M152.89,65.36h0l1.93.18Z"/><path d="M144.25,64.48l-2.73-.31h0l2.73.31Z"/><path d="M131.67,62.91h0l1.67.22Z"/><path d="M270.37,20l4.62.18h0L270.37,20Z"/><path d="M258.92,19.66l4.28.12h0l-4.29-.12Z"/><path d="M246.51,19.41c1.26,0,2.49,0,3.72.06h0c-1.22,0-2.46,0-3.71-.06Z"/><path d="M233.49,19.3h0Z"/><path d="M219.91,19.35l2,0h0l-2,0Z"/><path d="M206,19.57l.86,0h0l-.85,0Z"/><path d="M53.64,30.43a27.93,27.93,0,0,1,3.55-.65h0a27.93,27.93,0,0,0-3.55.65Z"/><path d="M48.84,32.23h0l-1,.53C48.18,32.57,48.51,32.4,48.84,32.23Z"/><path d="M46.85,33.47c.15-.12.29-.23.44-.33-.15.1-.29.21-.44.33Z"/><path d="M44.45,35.82h0l0,0Z"/><path d="M43.54,37.14c.12-.2.26-.41.39-.61-.14.2-.27.41-.39.61Z"/><path d="M58.35,56.34h0c.81.08,1.61.13,2.38.15C60,56.48,59.16,56.42,58.35,56.34Z"/><path d="M62.44,56.5h0Z"/><path d="M51.87,55h0a22.47,22.47,0,0,1-2.43-1h0A19.73,19.73,0,0,0,51.87,55Z"/><path d="M45.7,51.29c.19.19.38.37.58.54h0C46.1,51.64,45.9,51.48,45.7,51.29Z"/><polygon points="45.09 50.65 45.09 50.65 45.25 50.82 45.09 50.65"/><path d="M42.25,40.56a10.84,10.84,0,0,1,.3-1.22h0a10.27,10.27,0,0,0-.32,1.21Z"/><path d="M43.34,48.07a12.75,12.75,0,0,1-.49-1.21H42.8a12.93,12.93,0,0,0,.54,1.2Z"/><path d="M42,43.17h0c0,.14,0,.27,0,.41C42,43.44,42.05,43.31,42,43.17Z"/><path d="M42.18,44.38c0-.27-.12-.53-.15-.8,0,.26.07.53.11.79Z"/><path d="M333.55,62.3l.43,0Z"/><path d="M331.39,62.55h0Z"/><path d="M307.14,66.92l.39-.09Z"/><path d="M296.66,69.78c.93-.29,1.86-.56,2.78-.82C298.52,69.22,297.59,69.49,296.66,69.78Z"/><path d="M293.41,70.81q1.56-.51,3.12-1Q295,70.3,293.41,70.81Z"/><path d="M304.32,67.63l1.12-.29Z"/><path d="M300.46,68.67l1.79-.5Z"/><path d="M347.11,65.92c1.44-.7,1.21-1.9-.48-2.44l-4.82-1.54a5.73,5.73,0,0,0-2.05-.22c-.84.06-2.12.16-3.78.32l-1.5.28c-2.28.44-5,1-7.74,1.6S321,65.26,318.1,66c-5.78,1.53-11.37,3.22-15.41,4.61l-.11,0,2.08-.05c1.78-.48,3.76-1,5.84-1.54,2.7-.69,5.6-1.41,8.53-2.09,5.84-1.39,11.8-2.63,16.3-3.5,3.62-.71,6.26-1.15,7.17-1.3l1.84.59c-1.24.24-3.14.64-5.45,1.17-2.06.49-4.46,1.06-7,1.74s-5.16,1.43-7.78,2.2-5.1,1.6-7.44,2.39l2.62-.08c1.82-.54,3.71-1.08,5.61-1.61,5.26-1.48,10.65-2.83,14.73-3.8,3.2-.76,5.56-1.27,6.45-1.45l.53.17a2.49,2.49,0,0,1,1,.58c-.93.21-2.86.67-5.33,1.35-3.51,1-8,2.35-12.41,3.86l-1.64.58,3.21-.13c4.2-1.34,8.45-2.59,11.71-3.5,2.09-.59,3.76-1,4.75-1.29a1.42,1.42,0,0,1-.87,1l-7.15,3.45-8.44.36-.7.22c-4.46,1.4-8.8,2.91-12,4.06l-5.39,1.92,1.36-.61c.87-.39,2.07-1,3.61-1.59,2.65-1.14,6.19-2.53,10-3.87l-9,.32c-3.21.95-6.2,1.88-8.65,2.66-3.84,1.22-6.35,2.07-6.35,2.07l1.62-.65c1-.42,2.5-1,4.34-1.71s4-1.48,6.42-2.29q-5.82.18-12,.34l-1.5.41c-4.28,1.16-7.1,2-7.1,2l1.81-.66c1.13-.41,2.72-1,4.71-1.68q-4.53.1-9.24.18-2.55.84-5.12,1.78c-2.79,1-2.28,3.23.91,3.9a91.39,91.39,0,0,0,28.54,1.09,37.22,37.22,0,0,0,11.92-3.24Z"/><path d="M334.76,62.17l1-.11Z"/><path d="M404.13,45.91c3.17,0,5.73-1.31,5.73-2.91s-2.56-2.91-5.73-2.91c-.34,0-.68,0-1,0,1.51.2,2.64.87,2.64,1.69,0,1-1.57,1.79-3.51,1.79s-3.32-.73-3.46-1.65a1.74,1.74,0,0,0-.39,1C398.4,44.6,401,45.91,404.13,45.91Z"/><path d="M234.2,463.49c2.06,1.38,4.34,2.81,6.62,4.06.39-.33.86-.68,1.36-1.06a34.69,34.69,0,0,1-5.55-2.15A12.65,12.65,0,0,0,234.2,463.49Z"/><path d="M247.3,470.5c.35.11.69.22,1,.31a24.35,24.35,0,0,0,8.09,1.17c3.88-.2,6.62-2.25,6.45-4.48h-9.32c-2,1-3.86,1.86-5.48,2.64Z"/><path d="M244.61,456.89a42.66,42.66,0,0,0,15.85,0v-2.23H244.61Z"/><path d="M245.54,454.1h14c1,0,1.72-.45,1.72-1v-.47H243.82v.47C243.82,453.65,244.59,454.1,245.54,454.1Z"/><path d="M243.82,450.1V452h17.43V450.1c0-1.72-2.33-3.1-5.17-3.1H249C246.13,447,243.82,448.38,243.82,450.1Z"/><path d="M245.34,442.41h2V444h10.39v-1.56h2c.42,0,.73-.24.59-.48a2.5,2.5,0,0,0-1.95-.95c-1.64-.14-3.27-.21-4.93-.23v-.16c0-.3-.41-.54-.91-.54s-.9.24-.9.54v.16c-1.66,0-3.31.09-4.95.23a2.49,2.49,0,0,0-1.93.95C244.61,442.17,244.92,442.41,245.34,442.41Zm3.69.5,3.5,0,3.51,0,1.59,0L256,443l-3.51,0-3.5,0-1.6,0Zm0,.38,3.5,0,3.51,0,1.59,0-1.59,0-3.51,0-3.5,0-1.6,0Zm0,.39,3.5,0,3.51,0,1.59,0-1.59,0-3.51,0-3.5,0-1.6,0Z"/><path d="M257.73,444.9H247.34v1.55h10.39ZM256,446.05l-3.51,0-3.5,0-1.6,0,1.6,0,3.5,0,3.51,0,1.59,0Zm0-.39-3.51,0-3.5,0-1.6,0,1.6,0,3.5,0,3.51,0,1.59,0Zm0-.39-3.51,0-3.5,0-1.6,0,1.6,0,3.5,0,3.51,0,1.59,0Z"/><path d="M265,447.58H265l-.86-1c-1.26-1.49-3.79-2.42-6.58-2.42H234.84v-.34a.57.57,0,0,0-.33-.47c-.71-.43-1.92-.13-1.92.47v4.82c0,.32.34.6.85.7l5.42,1.05c1.38.36,2.93-.24,2.92-1.15,0-.5-.56-1-1.33-1.16l-3.36-.89a4.3,4.3,0,0,1-1.23-.52,1.9,1.9,0,0,1-1-1.54v-.41h22.68c2.44,0,4.65.81,5.76,2.11l.73.86a1.33,1.33,0,0,0-1,.88l-1.49,8.71a43.93,43.93,0,0,1-17.91,0l-1.23-7.18a2.53,2.53,0,0,1-1,.66,4.74,4.74,0,0,1-2.57.19l1.23,7.24a1.4,1.4,0,0,0,1.15.91h.07c1,.24,2,.45,3.05.62l-.29.22c-4.52,3.34-9.52-.29-9.52-.29-.9-.59-1.72-1.1-2.48-1.53a21.05,21.05,0,0,0-10.25-2.46,3.86,3.86,0,0,1-1.7-.36,1.87,1.87,0,0,1-.92-.87l-2.19-5.37a.9.9,0,0,0-.82-.39c-.45,0-.83.23-.83.51v15.13c0,.28.38.5.83.5a.87.87,0,0,0,.82-.38l2.19-5.37a1.77,1.77,0,0,1,.92-.86,3.86,3.86,0,0,1,1.7-.37,12.72,12.72,0,0,1,7.35,2.08c1,.78,2.35,1.7,3.79,2.7a13.87,13.87,0,0,1,4.38,1.24,33.81,33.81,0,0,0,5.59,2.14c1.24-.94,2.66-2,4.21-3.14a7.38,7.38,0,0,1,1.59-1,6.88,6.88,0,0,1,2.29-.51,7.35,7.35,0,0,1,4.53,1,2.28,2.28,0,0,1,1.09,2.85,3.22,3.22,0,0,1-1.19,1.29c-.21.12-.4.23-.58.31h7.93a.94.94,0,0,0-.11-.32,2.92,2.92,0,0,1-.24-1.11l-.72-5.64,0-.24c.75-.13,1.49-.29,2.23-.47h.07a1.37,1.37,0,0,0,1.14-.91l1.6-9.39a.25.25,0,0,0,0-.12C266.67,448.12,266,447.63,265,447.58Zm-25.44.87c.68,0,1.22.33,1.22.73s-.54.73-1.22.73-1.21-.33-1.21-.73S238.9,448.45,239.57,448.45ZM243.26,463c-.68,0-1.22-.33-1.22-.73s.54-.73,1.22-.73,1.21.33,1.21.73S243.93,463,243.26,463Zm16.34,0c-.68,0-1.22-.33-1.22-.73s.54-.73,1.22-.73,1.21.33,1.21.73S260.27,463,259.6,463Z"/><path d="M233.52,478.43a8.34,8.34,0,0,1-3.36-1.16,4,4,0,0,1-2-2,.86.86,0,0,0-.42-.55,2.74,2.74,0,0,0-2.53.1l-2.33,1.4c-.74.44-.82,1.12-.17,1.51a2.26,2.26,0,0,0,.92.25,8.4,8.4,0,0,1,3.37,1.17,4,4,0,0,1,2,2,.88.88,0,0,0,.43.55,2.74,2.74,0,0,0,2.53-.1l2.32-1.4c.75-.44.83-1.12.18-1.51A2.43,2.43,0,0,0,233.52,478.43Zm-4.1.26a1.76,1.76,0,0,1-1.64,0,.52.52,0,0,1,0-1,1.76,1.76,0,0,1,1.64,0A.52.52,0,0,1,229.42,478.69Z"/><path d="M244.77,469.51l-5.69,3a1,1,0,0,1-.89,0,.33.33,0,0,1-.18-.27.36.36,0,0,1,.16-.26l4.75-3.27h0c-.53-.27-1.07-.54-1.6-.83l-.26-.14-2.69,1.87-.19.11-8.81,6.08a4.81,4.81,0,0,0,1.39,1.16,7.88,7.88,0,0,0,2,.84l9.66-5h0l.07,0,4.44-2.32-.39-.15C245.94,470,245.36,469.78,244.77,469.51Z"/><path d="M184.46,466.62V513.1h29V466.62h-20v.57c-.08,5.53-.16,11.06-.24,16.25s-.49,10-.65,14.17-.56,7.61-.72,10-.4,3.81-.4,3.81-.12-1.38-.36-3.81-.44-5.87-.76-10c-.16-4.15-.52-9-.6-14.17s-.16-10.72-.28-16.25v-.57Z"/><path d="M214.08,514.13H183.92c-.67,0-1.2.14-1.2.31v3.49c0,1.71,5.38,3.1,12,3.1h8.52c6.64,0,12-1.39,12-3.1v-3.49C215.28,514.27,214.74,514.13,214.08,514.13Z"/><path d="M186.74,465.59h2.77c.08-5,.16-9.95.24-14.65,0-.94,0-1.86.08-2.77h-3.09c-2.24,0-4,.46-4,1v15.36C182.73,465.12,184.5,465.59,186.74,465.59Z"/><path d="M215.28,464.56V449.2c0-.57-1.81-1-4-1H193.16c0,.91.08,1.83.08,2.77.08,4.69.16,9.65.24,14.65h17.79C213.47,465.59,215.28,465.12,215.28,464.56Z"/><path d="M184.46,447.14h5.41c.12-3.75.36-7.25.48-10.37q.06-.74.12-1.44h-6Z"/><path d="M213.51,435.33h-21c0,.47,0,.95.08,1.44.16,3.12.4,6.62.53,10.37h20.39Z"/><path d="M186.74,434.3h3.77c.24-3.06.44-5.64.6-7.56.24-2.41.36-3.79.36-3.79s.16,1.38.4,3.79c.12,1.92.32,4.5.56,7.56h18.84c2.2,0,4-.46,4-1V425.1c0-1.15-1.81-2.21-4.77-3A48.42,48.42,0,0,0,199,420.9c-9,0-16.28,1.88-16.28,4.2v8.17C182.73,433.84,184.5,434.3,186.74,434.3Z"/><path d="M199,419.88a69.08,69.08,0,0,1,9.66.66,1,1,0,0,0,.36-.66l-1.23-48.35L221,369.17a21.86,21.86,0,0,0,4,.59,81.61,81.61,0,0,0,9.1.09c6.07-.24,12.22-1.08,12.22-2.22l0-.18c-.65-1.07-6.84-1.64-14.42-1.34-6.75.27-11.54,1.09-12.1,2l-12,2.13-1.34-52.87,12.29-2.2a20.07,20.07,0,0,0,3.64.54,75.78,75.78,0,0,0,8.37.09c5.58-.22,11.23-1,11.23-2l-.05-.16c-.59-1-6.29-1.51-13.25-1.24-6.21.25-10.61,1-11.13,1.88l-11.13,2-1.35-53,11.35-2a18.56,18.56,0,0,0,3.33.49,70,70,0,0,0,7.63.08c5.09-.2,10.25-.91,10.25-1.86l0-.16c-.54-.89-5.74-1.38-12.09-1.12-5.67.22-9.69.91-10.16,1.71L205,262.23l-1.35-53.08,10.42-1.87a15.62,15.62,0,0,0,3,.45,62.08,62.08,0,0,0,6.91.07c4.6-.18,9.26-.82,9.26-1.68l0-.14c-.49-.81-5.18-1.25-10.93-1-5.12.2-8.75.83-9.18,1.55l-9.46,1.69L202.27,155l9.48-1.7a15,15,0,0,0,2.69.4,58.67,58.67,0,0,0,6.17.07c4.12-.17,8.29-.74,8.29-1.51l0-.12c-.44-.73-4.64-1.12-9.77-.92-4.58.19-7.83.75-8.21,1.39l-8.63,1.54-1.35-53.28,8.54-1.53a13.31,13.31,0,0,0,2.37.35,48,48,0,0,0,5.44.06c3.62-.15,7.3-.65,7.3-1.33l0-.11c-.38-.64-4.08-1-8.61-.8-4,.16-6.89.65-7.23,1.22l-7.79,1.39h0c0-.27-.84-.48-1.87-.48s-1.88.21-1.89.48L189,419.88v0a1,1,0,0,0,.35.63A69.22,69.22,0,0,1,199,419.88Zm33.43-52.75c5.79-.23,9.66.18,9.84.48v0c0,.3-3,1-8.82,1.2a67.83,67.83,0,0,1-7.37-.06,5.9,5.9,0,0,1-2.47-.44C223.62,368,226.65,367.36,232.43,367.13Zm-3.23-53.8c5.32-.21,8.88.17,9.05.44v0c0,.28-2.79.9-8.12,1.11a61.9,61.9,0,0,1-6.77-.06c-1.47-.11-2.21-.27-2.28-.41S223.88,313.54,229.2,313.33ZM226,259.53c4.85-.19,8.1.15,8.25.41v0c0,.24-2.54.81-7.4,1a59,59,0,0,1-6.18,0,5,5,0,0,1-2.08-.37C218.57,260.29,221.11,259.72,226,259.53Zm-3.24-53.8c4.39-.17,7.33.14,7.47.37v0c0,.22-2.29.73-6.69.91a53.26,53.26,0,0,1-5.59-.05,4.59,4.59,0,0,1-1.87-.33C216.05,206.42,218.34,205.91,222.73,205.73Zm-3.23-53.79c3.92-.16,6.55.12,6.67.32v0c0,.2-2.06.66-6,.81a45.13,45.13,0,0,1-5,0,3.94,3.94,0,0,1-1.68-.3C213.52,152.55,215.58,152.09,219.5,151.94Zm-3.23-53.8c3.45-.14,5.77.11,5.88.29h0c0,.18-1.81.58-5.27.72a41.74,41.74,0,0,1-4.4,0,3.59,3.59,0,0,1-1.48-.26C211,98.68,212.81,98.28,216.27,98.14Z"/><path d="M242.18,466.49l.45.12.7-.49-.48-.13c-.14.09-.26.19-.38.28A3.15,3.15,0,0,0,242.18,466.49Z"/><path d="M252.41,467.5h1.13l.21-.11,1-.51H253.6Z"/><path d="M252.85,463.68a3,3,0,0,0-2.71,0,.87.87,0,0,0,0,1.63,2.89,2.89,0,0,0,2.71,0A.87.87,0,0,0,252.85,463.68Zm-1.66,1.61a1.82,1.82,0,0,1-.67-.21.63.63,0,0,1,0-1.17,2,2,0,0,1,.67-.22Zm.62,0v-1.6a2,2,0,0,1,.66.22.62.62,0,0,1,0,1.17A1.77,1.77,0,0,1,251.81,465.29Z"/><path d="M244.77,469.51l1.76-.91A.73.73,0,0,0,247,468a.68.68,0,0,0-.4-.57,1.84,1.84,0,0,0-1-.23,1.75,1.75,0,0,0-.95.28l-1.73,1.18c.62.31,1.24.6,1.85.86Z"/><path d="M243.49,462.15a1,1,0,0,0-.09-.26,1.73,1.73,0,0,0-.14-.19.93.93,0,0,0-.14.19.73.73,0,0,0-.09.26,2.89,2.89,0,0,0-.45.06.16.16,0,1,0,0,.16,2.89,2.89,0,0,0,.45.06.73.73,0,0,0,.09.26.93.93,0,0,0,.14.19,1.73,1.73,0,0,0,.14-.19.72.72,0,0,0,.08-.26,2.59,2.59,0,0,0,.45-.06,1.49,1.49,0,0,0,.31-.08,1.91,1.91,0,0,0-.31-.09Z"/><path d="M259.82,462.15a.72.72,0,0,0-.08-.26,1.73,1.73,0,0,0-.14-.19.93.93,0,0,0-.14.19.73.73,0,0,0-.09.26,2.89,2.89,0,0,0-.45.06.16.16,0,1,0,0,.16,2.89,2.89,0,0,0,.45.06.73.73,0,0,0,.09.26.93.93,0,0,0,.14.19,1.73,1.73,0,0,0,.14-.19.72.72,0,0,0,.08-.26,2.59,2.59,0,0,0,.45-.06,1.49,1.49,0,0,0,.31-.08,1.91,1.91,0,0,0-.31-.09Z"/><path d="M239.35,449.32a.72.72,0,0,0,.08.26,1.73,1.73,0,0,0,.14.19,1.24,1.24,0,0,0,.15-.19.66.66,0,0,0,.08-.26l.45-.05a2.41,2.41,0,0,0,.31-.09,1.76,1.76,0,0,0-.31-.08,2.73,2.73,0,0,0-.45-.06.72.72,0,0,0-.08-.26,1.24,1.24,0,0,0-.15-.19,1.73,1.73,0,0,0-.14.19.72.72,0,0,0-.08.26,2.73,2.73,0,0,0-.45.06l-.31.08a2.41,2.41,0,0,0,.31.09Z"/><path class="cls-1" d="M222.15,98.44c.6,42.94,2.11,77.86,3.4,101.95C227.77,242,230,291,231.28,322.66c.63,15.39.82,30.78.09,46.17a88.82,88.82,0,0,0,.15,12.78c1.51,16.83,8.54,24.13,12.71,37.21,2.27,7.1,4.33,17.7,2.45,31.95"/><path class="cls-2" d="M69,558.61a3.38,3.38,0,0,0-.55,0l.55,0Zm0,29.3a5.06,5.06,0,0,1-.55,0l.55,0Zm346.19-29.42h-.06l-.12,0H415l-.29,0h-.12l-.05,0h-.7l-.17,0H413l-.35,0h-2.31c-.17,0-.34,0-.53,0h-.52l-.53,0h0c-.35,0-.7,0-1.07-.07h0l-1-.08h0l-.53,0h0c-.86-.1-1.75-.18-2.64-.3h0c-.53-.07-1.05-.16-1.6-.22h0a2.93,2.93,0,0,0-.53-.11h0l-.52-.09h0l-.53-.1h0c-.53-.08-1.05-.19-1.59-.29h0c-.18,0-.37-.08-.53-.11l-.53-.12h0l-.53-.11-.53-.11-.53-.13-.54-.13-.53-.11h0l-.53-.13h0l-.53-.15-.53-.13-.54-.14-.54-.15-.53-.14-.55-.13-.53-.15h0l-.53-.17-.55-.14-.52-.16h0l-.55-.17h0l-.53-.16h0l-.56-.16h0c-.34-.09-.69-.21-1.06-.32h0l-.54-.15h0l-.55-.18h0l-.53-.17h0l-.56-.17-.53-.16h0l-.54-.17h0c-.37-.14-.74-.26-1.1-.38h0l-.55-.16h0l-1.09-.36h0c-1.08-.36-2.19-.73-3.3-1.08-.78-.27-1.6-.53-2.42-.8h0l-2.85-.94h0c-.72-.22-1.46-.46-2.19-.67h0l-.36-.12h0l-1.81-.56h0l-.36-.12h0l-.36-.11h0l-.35-.08h0l-.39-.14h0l-.35-.1h0l-.35-.09h0l-.37-.11h0l-.36-.1h0l-.34-.1-.35-.1h0l-.36-.09-.35-.11h0l-.34-.08-.36-.09h0l-.34-.1h0l-.34-.08h0l-.35-.09-.34-.08-.34-.08-.33-.08-.33-.09-.33-.07h0l-.33-.07-.32-.08-.34-.07-.32-.06-.3-.06-.33-.06-.3-.06-.32-.06-.29-.05-.3-.06-.3-.06-.29,0-.29,0a1.35,1.35,0,0,1-.28,0l-.29,0-.56.17-.59.21-.62.22-.64.2-.68.22-.65.22-.71.23-.72.23-.73.23-.75.24-.77.25-.8.25-.79.26-.82.24-.84.27-.84.27-.87.25-.85.27-.89.28-.9.26-.9.26-.92.28-.93.27-.93.27-.95.29-.95.25-.95.28-1,.26-1,.3-1,.24c-.32.1-.63.19-1,.27s-.65.16-1,.26l-1,.27c-.33.1-.67.17-1,.25l-1,.27h0c-.33.08-.66.15-1,.25s-.68.16-1,.25-.67.15-1,.23l-1,.26-1,.22c-.33.08-.68.16-1,.26l-1,.19h0c-.33.1-.65.17-1,.24s-.65.16-1,.21-.66.15-1,.2-.65.14-1,.23-.64.12-1,.18h0c-.33.06-.64.13-1,.18h0c-.32.08-.63.13-.95.19s-.63.11-.94.17h0c-.31.06-.63.11-.94.18h0l-.92.17h0c-.31,0-.61.09-.94.13h0c-.29.06-.58.1-.89.14s-.61.1-.89.14h0l-.89.12h0a4.43,4.43,0,0,1-.89.12h0l-.85.12h0c-.29,0-.56,0-.85.08h0c-.27.05-.56.06-.83.1h0c-.29,0-.56,0-.84.07l-.79.06v0l-.8.05h0a6.69,6.69,0,0,0-.77,0h-.52l0,0h-.33l-.06,0h-.3l-.07,0h-.66l0,0h-1c-10.48,0-20.17-3.56-30.45-7.32l-.4-.15-.4-.16-.4-.15-.41-.13-.39-.14h0l-.42-.16-.39-.15-.4-.14-.41-.15-.41-.14-.42-.16-.42-.14-.39-.15-.42-.15-.42-.13-.41-.15-.41-.15-.41-.14-.4-.15-.43-.13-.41-.15-.41-.14h0l-.4-.13-.41-.15h0l-.42-.12-.41-.12-.42-.15h0l-.4-.12h0l-.39-.12-.42-.13h0L253,547h0l-.41-.12h0l-.39-.12h0l-.41-.12-.39-.1h0l-.4-.11-.39-.11-.39-.11h0l-.41-.1h0l-.39-.09-.39-.11h0a2.79,2.79,0,0,1-.39-.1l-.38-.09h0l-.38-.08h0l-.38-.09h0c-.13,0-.26-.06-.39-.07h0a2,2,0,0,0-.37-.07h0a1.51,1.51,0,0,0-.38-.08h0l-.35-.07h0l-.37-.08h0a2.22,2.22,0,0,0-.38,0h0l-.35-.07h0l-.36-.06h0l-.36-.06h0c-.11,0-.23,0-.33,0h0l-.37,0h0a1.76,1.76,0,0,0-.33-.07h0c-.12,0-.23,0-.34,0h0a2,2,0,0,0-.35,0h0a1.72,1.72,0,0,0-.32,0h0a1.94,1.94,0,0,0-.33,0h-.34c-.1,0-.2,0-.31,0h-.65c-.11,0-.19,0-.32,0h-.33a1.77,1.77,0,0,0-.32,0h0a1.77,1.77,0,0,0-.33,0h0a1.88,1.88,0,0,0-.34,0l-.34,0a1.7,1.7,0,0,0-.34.07l-.36,0a3.31,3.31,0,0,1-.34,0l-.36.06-.37.06-.35.07a2.6,2.6,0,0,0-.37,0l-.38.08-.35.07a1.84,1.84,0,0,0-.38.08,2.53,2.53,0,0,0-.36.07c-.13,0-.25,0-.39.07l-.37.09c-.13,0-.25,0-.39.08l-.39.09a2.22,2.22,0,0,1-.39.1l-.38.11-.39.09h0l-.4.1-.39.11-.4.11-.4.11-.4.1-.4.12-.4.12h0l-.4.12h0l-.4.13h0l-.42.13-.4.12-.41.12h0l-.42.15-.38.12-.44.12-.4.15-.42.13h0l-.39.14-.42.15-.42.13-.4.15-.42.14-.42.15-.4.15-.42.13-.41.15-.41.15-.41.14-.4.16-.42.14-.41.15-.39.14-.42.15-.4.16h0l-.4.14-.4.13-.4.15-.41.16-.4.15-.47.17-.49.18-.48.17-.48.18-.48.18-.47.16-.47.18-.48.16-.47.17-.48.17-.49.18-.46.16-.48.17-.47.17-.47.16-.48.18-.47.16-.46.16-.49.16-.45.13-.49.17-.47.15-.47.14-.47.16-.46.13-.47.15-.48.15-.45.14-.5.15-.45.11c-.17.06-.31.09-.46.15l-.5.14a3.15,3.15,0,0,0-.47.11l-.46.12h0a2.56,2.56,0,0,1-.46.11c-.18,0-.32.1-.48.15h0l-.47.08-.47.12c-.16,0-.31.09-.48.12l-.47.09c-.16,0-.32.08-.46.12l-.49.07-.47.12-.47.08h0c-.16,0-.32.08-.49.1a4.11,4.11,0,0,0-.47.07,4,4,0,0,0-.47.11,3.88,3.88,0,0,0-.48,0l-.47.08-.48.07h0l-.48,0-.48.06a4,4,0,0,1-.48.07l-.48,0h0c-.17,0-.33,0-.49.06h0a3.74,3.74,0,0,1-.49,0h0c-.14,0-.31,0-.47,0h0c-.16,0-.33,0-.5,0l-.47,0h0l-.51,0h0l-.46,0h0a3.93,3.93,0,0,0-.49,0h-2l0,0h-.66l-.19,0h-.18l-.05,0h-.33l-.05,0h-.51a6.87,6.87,0,0,0-.78,0h0l-.8-.05v0c-.28,0-.52,0-.8-.06s-.56-.06-.81-.07h0c-.3,0-.56,0-.86-.1h0c-.26,0-.54,0-.83-.08h0l-.86-.12h0a4.43,4.43,0,0,1-.89-.12h0l-.88-.12h0c-.29,0-.59-.08-.89-.14l-1.84-.27h0l-.91-.17h0l-.93-.18h0c-.32-.06-.64-.09-1-.17s-.63-.11-1-.19h0c-.32-.05-.62-.12-1-.18h0c-.33-.06-.63-.13-1-.18s-.63-.16-1-.23-.66-.13-1-.2-.67-.13-1-.21-.64-.14-1-.24h0l-1-.19c-.34-.1-.67-.18-1-.26l-1-.22h0l-1-.26h0c-.32-.08-.65-.14-1-.23h0c-.35-.09-.67-.18-1-.25l-2-.52c-.33-.08-.67-.15-1-.25h0c-.32-.09-.65-.19-1-.27l-1-.26h0c-.32-.08-.63-.17-1-.27h0l-1-.24h0l-1-.3-1-.26h0l-1-.28h0l-1-.25-.94-.29h0l-.93-.27h0l-.92-.27-.91-.28h0l-.91-.26h0l-.89-.26h0l-.9-.28h0l-.87-.27h0l-.85-.25h0l-.85-.27h0l-.83-.27h0l-.82-.24h0l-.8-.26h0l-.79-.25h0l-.77-.25h0l-.75-.24h0l-.73-.23h0l-.74-.23h0l-.69-.23h0l-.66-.22h0l-.67-.22h0l-.64-.2h0l-.6-.22h0l-.59-.21h0l-.58-.17h0a1.27,1.27,0,0,0-.26,0h0a1.54,1.54,0,0,1-.3,0h0l-.28,0h0l-.3,0h0l-.29.06h0l-.3.06h0l-.31.05h0l-.31.06h0l-.31.06h0l-.31.06h0l-.31.06h0l-.33.06h0l-.33.07h0l-.31.08h0l-.32.07-.35.07h0l-.32.09-.34.08h0l-.33.08h0l-.34.08-.36.09-.33.08-.34.1h0l-.36.09-.35.08h0l-.34.11-.35.09-.37.1-.35.1-.35.1-.37.11-.35.09-.35.1-.37.14-.37.08-.35.11-.37.12h0l-.36.1-.37.11-.35.12-.38.1-.36.13h0l-.35.12-.38.1h0l-.36.11h0l-.35.12-.37.12h0l-.37.11h0l-.37.11-.35.11h0l-.35.12h0l-.36.12h0l-.35.13-.37.1h0l-.35.12h0l-.36.11h0l-.35.13-.35.1h0l-.35.11h0l-.34.13h0l-.34.11h0l-.36.11h0l-.33.11h0l-.34.13h0l-.55.18h0l-.56.17h0l-.55.18h0l-.54.19h0l-.56.18h0l-.56.18h0l-.53.19h0l-.56.17-.55.16-.54.19h0l-.54.19h0l-.55.17-.53.16h0l-.55.17-.53.17h0l-.55.18-.54.15h0l-.55.18h0l-.53.14h0l-.55.16h0l-.53.16h0l-.55.17h0l-.52.16-.56.14-.51.17h0l-.55.15h0l-.53.13h0l-.54.14h0l-.53.15-.53.14-.55.13-.52.15h0l-.53.13h0l-.54.11h0l-.52.13c-.19,0-.36.09-.55.13h0l-.53.11a3,3,0,0,1-.52.11h0l-.55.12c-.16,0-.34.06-.52.11h0l-.54.1h0c-.34.08-.69.14-1,.19h0l-.54.1c-.17,0-.36.06-.53.09a3.21,3.21,0,0,0-.52.11h0a3,3,0,0,0-.53.06h0c-.19,0-.36.05-.53.09h0l-.54.07a4.88,4.88,0,0,0-.52.06h0l-.53.06v0l-.53,0h0l-.54.06h0l-.52.06h0l-.53,0-.54,0h0c-.18,0-.36,0-.53,0h0l-.53,0h0c-.17,0-.36,0-.53,0h0l-.53,0h-.52c-.2,0-.37,0-.54,0H69a3.38,3.38,0,0,0-.55,0h-.6l-.06,0h-.57l-.35,0-.17,0h-.06l-.23,0h0c-10.64-.73-20.36-4.42-29.77-8-5.72-2.16-14.33-5.45-17.9-5.45-2.76,0-8.37,1-15.31,2.6A59.22,59.22,0,0,1,0,536.07a104.08,104.08,0,0,1,18.74-2.34c11.27,0,21.68,3.94,31.74,7.75,4.92,1.88,11.25,4.28,15.93,5.3l.06,0,.19,0h0l.23.06h0l0,0,.2,0h0l0,0h0l.17,0h.14l.2,0h0l.21,0h0a2.06,2.06,0,0,0,.26,0h0a.61.61,0,0,0,.23,0h0c.08,0,.15,0,.2,0h.3l.18,0h0a.42.42,0,0,0,.19,0h.47a.52.52,0,0,0,.17,0h0a.82.82,0,0,0,.22,0h.44a.61.61,0,0,0,.24,0h0a1,1,0,0,0,.24,0h.26l.27,0h0a.74.74,0,0,0,.25,0h0l.27,0h0a2.7,2.7,0,0,0,.28,0h0l.28-.06h0l.3,0h0l.29-.05h0l.31,0,.3-.08.32,0h0l.31-.07h0l.34-.07h0l.31-.08h0l.32-.07h0l.35-.06.34-.1h0l.32-.09.36-.06h0l.35-.11h0l.36-.09h0l.35-.1.38-.09.36-.1.36-.09h0l.36-.11.36-.11.38-.1.39-.11.75-.21.37-.13h0l.39-.12.38-.09.39-.13h0l.37-.11h0l.38-.12.38-.11.76-.24.39-.13.38-.13.37-.11.4-.11h0l.37-.13h0l.36-.12.38-.13h0l.39-.1.36-.14.37-.13h0l.38-.11.36-.11.37-.14.35-.12,1.06-.33h0l.35-.11h0l.33-.14h0l.57-.17h0l.57-.18h0l.56-.2h0l.58-.17h0l.58-.2h0l.57-.17h0l.56-.19h0l.56-.19h0l.57-.18.57-.19h0l.59-.2h0l.57-.17.57-.18h0l.57-.18h0l.58-.18.58-.17h0l.56-.17h0l.57-.16.58-.17h0l.57-.2.58-.16h0l.57-.16.59-.18.57-.16.59-.16.58-.16.57-.16.58-.14.57-.17h0l.59-.15h0l.58-.14a5.43,5.43,0,0,1,.58-.13h0l.57-.15.6-.14h0l.57-.14a3.92,3.92,0,0,0,.59-.15,4.56,4.56,0,0,0,.58-.12c.2,0,.38-.09.58-.11h0c.19,0,.39-.08.58-.14h0l.58-.1h0a3.09,3.09,0,0,1,.59-.12h0a5.15,5.15,0,0,1,.59-.11h0l.57-.11h0l.6-.11h0a5.81,5.81,0,0,0,.58-.09h0a2.89,2.89,0,0,1,.59-.08h0c.2,0,.39-.09.59-.12h0l.58-.07.59-.09c.18,0,.38-.06.59-.07h0l.58-.08h0a3.93,3.93,0,0,1,.59-.06h0l.58-.08h0l.6-.05h0l.58,0h0l.6,0,.58-.05h0a3.81,3.81,0,0,0,.59,0h0l.59,0h0l.6,0h0l.59,0h0l.59,0h.59a5.62,5.62,0,0,1,.58,0h0c.83,0,1.63,0,2.44.06h0c.61,0,1.21.05,1.81.11h0c.81.05,1.59.12,2.42.18h0c.39.07.8.1,1.2.16h0a5.9,5.9,0,0,0,.59.06h0l1.2.18h0c.39.06.8.11,1.19.18h0c.39.08.79.13,1.2.2h0l.58.12a2.46,2.46,0,0,1,.6.12h0c.39.06.8.13,1.19.23a4.16,4.16,0,0,1,.59.13c.19,0,.4.06.6.11h0c.2,0,.4.1.59.13h0l.59.15h0c.19,0,.39.09.59.13h0l.59.13h0a3.25,3.25,0,0,0,.58.14l.58.17h0l.6.15h0l.59.16.58.17a3.77,3.77,0,0,1,.58.14h0l.58.16h0l.59.17h0l.59.17h0l.58.17.58.17.58.17.58.17.58.19h0l.58.18h0l.57.17.58.2.59.17.57.2.57.18.59.2.56.18.58.2.58.19.56.2.57.18.59.19.57.2.57.2.58.19.56.2.56.19.57.19.57.2.25.09.26.08.28.1.26.11.29.08.26.1h0l.3.09.28.1h0l.29.1h0l.3.11h0l.29.1h0l.3.11h0l.31.08.29.11h0l.63.22.31.09.31.11h0l.31.1h0l.32.11.32.11h0l.31.1h0l.32.1.33.11h0l.63.21h0l.31.1.34.08.33.13.3.1.32.1.33.09h0l.3.1.33.11h0l.3.08.31.1.32.08.29.09.31.1h0l.32.08h0l.29.09.3.1.3.06h0l.28.09h0l.29.08.28.07.28.07.28.09h0l.27,0h0l.28.07.24.07h0l.27.05.25.06h0l.24.05h0l.26.06.23.06.22,0,.23.06.22,0,.22,0h0l.2,0h.2a1.25,1.25,0,0,0,.19,0,.55.55,0,0,1,.18,0,.52.52,0,0,0,.17,0h.34l.19,0h.2l.2,0h.21a.78.78,0,0,1,.21,0l.22,0h0l.22-.06.24,0h0l.24,0h0l.22,0,.26-.06.25-.06h0l.25-.06.25-.07h0l.28-.06h0l.27-.06.26-.07.27-.09.29-.08h0l.28-.06h0l.3-.1.28-.08h0L191,546l.28-.09.3-.1.31-.09.29-.1.32-.09.29-.08h0l.31-.12.31-.09.32-.12.3-.09.32-.1h0l.31-.1.32-.11.31-.12.32-.09.3-.11h0l.33-.12h0l.32-.09.29-.11h0l.34-.11h0l.3-.11.31-.11.32-.11h0l.29-.1h0l.32-.11h0l.29-.11h0l.62-.21.59-.22h0l.58-.21h0l.86-.3h0l.25-.1h0l.54-.21,4.32-1.55h0l.56-.18h0l.56-.19h0c.55-.2,1.11-.4,1.67-.57h0l.57-.2h0l1.68-.58,1.12-.38h0l.58-.17h0l.58-.18h0l.58-.2h0l.57-.19h0l.58-.15h0l.6-.18.58-.18h0l.59-.17.58-.17h0l.59-.16h0c.21-.07.4-.12.6-.17h0l.6-.16h0l.61-.16h0l.58-.16.6-.15h0a4.42,4.42,0,0,1,.61-.13h0c.2-.06.4-.12.6-.16s.41-.11.61-.16h0a4.56,4.56,0,0,0,.62-.13h0c.19,0,.4-.07.61-.13h0l.6-.13c.21-.06.42-.09.63-.13h0a4.42,4.42,0,0,0,.61-.13h0a4.48,4.48,0,0,0,.62-.11h0l.62-.11h0l.63-.11h0c.21,0,.41-.06.62-.11h0l.63-.11h0c.2,0,.42,0,.62-.08h0c.22,0,.43,0,.63-.1h0a5.3,5.3,0,0,0,.63-.09h0l1.28-.15h0l.65-.06h0c.85-.1,1.7-.18,2.59-.23h0c1.5-.12,3-.17,4.56-.17h.19a67.47,67.47,0,0,1,7.15.4h0c1.08.1,2.14.24,3.18.4h0l1.27.19h0l1.25.22h0c.61.11,1.23.22,1.86.35.21,0,.4.07.61.13h0l.6.13h0c.62.13,1.23.26,1.84.42a5.69,5.69,0,0,1,.59.16,4.26,4.26,0,0,1,.62.13h0l.61.15.59.16h0a5.87,5.87,0,0,0,.6.16h0l.59.16a5.72,5.72,0,0,1,.59.17h0l.6.16h0c.2,0,.39.11.6.17l.59.17.57.18.59.18.58.15a4.76,4.76,0,0,0,.57.19l.58.2.57.18.57.17h0l.59.21h0l.57.17.57.2h0l.55.19h0l.55.19h0l.57.2,1.11.37h0l.55.2.56.19.55.18h0l.53.2h0l.57.2h0l.54.19h0l.54.21h0l1.07.37h0l.54.2h0l.52.18h0l.27.11h0l.28.1h0l.27.1h0l.28.1h0l.29.1h0l.3.1h0l.27.1h0l.3.11h0l.3.11h0l.28.11.32.1h0l.3.11.3.11h0l.31.11.3.1.32.11.31.11.32.11h0l.3.11h0l.31.11c.32.09.63.21.94.32l.32.09.31.12.33.11.3.1h0l.31.1.32.09.32.12.3.09.31.12.3.08.31.09h0l.3.1.31.09h0l.3.1.29.09h0l.29.07h0l.29.08h0l.28.1.29.06.28.08.28.09h0l.27.07h0l.26.06.28.06.26.07h0l.25.06.25.06.25.06h0l.22,0,.25,0,.23,0h0l.22.06.23,0h0a.86.86,0,0,1,.21,0h.21a1.8,1.8,0,0,1,.19,0h.19l.2,0h.35a.47.47,0,0,0,.16,0,.55.55,0,0,1,.18,0l.2,0h.2a.43.43,0,0,1,.21,0,1.77,1.77,0,0,0,.21,0l.21,0,.23-.06.22,0,.25-.06.24-.06.24-.05.26-.06.25-.05h0l.27-.07.26-.07h0l.28,0,.27-.09.27-.07.31-.07.26-.08h0l.32-.09h0l.27-.06.31-.1.3-.09h0l.3-.08h0l.31-.1.3-.09.3-.08.32-.1.31-.08h0l.32-.11.32-.1h0l.32-.09.31-.1.33-.1h0l.31-.13h0l.32-.08.31-.1h0l.33-.1h0l.32-.11h0l.3-.11.34-.1h0l.32-.1h0l.31-.11h0l.32-.11h0l.31-.1.31-.11h0l.33-.09.3-.11h0l.3-.11.31-.11.3-.08h0l.3-.11h0l.3-.1h0l.29-.11.3-.1h0l.28-.1.3-.09.26-.1.29-.08.26-.11.27-.1.26-.08L315,542l.57-.2.58-.19.56-.19.57-.2.57-.19.57-.2.57-.2.57-.19.59-.18.58-.2.56-.19.58-.2.56-.18.58-.2.57-.18.58-.2.57-.17.58-.2.58-.17h0l.59-.18h0l.58-.19.58-.17.58-.17.58-.17.58-.17h0l.57-.17h0l.59-.17h0l.59-.16h0a4,4,0,0,1,.6-.14l.57-.17.58-.16h0l.6-.15h0l.58-.17a2.82,2.82,0,0,0,.59-.14h0l.59-.13h0c.19,0,.39-.1.59-.13h0l.6-.15h0l.56-.13h0c.21-.05.41-.07.59-.11h0a4.62,4.62,0,0,1,.6-.13h0c.19,0,.39-.1.59-.13h0l.59-.1h0a2.46,2.46,0,0,1,.6-.12l.6-.12h0a5.77,5.77,0,0,1,.58-.08h0l.6-.12c.2,0,.4-.07.59-.08h0c.21,0,.39-.08.6-.1h0l.6-.08h0c.19,0,.4,0,.61-.1h0a5.7,5.7,0,0,0,.58-.06h0l.6-.09h0a2.48,2.48,0,0,0,.61-.07h0a5.41,5.41,0,0,0,.59-.05h0l.62,0h0l.6,0h0a5.74,5.74,0,0,1,.6,0h0l.6,0h0a4.18,4.18,0,0,1,.61,0h0l.6,0h0l.61,0h0l.62,0h.6c.2,0,.4,0,.6,0h0c1.37,0,2.76.06,4.13.15h0l.58.05h0c.4,0,.79,0,1.18.09h0l1.2.13h0a4.08,4.08,0,0,1,.58.06h0c.39,0,.78.09,1.16.15h0l.59.09h0l.59.07h0c.2,0,.39.07.59.12h0c.39,0,.78.12,1.18.17l.58.11h0l.57.11h0c.4.07.79.13,1.18.23h0c.38.07.77.14,1.16.24h0a5.78,5.78,0,0,1,.6.11,5.6,5.6,0,0,0,.59.12h0a3.68,3.68,0,0,0,.57.15h0l.58.14.58.14h0c.4.07.79.18,1.16.28l.59.14h0l.58.15h0l.58.17.58.14h0l.58.16.58.16h0l.58.16h0l.57.16.59.18h0l.56.16h0l.59.16h0l.57.2h0l.58.17.58.16h0l.55.17h0l.58.17.57.18h0l.58.18h0l.58.18.57.17.57.2h0l.58.19.57.18h0l.57.19h0l.56.19h0l.57.17h0l.56.2h0l.58.17h0l.56.2h0l.57.18h0l.57.17h0l.34.14h0l.34.11h0l.34.1h0l.35.14h0l.37.09.36.12.35.14.37.11.38.11.36.13.36.14.39.1h0l.38.13.37.12.38.13h0l.39.11.37.11.38.13.38.13.76.24.39.11.39.12h0l.38.11h0l.38.13.38.09h0l.38.12h0l.38.13h0l.76.21.37.11h0l.38.1.36.11h0c.26.07.47.15.74.2l.37.1h0l.35.09h0l.36.1.35.09h0l.35.11.36.06h0c.21,0,.44.13.66.19h0l.34.06a4.14,4.14,0,0,0,.68.15h0c.31.07.62.14.94.19h0l.31.08h0l.28,0,.3.05h0l.3,0h0c.39.07.74.13,1.1.16h0l.26,0h.26a.86.86,0,0,0,.24,0h0a.61.61,0,0,0,.22,0h.46a.75.75,0,0,0,.21,0l.64,0h0a.51.51,0,0,0,.22,0h0c.22,0,.47,0,.72-.07h0l.76-.1h0l.25-.06h0c4.73-.84,11.7-3.49,17-5.52a150.78,150.78,0,0,1,18.26-6.05,62.35,62.35,0,0,1-4.84,15.22c-9.28,3.52-18.87,7.11-29.35,7.84ZM375.09,609l-.37-.15h0c-.94-.29-1.89-.62-2.85-.91h0c-.72-.25-1.46-.48-2.19-.7h0l-.36-.12h0l-1.81-.55h0l-.36-.1h0l-.36-.13h0l-.35-.1h0l-.39-.11h0l-.35-.1h0l-.35-.08h0l-.37-.12h0l-.36-.11h0l-.34-.09-.35-.1h0l-.36-.09-.35-.1h0l-.34-.1-.36-.1h0l-.34-.07h0l-.34-.11h0l-.35-.07-.34-.09-.34-.08-.33-.08-.33-.08-.33-.07h0l-.33-.08-.32-.07-.34-.08-.32-.07-.3-.05-.33-.07-.3-.06-.32,0-.29,0-.3-.06-.3-.05-.29,0-.29,0a2.74,2.74,0,0,0-.28-.05l-.29,0-.56.19-.59.21-.62.19-.64.22-.68.21-.65.23-.71.22-.72.23-.73.25-.75.24-.77.24-.8.24-.79.26-.82.26-.84.26-.84.27-.87.25-.85.26-.89.28-.9.27-.9.27-.92.26-.93.26-.93.31-.95.25-.95.27-.95.27-1,.28-1,.26-1,.27c-.32.1-.63.18-1,.27l-1,.28c-.32.06-.66.15-1,.24l-1,.26-1,.26h0c-.33.07-.66.16-1,.25s-.68.16-1,.24l-1,.25-1,.25c-.33.07-.66.14-1,.23s-.68.17-1,.23l-1,.23h0c-.33.1-.65.15-1,.22l-1,.22-1,.22-1,.18-1,.2h0c-.33.06-.64.15-1,.18h0c-.32.08-.63.13-.95.2s-.63.12-.94.16h0a7.83,7.83,0,0,1-.94.19h0c-.31.06-.62.11-.92.14h0c-.31.07-.61.11-.94.16h0l-.89.15c-.3,0-.61.08-.89.14h0a8.3,8.3,0,0,0-.89.12h0l-.89.11h0l-.85.11h0l-.85.1h0l-.83.08h0c-.29,0-.56.06-.84.07l-.79.07h0l-.8,0h0l-.77,0H299l0,0h-.62l-.06,0h-1l0,0h-1.15c-10.48,0-20.17-3.55-30.45-7.32l-.4-.14-.4-.15-.4-.16-.41-.15-.39-.14h0l-.42-.13-.39-.17-.4-.13-.41-.15-.41-.16-.42-.16-.42-.13-.39-.15-.42-.13-.42-.16-.41-.13-.41-.16-.41-.13-.4-.15-.43-.14-.41-.15-.41-.12h0l-.4-.15-.41-.14h0l-.42-.13-.41-.12-.42-.14h0l-.4-.14h0l-.39-.12-.42-.12h0l-.41-.13h0l-.41-.1h0l-.39-.12h0l-.41-.11-.39-.14h0l-.4-.09-.39-.11-.39-.11h0l-.41-.11h0l-.39-.1a3.2,3.2,0,0,1-.39-.1h0a2.74,2.74,0,0,1-.39-.09l-.38-.09h0l-.38-.08h0l-.38-.09h0l-.39-.08h0l-.37-.08h0a3.79,3.79,0,0,0-.38-.06h0a2.17,2.17,0,0,0-.35-.07h0a2.41,2.41,0,0,0-.37-.07h0a2.16,2.16,0,0,0-.38-.06h0l-.35-.08h0l-.36,0h0a2.09,2.09,0,0,0-.36,0h0l-.33-.05h0c-.13,0-.25,0-.37,0h0a1.75,1.75,0,0,0-.33,0h0l-.34,0h0a2.21,2.21,0,0,1-.35,0h-.32a1.94,1.94,0,0,0-.33,0h0l-.34,0h-1.28c-.09,0-.21,0-.33,0a1.77,1.77,0,0,0-.32,0h-.33a2.09,2.09,0,0,1-.34,0,2,2,0,0,0-.34,0,1.76,1.76,0,0,0-.34,0l-.36,0-.34.05a2.2,2.2,0,0,0-.36,0l-.37,0-.35.08-.37.06a3.1,3.1,0,0,0-.38.07l-.35.07c-.13,0-.24,0-.38.06l-.36.08-.39.08-.37.09c-.13,0-.25.07-.39.08l-.39.09a2.23,2.23,0,0,1-.39.09l-.38.1-.39.1h0l-.4.11-.39.11-.4.11-.4.09-.4.14-.4.11-.4.12h0l-.4.1h0l-.4.13h0l-.42.12-.4.12-.41.14h0l-.42.14-.38.12-.44.13-.4.14-.42.15h0l-.39.12-.42.15-.42.14-.4.15-.42.13-.42.16-.4.13-.42.16-.41.13-.41.15-.41.13-.4.16-.42.16-.41.15-.39.13-.42.17-.4.13h0l-.4.14-.4.15-.4.16-.41.15-.4.14-.47.2-.49.14-.48.19-.48.18-.48.17-.47.16-.47.19-.48.17-.47.17-.48.17-.49.17-.46.16-.48.19-.47.15-.47.16-.48.17-.47.15-.46.16-.49.16-.45.16-.49.15-.47.17-.47.14-.47.13-.46.17-.47.14-.48.15-.45.12-.5.14-.45.13-.46.14-.5.13-.47.13c-.15,0-.29.1-.46.12h0a4,4,0,0,0-.46.13l-.48.1h0a3.94,3.94,0,0,1-.47.1l-.47.14c-.16,0-.31.06-.48.11l-.47.09a3.11,3.11,0,0,0-.46.1l-.49.11-.47.09-.47.09h0l-.49.09-.47.06-.47.1-.48.07-.47.08c-.16,0-.31.05-.48.07h0a3.5,3.5,0,0,0-.48.06l-.48.06-.48,0-.48.06h0a3.91,3.91,0,0,0-.49,0h0a3.74,3.74,0,0,1-.49,0h0l-.47.05h0l-.5,0a3.3,3.3,0,0,1-.47,0h0l-.51,0H187l-.49,0h-2.07l-.09,0h-1l-.05,0h-.6l-.08,0h-.11l-.78,0h0l-.8,0h0l-.8-.07c-.27,0-.56,0-.81-.07h0l-.86-.08h0l-.83-.1h0l-.86-.11h0l-.89-.11h0a7.79,7.79,0,0,0-.88-.12h0c-.29-.06-.59-.09-.89-.14l-1.84-.31h0c-.3,0-.6-.08-.91-.14h0a7.3,7.3,0,0,1-.93-.19h0c-.32,0-.64-.1-1-.16s-.63-.12-1-.2h0c-.32,0-.62-.12-1-.18h0l-1-.2c-.34-.05-.63-.13-1-.18l-1-.22-1-.22c-.31-.07-.64-.12-1-.22h0l-1-.23c-.34-.06-.67-.16-1-.23s-.66-.16-1-.23h0l-1-.25h0l-1-.25h0c-.35-.08-.67-.14-1-.24-.65-.18-1.33-.34-2-.51l-1-.26h0c-.32-.09-.65-.18-1-.24l-1-.28h0l-1-.27h0l-1-.27h0l-1-.26-1-.28h0l-1-.27h0l-1-.27-.94-.25h0l-.93-.31h0l-.92-.26-.91-.26h0l-.91-.27h0l-.89-.27h0l-.9-.28h0l-.87-.26h0l-.85-.25h0l-.85-.27h0l-.83-.26h0l-.82-.26h0l-.8-.26h0l-.79-.24h0l-.77-.24h0l-.75-.24h0l-.73-.25h0l-.74-.23h0l-.69-.22h0l-.66-.23h0l-.67-.21h0l-.64-.22h0l-.6-.19h0l-.59-.21h0l-.58-.19h0l-.26,0h0c-.11,0-.19,0-.3.05h0l-.28,0h0l-.3,0h0l-.29.05h0l-.3.06h0l-.31,0h0l-.31,0h0l-.31.06h0l-.31.07h0l-.31.05h0l-.33.07h0l-.33.08h0l-.31.07h0l-.32.08-.35.07h0l-.32.08-.34.08h0l-.33.08h0l-.34.09-.36.07-.33.11-.34.07h0l-.36.1-.35.1h0l-.34.1-.35.09-.37.1-.35.09-.35.11-.37.12-.35.08-.35.1-.37.11-.37.1-.35.13-.37.1h0l-.36.1-.37.13-.35.11-.38.11-.36.1h0l-.35.12-.38.12h0l-.36.1h0l-.35.13-.37.1h0l-.37.13h0l-.37.12-.35.12h0l-.35.11h0l-.36.12h0l-.35.1-.37.12h0l-.35.12h0l-.36.1h0l-.35.12-.35.12h0l-.35.12h0l-.34.11h0l-.34.11h0l-.36.12h0l-.33.11h0l-.34.11h0l-.55.18h0l-.56.2h0l-.55.18h0l-.54.18h0l-.56.19h0l-.56.17h0l-.53.17h0l-.56.18-.55.17-.54.17h0l-.54.18h0l-.55.18-.53.16h0l-.55.19-.53.15h0l-.55.18-.54.16h0l-.55.16h0l-.53.17h0l-.55.16h0l-.53.17h0l-.55.15h0l-.52.17-.56.14-.51.16h0l-.55.15h0l-.53.14h0l-.54.15h0l-.53.13-.53.14-.17,0q-11.34-4.27-21.49-9.25l.13,0h0l.23,0,0,0h0l.2,0h0l0,0h0l.17,0h.07l.07,0,.2,0h0l.21,0h0a1.09,1.09,0,0,0,.26,0h0v0c.08,0,.15,0,.23,0h.28c.07,0,.14,0,.2,0h.23l0,0h.22a.44.44,0,0,0,.19,0h.25a.52.52,0,0,0,.17,0h0a.82.82,0,0,0,.22,0h.21a.58.58,0,0,0,.23,0H71l.24,0h0a.74.74,0,0,0,.26,0h.27c.08,0,.16,0,.25,0h0l.27-.06h0a2.66,2.66,0,0,0,.28,0h0l.28,0h0l.3,0h0l.29-.06h0l.31-.07.3,0,.32-.08h0l.31-.06h0l.34-.08h0l.31-.08h0l.32,0h0L76,605l.34-.1h0l.32-.09.36-.07h0l.35-.09h0l.36-.1h0l.35-.09.38-.09.36-.1.36-.1h0l.36-.11.36-.1.38-.12.39-.1a5.89,5.89,0,0,1,.75-.2l.37-.11h0l.39-.14.38-.1.39-.11h0l.37-.14h0l.38-.09.38-.13.76-.23.39-.12.38-.14.37-.13.4-.1h0l.37-.13h0l.36-.13.38-.12h0l.39-.11.36-.12.37-.13h0l.38-.12.36-.11.37-.12.35-.12,1.06-.35h0l.35-.1h0l.33-.12h0l.57-.18h0l.57-.18h0l.56-.19h0l.58-.19h0l.58-.19h0l.57-.19h0l.56-.17h0l.56-.21h0l.57-.18.57-.17h0l.59-.18h0l.57-.2.57-.17h0l.57-.18h0l.58-.19.58-.15h0l.56-.18h0l.57-.18.58-.18h0l.57-.16.58-.19h0l.57-.16.59-.18.57-.16.59-.15.58-.16.57-.16.58-.16.57-.14h0l.59-.16h0l.58-.15c.19-.06.38-.08.58-.14h0l.57-.15.6-.13h0l.57-.14a5.61,5.61,0,0,0,.59-.13c.21,0,.4-.07.58-.13s.38-.09.58-.12h0l.58-.14h0c.19,0,.38-.06.58-.1h0l.59-.12h0l.59-.12h0c.18,0,.38-.07.57-.11h0c.2,0,.4-.06.6-.08h0l.58-.11h0c.19,0,.39-.05.59-.09h0c.2,0,.39-.07.59-.09h0a5,5,0,0,1,.58-.09l.59-.1.59-.05h0l.58-.08h0c.2,0,.39-.06.59-.07h0l.58,0h0l.6-.09h0a5.46,5.46,0,0,0,.58,0h0l.6,0,.58-.07h0a2.88,2.88,0,0,0,.59,0H126l.6,0h.59c.2,0,.39,0,.59,0H129c.83,0,1.63,0,2.44,0h0c.61,0,1.21.08,1.81.1h0c.81.06,1.59.12,2.42.23h0l1.2.12h0c.19,0,.4.06.59.08h0a7.89,7.89,0,0,1,1.2.18h0c.39,0,.8.1,1.19.18h0c.39.06.79.14,1.2.18h0a4.92,4.92,0,0,1,.58.14,5.77,5.77,0,0,1,.6.1h0c.39.08.8.14,1.19.24a3.06,3.06,0,0,1,.59.11l.6.13h0c.2,0,.4.1.59.12h0l.59.16h0a4.49,4.49,0,0,1,.59.13h0l.59.15h0l.58.13c.21.06.38.11.58.15h0l.6.15h0l.59.15.58.17.58.16h0l.58.17h0l.59.16h0l.59.16h0l.58.19.58.16.58.17.58.18.58.18h0l.58.18h0l.57.18.58.18.59.17.57.21.57.17.59.19.56.21.58.17.58.2.56.2.57.17.59.21.57.19.57.21.58.2.56.19.56.19.57.2.57.18.25.09.26.09.28.11.26.08.29.09.26.11h0l.3.09.28.1h0l.29.12h0l.3.07h0l.29.11h0l.3.1h0l.31.1.29.1h0l.63.22.31.1.31.11h0l.31.09h0l.32.09.32.12h0l.31.11h0l.32.11.33.11h0l.63.19h0l.31.11.34.11.33.1.3.09.32.1.33.09h0l.3.11.33.09h0l.3.09.31.09.32.12.29.08.31.1h0l.32.07h0l.29.08.3.09.3.1h0l.28.06h0l.29.07.28.09.28.07.28.08h0l.27,0h0l.28.08.24.08h0l.27,0,.25.06h0l.24.06h0l.26,0,.23.06.22,0,.23.06.22,0,.22,0h0l.2,0,.2,0a1.25,1.25,0,0,0,.19,0l.18,0h.17a.34.34,0,0,1,.17,0h.17a.55.55,0,0,0,.19,0h0c.08,0,.14,0,.2,0l.2,0c.07,0,.13,0,.21,0h.21a1.74,1.74,0,0,1,.22,0h0l.22,0,.24-.06h0l.24,0h0l.22-.06.26,0,.25,0h0l.25-.05.25-.09h0l.28,0h0l.27-.07.26-.07.27-.06.29-.1h0l.28-.06h0l.3-.1.28-.07h0l.31-.1.28-.08.3-.09.31-.09.29-.1.32-.1.29-.09h0l.31-.11.31-.08.32-.12.3-.09.32-.1h0l.31-.11.32-.1.31-.11.32-.12.3-.1h0l.33-.1h0l.32-.12.29-.1h0l.34-.12h0l.3-.09.31-.11.32-.11h0l.29-.1h0l.32-.13h0L199,602h0l.62-.23.59-.21h0l.58-.22h0l.86-.28h0l.25-.11h0l.54-.19c1.43-.51,2.87-1,4.32-1.55h0l.56-.19h0l.56-.19h0c.55-.21,1.11-.41,1.67-.59h0l.57-.2h0l1.68-.57,1.12-.38h0l.58-.18h0l.58-.17h0l.58-.18h0l.57-.19h0l.58-.16h0l.6-.2.58-.18h0l.59-.15.58-.18h0l.59-.17h0a5.84,5.84,0,0,0,.6-.15h0l.6-.17h0c.19-.06.4-.11.61-.16h0c.19-.06.39-.1.58-.15a5.26,5.26,0,0,0,.6-.15h0c.21,0,.4-.11.61-.15h0a4.29,4.29,0,0,1,.6-.13l.61-.16h0a4.56,4.56,0,0,1,.62-.13h0l.61-.16h0a4.21,4.21,0,0,0,.6-.11c.21,0,.42-.1.63-.12h0c.2,0,.41-.11.61-.14h0l.62-.09h0a2.74,2.74,0,0,1,.62-.13h0l.63-.12h0c.21,0,.41-.07.62-.1h0a4.58,4.58,0,0,1,.63-.1h0c.2,0,.42-.06.62-.11h0c.22,0,.43-.06.63-.07h0l.63-.1h0l1.28-.15h0c.22,0,.43-.06.65-.07h0c.85-.08,1.7-.17,2.59-.21h0c1.5-.13,3-.18,4.56-.18h.19a70.25,70.25,0,0,1,7.15.39h0c1.08.12,2.14.26,3.18.39h0c.43.08.85.12,1.27.21h0l1.25.22h0c.61.09,1.23.22,1.86.36.21,0,.4.08.61.12h0a4,4,0,0,0,.6.11h0c.62.16,1.23.29,1.84.45a3.87,3.87,0,0,1,.59.13c.22,0,.41.1.62.15h0a6,6,0,0,0,.61.15l.59.15h0l.6.16h0l.59.17c.21.06.39.11.59.15h0l.6.17h0l.6.18.59.15.57.18.59.2.58.16a5.44,5.44,0,0,1,.57.19l.58.18.57.17.57.18h0l.59.21h0l.57.17.57.2h0l.55.18h0l.55.19h0l.57.2,1.11.38h0l.55.21.56.19.55.19h0l.53.18v0l.57.17h0l.54.21h0l.54.19h0l1.07.39h0l.54.19h0l.52.2h0l.27.09h0l.28.1h0l.27.11h0l.28.09h0l.29.11h0l.3.08h0l.27.12h0l.3.1h0l.3.11h0l.28.1.32.12h0l.3.11.3.09h0l.31.13.3.1.32.11.31.11.32.09h0l.3.12h0l.31.1c.32.12.63.22.94.32l.32.12.31.11.33.1.3.11h0l.31.1.32.09.32.12.3.08.31.11.3.09.31.1h0l.3.1.31.09h0l.3.09.29.08h0l.29.1h0l.29.07h0l.28.1.29.06.28.1.28.06h0l.27.07h0l.26.07.28,0,.26.09h0l.25.05.25,0,.25,0h0l.22.06.25,0,.23.06h0l.22,0,.23,0h.21c.07,0,.13,0,.21,0l.19,0,.19,0a.68.68,0,0,0,.2,0h.17a.38.38,0,0,1,.18,0h.16c.07,0,.11,0,.18,0l.2,0c.07,0,.13,0,.2,0a1.05,1.05,0,0,1,.21,0,.71.71,0,0,1,.21,0l.21,0,.23-.06.22,0,.25-.06.24,0,.24-.06.26-.06.25,0h0l.27-.08.26-.08h0l.28,0,.27-.08.27-.07.31-.09.26-.07h0l.32-.06h0l.27-.1.31-.09.3-.08h0l.3-.07h0l.31-.1.3-.08.3-.12.32-.09.31-.09h0l.32-.09.32-.11h0l.32-.09.31-.1.33-.09h0l.31-.1h0l.32-.11.31-.11h0l.33-.12h0l.32-.07h0l.3-.11.34-.11h0l.32-.11h0l.31-.12h0l.32-.09h0l.31-.09.31-.11h0l.33-.1.3-.13h0l.3-.09.31-.1.3-.1h0l.3-.1h0l.3-.11h0l.29-.07.3-.12h0l.28-.1.3-.09.26-.11L314,601l.26-.08.27-.11.26-.09.25-.09.57-.18.58-.2.56-.19.57-.19.57-.2.57-.21.57-.19.57-.21.59-.17.58-.2.56-.2.58-.17.56-.21.58-.19.57-.17.58-.21.57-.17.58-.18.58-.18h0l.59-.18h0l.58-.18.58-.18.58-.17.58-.16.58-.19h0l.57-.16h0l.59-.16h0l.59-.17h0l.6-.16.57-.17.58-.15h0l.6-.15h0c.2,0,.38-.09.58-.15l.59-.13h0c.19,0,.38-.11.59-.15h0a3.87,3.87,0,0,1,.59-.13h0l.6-.16h0c.17,0,.37-.08.56-.12h0c.21,0,.41-.08.59-.13h0a3.31,3.31,0,0,1,.6-.11h0l.59-.14h0c.19,0,.38-.06.59-.1h0a5.77,5.77,0,0,1,.6-.1,5.27,5.27,0,0,1,.6-.14h0c.19,0,.39,0,.58-.08h0c.21,0,.4-.08.6-.1s.4-.08.59-.11h0a4.09,4.09,0,0,1,.6-.07h0c.2,0,.4-.06.6-.11h0a3.92,3.92,0,0,1,.61-.07h0a5.77,5.77,0,0,0,.58-.08h0a5.78,5.78,0,0,0,.6-.08h0l.61,0h0a4.37,4.37,0,0,1,.59-.08h0c.22,0,.41,0,.62,0h0l.6-.05h0c.19,0,.39,0,.6,0h0c.2,0,.41,0,.6,0h0a3.14,3.14,0,0,1,.61,0h0l.6,0h.61c.21,0,.41,0,.62,0h1.21c1.37,0,2.76,0,4.13.11h0l.58.07h0c.4,0,.79.05,1.18.07h0c.4.06.79.11,1.2.14h0c.18,0,.38.05.58.07h0c.39.06.78.1,1.16.13h0l.59.1h0a5.58,5.58,0,0,1,.59.09h0c.2,0,.39.06.59.09h0c.39,0,.78.13,1.18.2.19,0,.38,0,.58.08h0c.19,0,.39.09.57.11h0l1.18.24h0l1.16.24h0c.21,0,.4.08.6.12s.39.08.59.13h0a5.25,5.25,0,0,0,.57.13h0l.58.14.58.13h0l1.16.29.59.15h0l.58.16h0c.19,0,.38.09.58.14l.58.16h0l.58.16.58.16h0l.58.15h0l.57.16.59.18h0l.56.16h0l.59.19h0l.57.16h0l.58.18.58.18h0l.55.18h0l.58.15.57.19h0l.58.18h0l.58.17.57.2.57.18h0l.58.17.57.18h0l.57.21h0l.56.17h0l.57.19h0l.56.19h0l.58.19h0l.56.19h0l.57.18h0l.57.18h0l.34.12h0l.34.1h0l.34.12h0l.35.11h0l.37.12.14.05q-7.83,4.29-16.54,8.17ZM412,587.94a126.48,126.48,0,0,0,19-17.09c-5.33,2-12.2,4.63-16.9,5.47h0l-.25,0h0l-.76.11h0c-.25,0-.5.06-.72.08h-.24c-.22,0-.44,0-.64,0h-.21l-.46,0h-.22l-.24,0h0a1.23,1.23,0,0,0-.26,0h0a1.17,1.17,0,0,0-.26,0h0c-.36-.06-.71-.09-1.1-.16h0l-.3-.06h0l-.3,0-.28,0h0l-.31-.06h0c-.32-.08-.63-.12-.94-.21h0l-.68-.17-.34-.07h0l-.66-.15h0l-.36-.09-.35-.09h0l-.35-.09-.36-.09h0l-.35-.11h0l-.37-.09c-.27-.06-.48-.14-.74-.2h0l-.36-.1-.38-.11h0l-.37-.11-.76-.22h0l-.38-.13h0l-.38-.09h0l-.38-.12-.38-.12h0l-.38-.11h0l-.39-.12-.39-.13-.76-.24-.38-.12-.38-.09-.37-.14-.39-.13h0l-.38-.12-.37-.1-.38-.14h0l-.39-.13-.36-.12L393,572l-.38-.13-.37-.13-.35-.1-.36-.12-.37-.14h0l-.35-.1h0l-.34-.11h0l-.34-.14h0l-.34-.08h0l-.57-.21h0l-.57-.18h0l-.56-.17h0l-.58-.21h0l-.56-.18h0l-.57-.19h0l-.56-.17h0l-.57-.19h0l-.57-.18-.58-.2h0l-.57-.18-.57-.18-.58-.18h0l-.58-.17h0l-.57-.19-.58-.19h0l-.55-.17h0l-.58-.18-.58-.16h0l-.57-.18h0l-.59-.16h0l-.56-.18h0l-.59-.15-.57-.17h0l-.58-.16h0l-.58-.15-.58-.16h0c-.2-.07-.4-.12-.58-.17a5.47,5.47,0,0,1-.58-.15h0a4.35,4.35,0,0,0-.58-.13h0c-.2-.07-.4-.12-.59-.17l-1.16-.28h0a5.43,5.43,0,0,0-.58-.13c-.19-.05-.39-.09-.58-.15h0c-.2,0-.38-.1-.57-.12h0c-.2-.05-.4-.1-.59-.13l-.6-.13h0c-.39-.08-.78-.18-1.16-.24h0c-.39-.07-.78-.16-1.18-.22h0L365,564h0a3.7,3.7,0,0,1-.58-.1l-1.18-.19h0c-.2-.05-.39-.05-.59-.09h0c-.2,0-.38-.06-.59-.08h0a3.65,3.65,0,0,0-.59-.08h0l-1.16-.18h0a3.58,3.58,0,0,1-.58,0h0l-1.2-.12h0c-.39,0-.78-.06-1.18-.11h0c-.19,0-.38,0-.58,0h0c-1.37-.09-2.76-.15-4.13-.15h-1.21a4.29,4.29,0,0,0-.62,0h0c-.22,0-.4,0-.61,0h0l-.6,0h0c-.2,0-.41,0-.61,0h0l-.6,0h0a5.54,5.54,0,0,0-.6.06h0c-.2,0-.41,0-.6.06h0a4.48,4.48,0,0,0-.62.06h0a4.08,4.08,0,0,0-.59,0h0l-.61.07h0a4.25,4.25,0,0,0-.6.07h0a3.83,3.83,0,0,0-.58.07h0c-.21,0-.42.06-.61.07h0l-.6.09h0a4.17,4.17,0,0,1-.6.1h0a5.59,5.59,0,0,1-.59.08,5.77,5.77,0,0,1-.6.1h0l-.58.12h0l-.6.1c-.2.05-.41.08-.6.12h0a3.62,3.62,0,0,0-.59.12h0c-.2,0-.4.05-.59.1h0a4,4,0,0,1-.6.13h0l-.59.14h0a3.28,3.28,0,0,0-.56.14h0l-.6.11h0l-.59.15h0l-.59.14h0l-.59.14c-.2.06-.38.11-.58.15h0l-.6.16h0l-.58.15-.57.16a5.9,5.9,0,0,0-.6.17h0l-.59.16h0l-.59.15h0l-.57.19h0l-.58.15-.58.18-.58.16-.58.19-.58.17h0l-.59.18h0l-.58.19-.58.19-.57.18-.58.19-.57.18-.58.19-.56.18-.58.21-.56.19-.58.18-.59.2-.57.2-.57.19-.57.18-.57.2-.57.2-.56.21-.58.19-.57.2-.25.08-.26.1-.27.08-.26.09-.29.09-.26.12-.3.08-.28.11h0l-.3.08-.29.11h0l-.3.11h0l-.3.1h0l-.3.1-.31.1-.3.12h0l-.3.08-.33.11h0l-.31.11-.31.1h0l-.32.12h0l-.31.08h0l-.32.12h0l-.34.09-.3.11h0l-.32.13h0l-.33.09h0l-.31.11-.32.08h0l-.31.11h0l-.33.1-.31.1-.32.1h0l-.32.09-.32.1h0l-.31.09-.32.11-.3.09-.3.11-.31.06h0l-.3.1h0l-.3.09-.31.07-.27.09h0l-.32.08h0l-.26.07-.31.07-.27.09-.27.07-.28.07h0L300,576l-.27.05h0l-.25.06-.26.07-.24,0-.24.06-.25,0-.22,0-.23,0-.21,0a.86.86,0,0,1-.21,0,1.07,1.07,0,0,1-.21,0,.68.68,0,0,0-.2,0l-.2,0h-.69a.46.46,0,0,0-.2,0,.62.62,0,0,0-.19,0l-.19,0-.21,0a.71.71,0,0,1-.21,0h0l-.23,0-.22,0h0l-.23,0-.25,0-.22-.07h0l-.25-.05-.25,0-.25-.07h0l-.26-.06-.28-.07-.26-.07h0l-.27-.08h0l-.28-.07-.28-.07-.29-.09-.28-.07h0l-.29-.09h0l-.29-.09h0l-.29-.09-.3-.09h0l-.31-.09-.3-.09h0l-.31-.09-.3-.11-.31-.09-.3-.1-.32-.09-.32-.11-.31-.11h0l-.3-.1-.33-.1-.31-.09-.32-.12-.94-.32-.31-.11h0l-.3-.1h0l-.32-.12-.31-.11-.32-.1-.3-.13-.31-.08h0l-.3-.13-.3-.11h0l-.32-.08-.28-.12h0l-.3-.1h0l-.3-.11h0l-.27-.12h0l-.3-.1h0l-.29-.09h0l-.28-.11h0l-.27-.1h0l-.28-.1h0l-.27-.1h0l-.52-.18h0l-.54-.2h0l-1.07-.4h0l-.54-.18h0l-.54-.18h0l-.57-.2h0l-.53-.2h0l-.55-.2-.56-.2-.55-.18h0c-.37-.14-.73-.27-1.11-.38l-.57-.21h0l-.55-.17h0l-.55-.2h0l-.57-.19-.57-.2h0l-.59-.18h0l-.57-.19-.57-.18-.58-.17a5.4,5.4,0,0,0-.57-.18l-.58-.18-.59-.17-.57-.18-.59-.18c-.21,0-.4-.1-.6-.15h0c-.2,0-.4-.14-.6-.19h0l-.59-.16-.59-.15h0c-.2-.07-.41-.12-.6-.17h0a5.66,5.66,0,0,1-.59-.15l-.61-.16h0a5,5,0,0,1-.62-.14l-.59-.15c-.61-.13-1.22-.28-1.84-.4h0c-.2-.06-.41-.1-.6-.14h0c-.21,0-.4-.08-.61-.14-.63-.1-1.25-.24-1.86-.34h0c-.43-.08-.84-.16-1.25-.22h0c-.42-.06-.84-.14-1.27-.19h0c-1-.16-2.1-.3-3.18-.4h0a62.57,62.57,0,0,0-7.15-.38h-.19c-1.54,0-3.06,0-4.56.15h0c-.89.06-1.74.12-2.59.23h0c-.22,0-.43.06-.65.06h0l-1.28.16h0l-.63.09h0l-.63.09h0a3.34,3.34,0,0,0-.62.1h0c-.22,0-.41.07-.63.09h0c-.21.06-.41.06-.62.11h0l-.63.11h0a4.44,4.44,0,0,1-.62.1h0c-.2,0-.42.08-.62.14h0l-.61.1h0c-.21.06-.42.1-.63.14s-.41.08-.6.14h0c-.21,0-.42.1-.61.12h0l-.62.15h0c-.2.05-.4.07-.61.13s-.4.1-.6.15h0a4.47,4.47,0,0,1-.61.14h0l-.6.16c-.19.06-.39.11-.58.15h0a5.43,5.43,0,0,0-.61.17h0l-.6.15h0l-.6.16h0c-.19,0-.39.14-.59.19h0l-.58.15-.59.18h0l-.58.18-.6.17h0l-.58.18h0l-.57.18h0l-.58.17h0l-.58.18h0l-.58.19h0l-1.12.38c-.57.19-1.12.39-1.68.56h0l-.57.21h0l-1.67.56h0l-.56.2h0l-.56.2h0c-1.45.53-2.89,1-4.32,1.54l-.54.2h0l-.25.1h0l-.86.3h0l-.58.23h0l-.59.22-.62.19h0l-.29.13h0l-.32.08h0l-.29.13h0l-.32.1-.31.11-.3.12h0l-.34.1h0l-.29.11-.32.11h0l-.33.1h0l-.3.11-.32.12-.31.09-.32.1-.31.1h0l-.32.11-.3.11-.32.09-.31.1-.31.09h0l-.29.11-.32.09-.29.09-.31.09-.3.09-.28.09-.31.09h0l-.28.09-.3.07h0l-.28.09h0l-.29.07-.27.07-.26.08-.27.07h0l-.28.07h0l-.25.06-.25.07h0l-.25,0-.26.05-.22.07h0l-.24,0h0l-.24,0-.22,0h0a.85.85,0,0,1-.22,0,.78.78,0,0,1-.21,0l-.21,0-.2,0a.75.75,0,0,0-.2,0h0a.47.47,0,0,0-.19,0h-.69l-.19,0-.2,0-.2,0h0l-.22,0-.22,0-.23,0-.22,0-.23,0-.26-.06h0l-.24,0h0l-.25-.07-.27-.06h0l-.24-.05-.28-.07h0l-.27-.07h0l-.28-.07-.28-.09-.28-.07-.29-.07h0l-.28-.08h0l-.3-.09-.3-.07-.29-.09h0l-.32-.1h0l-.31-.06-.29-.11-.32-.09-.31-.11-.3-.09h0l-.33-.1-.3-.09h0l-.33-.1-.32-.1-.3-.1-.33-.11-.34-.08-.31-.11h0l-.63-.22h0l-.33-.11-.32-.09h0l-.31-.12h0l-.32-.08-.32-.12h0l-.31-.1h0l-.31-.11-.31-.11-.63-.2h0l-.29-.1-.31-.1h0l-.3-.1h0l-.29-.11h0l-.3-.11h0l-.29-.08h0l-.28-.11-.3-.08h0l-.26-.12-.29-.09-.26-.09-.28-.08-.26-.1-.25-.08-.57-.2-.57-.19-.56-.21-.56-.2-.58-.2-.57-.18-.57-.19-.59-.2-.57-.2-.56-.18-.58-.19-.58-.21-.56-.18-.59-.19-.57-.18-.57-.19-.59-.18-.58-.19-.57-.19h0l-.58-.18h0l-.58-.17-.58-.19-.58-.16-.58-.18-.58-.15h0l-.59-.19h0l-.59-.15h0l-.58-.16h0a5.54,5.54,0,0,0-.58-.17c-.18-.06-.38-.11-.58-.16l-.59-.15h0l-.6-.16h0c-.2,0-.37-.09-.58-.15l-.58-.14h0l-.59-.14h0c-.2,0-.4-.09-.59-.15h0l-.59-.11h0a3.9,3.9,0,0,0-.59-.14h0l-.6-.14a4.16,4.16,0,0,1-.59-.13c-.39-.06-.8-.16-1.19-.22h0c-.19,0-.4-.07-.6-.12l-.58-.1h0l-1.2-.22h0c-.39-.06-.8-.1-1.19-.18h0l-1.2-.16h0a4,4,0,0,0-.59-.07h0l-1.2-.14h0c-.83-.09-1.61-.16-2.42-.22h0c-.6,0-1.2-.07-1.81-.09h0c-.81-.05-1.61-.06-2.44-.06h-1.17a3.89,3.89,0,0,0-.59,0h0a5.62,5.62,0,0,0-.59,0h0l-.6,0h0c-.18,0-.39,0-.59,0h0l-.59,0h0c-.2,0-.39,0-.58,0l-.6.06h0a5.44,5.44,0,0,1-.58.05h0a3.94,3.94,0,0,1-.6,0h0l-.58.07h0a3.92,3.92,0,0,1-.59,0h0a4,4,0,0,1-.58.08h0l-.59.1a3.65,3.65,0,0,0-.59.08c-.21,0-.39.07-.58.08h0c-.2,0-.39,0-.59.09h0c-.2,0-.4.07-.59.08h0l-.58.11h0a4.17,4.17,0,0,1-.6.1h0l-.57.12h0c-.21,0-.4.06-.59.11h0l-.59.11h0a2.3,2.3,0,0,0-.58.12h0c-.19,0-.39.07-.58.12h0l-.58.13c-.18,0-.37.08-.58.13s-.39.08-.59.12l-.57.15h0a5.29,5.29,0,0,0-.6.13l-.57.13h0l-.58.15-.58.17h0l-.59.13h0l-.57.15-.58.17-.57.16-.58.15-.59.16-.57.17-.59.15-.57.18h0l-.58.16-.57.18h0l-.58.16-.57.18h0l-.56.17h0l-.58.19-.58.19h0l-.57.17h0l-.57.18-.57.18h0l-.59.18h0l-.57.2-.57.18h0l-.56.19h0l-.56.17h0l-.57.19h0l-.58.18h0l-.58.21h0l-.56.17h0l-.57.18h0l-.57.21h0l-.33.08h0l-.35.14h0l-1.06.35-.35.12-.37.1-.36.13-.38.13h0l-.37.1-.36.12-.39.13h0l-.38.14-.36.1h0l-.37.12h0l-.4.13-.37.14-.38.09-.39.12-.76.24-.38.13-.38.12h0l-.37.11h0l-.39.12-.38.12-.39.09h0l-.37.13-.75.22-.39.11-.38.11-.36.1-.36.1h0l-.36.1-.36.09-.38.11-.35.09h0l-.36.09h0l-.35.09h0l-.36.09-.32.1h0l-.34,0-.35.07h0l-.32.1h0l-.31.07h0l-.34.09h0l-.31,0h0l-.32.08-.3.06-.31,0h0l-.29,0h0l-.3.06h0l-.28,0h0a2.66,2.66,0,0,0-.28,0h0l-.27,0h0l-.25,0h0a1.17,1.17,0,0,0-.27,0h0a1.18,1.18,0,0,0-.26,0h0l-.24,0h-.24a.93.93,0,0,0-.23,0h-.84l0,0h-.46l-.18,0h0l-.2,0h0l-.2,0h0v0l-.23,0h0a1.27,1.27,0,0,0-.26,0h0l-.21,0h0l-.2,0H67.5l-.07,0-.17,0h0l0,0-.2,0h-.07l-.23,0h0v0l-.19,0-.06,0c-4.68-1-11-3.43-15.93-5.29C40.42,567,30,563,18.74,563a59.83,59.83,0,0,0-6.46.4,99.71,99.71,0,0,0,9.78,11.43,143.09,143.09,0,0,1,14.58,4.93c9.41,3.58,19.13,7.27,29.77,8h.46a1.34,1.34,0,0,0,.35,0h.21l.36,0H68a3,3,0,0,0,.43,0h.07a5.06,5.06,0,0,0,.55,0h0c.37,0,.76,0,1.13,0h.53a3.14,3.14,0,0,0,.53,0h.54a4.61,4.61,0,0,1,.52,0h0l.53,0h.53a4.73,4.73,0,0,1,.53,0h0l.53,0h0a3.57,3.57,0,0,0,.54-.06c.17,0,.35,0,.53,0h0l.52,0h0l.54-.06h0a3,3,0,0,1,.53-.07h0l.53-.06h0l.52-.06.54-.09h0c.17,0,.34,0,.53-.07h0l.53-.08h0a4.67,4.67,0,0,1,.52-.08,3.29,3.29,0,0,1,.53-.1c.19,0,.35-.06.54-.09h0l1-.2h0c.19,0,.37-.08.54-.1h0c.18,0,.36-.08.52-.13a5.3,5.3,0,0,0,.55-.1h0l.52-.1.53-.14h0a5.35,5.35,0,0,0,.55-.11,4.36,4.36,0,0,1,.52-.11h0c.18-.06.37-.09.54-.15h0l.53-.13h0l.52-.11.55-.15.53-.15.53-.13h0l.54-.14h0l.53-.16h0l.55-.15h0l.51-.15.56-.15.52-.16h0L93,584h0l.53-.16h0l.55-.16h0l.53-.17h0l.55-.17h0l.54-.16.55-.18h0l.53-.16.55-.17h0l.53-.18.55-.16h0l.54-.18h0l.54-.18.55-.17.56-.19h0l.53-.19h0l.56-.17h0l.56-.18h0l.54-.18h0l.55-.18h0l.56-.18h0l.55-.19h0l.34-.11h0l.33-.11h0l.36-.11h0l.34-.12h0l.34-.12h0l.35-.1h0l.35-.12.35-.11h0l.36-.13h0l.35-.09h0l.37-.14.35-.11h0l.36-.13h0l.35-.1h0l.35-.1.37-.13h0l.37-.12h0l.37-.12.35-.11h0l.36-.12h0l.38-.11.35-.12h0l.36-.1.38-.12.35-.11.37-.11.36-.12h0l.37-.08.35-.11.37-.11.37-.11.35-.11.35-.11.37-.1.35-.1.35-.1.37-.1.35-.1.34-.09h0l.35-.09.36-.09h0l.34-.09.33-.1.36-.07.34-.1h0l.33-.07h0l.34-.09.32-.07h0l.35-.1.32-.06h0l.31-.07h0l.33-.08h0l.33-.05h0l.31-.07h0l.31-.06h0l.31-.07h0l.31-.05h0l.31,0h0l.3-.06h0l.29,0h0l.3,0h0l.28-.05h0l.3,0h0a1.09,1.09,0,0,0,.26,0h0l.58.2h0l.59.18h0l.6.21h0l.64.21h0l.67.22h0l.66.24h0l.69.2h0l.74.24h0l.73.25h0l.75.24h0l.77.24h0l.79.26h0l.8.23h0l.82.27h0l.83.24h0l.85.28h0l.85.28h0l.87.26h0l.9.26h0l.89.28h0l.91.27h0l.91.26.92.27h0l.93.27h0l.94.28,1,.26h0l1,.27h0l1,.3,1,.24h0a9.87,9.87,0,0,0,1,.27h0c.33.08.64.18,1,.27h0l1,.26,1,.26h0l1,.27c.65.15,1.33.33,2,.5l1,.25h0l1,.25h0l1,.23h0c.32.1.65.16,1,.24l1,.23c.31.07.63.16,1,.23h0l1,.22c.33.07.67.13,1,.21a9.79,9.79,0,0,0,1,.21l1,.21,1,.2h0c.33.06.63.12,1,.2h0c.33,0,.64.12,1,.18s.64.12,1,.18h0l.93.15h0c.31,0,.61.11.91.17h0l1.84.29c.3,0,.6.1.89.13h0c.31,0,.6.1.88.13h0c.3,0,.58.07.89.11h0l.86.1h0c.29,0,.57.07.83.12h0c.3,0,.56,0,.86.06h0l.81.09.8,0h0l.8.06h0c.26,0,.51,0,.78,0h0l0,0h.57l0,0h.39l0,0H184l0,0H187a2.42,2.42,0,0,1,.46,0h0l.51,0h.47c.17,0,.34,0,.5-.05h0l.47,0h0c.17,0,.34,0,.49,0h0l.49,0h0a2.74,2.74,0,0,0,.48-.06l.48,0a3.91,3.91,0,0,1,.48,0l.48-.09h0l.48,0,.47-.09a2.7,2.7,0,0,0,.48-.09c.16,0,.31,0,.47,0l.47-.1a3.86,3.86,0,0,0,.49-.09h0a4.3,4.3,0,0,0,.47-.09c.17,0,.32,0,.47-.08l.49-.12a2.07,2.07,0,0,0,.46-.09c.15,0,.31-.08.47-.1s.32-.08.48-.1.3-.07.47-.11a4.19,4.19,0,0,0,.47-.14h0a3.26,3.26,0,0,0,.48-.11,3.9,3.9,0,0,0,.46-.12h0a3.09,3.09,0,0,0,.46-.12,2.32,2.32,0,0,0,.47-.13l.5-.12c.15,0,.29-.1.46-.13l.45-.14.5-.13.45-.14.48-.14.47-.15.46-.15.47-.13.47-.16.47-.15.49-.16.45-.15.49-.16.46-.17.47-.16.48-.15.47-.19.47-.14.48-.17.46-.16.49-.18.48-.16.47-.18.48-.19.47-.14.47-.19.48-.19.48-.16L215,581l.49-.19.47-.17.4-.14.41-.14.4-.14.4-.16.4-.14h0l.4-.16.42-.14.39-.14.41-.17.42-.12.4-.16.41-.14.41-.15.41-.15.42-.15.4-.15.42-.13.42-.15.4-.14.42-.14.42-.14.39-.14h0l.42-.13.4-.14.44-.14.38-.12.42-.14h0l.41-.12.4-.13.42-.12h0l.4-.12h0l.4-.14h0l.4-.1.4-.12.4-.11.4-.12.4-.11.39-.09.4-.11h0l.39-.11.38-.09.39-.09.39-.09.39-.09.37-.09.39-.07.36-.09c.14,0,.25-.05.38-.07a2.7,2.7,0,0,0,.35-.07,2.14,2.14,0,0,0,.38-.07,3.58,3.58,0,0,0,.37-.06l.35,0,.37,0,.36-.06.34-.06a1.42,1.42,0,0,0,.36,0,3.31,3.31,0,0,1,.34,0c.11,0,.23,0,.34,0l.34,0h0a1.27,1.27,0,0,0,.33,0h0l.32,0h2l.33,0h0a1.16,1.16,0,0,0,.32,0h0l.35,0h0c.11,0,.22,0,.34,0h0c.11,0,.23,0,.33,0h0a1.5,1.5,0,0,0,.37,0h0l.33.06h0l.36.06h0l.36,0h0l.35,0h0l.38.06h0a2.41,2.41,0,0,0,.37.07h0c.11,0,.24,0,.35.07h0c.14,0,.26.06.38.07h0c.13,0,.26,0,.37.09h0l.39.07h0l.38.09h0l.38.09h0l.38.09.39.09h0l.39.09.39.11h0l.41.11h0l.39.09.39.11.4.12h0l.39.11.41.12h0l.39.1h0l.41.14h0l.41.12h0l.42.12.39.13h0l.4.12h0l.42.14.41.12.42.14h0l.41.14.4.13h0l.41.14.41.14.43.14.4.14.41.15.41.13.41.15.42.15.42.15.39.15.42.14.42.16.41.12.41.17.4.14.39.14.42.16h0l.39.14.41.16.4.14.4.14.4.14c10.28,3.77,20,7.35,30.45,7.35h1.46l.05,0H298l0,0h.39l.05,0H299l.05,0h0c.26,0,.52,0,.77,0h0c.27,0,.54,0,.8-.06h0l.79,0,.84-.09h0l.83-.06h0c.29-.05.56-.09.85-.12h0l.85-.1h0c.31,0,.59-.09.89-.11h0c.28,0,.59-.1.89-.13h0c.28,0,.59-.09.89-.13l.89-.13h0c.33-.06.63-.12.94-.16h0c.3-.06.61-.13.92-.17h0c.31-.06.63-.1.94-.15h0c.31-.06.63-.14.94-.18s.63-.14.95-.18h0c.33-.08.64-.14,1-.2h0l1-.2c.32-.08.65-.13,1-.21s.65-.13,1-.21.65-.14,1-.21l1-.22h0c.35-.07.66-.16,1-.23l1-.23c.32-.08.65-.14,1-.24l1-.23c.31-.09.65-.16,1-.25l1-.25c.31-.07.64-.17,1-.24h0c.33-.11.67-.18,1-.26s.65-.19,1-.27l1-.26,1-.26,1-.27,1-.27,1-.24,1-.3.95-.27.95-.26.95-.28.93-.27.93-.27.92-.26.9-.27.9-.28.89-.26.85-.26.87-.28.84-.28.84-.24.82-.27L347,577l.8-.26.77-.24.75-.24.73-.25.72-.24.71-.2.65-.24.68-.22.64-.21.62-.21.59-.18.56-.2.29,0,.28,0,.29.05.29,0,.3,0,.3.06.29,0,.32.05.3.07.33.06.3.07.32.05.34.08.32.07.33.06h0l.33.1.33.07.33.09.34.07.34.1.35.07h0l.34.1h0l.34.09h0l.36.09.34.09h0l.35.09.36.1h0l.35.1.34.1h0l.36.1h0l.37.1h0l.35.11h0l.35.11h0l.39.11h0l.35.11h0l.36.11h0l.36.08h0l1.81.56h0l.36.12h0c.73.23,1.47.46,2.19.71h0l2.85.91h0l2.42.79,3.3,1.08h0l1.09.38h0l.55.17h0c.36.13.73.23,1.1.36h0l.54.16h0l.53.18.56.17h0l.53.16h0l.55.18h0l.54.16h0c.37.11.72.22,1.06.34h0l.56.16h0l.53.16h0l.55.14h0l.52.16.55.15.53.15h0l.53.15.55.16.53.14.54.13.54.15c.17.06.35.08.53.15l.53.11h0l.53.13h0c.17.06.35.09.53.15a5.17,5.17,0,0,1,.54.11l.53.11c.17,0,.35.09.53.14l.53.1h0a4.51,4.51,0,0,0,.53.1c.16.05.35.09.53.13h0l1.59.3h0c.17,0,.35.07.53.09h0a3,3,0,0,1,.52.1h0a4.21,4.21,0,0,1,.53.08h0l1.6.24h0l2.64.3h0c.18,0,.37,0,.53,0h0c.35,0,.7.08,1,.1h0l1.07.05h0l.53,0h0a4.52,4.52,0,0,1,.52,0h.53a3.26,3.26,0,0,0,.53,0H412Z"/></g></g></svg>