<svg xmlns="http://www.w3.org/2000/svg" viewBox="0 0 449.38 649.47"><g id="Layer_2" data-name="Layer 2"><g id="Layer_1-2" data-name="Layer 1"><path d="M268.38,64.53V31.2H181V73.46H177.1s24.28.55,27.41,0,4.85-1.49,10.26,0,22.44,1.77,27.14,1.77,10.72-2.65,16.39-2.47c1.21,0,6.08.42,10.08.6Z"/><path d="M449.37,58.21c-.28-11.47-4.75-27-4.75-27H271.87s2,21.46,1.71,33.8c-.11,5-.58,8.46-1.71,8.46h10.61v.07a155.39,155.39,0,0,0,23.08,1.7c3.73,0,7-.42,14,1.21,11.91,2.75,25.14.09,34.12,2.57,17.24,4.75,31.23,4.17,47,4.55,21.72.53,38.39-.14,38.39-.14s9.4-10.22,10.19-21.72C449.39,60.61,449.39,59.42,449.37,58.21Z"/><path d="M177.1,66.93V31.2H4.78s-.62,2.14-1.4,5.38C1.81,43.06-.45,54,.08,61.7.86,73.2,10.26,83.42,10.26,83.42s18.12,1,39.16,0c13.75-.69,27.17-3.63,43.08-3.63,11.75,0,22.77-2.16,35.25-4.94,6.27-1.39,11.36,1.32,18.38.19a114.83,114.83,0,0,1,20.78-1.51v-.07H177.1Z"/><path d="M268.38,73.46h3.49c-1,0-2.18,0-3.49-.1Z"/><rect x="132.91" y="31.2" width="184.85" height="7.44"/><rect x="158.3" y="28.55" width="31.33" height="2.65"/><rect x="260.03" y="28.55" width="31.33" height="2.65"/><path d="M223.82,0c-27.41,0-44.68,24.67-48.53,30.75h7c3.39-5.61,17.51-26.31,41.49-26.31,27.75,0,45.07,26.27,45.07,26.27l7.31.15S255.08,0,223.82,0Z"/><rect x="132.91" y="36.58" width="184.85" height="2.07"/><path d="M221.63,98.83s6.52-11.48,14.42-5.16,12.2,21.78,16.5,23.25c5.7,2,9.36-3,9.36-3s3,2.06-1.17,5.4c-3.8,3.06-10,3.9-14-2.13-3.17-4.82-10.14-20.24-14.47-20.69a6.57,6.57,0,0,0-6.21,2.4Z"/><rect x="219.05" y="134.28" width="9.4" height="350.02"/><rect x="223.75" y="134.28" width="4.7" height="350.02"/><rect x="219.05" y="414.42" width="9.4" height="69.88"/><rect x="223.75" y="414.42" width="4.7" height="69.88"/><path d="M185.63,488.41v6.83a77.71,77.71,0,0,0,13.79,4.42V488.41Z"/><path d="M246.39,499.66a77.33,77.33,0,0,0,13.79-4.42v-6.83H246.39Z"/><path d="M199.42,488.41v11.25a120.14,120.14,0,0,0,23.43,3.12H223a119.91,119.91,0,0,0,23.42-3.12V488.41Z"/><rect x="185.63" y="484.3" width="13.79" height="4.12"/><rect x="246.39" y="484.3" width="13.79" height="4.12"/><polygon points="246.39 488.41 246.39 484.3 222.97 484.3 222.85 484.3 199.42 484.3 199.42 488.41 246.39 488.41"/><path d="M219.05,178.7s-4.45-18.48-4.45-37.15.6-30.11,0-36.73,9.15-7.63,9.15-7.63V178.7Z"/><path d="M228.45,178.7s4.45-18.48,4.45-37.15-.6-30.11,0-36.73-9.15-7.63-9.15-7.63V178.7Z"/><path d="M257.86,101c2.46,7.45,2.35,15.25.13,19.91a10.63,10.63,0,0,0,5.58-5.16c1.1-13.06-1.82-22.48-10.28-27.71-14.64-9-32.06-2.52-31.66,10.76,1.81.26,2.12-.17,4.47,0,0-6.78,6.41-10.59,12.66-10.16C247.19,89.28,254.46,90.7,257.86,101Z"/><path d="M434.41,525.81c-8,1-16.33,1.73-23.37,0-8.44-2.12-15.17-8.12-21.69-13.92-1.69-1.51-3.44-3.07-5.17-4.51A56.67,56.67,0,0,0,347,494.26a67.73,67.73,0,0,0-18.1,2.64,68.7,68.7,0,0,0-18.36,8.27c-10.47-4.39-23.56-5.77-39.87-4.23A32.35,32.35,0,0,1,267,501c-1.36,0-2.76-.07-4.3,0a67.61,67.61,0,0,0-8.33,1.25c-1.36.26-2.64.51-3.89.71a231.4,231.4,0,0,1-23.2,2.66,122.48,122.48,0,0,1-17.1-.11,198.24,198.24,0,0,1-23.23-3.75c-4.29-.87-8.72-1.77-13.18-2.5-15.47-2.55-27.84-2.32-38.87.73-1.25-1.45-3.53-2.16-5.65-2.65l-1.28-.3c-.76-.19-1.54-.37-2.32-.54.23,0,.45,0,.67.05a1.14,1.14,0,0,0,1.13-.56.71.71,0,0,0-.35-1c-3.52-1.69-7.16-3.43-12.36-2.86l-.63.06c-1,.1-2.52.26-3.93.27a13,13,0,0,0,2-1.18.8.8,0,0,0,.34-1,.87.87,0,0,0-.95-.46,69.91,69.91,0,0,1-17.54,0,17.12,17.12,0,0,1,7.07-.46,1.15,1.15,0,0,0,1.14-.5.71.71,0,0,0-.24-1,13.47,13.47,0,0,0-7.28-1.35,44.14,44.14,0,0,0-8.17,1.37c-1.21.29-2.47.53-3.81.78h-.07c1.61-.94,3.16-1.93,4.6-3a.78.78,0,0,0,.28-1.06,1,1,0,0,0-1.17-.29c-5.67,2.09-11,3.9-16.73,5.81l-.65.22c.83-1.29,1-2.61.36-3.55a.86.86,0,0,0-.65-.35,1.22,1.22,0,0,0-.79.22,128.19,128.19,0,0,1-11.13,7.35q3.59-3.27,7.47-6.29a.76.76,0,0,0,.17-1.13,1.06,1.06,0,0,0-1.3-.1,122.92,122.92,0,0,0-31.94,28c-.9.64-1.8,1.29-2.69,2a58.17,58.17,0,0,1-9.07-3.08,5.39,5.39,0,0,0-3.66-.2,5.79,5.79,0,0,0-1.21.49,5.08,5.08,0,0,0-2,2,4.89,4.89,0,0,0-.76.16,5.68,5.68,0,0,0-1.41.61,4.37,4.37,0,0,0-2.28,3.72,18,18,0,0,0,5.67,12.47c-.2,4.65,2.28,8.88,4.33,12.36l.09.15c3.16,5.35,4,11.21,4.87,17.4.4,2.85.82,5.79,1.48,8.8.89,4.08,1.89,8.7,4.47,12.76A19.13,19.13,0,0,0,43,593l.73.09a17.35,17.35,0,0,0,7.18-.23,11.94,11.94,0,0,0,1.94-.74,13.78,13.78,0,0,0,6.89-7.45,15,15,0,0,0,.66-7.7,8.17,8.17,0,0,1,.73-3.42c.13-.4.27-.8.4-1.21l2.85-9,2.85-9c.85-2.69,3.26-5.29,5.49-5.93l.43-.1a8.49,8.49,0,0,1,3.87.31,14.11,14.11,0,0,1,6.24,4,36,36,0,0,1,4.7,7l4.57,8c-1.56.36-3,.73-4.43,1.14-7.28,2.07-12.91,4.83-17.21,8.42-7.14,6-9.88,13.9-11.79,21.58a22.73,22.73,0,0,0-.54,5.44,16.44,16.44,0,0,1-.35,3.87c-.14.51-.31,1.07-.5,1.66-.87,2.77-2.06,6.56,0,10a13.09,13.09,0,0,0,3.46,3.59l.62.5a15.93,15.93,0,0,1,5.66,9.38A3.51,3.51,0,0,0,69,635.5c1.92,1.26,4,2.51,6.08,3.72s4,2.36,5.73,3.51a5.2,5.2,0,0,0,4.26.53l.08,0a5.16,5.16,0,0,0,3.32-2.81A41.06,41.06,0,0,0,91,631.89,47.59,47.59,0,0,0,110,635.41a5.2,5.2,0,0,0,1.48-.22,4.85,4.85,0,0,0,3.67-3.9,21.57,21.57,0,0,0-.81-9.45,11.69,11.69,0,0,0-10-7.85,20.36,20.36,0,0,0-3.83,0c-.5,0-1,.06-1.39.06a6.17,6.17,0,0,1-5.76-3.44,93.44,93.44,0,0,0-4-8.46c-.84-1.66-1.72-3.37-2.52-5.1-1.09-2.38-.93-3-.86-3.19s0,0,0-.05h0l.21-.07a14.54,14.54,0,0,1,3.09-.28c.66,0,1.34-.05,2-.1,2.64-.19,5.26-.52,7.79-.83s4.68-.58,7-.76a240.79,240.79,0,0,1,29.15-.51,15.77,15.77,0,0,0,5-.66,34.54,34.54,0,0,0,7.48-3.34,402,402,0,0,0,48.9-4.75l2.47-.39c8.91-1.41,18.12-2.87,27-5.4,1.72-.49,3.4-1,5-1.56,2.75-.93,5.18-1.7,7.43-2.34,9-2.58,16.24-3.41,22.65-2.61,7.89,1,14.77,4.77,18.41,10.11,2.54,3.72,7.54,3.92,10.84,4l1.5.07a86,86,0,0,0,11.17-.28c15.37-1.06,29.38,8.41,41.74,16.77l1.3.88c4.52,3.06,8.8,5.94,11.52,10,2.88,4.24,4.78,9.2,6.62,14,1.22,3.19,2.6,6.8,1.77,10a17.24,17.24,0,0,1-.67,1.93,28,28,0,0,0-.93,2.77c-.78,3-.32,5.64,1.33,7.58a4.74,4.74,0,0,0,4.27,1.4,50.54,50.54,0,0,0,6.8-1.45,48.57,48.57,0,0,0,11.86-5.11,4.24,4.24,0,0,0,2.23-4.13,24.92,24.92,0,0,0-6.49-13,12.21,12.21,0,0,1-2-3.07c2.35,1,5,2.27,7.64,3.52a114.36,114.36,0,0,0,11,4.83c3.56,1.23,7.22.8,10.45.41a31.32,31.32,0,0,1,4-.31,6.49,6.49,0,0,0,1.69-.23,5.28,5.28,0,0,0,3.54-3c.51-1.36.43-2.69-1.43-6.62s-2.57-4.52-2.86-4.78c-4.49-4.07-9.15-2.88-12.31-2-.17-.25-.34-.55-.52-.87s-.53-.92-.88-1.41a19.33,19.33,0,0,0-8.75-6.52c-15.19-6.18-18.91-12.61-23.22-22.45-1.63-3.72-5.47-10.28-12.9-12.44a41.12,41.12,0,0,0-8.5-1.26c-1.28-.1-2.48-.19-3.64-.34-1.87-.24-5.18-.92-6.23-2.71-2.24-3.86-2.25-9-2.26-14.4,0-4.38,0-8.9-1.22-13.1a48.72,48.72,0,0,0-4-9.63,25.1,25.1,0,0,0,8.92,6.47c4,1.61,8.54,1.82,12.5,2,.92.05,1.84.09,2.74.15,13.88.94,26.61,6.55,34.93,15.41a5,5,0,0,0,5,1.1,5.68,5.68,0,0,0,1.66-.77c2.13-1.45,2.66-4,1.2-5.65s-2.91-3.3-4.37-4.85a46.37,46.37,0,0,0,6,2.54c10.88,3.67,23.47,1.79,33.59.28.26,0,.51-.1.75-.16a4.93,4.93,0,0,0,3.64-3.68,3.61,3.61,0,0,0-3.09-4.06c-2.4-.53-4.84-1.11-7.23-1.68a56.51,56.51,0,0,0,8.38-3.13c2.1-1,3.22-3,2.68-4.84S436.7,525.51,434.41,525.81Zm-344-37.39c.87-.15,1.73-.28,2.54-.38s1.54-.14,2.18-.18c1.24,0,2.06,0,2.06,0s-.85.12-2.14.33l-2.18.35c-.8.13-1.65.28-2.5.46s-1.7.32-2.5.5l-2.19.48c-1.29.29-2.15.5-2.16.49s.84-.33,2.13-.8l2.21-.66C88.65,488.79,89.52,488.6,90.39,488.42Zm41.36,11.71-.95-.06-.94-.13-1.05-.18-1-.25-.88-.25-.84-.31h1l1,.09,1.07.18,1,.26.87.28Zm-11.11-5.36c-.52-.1-1.14-.19-1.81-.26s-1.39-.14-2.12-.17-1.46-.06-2.16,0-1.35,0-1.92.07c-1.13,0-1.9.15-1.9.15s.75-.23,1.9-.46c.59-.09,1.26-.18,2-.24s1.5-.05,2.26,0,1.49.14,2.17.25,1.27.28,1.77.43a15.24,15.24,0,0,1,1.57.63A17.2,17.2,0,0,0,120.64,494.77ZM106,491.6l-2,.18c-.73,0-1.51.07-2.3.09l-2.25,0-1.92-.15c-1.09-.14-1.8-.26-1.8-.26s.78,0,2-.06l2,0c.71,0,1.47,0,2.24,0s1.52,0,2.23,0h2l1.91,0Zm-50.9,1.88c-.82.63-1.75,1.39-2.74,2.21s-2,1.7-3,2.61-2,1.81-2.94,2.69-1.76,1.7-2.47,2.43c-1.44,1.43-2.37,2.42-2.37,2.42s.8-1,2-2.56c.67-.75,1.46-1.61,2.33-2.53s1.89-1.85,2.91-2.77,2.12-1.8,3.14-2.6,2-1.51,2.9-2.12c1.76-1.16,3-1.88,3-1.89S56.75,492.2,55.13,493.48Zm24.72-5.94c1.43-.46,2.38-.79,2.38-.79l-2.29,1.08c-.69.3-1.51.64-2.39,1s-1.83.71-2.78,1.06-1.9.64-2.79.92-1.73.51-2.44.7c-1.42.35-2.35.56-2.35.56l2.36-.89c.7-.24,1.52-.54,2.4-.86l2.74-1c.94-.32,1.87-.65,2.75-1Zm-19.46,5.19c.93-.59,1.86-1.17,2.73-1.74s1.68-1.07,2.37-1.53c1.42-.89,2.35-1.5,2.35-1.5s-.81.68-2.09,1.7c-.66.5-1.44,1.06-2.29,1.67s-1.79,1.22-2.73,1.83-1.92,1.18-2.83,1.71-1.78,1-2.52,1.39c-1.5.76-2.48,1.22-2.48,1.22s1-.59,2.35-1.5c.71-.44,1.54-1,2.41-1.52S59.47,493.32,60.39,492.73ZM41.62,586.27l-.16-.21a5.78,5.78,0,0,0-.45-.48,4.14,4.14,0,0,0-.7-.54,2.91,2.91,0,0,0-.91-.41,3.21,3.21,0,0,0-1-.22,6.78,6.78,0,0,0-1,0,5.71,5.71,0,0,0-.75.09,2.1,2.1,0,0,0-.31,0s.08-.08.23-.2a3.09,3.09,0,0,1,.73-.41,3.72,3.72,0,0,1,1.2-.27,4.64,4.64,0,0,1,1.38.15,3.7,3.7,0,0,1,1.1.66,2.35,2.35,0,0,1,.57.85,1.81,1.81,0,0,1,.12.69A2.17,2.17,0,0,1,41.62,586.27Zm58.51,37.07c.23.69.51,1.45.82,2.18a44,44,0,0,0,2.22,4.6,45.46,45.46,0,0,1,.76-5c.08-.4.17-.78.26-1.16a29.83,29.83,0,0,0,5.66-.13,19.1,19.1,0,0,1,.51,7.59,42.35,42.35,0,0,1-17.72-3.51c-6.79-4.81-9.7-8-12.21-13.16a30.3,30.3,0,0,1-3.29-10.81,4.84,4.84,0,0,1,.91.23,7.13,7.13,0,0,1,3.1,2.4A32.7,32.7,0,0,1,83.89,612C86.73,617.71,92.93,621.82,100.13,623.34Zm293.7-6.65a35.12,35.12,0,0,0,8.61,3.87c.47.12.94.21,1.42.3a19.85,19.85,0,0,0,1.65,2.3,22.65,22.65,0,0,0,4,3.77,19.42,19.42,0,0,1-1.18-4.86c0-.31-.06-.62-.07-.92a23.63,23.63,0,0,0,5.25-.78c1.18,2.07,3.26,6.51,2.63,6.69h-.05c-4.25,0-8.95,1.5-12.76.18-6.13-2.12-14.91-7.15-21-9.27a31.5,31.5,0,0,1-3.59-1.45c-1.52-3.51-3-7.26-4.53-10.95C380.79,609.18,387.27,613,393.83,616.69ZM345.8,578a31.51,31.51,0,0,1,16.11,15.21c4.84,10.44,9.64,21.73,14.42,32.19,1.13,2.47,2.26,5,3.17,7.55a42.18,42.18,0,0,0-4.23,2.54,41.16,41.16,0,0,0-5.44,4.43,46.13,46.13,0,0,1,6.63-2.23,38,38,0,0,1,4.23-.81,26.31,26.31,0,0,1,.77,5.23,44.7,44.7,0,0,1-5.65,2,43.47,43.47,0,0,1-6,1.28,5,5,0,0,1-.64-4.52c.41-1.58,1.18-3.11,1.6-4.69,1.09-4.15-.4-8.22-1.87-12.05-1.93-5.06-3.89-10.15-7-14.69a25.19,25.19,0,0,0-3.36-3.93c-.69-1-1.44-2.14-2.17-3.27-2.67-4.07-5.12-8.28-5.12-8.28s1.38,3.87,3.05,8c-1.58-1.17-3.23-2.3-4.92-3.43-13.13-8.87-28.4-19.65-46.13-18.42-2.9.21-5.8.39-8.66.33-.36-.25-.81-.56-1.36-1a51.34,51.34,0,0,1-11.62-11.86,84.12,84.12,0,0,1-5.68-9.43c-1.75-3.32-3.38-6.71-5-9.87s-3-6.11-4.28-8.64l-4.17-8.42,3.65,8.64c1.1,2.59,2.37,5.61,3.74,8.85s2.8,6.7,4.36,10.14c.37.82.75,1.64,1.14,2.45l-.44-.24a20.68,20.68,0,0,0-2.21-1.1c-.81-.34-1.68-.68-2.61-1l-1.42-.43-1.49-.35c-1-.23-2-.4-3.08-.54l-1.57-.19-1.57-.11c-1-.07-2.08-.08-3.07-.08-2,0-3.85.14-5.44.31-.8.07-1.53.19-2.17.27s-1.2.17-1.66.26l-1.44.25,1.45-.12c.46,0,1-.09,1.66-.11s1.35-.08,2.14-.07a49.41,49.41,0,0,1,5.29.17c.95.09,1.94.19,2.91.34l1.47.24,1.45.32c1,.22,1.9.48,2.8.78l1.32.45.69.29a69.19,69.19,0,0,0-17.38-1.11c-10.89.68-21.6,4.7-32.2,7.43-11.29,2.91-22.83,5.32-34.36,5.52a85.48,85.48,0,0,1-20.83-2.17c.67-1.26,1.4-2.66,2.06-4.08,2.12-4.38,3.68-8.82,3.68-8.82s-2.92,4-6.24,7.77c-.45.5-.89,1-1.34,1.48.81-1.86,1.57-3.84,2.22-5.83a56.35,56.35,0,0,0,2.4-11.43c.16-1.55.21-2.84.23-3.74s0-1.41,0-1.41l-.29,1.41c-.18.9-.47,2.18-.91,3.7a58,58,0,0,1-4.31,10.85c-1,1.91-2.09,3.78-3.19,5.49s-2.23,3.27-3.25,4.56l-.17.21a33.85,33.85,0,0,1-3.75,2.8c-6.89,4.43-15.29,6.55-23.52,7.72s-16.51,1.47-24.73,2.79c-.63.1-1.25.24-1.87.36h0c-2.38.33-9.35,2.32-9.35,2.32-14.53,4.65-15.46,5.4-16.89,7.41s-1.86,6.89-2.42,9.14c-1.16,4.63-2.31,8.53-.91,11.53a45.33,45.33,0,0,0,6,9.21c-.55.82-1.2,1.79-1.83,2.78-1.57,2.45-3,4.93-3,4.93s2.54-1.77,5.15-3.4c.75-.48,1.51-.94,2.21-1.36a64,64,0,0,0,6.45,6.05A37.52,37.52,0,0,1,84,639.44c-3.66-2.41-8.14-4.81-11.8-7.23a19.39,19.39,0,0,0-6.88-11.41,13.13,13.13,0,0,1-3.26-3.12,6.58,6.58,0,0,1-.38-5l0,0s.61-2.26,1.46-4.52,1.89-4.49,1.89-4.49-.77.8-1.76,1.92a32.14,32.14,0,0,1,.49-6.48c1.68-6.78,4.06-14.07,10.3-19.28,4.15-3.47,9.51-5.74,15.12-7.34,2.3-.65,4.64-1.19,7-1.65l.85-.09a13.29,13.29,0,0,0,1.35-.19c.55-.11,1.21-.18,1.85-.37a18.25,18.25,0,0,0,2.06-.63c.36-.13.72-.26,1.09-.41l1.1-.51a19.32,19.32,0,0,0,2.16-1.23l1-.71,1-.78a21.49,21.49,0,0,0,1.76-1.66l.78-.85.69-.86a23.35,23.35,0,0,0,2.08-3.24,24.1,24.1,0,0,0,1.11-2.37l.35-.91s-.19.31-.51.86a22,22,0,0,1-1.49,2.21,23,23,0,0,1-2.51,2.87l-.78.74-.85.7a19.94,19.94,0,0,1-1.82,1.3l-.06,0C102.5,563,99.29,559,96.55,555c-3-4.23-6-8.76-11.15-11-3.06-1.33-6.58-1.75-10-2.32-3.16-.52-6-2-9-2.53-.3-.64-.62-1.27-1-1.86s-.66-1.09-1-1.57-.68-.93-1-1.33a20.44,20.44,0,0,0-1.71-1.86l-.69-.66.52.77a17.88,17.88,0,0,1,1.23,2.09c.23.44.45.93.67,1.46.09.21.18.43.26.66a16.7,16.7,0,0,1-1.47,5.46c-1.09,2.78-2.58,5.48-3.18,8.33-.71,3.39-1.42,6.79-1.89,10.19A71.14,71.14,0,0,0,56.51,573a10.53,10.53,0,0,0-.82,4.89.34.34,0,0,0,0,.1,11.05,11.05,0,0,1-1.21-2.57,5.26,5.26,0,0,1-.18-.77,3.8,3.8,0,0,1-.07-.61c0-.34,0-.54,0-.54s0,.2-.12.55a3.39,3.39,0,0,0-.09.64,4.44,4.44,0,0,0,0,.83,15.69,15.69,0,0,0,1,4.28c.19.59.35,1.16.49,1.71-.21-.48-.42-1-.61-1.44a22.3,22.3,0,0,1-1.4-5.32c-.14-1-1.73-1.25-2.43-.35-1.15,1.48-1.24,2.87-1.74,4.86a13.38,13.38,0,0,0-.27,5.94,13.52,13.52,0,0,1,0,4,19,19,0,0,1-4.91-.23,13.41,13.41,0,0,1-1.7-.3,4.69,4.69,0,0,0,.58-2.12,3.67,3.67,0,0,0-1.77-3.13,4.86,4.86,0,0,0-4.16-.28,4.25,4.25,0,0,0-1.8,1.36,16.06,16.06,0,0,1-2-2.58c-2.24-3.55-3.15-7.66-4-11.7-2.08-9.54-1.73-18.68-6.72-27.17-2.14-3.63-4.74-8-3.78-12.19a14.75,14.75,0,0,1-5.86-11.21c.4.15.8.32,1.2.5a28.94,28.94,0,0,0,3,2.5,34.82,34.82,0,0,0,5.72,3.38,29.62,29.62,0,0,1-4.32-4.44c-.38-.48-.73-1-1-1.43a8.72,8.72,0,0,1-.59-3.11,65.52,65.52,0,0,0,10.57,3.52c-.37.46-.73.93-1.09,1.4-2.57,3.31-4.82,6.73-4.82,6.73s3-3,6.18-5.87,6.56-5.48,6.56-5.48h0c1.78-1.26,3.59-2.45,5.44-3.6,2.27-1.12,4.55-2.23,6.84-3.31-3.72,3.59-7,7.35-7,7.35s4-3.39,8.35-6.45c2.36-1.71,4.79-3.31,6.5-4.41,3.13-1.32,6.31-2.56,9.54-3.65,10.18-3.43,21.08-5.45,31.44-4.41,12.14,1.23,20.78,4.43,32,4.92.31,0,.71.07,1.2.15a22.18,22.18,0,0,1,3.83.95,20.25,20.25,0,0,1,3.56,1.65c.91.54,1.47,1,1.47,1a15.78,15.78,0,0,0-1.06-1.32,17.75,17.75,0,0,0-1.44-1.42c.78.34,1.57.7,2.35,1.11a33.32,33.32,0,0,1,5.53,3.64c1.39,1.13,2.22,2,2.22,2a27.54,27.54,0,0,0-1.78-2.3,30.93,30.93,0,0,0-4.54-4.34,13.55,13.55,0,0,0-1.56-1.34c11.65-3,23.87-2.18,35.31-.29,12.31,2,24.23,5.28,36.84,6.3a129.7,129.7,0,0,0,17.86.13c7.47-.43,14.95-1.38,22.4-2.52a74,74,0,0,0-9.09,5.18c-1.25.82-2.25,1.55-2.95,2.07l-1.08.81,1.17-.72c.75-.45,1.82-1.08,3.15-1.79a76.51,76.51,0,0,1,10-4.49,75.61,75.61,0,0,1,10.53-3l.68-.13.63-.06c.42,0,.84,0,1.25,0l-.19.08a79.64,79.64,0,0,0-9.13,4.89,81,81,0,0,1,9.7-3.51c2.2-.65,4.41-1.15,6.19-1.51h.34c3.45-.33,6.95-.53,10.42-.57a49.66,49.66,0,0,1,24.64,11.46c8.52,7.31,14.27,16.63,19.56,26,2.14,3.79,1.77,8.48,2.56,12.72.72,3.84,2.16,7.41,3,11.16.83,3.53,1.58,6,5.23,8.13C339.1,575.6,342.6,576.61,345.8,578ZM427,532.65a55.57,55.57,0,0,1-8.15,1.67c-1.93.15-4.39.31-7,.44h-1.36l.05.06-.91,0c-6.54.27-13.09.16-13.09.16s6.19,1.37,12.57,2.36c4.44.72,8.95,1.25,11.28,1.51,4.47,1,8.92,2.15,13.42,3.15-7.56,1.12-15.42,2.22-22.74,1.58l-.47,0c-.36,0-.9,0-1.58,0a37.06,37.06,0,0,1-5.48-.52,57.77,57.77,0,0,1-7.19-1.78c-2.53-.79-5.13-1.75-7.72-2.69s-5.19-1.82-7.7-2.49a44.24,44.24,0,0,0-7.09-1.33,29.08,29.08,0,0,0-5.25-.05c-.65,0-1.15.11-1.49.15l-.53.06.52-.09c.34-.06.85-.18,1.49-.25a29.66,29.66,0,0,1,5.36-.29,46.63,46.63,0,0,1,7.39.87c2.64.51,5.38,1.23,8.09,2s5.37,1.53,7.9,2.13c1.45.35,2.85.62,4.18.84l-.29-.17a104.13,104.13,0,0,0-10-4.66c-4.25-1.77-8.59-3.42-12.79-5.26a73.71,73.71,0,0,0,10.15-.05c1.73-.12,3.16-.29,4.16-.42l1.57-.22h-1.56c-1,0-2.41,0-4.08-.15a66.81,66.81,0,0,1-11.87-1.84,61.31,61.31,0,0,1-9.27-3.16c-1.33-.42-2.73-.89-4.11-1.4-5.88-2.07-11.34-4.69-11.34-4.69s4.82,1.57,10.29,2.85c-2.88-1.94-5.75-3.88-8.82-5.61a70.17,70.17,0,0,0-16.12-6.49c-2-.54-4-1-6.08-1.37-.85-.16-1.7-.29-2.56-.42a51.73,51.73,0,0,1,6.57-.2,56.32,56.32,0,0,1,10.94,1.51,71.6,71.6,0,0,1,18.58,7.67c2.34,1.35,4.23,2.56,5.53,3.43l2,1.37-1.86-1.54c-1.19-1-2.92-2.35-5.1-3.91a69.69,69.69,0,0,0-18-9.42,57.53,57.53,0,0,0-11.36-2.55,55.23,55.23,0,0,0-10.67-.21c-1.41.11-2.71.28-3.9.47a63.62,63.62,0,0,1,8.39-3,62,62,0,0,1,16.55-2.42c.57,0,1.12,0,1.67,0a61.39,61.39,0,0,0-6.78,2c-2,.71-3.23,1.27-3.23,1.27s1.34-.39,3.35-.82a55.67,55.67,0,0,1,7.41-1.09,53.45,53.45,0,0,1,7.29-.1c2,.11,3.23.28,3.23.28l0-.1a51.39,51.39,0,0,1,21.13,10.59c4.15,3.46,8.28,7.48,12.84,11l-.49-.06a69.54,69.54,0,0,1-7.79-1.39,72.35,72.35,0,0,1-8.49-2.69,66.26,66.26,0,0,1-7.84-3.77,55.16,55.16,0,0,1-6.16-4.13c-.86-.65-1.61-1.28-2.25-1.86s-1.23-1.06-1.66-1.5l-1.39-1.36,1.27,1.45c.39.47.91,1,1.52,1.61s1.29,1.31,2.1,2a53,53,0,0,0,5.84,4.58,64.84,64.84,0,0,0,7.63,4.34,72.59,72.59,0,0,0,8.45,3.29,68.71,68.71,0,0,0,7.93,1.94c1.19.24,2.3.4,3.28.52s1.85.26,2.57.31h.13a37.73,37.73,0,0,0,11.11,5c7.85,2,16.93,1.24,25.39.16A51.61,51.61,0,0,1,427,532.65Z"/><path d="M35.25,545.39a2.69,2.69,0,0,1-.06.35,3.26,3.26,0,0,1-.06.38A6.77,6.77,0,0,0,33.51,545a3.68,3.68,0,0,0-1.54-.3,10.36,10.36,0,0,1,1-.62c.38-.23.62-.35.62-.35s-.26,0-.72,0a12.45,12.45,0,0,0-1.88.45,12.49,12.49,0,0,0-2.43,1.28,4.71,4.71,0,0,0-1.92,2.69,2,2,0,0,0,.73,1.65,8,8,0,0,0,1.18.77A2.85,2.85,0,0,1,30,551.91a3.15,3.15,0,0,1,.52,1.32,3.57,3.57,0,0,1,.09.57,4,4,0,0,0,.29-.58,4,4,0,0,0,.17-1.66,3.61,3.61,0,0,0-.29-.81,7.05,7.05,0,0,0,2,.1,5.79,5.79,0,0,1-.5.59l-.26.3s.15,0,.43,0a7.45,7.45,0,0,0,1.08-.3,8.07,8.07,0,0,0,1.34-.82,6.58,6.58,0,0,0,1.12-1.33,5,5,0,0,0,.44-1.56,4.2,4.2,0,0,0-.24-1.32,3.31,3.31,0,0,0-.56-.76A2.11,2.11,0,0,0,35.25,545.39Zm-3.74,1.29a2.68,2.68,0,0,0-.3.23l-.34.25-.34.25a3,3,0,0,0-.32.22,3.29,3.29,0,0,0-.35.21,3.27,3.27,0,0,1,.13-.35,3.77,3.77,0,0,1,.22-.33c.11-.1.22-.21.35-.31a4.64,4.64,0,0,1,.42-.25l.41-.14c.25,0,.42-.05.42-.05A3.45,3.45,0,0,0,31.51,546.68Zm-.45-.76a3.53,3.53,0,0,0-.76.44,2.8,2.8,0,0,0-.69.64,2.7,2.7,0,0,0-.48.76,2.61,2.61,0,0,0-.21.74,1.84,1.84,0,0,0,0,.75,1.86,1.86,0,0,1-.26-.73,2.47,2.47,0,0,1,.07-.83,3.29,3.29,0,0,1,.49-.92,3.87,3.87,0,0,1,.86-.71,3.93,3.93,0,0,1,.92-.37,3.31,3.31,0,0,1,.94-.08A3.45,3.45,0,0,0,31.06,545.92Z"/><path d="M42.69,542.91a23.19,23.19,0,0,0-1.33-2.45l-.55-.9.36,1c.26.61.59,1.51,1,2.58a15.91,15.91,0,0,1,.58,1.73c.2.61.37,1.27.54,1.95a20.93,20.93,0,0,1,.69,4.34,30.16,30.16,0,0,1,0,4.46c-.11,1.44-.13,2.8-.11,4a18,18,0,0,0,.29,2.77l.22,1s0-.38,0-1.05,0-1.63.09-2.78.28-2.49.42-3.95A28.7,28.7,0,0,0,45,551a21,21,0,0,0-.84-4.44,14.86,14.86,0,0,0-.69-1.95C43.2,544,42.94,543.42,42.69,542.91Z"/><path d="M30.53,559.15s0,.32.09.87.15,1.35.31,2.29.31,2.05.55,3.21.49,2.41.74,3.66l.88,3.62c.28,1.15.61,2.21.86,3.13s.52,1.67.68,2.2.29.83.29.83,0-.32-.09-.88-.15-1.35-.31-2.29-.31-2-.55-3.21-.49-2.41-.74-3.65-.6-2.47-.87-3.62-.62-2.22-.87-3.14-.52-1.66-.68-2.19S30.53,559.15,30.53,559.15Z"/><path d="M37.14,570.59c-.3-.51-.56-.92-.74-1.21l-.33-.44s0,.19,0,.54.12.81.18,1.38.23,1.21.33,1.91.29,1.43.41,2.17.34,1.46.47,2.15.33,1.33.45,1.89.28,1,.37,1.34.17.51.17.51,0-.2.13-.55.13-.83.2-1.43,0-1.27,0-2-.16-1.5-.28-2.26-.4-1.49-.62-2.18S37.39,571.11,37.14,570.59Z"/><path d="M218.29,513.3a35.07,35.07,0,0,1-7,.85,51,51,0,0,1-9.69-.54,85.73,85.73,0,0,1-10.71-2.16c-3.62-.87-7.22-1.85-10.65-2.7s-6.74-1.42-9.6-1.81a59,59,0,0,0-7.06-.43c-.86,0-1.54.06-2,.08l-.7,0,.69.06c.45.05,1.11.09,1.94.21a55.72,55.72,0,0,1,6.73,1.15c2.75.56,5.89,1.39,9.21,2.38s6.91,2,10.55,3a87.58,87.58,0,0,0,11.12,2,52.51,52.51,0,0,0,10.15-.06,36,36,0,0,0,7.1-1.61c.84-.26,1.46-.56,1.89-.73l.66-.27-.69.18C219.79,513,219.14,513.16,218.29,513.3Z"/><path d="M218.56,564.08c-1.91.5-4.17,1-6.59,1.47s-5,1-7.57,1.39-5.17.83-7.6,1.1-4.72.57-6.68.7-3.61.32-4.76.39l-1.82.15,1.77.24c1.13.11,2.75.26,4.71.35s4.29,0,6.78-.09,5.16-.48,7.81-.86,5.28-1.06,7.72-1.68,4.68-1.41,6.57-2.1,3.41-1.38,4.48-1.85l1.65-.8-1.79.44C222.11,563.23,220.5,563.65,218.56,564.08Z"/><path d="M144.32,572.73a19.55,19.55,0,0,1-4.58,2.33,32.39,32.39,0,0,1-7,1.86,58.15,58.15,0,0,1-8.31.85l-8.52.48a70.18,70.18,0,0,0-7.53,1,34.94,34.94,0,0,0-5.17,1.61c-.6.24-1,.48-1.36.62l-.47.23.51-.13c.34-.09.82-.24,1.45-.36a33.55,33.55,0,0,1,5.16-.86,68.66,68.66,0,0,1,7.33-.42l8.49-.21a62.65,62.65,0,0,0,8.7-1.15,35.35,35.35,0,0,0,7.29-2.57,19.77,19.77,0,0,0,4.35-3.06,13.09,13.09,0,0,0,1-1l.33-.38-.42.31A11.1,11.1,0,0,1,144.32,572.73Z"/><path d="M104.39,557.89a11.75,11.75,0,0,1-3.17-2.65A24.11,24.11,0,0,1,98,550.61a41.24,41.24,0,0,0-3.87-5.56,16.36,16.36,0,0,0-6.24-4,31.93,31.93,0,0,0-6.63-1.42c-2-.17-3.67-.21-4.83-.25l-1.85,0,1.74.37c1.12.21,2.71.51,4.55,1a29,29,0,0,1,6,1.89,14.21,14.21,0,0,1,5.34,3.76,40.09,40.09,0,0,1,4,5.19,26.46,26.46,0,0,0,4.05,4.46,13.72,13.72,0,0,0,4,2.19,10.23,10.23,0,0,0,1.29.32l.46.09-.41-.18A10.42,10.42,0,0,1,104.39,557.89Z"/><path d="M62.58,527a31.13,31.13,0,0,0-3.11-2.7,30.12,30.12,0,0,0-3.23-1.83c-1-.43-1.92-.73-2.54-.92l-1-.25.76.59a22.12,22.12,0,0,1,2,1.53A25.29,25.29,0,0,1,58,525.64a27.18,27.18,0,0,1,2.66,2.7,25.31,25.31,0,0,1,2.42,2.88,22.81,22.81,0,0,1,1.89,2.69,20.26,20.26,0,0,1,1.26,2l.49.78s0-.34,0-.92a18.57,18.57,0,0,0-.45-2.36,21.87,21.87,0,0,0-1.31-3.14A25.9,25.9,0,0,0,62.58,527Z"/><path d="M280.92,558.2c-.46-1-1-2.23-1.5-3.52s-1.21-2.62-1.81-4-1.34-2.66-1.94-3.92-1.29-2.39-1.79-3.4L272.51,541l-.56-.89s0,.38.12,1,.31,1.57.54,2.68.68,2.35,1.11,3.69,1.07,2.71,1.67,4.1,1.42,2.67,2.12,3.9,1.53,2.31,2.19,3.25l1.77,2.18.74.78s-.12-.36-.32-1S281.32,559.25,280.92,558.2Z"/><path d="M324.69,579.86a28.61,28.61,0,0,0-3.19-1.6,37.81,37.81,0,0,0-4.09-1.21,42.13,42.13,0,0,0-4.37-.46c-1.44,0-2.77.08-3.9.21s-2.08.38-2.73.53l-1,.3,1,.09c.64,0,1.56.08,2.62.21s2.31.21,3.61.4a39.15,39.15,0,0,1,4,.69,37.17,37.17,0,0,1,3.93.88,32.11,32.11,0,0,1,3.38,1c1,.28,1.84.57,2.4.78l.94.29-.65-.63A23.42,23.42,0,0,0,324.69,579.86Z"/><path d="M348,586.8c.83.52,1.7,1.22,2.64,1.94a27.35,27.35,0,0,1,2.71,2.48,25.46,25.46,0,0,1,2.37,2.72,28,28,0,0,1,1.77,2.58c.47.78.87,1.44,1.11,1.92l.4.74s-.07-.3-.18-.82a12.78,12.78,0,0,0-.7-2.11,18.06,18.06,0,0,0-1.49-2.81,26.51,26.51,0,0,0-2.33-2.91,28,28,0,0,0-2.93-2.47,22.64,22.64,0,0,0-3-1.74,20.07,20.07,0,0,0-2.29-1l-.91-.3.78.47C346.51,585.82,347.19,586.27,348,586.8Z"/><path d="M383.31,614.73c.65.41,1.38.93,2.22,1.41l2.62,1.52,2.72,1.41c.86.46,1.73.81,2.44,1.15s1.35.56,1.78.74l.69.26-.55-.43c-.37-.25-.87-.65-1.52-1.06s-1.38-.93-2.22-1.41l-2.62-1.52-2.72-1.41c-.86-.45-1.73-.8-2.44-1.14s-1.35-.56-1.78-.75l-.69-.26.55.43C382.16,613.92,382.66,614.32,383.31,614.73Z"/><path d="M71.16,596.63c-.27.73-.64,1.58-.94,2.5s-.62,1.9-1,2.88l-.79,2.9c-.26.93-.41,1.81-.58,2.55s-.25,1.38-.33,1.81-.09.69-.09.69l.31-.66c.18-.42.48-1,.75-1.75s.64-1.58.94-2.5.62-1.91,1-2.89.54-2,.79-2.9.41-1.8.59-2.55.24-1.37.32-1.81.09-.69.09-.69l-.31.66C71.73,595.3,71.43,595.9,71.16,596.63Z"/><path d="M83,614.48c-.36-.4-.71-.71-.93-.94l-.38-.35.18.46a11,11,0,0,0,.55,1.16,16.22,16.22,0,0,0,1,1.56c.4.54.84,1.11,1.29,1.68s1,1.06,1.5,1.54,1,.88,1.46,1.23.86.59,1.13.78l.46.27-.28-.41c-.2-.24-.44-.63-.78-1S87.44,619.5,87,619s-.9-1-1.34-1.6-1-1.06-1.4-1.57S83.35,614.88,83,614.48Z"/><path d="M23.08,531.63a13.39,13.39,0,0,1,.69-1.48c.27-.46.47-.92.71-1.28s.4-.71.54-.93l.21-.36-.38.25a6.78,6.78,0,0,0-.91.75,8.91,8.91,0,0,0-1.07,1.23,12.5,12.5,0,0,0-.91,1.56,12.8,12.8,0,0,0-.5,1.65,7,7,0,0,0-.1,1.46,5.19,5.19,0,0,0,.14,1c.07.23.12.36.12.36l.11-.38c.06-.24.19-.58.29-1s.3-.86.45-1.35A12.43,12.43,0,0,1,23.08,531.63Z"/><path d="M17.87,527.31c-.21-.25-.38-.58-.63-.89a11.32,11.32,0,0,1-.72-1,9.31,9.31,0,0,1-.73-1c-.21-.33-.48-.61-.65-.88s-.38-.48-.49-.64l-.21-.24s0,.12,0,.32a3.75,3.75,0,0,0,.08.8,4.76,4.76,0,0,0,.34,1.08c.18.37.4.76.63,1.14a12.59,12.59,0,0,0,.91,1,6.49,6.49,0,0,0,1,.72,5.32,5.32,0,0,0,.79.4l.33.12-.16-.27C18.2,527.82,18.07,527.57,17.87,527.31Z"/><path d="M23,524l.31.06-.16-.22a6.49,6.49,0,0,0-.44-.52c-.21-.19-.4-.45-.67-.67s-.53-.47-.79-.72-.58-.44-.85-.66-.56-.39-.78-.57-.47-.28-.61-.38l-.26-.13s0,.1.06.26A3.13,3.13,0,0,0,19,521a6.69,6.69,0,0,0,.52.8c.24.26.5.54.78.8s.64.46.95.66a6,6,0,0,0,.94.44A4.32,4.32,0,0,0,23,524Z"/><path d="M320.82,541.72c-1-1.93-2.07-4.21-3.45-6.56a82.15,82.15,0,0,0-4.68-7.2,61.11,61.11,0,0,0-5.79-6.55,46.78,46.78,0,0,0-6.07-4.94,39.11,39.11,0,0,0-4.93-2.84c-1.25-.61-2-.91-2-.91s.69.37,1.86,1.07a49,49,0,0,1,4.59,3.13,55,55,0,0,1,5.73,5.09,59.46,59.46,0,0,1,5.57,6.55,81.15,81.15,0,0,1,4.77,7.06c1.41,2.31,2.71,4.49,3.77,6.38l2.59,4.56,1,1.72-.79-1.81C322.48,545.32,321.77,543.66,320.82,541.72Z"/><path d="M259.59,532c-.34-.79-.66-1.72-1.09-2.7s-.85-2-1.26-3.07-.89-2.08-1.29-3.06-.82-1.88-1.13-2.67-.65-1.43-.84-1.89l-.34-.71.11.78c.1.49.2,1.2.42,2s.45,1.79.8,2.8.74,2.08,1.14,3.14.95,2.08,1.42,3,1,1.83,1.43,2.57.87,1.33,1.15,1.75l.48.65s-.1-.27-.26-.74S259.92,532.77,259.59,532Z"/><path d="M160,521.81a26.39,26.39,0,0,0-1.76-2.1,16.21,16.21,0,0,0-1.81-1.63,13.88,13.88,0,0,0-1.43-1l-.59-.34.41.49c.28.29.64.74,1.09,1.26s.93,1.15,1.48,1.79,1.07,1.38,1.57,2.12,1,1.46,1.47,2.18.87,1.36,1.17,2,.63,1.07.81,1.42l.32.54s0-.22-.1-.62a11.88,11.88,0,0,0-.39-1.59,15.9,15.9,0,0,0-.87-2.15C161,523.37,160.51,522.58,160,521.81Z"/><path d="M116.92,511.29a37.78,37.78,0,0,0,7-.1c.84-.11,1.5-.21,2-.3l.69-.12-.69.07c-.45.06-1.11.1-2,.15a41.08,41.08,0,0,1-6.85-.27,63.45,63.45,0,0,1-9.26-1.86c-3.31-.88-6.77-2-10.27-3.05a82.25,82.25,0,0,0-10.66-2.44,41.51,41.51,0,0,0-9.87-.26,30.25,30.25,0,0,0-6.94,1.5c-.8.3-1.43.55-1.84.74l-.64.29.66-.24c.43-.17,1.07-.37,1.88-.61A33,33,0,0,1,77,503.67a43.63,43.63,0,0,1,9.59.56,81.81,81.81,0,0,1,10.45,2.54c3.51,1,7,2.09,10.37,2.93A57.54,57.54,0,0,0,116.92,511.29Z"/><path d="M57.48,545A27.11,27.11,0,0,0,56,548c-.44,1.15-.85,2.38-1.19,3.62a33.91,33.91,0,0,0-.56,3.68,21,21,0,0,0,0,3.18,17,17,0,0,0,.31,2.2c.13.52.2.82.2.82s0-.31,0-.85.07-1.31.13-2.23.22-2,.35-3.13a33.1,33.1,0,0,1,.71-3.57,34.45,34.45,0,0,1,1-3.53c.41-1.12.74-2.18,1.14-3.07s.68-1.64.93-2.15.37-.83.37-.83l-.57.76A20.88,20.88,0,0,0,57.48,545Z"/><path d="M86.1,575.17a31,31,0,0,0-3.26,1.22c-1.15.54-2.36,1.16-3.52,1.83s-2.23,1.48-3.21,2.23a27.51,27.51,0,0,0-2.48,2.23,19.75,19.75,0,0,0-1.53,1.72l-.52.68.69-.57c.42-.37,1.07-.86,1.82-1.47s1.69-1.25,2.66-2,2.07-1.4,3.19-2.06,2.24-1.32,3.34-1.87,2.12-1.09,3-1.47,1.66-.75,2.21-1l.85-.36-.91.18A21.18,21.18,0,0,0,86.1,575.17Z"/></g></g></svg>