<svg xmlns="http://www.w3.org/2000/svg" viewBox="0 0 449.38 617.31"><defs><style>.cls-1{fill-rule:evenodd;}</style></defs><g id="Layer_2" data-name="Layer 2"><g id="Layer_1-2" data-name="Layer 1"><path class="cls-1" d="M380.38,58.7a5.06,5.06,0,0,0,.55,0l-.55,0Zm0-29.3a5.06,5.06,0,0,1,.55,0l-.55,0ZM34.19,58.82h.06l.13,0h0l.29,0h.12l.05,0H35l.26,0h.35l.17,0h.59l.35,0H39l.53,0h.52l.54,0h0l1.06.08h0l1,.08h0a5.24,5.24,0,0,1,.53.05h0c.87.1,1.75.18,2.64.29h0l1.61.23h0a2.18,2.18,0,0,0,.52.1h0l.52.1h0l.53.09h0l1.6.3h0l.52.11.53.11h0l.53.12.53.11.54.13.53.12.53.12h0l.53.13h0l.53.15.53.12.55.15.53.15.53.14.55.13.53.15h0l.53.16.55.14.53.16h0l.55.17h0l.53.17h0l.55.16h0c.34.09.69.2,1.06.32h0l.54.15h0l.55.18h0l.53.17h0l.57.17.53.16h0l.54.17h0c.36.14.73.25,1.09.38h0l.55.16h0l1.09.36h0c1.08.35,2.2.73,3.31,1.08.77.27,1.59.53,2.42.79h0l2.85,1h0c.72.22,1.45.46,2.18.67h0l.36.11h0l1.81.57h0l.36.12h0l.36.11h0l.36.08h0l.38.13h0l.36.11h0L84,70h0l.36.11h0l.36.1h0l.34.09.35.11h0l.36.09.35.11h0l.35.08.36.09h0l.33.1h0l.34.08h0l.35.09.34.08.34.08.34.08.32.09.33.07h0l.33.06.33.09.33.06.32.07.31.06.32.06.3.06.32.06.29,0,.3.07.31.06.28,0,.3,0a1.26,1.26,0,0,1,.27,0l.3,0,.56-.17.59-.21.61-.22.64-.2.68-.22.66-.22.7-.24.72-.22.73-.23.75-.24.77-.25.8-.26.8-.25.81-.25.84-.26.84-.27.87-.25.85-.27.89-.28.91-.26.89-.27L111,67l.93-.27.93-.27,1-.29,1-.26,1-.27,1-.26,1-.3,1-.24,1-.28,1-.25,1-.28c.32-.09.66-.17,1-.24l1-.28h0c.33-.07.66-.15,1-.24s.67-.16,1-.26l1-.22c.34-.1.69-.17,1-.26l1-.22c.34-.08.68-.16,1-.26l1-.19h0c.33-.1.66-.17,1-.24s.65-.16,1-.21.65-.15,1-.2.65-.14,1-.24.64-.11,1-.18h0l1-.17h0c.32-.08.63-.14,1-.19s.62-.12.93-.17h0c.31-.06.63-.11.94-.18h0l.92-.17h0c.31,0,.62-.09.94-.13h0c.29-.06.59-.1.89-.15l.89-.13h0l.9-.12h0a3.73,3.73,0,0,1,.88-.12h0l.85-.12h0c.29,0,.56,0,.85-.08h0c.27-.05.56-.06.83-.11h0c.29,0,.56,0,.84-.06l.8-.06v0l.79-.06h0c.25,0,.51,0,.77,0h.53l0,0h.33l.06,0h.31l.06,0h.66l0,0h1c10.48,0,20.18,3.55,30.46,7.32l.4.15.39.16.4.14.41.14.39.14h0l.42.16.4.15.4.14.4.15.41.13.42.17.42.14.4.15.41.15.42.13.41.14.41.15.42.15.4.15.42.13.41.15.41.13h0l.41.13.4.16h0l.42.12.41.12.42.14h0l.4.13h0l.4.12.41.13h0l.41.12h0l.41.13h0l.39.12h0l.41.11.4.11h0l.4.11.38.11.4.11h0l.4.1h0l.39.09.39.11h0l.39.09.38.1h0l.38.07h0l.38.1h0l.39.06h0a1.53,1.53,0,0,0,.37.08h0a1.61,1.61,0,0,0,.38.08h0c.11,0,.25,0,.35.07h0l.37.08h0a2.34,2.34,0,0,0,.38,0h0a3.59,3.59,0,0,0,.35.08h0l.36.06h0l.36,0h0l.33,0h0l.37,0h0a1.7,1.7,0,0,0,.34.07h0l.33,0h0a2.06,2.06,0,0,0,.35,0h0a1.19,1.19,0,0,0,.32,0h0a2.06,2.06,0,0,0,.34,0H208l.31,0h.66c.1,0,.19,0,.31,0h.33a1.94,1.94,0,0,0,.33,0h0a1.16,1.16,0,0,0,.32,0h0a1.83,1.83,0,0,0,.34,0l.34,0a1.57,1.57,0,0,0,.34-.07l.36,0,.35,0,.36,0,.36-.06c.11,0,.23,0,.35-.08l.37,0,.38-.08a3.09,3.09,0,0,1,.35-.07,1.72,1.72,0,0,0,.38-.08,1.55,1.55,0,0,0,.36-.08c.13,0,.26,0,.39-.06l.37-.1a2.66,2.66,0,0,0,.39-.07l.39-.1a3.75,3.75,0,0,1,.39-.09l.39-.11.39-.09h0l.39-.1.39-.11.4-.11.4-.11.4-.11.4-.11.4-.12h0l.41-.13h0l.39-.12h0l.42-.13.4-.12.41-.13h0l.43-.14.38-.12.43-.12.4-.16.42-.13h0l.4-.13.42-.15.41-.13.4-.15.42-.15.42-.15.41-.14.41-.13.41-.15.41-.15.41-.14.41-.17.41-.13.41-.15.39-.14.42-.15.41-.16h0l.4-.14.39-.14.4-.14.41-.16.4-.15.48-.17.48-.18.48-.17.48-.18.48-.18.47-.16.47-.18.49-.17.46-.17.49-.16.48-.18.47-.16.47-.18.47-.16.47-.16.48-.18.47-.16.46-.16.49-.16.45-.13.49-.17.47-.15.47-.14.47-.16.46-.13.47-.15.48-.15.45-.14.5-.15.45-.12c.17,0,.32-.08.47-.14l.49-.14a4,4,0,0,0,.47-.11l.46-.13h0a3.94,3.94,0,0,1,.47-.1l.47-.15h0l.48-.09.46-.11c.16,0,.32-.09.49-.12l.46-.1a3.57,3.57,0,0,0,.47-.11,4.28,4.28,0,0,1,.48-.07l.48-.12.46-.08h0c.16,0,.32-.08.5-.1l.46-.07a4,4,0,0,0,.47-.11l.48,0,.47-.08a4,4,0,0,0,.48-.08h0a3.58,3.58,0,0,0,.48,0L258,59a2,2,0,0,1,.48-.07l.49,0h0c.16,0,.32,0,.48-.06h0a3.74,3.74,0,0,1,.49,0h0a3.57,3.57,0,0,1,.47,0h0l.5,0,.48,0h0l.5,0h0l.47,0h0a3.77,3.77,0,0,0,.48,0h2l.05,0h.67l.19,0h.18l0,0h.34l0,0h.52c.26,0,.51,0,.77,0h0l.8.06v0c.28,0,.52.05.8.06l.82.06h0c.29,0,.56.06.85.11h0c.27,0,.54,0,.84.08h0l.85.12h0a3.82,3.82,0,0,1,.89.12h0l.89.12h0l.88.13,1.84.28h0l.91.17h0l.93.18h0c.32.05.65.09,1,.17s.64.11,1,.19h0l.95.17h0c.33.07.63.14,1,.18s.62.16,1,.24.65.12,1,.2.67.13,1,.21.65.14,1,.24h0l1,.19c.33.1.66.18,1,.26l1,.22h0c.34.09.67.16,1,.26h0l1,.22h0c.34.1.66.18,1,.26l2,.52c.32.07.66.15,1,.24h0l1,.28,1,.25h0l1,.28h0c.33.08.64.17,1,.24h0l1,.3,1,.26h0l1,.27h0l.95.26.94.29h0l.93.27h0l.92.27.91.27h0l.91.27h0l.9.26h0l.89.28h0l.87.27h0l.86.25h0l.84.27h0l.84.26h0l.81.25h0l.8.25h0l.79.26h0l.78.25h0l.75.24h0l.73.23h0l.73.22h0l.69.24h0l.66.22h0l.67.22h0l.65.2h0l.59.22h0l.59.21h0l.58.17h0a1.36,1.36,0,0,0,.27,0h0a1.35,1.35,0,0,1,.29,0h0l.29,0h0l.29,0h0l.3-.06h0l.29-.07h0l.31,0h0l.32-.06h0l.3-.06h0l.31-.06h0l.32-.06h0l.32-.07h0l.33-.06h0l.31-.09h0l.33-.06.35-.07h0l.31-.09.34-.08h0l.34-.08h0l.34-.08.35-.09.33-.08.34-.1h0l.36-.09.36-.08h0l.34-.11.35-.09.36-.11.35-.09.35-.1.37-.11.35-.09.35-.11.37-.13.38-.08.35-.11.37-.12h0l.36-.1.36-.12.36-.11.37-.1.36-.14h0l.35-.11.38-.1h0l.36-.11h0l.35-.12.37-.12h0l.37-.11h0l.37-.11.35-.11h0l.36-.13h0l.36-.11h0l.35-.13.36-.11h0l.35-.11h0l.36-.11h0l.35-.14.35-.09h0l.35-.11h0l.35-.13h0l.33-.11h0l.36-.11h0l.33-.12h0l.34-.12h0l.55-.18h0l.56-.17h0l.55-.18h0l.55-.2h0l.56-.18h0l.56-.17h0l.53-.19h0l.56-.17.54-.16.54-.19h0l.54-.19h0l.55-.17L352,64h0l.55-.17.54-.17h0l.55-.18.54-.15h0l.54-.18h0l.53-.14h0l.55-.16h0l.53-.17h0l.55-.17h0l.52-.16.56-.14.52-.16h0l.54-.15h0l.53-.13h0l.54-.14h0l.53-.15.53-.15.56-.12.51-.15h0l.53-.13h0l.54-.12h0c.18,0,.35-.08.52-.12l.55-.13h0l.54-.11a4.21,4.21,0,0,1,.51-.12h0l.55-.11.52-.11h0l.54-.1h0c.34-.08.69-.14,1.05-.2h0l.53-.09.53-.1a2.39,2.39,0,0,0,.52-.1h0a3,3,0,0,0,.53-.07h0a4.68,4.68,0,0,0,.54-.08h0l.53-.08a4.36,4.36,0,0,0,.52-.05h0l.53-.06v0a5.11,5.11,0,0,1,.53,0h0l.54-.06h0l.53-.06h0a5,5,0,0,1,.53-.05l.53,0h0c.18,0,.36,0,.53,0h0l.53,0h0l.53,0h0l.53,0h.53l.53,0h2.2a5.06,5.06,0,0,0,.55,0h.6l.07,0H382l.05,0h.17l.34,0,.17,0h.07l.22,0h0c10.65.73,20.36,4.42,29.78,8,5.71,2.16,14.32,5.45,17.89,5.45,2.76,0,8.38-1,15.31-2.6a59.22,59.22,0,0,1,3.43,11.58,104.08,104.08,0,0,1-18.74,2.34c-11.27,0-21.67-4-31.74-7.75C394,74,387.65,71.55,383,70.53l-.05,0-.19,0h-.05l-.23,0h0l0,0-.2,0h0l0,0h0l-.17,0h-.13l-.2,0h0l-.22,0h0a2.06,2.06,0,0,0-.26,0h0a.85.85,0,0,0-.22,0h0l-.2,0h-.3l-.18,0h0a.47.47,0,0,0-.19,0h-.48a.47.47,0,0,0-.17,0h0a.86.86,0,0,0-.22,0h-.43a.66.66,0,0,0-.25,0h0a1,1,0,0,0-.24,0h-.25l-.28,0h0a.81.81,0,0,0-.25,0h0l-.27,0h0a2.7,2.7,0,0,0-.28,0h0l-.28,0h0l-.29,0h0l-.3.05h0l-.3,0-.31.08-.32,0h0l-.3.06h0l-.35.08h0l-.31.07h0l-.32.08h0l-.34.06L373,71h0l-.32.09-.36.06h0l-.35.11h0l-.36.09h0l-.35.1-.37.09-.36.09-.36.1h0l-.36.11-.37.11-.37.1-.39.1-.75.22-.38.12h0l-.38.13-.38.09-.39.13h0L366,73h0l-.38.12-.39.11-.76.24-.39.13-.38.12-.37.12-.4.11h0l-.37.12h0l-.36.13-.38.13h0l-.39.1-.36.13-.37.14h0l-.38.11-.36.1-.36.14-.36.13-1.06.33h0l-.35.11h0l-.33.13h0l-.57.17h0l-.57.18h0l-.56.21h0l-.58.17h0l-.58.2h0l-.57.17h0l-.56.19h0l-.56.19h0l-.57.18-.57.19h0l-.58.19h0l-.57.17-.57.19h0l-.57.18h0l-.58.17-.58.18h0l-.57.17h0l-.57.16-.58.17h0l-.57.2-.58.16h0l-.57.16-.59.18-.57.16-.59.16-.58.16-.56.16-.58.14-.58.17h0l-.59.15h0l-.58.14c-.19,0-.38.1-.58.13h0l-.57.15a5.29,5.29,0,0,1-.6.13h0l-.57.15a3.92,3.92,0,0,0-.59.15,3.19,3.19,0,0,0-.57.12l-.58.11h0l-.58.13h0l-.59.11h0a3.09,3.09,0,0,1-.59.12h0a5.15,5.15,0,0,1-.59.11h0l-.57.11h0l-.6.11h0a5.21,5.21,0,0,0-.57.09h0a4,4,0,0,1-.59.08h0c-.2,0-.39.09-.59.12h0c-.2,0-.38,0-.59.07l-.59.09c-.18,0-.38,0-.59.07h0l-.58.08h0a5.87,5.87,0,0,1-.59,0h0l-.57.09h0l-.6,0h0l-.59,0h0l-.6,0-.58,0h0a5.68,5.68,0,0,0-.59,0h0l-.59,0h0l-.59,0h0l-.59,0h0l-.6,0H321a5.62,5.62,0,0,1-.58,0h0c-.82,0-1.63,0-2.44-.06h0c-.61,0-1.2-.06-1.81-.11h0c-.81-.05-1.59-.12-2.41-.18h0c-.4-.08-.81-.11-1.21-.16h0l-.59-.07h0c-.41,0-.8-.11-1.19-.18h0c-.4,0-.81-.1-1.2-.17h0c-.39-.08-.79-.13-1.2-.21h0c-.21,0-.39-.08-.57-.11a3,3,0,0,1-.6-.12h0a9.8,9.8,0,0,1-1.2-.24,4.12,4.12,0,0,1-.59-.12l-.6-.11h0l-.58-.14h0l-.59-.15h0c-.19,0-.4-.08-.59-.12h0a5.8,5.8,0,0,0-.6-.13h0a2.57,2.57,0,0,0-.58-.14l-.58-.17h0c-.2,0-.4-.1-.6-.15h0l-.58-.16-.58-.17a3.77,3.77,0,0,1-.58-.14h0l-.59-.16h0l-.59-.18h0l-.59-.16h0l-.58-.17-.58-.17-.58-.18-.58-.17-.58-.19h0l-.57-.18h0l-.58-.17-.58-.19-.59-.17-.57-.2-.57-.18-.59-.2-.56-.18-.58-.2-.58-.2-.56-.19-.57-.18-.58-.19-.57-.2-.57-.2-.58-.19-.56-.21-.56-.19-.57-.18-.57-.2-.26-.1-.26-.07-.28-.11-.26-.1-.28-.09-.27-.09h0l-.3-.09-.28-.11h0l-.29-.09h0l-.3-.12h0l-.29-.09h0l-.29-.11h0l-.32-.08-.29-.11h0l-.63-.22-.3-.09-.32-.11h0l-.31-.1h0l-.32-.12-.31-.1h0l-.32-.1h0L276,73l-.32-.1h0l-.64-.21h0l-.31-.1-.33-.09-.34-.12-.3-.1-.31-.1-.34-.09h0l-.3-.11-.32-.1h0l-.31-.09-.31-.09-.31-.08-.3-.09-.31-.1h0l-.31-.08h0l-.3-.09-.29-.1-.31-.06h0l-.28-.09h0l-.29-.08-.28-.07-.28-.08-.28-.08h0l-.27-.06h0l-.27-.06-.25-.07h0l-.26-.06-.26,0h0l-.24,0h0l-.25-.07-.24,0-.22,0-.23-.06-.22,0-.21,0h0l-.2,0H265l-.19,0a.5.5,0,0,1-.18,0,.55.55,0,0,0-.18,0h-.34l-.19,0h-.2a1.46,1.46,0,0,1-.2,0h-.21l-.2,0a1.85,1.85,0,0,1-.23,0h0l-.22.06-.24,0h0l-.23,0h0l-.23.05-.26.06-.25.06h0l-.24.06-.26.07h0l-.27.06h0l-.28.06-.26.06-.27.1-.29.07h0l-.28.07h0l-.3.09-.28.09h0l-.3.07-.29.09-.3.1-.31.09-.29.09-.31.1-.3.08h0l-.31.12-.3.09-.33.11-.3.1-.31.09h0l-.32.11-.32.11-.3.11-.33.1-.3.11h0l-.32.12h0l-.33.09-.29.11h0l-.33.11h0l-.31.11-.31.1-.31.12h0l-.3.1h0l-.32.1h0l-.28.12h0l-.62.21-.6.21h0l-.58.22h0l-.86.3h0l-.25.1h0l-.54.2-4.32,1.55h0l-.56.18h0l-.55.2h0c-.55.2-1.11.4-1.67.57h0l-.57.2h0l-1.69.57-1.12.39h0l-.58.17h0l-.58.18h0l-.58.2h0l-.57.19h0l-.58.15h0l-.6.18-.58.18h0l-.58.17-.58.17h0l-.6.16h0l-.6.17h0l-.6.16h0l-.61.16h0c-.19,0-.38.1-.57.16s-.41.09-.61.15h0c-.21.06-.4.09-.61.13h0c-.2.06-.4.12-.6.16s-.41.11-.61.15h0c-.2,0-.4.09-.62.14h0c-.19,0-.4.07-.61.13h0l-.6.13c-.21.06-.42.09-.62.13h0a4.9,4.9,0,0,0-.62.13h0a3.36,3.36,0,0,0-.62.11h0l-.62.11h0l-.63.11h0c-.21,0-.41.06-.62.11h0l-.63.1h0l-.62.09h0c-.22,0-.43,0-.63.09h0c-.23,0-.44.05-.62.1h0l-1.29.15h0c-.22,0-.42,0-.64.05h0c-.86.11-1.71.18-2.59.24h0c-1.5.11-3,.17-4.57.17h-.19a64.91,64.91,0,0,1-7.15-.41h0c-1.08-.09-2.13-.23-3.18-.39h0L196.9,83h0l-1.25-.22h0c-.61-.11-1.24-.22-1.87-.35a5.8,5.8,0,0,1-.6-.13h0l-.61-.13h0q-.93-.19-1.83-.42a5.25,5.25,0,0,1-.6-.16,6.19,6.19,0,0,1-.62-.13h0c-.2-.06-.4-.1-.61-.15s-.39-.12-.58-.16h0c-.2-.06-.4-.12-.6-.16h0l-.6-.16c-.21-.05-.39-.11-.59-.17h0l-.6-.16h0c-.2,0-.39-.11-.6-.17l-.58-.17-.57-.18-.59-.18-.58-.15a3.91,3.91,0,0,0-.58-.19l-.58-.2-.57-.18-.57-.17h0l-.59-.21h0l-.57-.18-.57-.2h0l-.55-.19h0l-.55-.18h0l-.57-.2-1.11-.37h0l-.55-.2-.56-.2-.55-.18h0l-.53-.2h0l-.56-.19h0l-.54-.19h0l-.54-.21h0l-1.08-.37h0l-.54-.21h0l-.52-.18h0l-.27-.1h0l-.28-.1h0l-.27-.1h0l-.28-.1h0l-.29-.11h0l-.3-.09h0l-.27-.1h0l-.3-.12h0l-.29-.1h0l-.29-.11-.32-.1h0l-.3-.11-.3-.12h0l-.3-.1-.31-.1-.32-.12-.3-.1-.33-.11h0l-.3-.11h0l-.31-.11c-.32-.09-.63-.21-.93-.32l-.33-.1-.31-.11-.32-.11-.31-.11h0l-.31-.09-.31-.1-.33-.11-.3-.09-.3-.12-.31-.08-.31-.1h0l-.3-.09-.31-.09h0l-.29-.1-.3-.09h0l-.29-.07h0l-.29-.09h0l-.28-.09-.29-.07-.28-.07-.28-.1h0l-.26-.06h0l-.27-.06-.27-.06-.27-.07h0l-.25-.06-.25-.06-.25-.06h0l-.22-.05-.24,0-.23,0h0l-.23-.06-.23,0h0l-.21,0h-.21a1.8,1.8,0,0,1-.19,0h-.18l-.2,0h-.35a.52.52,0,0,0-.17,0,.52.52,0,0,1-.18,0l-.2,0H152a.41.41,0,0,1-.21,0l-.2,0-.21,0-.24.06-.22,0-.25,0-.23.07-.25,0-.26,0-.24.06h0l-.28.07-.25.06h0l-.29.06-.26.08-.28.08L148,71l-.27.08h0l-.31.09h0l-.28.06-.3.1-.31.09h0l-.3.08h0l-.3.1-.31.09-.3.08-.31.09-.32.09h0l-.32.1-.31.11h0l-.33.09-.31.1-.32.1h0l-.32.12h0l-.32.09-.31.1h0l-.32.1h0l-.33.11h0l-.3.1-.33.11h0l-.33.1h0l-.31.1h0l-.31.12h0l-.32.1-.31.11h0l-.32.09-.31.1h0l-.3.12-.3.11-.31.08h0l-.3.11h0l-.3.09h0l-.29.12-.29.09h0l-.29.11-.29.09-.27.09-.28.09-.27.1-.27.11-.26.07-.25.1-.57.2-.58.18-.56.19-.57.21-.57.19-.57.2-.57.2-.57.19-.58.18-.58.19-.56.2-.58.2-.56.18-.58.2-.58.18-.58.2-.57.17-.58.19-.58.17h0l-.59.18h0l-.57.19-.58.17-.58.18-.58.17L120,80h0l-.57.16h0l-.59.18h0l-.59.16h0a4,4,0,0,1-.6.14l-.57.17-.58.16h0c-.19,0-.39.11-.59.15h0l-.59.17a2.31,2.31,0,0,0-.59.14h0c-.19,0-.38.07-.59.13h0a5.6,5.6,0,0,1-.59.12h0c-.2.06-.4.1-.6.15h0l-.56.14h0l-.58.11h0a4.38,4.38,0,0,1-.61.12h0a5.63,5.63,0,0,1-.59.14h0l-.59.1h0a3,3,0,0,1-.6.12l-.6.11h0a3.56,3.56,0,0,1-.57.09h0l-.61.12c-.2,0-.4.07-.59.08h0c-.21,0-.39.07-.6.09h0l-.6.09h0c-.19,0-.39,0-.6.09h0l-.59.07h0l-.6.08h0a2.49,2.49,0,0,0-.61.08h0a5.41,5.41,0,0,0-.59,0h0l-.61,0h0l-.61.06h0a5.74,5.74,0,0,1-.6,0h0l-.6,0h0c-.2,0-.41,0-.61,0h0l-.59,0h0l-.62,0h0l-.62,0h-.6a5.72,5.72,0,0,1-.59,0h0c-1.38,0-2.77-.06-4.13-.15h0l-.59,0h0c-.4,0-.79-.06-1.18-.09h0c-.4,0-.79-.08-1.2-.14h0c-.17,0-.37,0-.57,0h0L88,83.19h0l-.59-.09h0c-.21,0-.39-.06-.59-.07h0c-.2,0-.39-.07-.59-.12h0c-.39,0-.78-.12-1.18-.17l-.57-.11h0l-.58-.11h0c-.4-.07-.79-.13-1.18-.23h0c-.38-.08-.77-.14-1.16-.24h0l-.6-.11a3.62,3.62,0,0,0-.59-.12h0a3.56,3.56,0,0,0-.56-.15h0c-.2,0-.39-.1-.58-.15s-.39-.08-.59-.13h0c-.4-.07-.79-.18-1.16-.28L76.84,81h0l-.58-.15h0l-.58-.17-.58-.14h0l-.57-.16L74,80.19h0L73.37,80h0l-.57-.16-.59-.18h0l-.57-.16h0l-.59-.16h0l-.57-.2h0L69.9,79l-.58-.16h0l-.55-.17h0l-.58-.18-.57-.17h0L67,78.13h0l-.58-.19-.57-.17-.57-.19h0l-.57-.19-.57-.18h0L63.61,77h0l-.56-.19h0l-.58-.17h0l-.55-.2h0l-.58-.17h0l-.56-.21h0l-.57-.18h0l-.57-.17h0l-.34-.13h0L59,75.49h0l-.35-.1h0l-.35-.14h0l-.37-.09L57.53,75l-.35-.14-.37-.1-.38-.11-.36-.14-.36-.13-.39-.1h0l-.38-.13-.37-.13-.38-.12h0l-.39-.11-.37-.12-.38-.12-.38-.13-.76-.24-.39-.11L51.13,73h0l-.38-.11h0l-.38-.13L50,72.65h0l-.38-.13h0l-.38-.12h0l-.76-.22-.37-.1h0l-.38-.1-.36-.11h0c-.25-.07-.47-.15-.74-.21l-.37-.09h0l-.35-.09h0l-.36-.1-.35-.09h0l-.34-.11-.36-.06h0c-.22-.05-.45-.13-.67-.19h0l-.34-.06a3.23,3.23,0,0,0-.67-.15h0c-.32-.08-.63-.14-.94-.19h0l-.32-.08h0l-.28,0-.3-.05h0l-.3,0h0c-.39-.06-.74-.12-1.1-.16h0a2.06,2.06,0,0,0-.26,0h-.25a1,1,0,0,0-.25,0h0a.58.58,0,0,0-.22,0h-.45a.86.86,0,0,0-.22,0l-.64,0h0a.53.53,0,0,0-.22,0h0l-.72.06h0l-.76.11h0l-.24,0h0c-4.74.84-11.71,3.5-17,5.53A150.78,150.78,0,0,1,0,81.88,62.35,62.35,0,0,1,4.84,66.66c9.29-3.53,18.87-7.11,29.35-7.84ZM74.29,8.31l.38.14h0c.94.3,1.89.63,2.85.92h0c.72.24,1.45.48,2.18.7h0l.36.12h0c.6.17,1.21.36,1.81.55h0l.36.1h0l.36.12h0l.36.11h0l.38.1h0l.36.11h0l.35.08h0l.36.12h0l.36.11h0l.34.09.35.1h0l.36.09.35.1h0l.35.1.36.09h0l.33.08h0l.34.1h0l.35.08.34.08.34.09.34.08.32.08.33.07h0l.33.08.33.07.33.07.32.08.31.05.32.07.3.06.32,0,.29.05.3.06.31.05.28,0,.3.05a2.56,2.56,0,0,0,.27.05l.3,0,.56-.19.59-.21.61-.19.64-.23.68-.2.66-.23.7-.22.72-.23.73-.25.75-.24.77-.24.8-.25.8-.25.81-.27.84-.25.84-.28.87-.24.85-.27.89-.27.91-.27.89-.27.92-.26.93-.27.93-.3,1-.25,1-.28,1-.26,1-.28,1-.26,1-.27c.32-.1.64-.18,1-.27l1-.28c.32-.06.66-.15,1-.24s.66-.19,1-.26.67-.17,1-.27h0c.33-.06.66-.16,1-.24s.67-.16,1-.25.67-.17,1-.24.69-.16,1-.25.66-.14,1-.23.68-.17,1-.23l1-.23h0c.33-.1.66-.15,1-.23l1-.21,1-.22,1-.18,1-.21h0c.33,0,.65-.14,1-.18h0l1-.19c.3-.06.62-.13.93-.16h0a6.26,6.26,0,0,1,.94-.19h0l.92-.15h0l.94-.16h0L141.9,1c.3,0,.62-.07.89-.13h0c.31,0,.61-.07.9-.12h0l.88-.12h0c.28,0,.57-.07.85-.1h0c.29,0,.56-.07.85-.1h0l.83-.08h0a8.15,8.15,0,0,1,.84-.07l.8-.07h0l.79-.06h0c.25,0,.51,0,.77,0h.14l0,0h.62l.06,0h1l0,0h1.15c10.48,0,20.18,3.55,30.46,7.32l.4.14.39.14.4.16.41.15.39.15h0l.42.13.4.17.4.13.4.15.41.15.42.16.42.14.4.15.41.13.42.16.41.13.41.15.42.13.4.16.42.14.41.15.41.12h0l.41.14.4.14h0l.42.14.41.12.42.14h0l.4.13h0l.4.13.41.12h0l.41.13h0l.41.1h0l.39.12h0l.41.11.4.13h0l.4.1.38.11.4.11h0l.4.11h0l.39.09.39.11h0a2.7,2.7,0,0,1,.39.08l.38.1h0l.38.08h0l.38.09h0c.13,0,.27,0,.39.08h0l.37.08h0l.38,0h0a1.59,1.59,0,0,0,.35.08h0a2.66,2.66,0,0,0,.37.07h0l.38.05h0a2,2,0,0,0,.35.09h0l.36,0h0l.36,0h0l.33.06h0c.13,0,.25,0,.37,0h0a1.76,1.76,0,0,0,.34,0h0l.33,0h0a1.41,1.41,0,0,1,.35.05h.32a2.06,2.06,0,0,0,.34,0h0l.33,0h1.28c.1,0,.21,0,.33,0a1.94,1.94,0,0,0,.33,0h.32a1.47,1.47,0,0,1,.34-.05l.34,0a1.67,1.67,0,0,0,.34,0l.36,0,.35-.06.36,0,.36,0,.35-.09.37-.05a2.79,2.79,0,0,0,.38-.07,1.73,1.73,0,0,0,.35-.08l.38,0,.36-.08c.13,0,.26-.05.39-.08l.37-.09A2.7,2.7,0,0,1,216,13l.39-.1a2.24,2.24,0,0,1,.39-.08l.39-.11.39-.09h0l.39-.11.39-.11.4-.11.4-.1.4-.13.4-.11.4-.12h0l.41-.1h0l.39-.13h0l.42-.12.4-.13.41-.13h0l.43-.14.38-.12.43-.14.4-.14.42-.14h0l.4-.12.42-.15.41-.14.4-.16.42-.13.42-.15.41-.13.41-.16.41-.13.41-.15L229,9l.41-.16.41-.15.41-.15.39-.13.42-.17.41-.13h0l.4-.15.39-.15.4-.16.41-.14.4-.14.48-.2.48-.14.48-.19.48-.18.48-.17.47-.16.47-.19.49-.17.46-.17.49-.17.48-.17.47-.16.47-.2.47-.14.47-.16.48-.17.47-.15.46-.16.49-.16.45-.16.49-.15.47-.17.47-.14.47-.14.46-.16.47-.14.48-.15.45-.12.5-.14.45-.14.47-.13.49-.13.47-.13c.15,0,.29-.1.46-.13h0a2.7,2.7,0,0,0,.47-.12l.47-.1h0l.48-.11.46-.13c.16-.05.32-.07.49-.11a3.73,3.73,0,0,1,.46-.09l.47-.1a4.68,4.68,0,0,1,.48-.11l.48-.09a2.49,2.49,0,0,1,.46-.09h0l.5-.09c.14,0,.31-.06.46-.07l.47-.09.48-.08.47-.07a4,4,0,0,0,.48-.08h0a3.54,3.54,0,0,0,.48,0L258,.34l.48-.06L259,.23h0a3.87,3.87,0,0,0,.48,0h0a3.74,3.74,0,0,1,.49,0h0l.47-.06h.5a3.45,3.45,0,0,1,.48,0h0l.5,0h.47l.48,0h2.07L265,0h1l.05,0h.61l.07,0h.12l.77,0h0l.8.06h0l.8.07a7.15,7.15,0,0,1,.82.07h0l.85.08h0c.27,0,.54,0,.84.1h0c.27,0,.57.08.85.1h0l.89.12h0c.29.05.57.08.89.12h0c.28.06.59.09.88.13l1.84.31h0l.91.15h0a5.9,5.9,0,0,1,.93.19h0c.32,0,.65.1,1,.16l1,.19h0c.32,0,.63.13.95.18h0l1,.21c.33.05.62.12,1,.18l1,.22,1,.21c.31.08.65.13,1,.23h0l1,.23c.33.06.66.16,1,.23s.66.16,1,.23h0l1,.25h0c.32.07.65.17,1,.24h0c.34.09.66.14,1,.25.66.18,1.33.34,2,.51.32.07.66.17,1,.26h0c.33.09.65.18,1,.24l1,.28h0l1,.27h0l1,.27h0l1,.26,1,.28h0l1,.26h0l.95.28.94.25h0l.93.3h0l.92.27.91.26h0l.91.27h0l.9.27h0l.89.27h0l.87.27h0l.86.24h0l.84.28h0l.84.25h0l.81.27h0l.8.25h0l.79.25h0l.78.24h0l.75.24h0l.73.25h0l.73.23h0l.69.22h0l.66.23h0l.67.2h0l.65.23h0l.59.19h0l.59.21h0l.58.19h0l.27,0h0c.1,0,.18,0,.29-.05h0l.29-.05h0l.29,0h0l.3-.05h0l.29-.06h0l.31-.05h0l.32,0h0l.3-.06h0l.31-.07h0l.32-.05h0l.32-.08h0L327,13h0l.31-.07h0l.33-.08.35-.07h0l.31-.08.34-.08h0l.34-.09h0l.34-.08.35-.08.33-.1.34-.08h0l.36-.09L331,12h0l.34-.1.35-.09.36-.1.35-.09.35-.11.37-.12.35-.08.35-.11.37-.1.38-.11.35-.12.37-.1h0l.36-.11.36-.12.36-.11.37-.11.36-.1h0l.35-.12.38-.13h0l.36-.09h0l.35-.13.37-.11h0l.37-.12h0l.37-.12.35-.12h0l.36-.11h0l.36-.12h0l.35-.1.36-.13h0l.35-.11h0l.36-.1h0l.35-.13.35-.11h0l.35-.12h0l.35-.12h0l.33-.1h0l.36-.12h0l.33-.12h0l.34-.1h0l.55-.18h0l.56-.2h0l.55-.19h0l.55-.17h0l.56-.2h0l.56-.17h0l.53-.17h0l.56-.18.54-.16.54-.17h0l.54-.18h0l.55-.18.53-.16h0l.55-.19.54-.15h0l.55-.18.54-.16h0l.54-.17h0l.53-.16h0l.55-.17h0l.53-.17h0l.55-.15h0l.52-.17.56-.13.52-.16h0l.54-.15h0l.53-.14h0l.54-.15h0l.53-.14.53-.14.18,0c7.55,2.85,14.73,5.94,21.48,9.25l-.12,0h-.05l-.23,0,0,0h0l-.2,0h0l0,0h0l-.17,0h-.07l-.06,0-.2,0h0l-.22,0h0a1.09,1.09,0,0,0-.26,0h0v0l-.22,0h0l-.2,0h-.05l-.2,0h-.23l0,0h-.22a.49.49,0,0,0-.2,0h-.25a.47.47,0,0,0-.17,0h0a.86.86,0,0,0-.22,0h-.21a.51.51,0,0,0-.22,0h-.25l-.24,0h0a1,1,0,0,0-.25,0h0l-.28,0h0c-.07,0-.16,0-.25,0h0l-.27.06h0a2.66,2.66,0,0,0-.28,0h0l-.28,0h0l-.29,0h0l-.3.06h0l-.3.06-.31.05L375,12h0l-.3.06h0l-.35.08h0l-.31.07h0l-.32.06h0l-.34.08-.35.1h0l-.32.08-.36.08h0l-.35.09h0l-.36.1h0l-.35.08-.37.1-.36.1-.36.1h0l-.36.11-.37.09-.37.13-.39.1c-.24.08-.51.14-.75.2l-.38.1h0l-.38.14-.38.11-.39.11h0l-.37.13h0l-.38.1-.39.13-.76.23-.39.12-.38.13-.37.14-.4.1h0l-.37.13h0l-.36.12-.38.13h0l-.39.11-.36.11-.37.14h0l-.38.12-.36.11-.36.11-.36.13-1.06.35h0l-.35.1h0l-.33.11h0l-.57.18h0l-.57.19h0l-.56.19h0l-.58.19h0l-.58.19h0l-.57.19h0l-.56.17h0l-.56.21h0l-.57.17-.57.18h0l-.58.17h0l-.57.21-.57.17h0l-.57.18h0l-.58.19-.58.15h0l-.57.18h0l-.57.18-.58.18h0l-.57.16-.58.19h0l-.57.16-.59.18-.57.16-.59.15-.58.16-.56.16-.58.15-.58.15h0l-.59.16h0l-.58.15c-.19.05-.38.08-.58.14h0l-.57.15-.6.13h0a5.25,5.25,0,0,1-.57.13l-.59.14a4.35,4.35,0,0,0-.57.13c-.2,0-.38.09-.58.12h0l-.58.13h0l-.59.11h0l-.59.12h0l-.59.11h0l-.57.12h0l-.6.08h0l-.57.11h0l-.59.09h0c-.2,0-.39.07-.59.08h0a5.58,5.58,0,0,1-.59.1c-.18,0-.39.06-.59.09l-.59.06h0l-.58.08h0c-.2,0-.39.05-.59.07h0l-.57.05h0l-.6.08h0c-.21,0-.4,0-.59,0h0c-.2,0-.39,0-.6,0l-.58.07h0a3.82,3.82,0,0,0-.59,0h0l-.59,0h0l-.59,0h-.59c-.2,0-.4,0-.6,0h-1.17c-.82,0-1.63,0-2.44,0h0c-.61,0-1.2-.08-1.81-.1h0c-.81-.06-1.59-.13-2.41-.23h0l-1.21-.12h0c-.19,0-.4-.06-.59-.08h0a9.22,9.22,0,0,1-1.19-.18h0c-.4-.05-.81-.1-1.2-.18h0c-.39-.06-.79-.14-1.2-.19h0a3.18,3.18,0,0,1-.57-.13l-.6-.1h0c-.4-.08-.81-.14-1.2-.24-.2,0-.39-.06-.59-.11a5.8,5.8,0,0,0-.6-.13h0c-.2,0-.4-.1-.58-.13h0l-.59-.15h0c-.19,0-.4-.08-.59-.13h0l-.6-.15h0c-.2,0-.39-.1-.58-.13s-.38-.11-.58-.15h0l-.6-.16h0l-.58-.15L299.5,22c-.2,0-.39-.1-.58-.15h0l-.59-.17h0l-.59-.16h0l-.59-.16h0l-.58-.19-.58-.16-.58-.17-.58-.19-.58-.18h0l-.57-.18h0l-.58-.18-.58-.17-.59-.17-.57-.21-.57-.17-.59-.19-.56-.21-.58-.17-.58-.2-.56-.21-.57-.17-.58-.2-.57-.19-.57-.21-.58-.2-.56-.2-.56-.19-.57-.19-.57-.18-.26-.09-.26-.09-.28-.12-.26-.07-.28-.1-.27-.1h0l-.3-.09-.28-.1h0l-.29-.12h0l-.3-.07v0l-.29-.1h0l-.29-.1h0l-.32-.1-.29-.1h0l-.63-.22-.3-.1-.32-.11h0l-.31-.09h0l-.32-.1-.31-.11h0l-.32-.11h0l-.32-.12-.32-.1h0L275,14.1h0l-.31-.11-.33-.12-.34-.09-.3-.09-.31-.1-.34-.09h0l-.3-.11-.32-.09h0l-.31-.1-.31-.08-.31-.12-.3-.08-.31-.1h0l-.31-.07h0l-.3-.08-.29-.09-.31-.1h0l-.28-.06h0l-.29-.08-.28-.08-.28-.08-.28-.07h0l-.27,0h0l-.27-.08-.25-.08h0l-.26-.05-.26,0h0l-.24-.06h0l-.25,0-.24-.06-.22,0-.23-.06-.22,0-.21,0h0l-.2,0-.2,0-.19,0c-.07,0-.13,0-.18,0h-.18a.34.34,0,0,1-.17,0h-.17a.58.58,0,0,0-.19,0h0c-.07,0-.14,0-.2,0l-.2,0-.21,0-.2,0a1.89,1.89,0,0,1-.23.05h0l-.22,0-.24.05h0l-.23.05h0l-.23.06-.26,0-.25.06h0l-.24.05L261,12h0l-.27.06h0l-.28.07-.26.07-.27.06-.29.09h0l-.28.07h0l-.3.09-.28.08h0l-.3.09-.29.09-.3.08-.31.1-.29.09-.31.11-.3.09h0l-.31.1-.3.09-.33.11-.3.1-.31.1h0l-.32.11-.32.1-.3.1-.33.13-.3.1h0l-.32.09h0l-.33.13-.29.1h0l-.33.11h0l-.31.1-.31.11-.31.11h0l-.3.1h0l-.32.12h0l-.28.1h0l-.62.22-.6.22h0l-.58.22h0l-.86.28h0l-.25.11h0l-.54.18c-1.43.51-2.87,1-4.32,1.55h0l-.56.2h0l-.55.19h0c-.55.21-1.11.41-1.67.59h0l-.57.19h0l-1.69.58c-.36.11-.74.25-1.12.38h0l-.58.18h0l-.58.17h0l-.58.18h0l-.57.19h0l-.58.16h0l-.6.2-.58.17h0l-.58.16-.58.17h0c-.21.07-.4.12-.6.17h0l-.6.16h0c-.19,0-.39.11-.6.17h0l-.61.16h0l-.57.15a6,6,0,0,0-.61.15h0L227,23h0c-.2.05-.4.1-.6.13l-.61.15h0a3.11,3.11,0,0,1-.62.14h0l-.61.16h0a3.16,3.16,0,0,0-.6.11l-.62.12h0a6.19,6.19,0,0,1-.62.13h0c-.2,0-.42.08-.62.1h0a4.56,4.56,0,0,1-.62.13h0c-.2,0-.4.08-.63.11h0l-.62.11h0a4.55,4.55,0,0,1-.63.09h0c-.19,0-.42.07-.62.12h0l-.63.07h0c-.23,0-.44.06-.62.1h0l-1.29.15h0l-.64.07h0c-.86.08-1.71.16-2.59.21h0c-1.5.12-3,.18-4.57.18h-.19a70.25,70.25,0,0,1-7.15-.39h0c-1.08-.12-2.13-.26-3.18-.39h0c-.43-.08-.84-.13-1.26-.21h0l-1.25-.22h0c-.61-.09-1.24-.23-1.87-.36-.21,0-.4-.08-.6-.12h0a3.26,3.26,0,0,0-.61-.11h0l-1.83-.45a5.29,5.29,0,0,1-.6-.13l-.62-.15h0a6,6,0,0,0-.61-.15l-.58-.15h0l-.6-.16h0c-.2-.06-.41-.13-.6-.17l-.59-.16h0c-.2-.05-.4-.1-.6-.17h0l-.6-.17-.58-.16-.57-.17-.59-.2L183,21c-.2-.06-.4-.12-.58-.19l-.58-.18-.57-.17-.57-.18h0l-.59-.21h0l-.57-.17-.57-.2h0l-.55-.19h0l-.55-.19h0l-.57-.19-1.11-.38h0l-.55-.21-.56-.19-.55-.2h0L174,18v0l-.56-.17h0l-.54-.2h0l-.54-.19h0L171.3,17h0l-.54-.19h0l-.52-.21h0L170,16.5h0l-.28-.1h0l-.27-.11h0l-.28-.09h0l-.29-.12h0l-.3-.07h0l-.27-.12h0l-.3-.1h0l-.29-.11h0l-.29-.11-.32-.11h0l-.3-.11-.3-.1h0l-.3-.12-.31-.1-.32-.11-.3-.11-.33-.1h0l-.3-.11h0l-.31-.1c-.32-.13-.63-.22-.93-.32l-.33-.13-.31-.1-.32-.1-.31-.11h0l-.31-.1-.31-.1-.33-.11-.3-.09-.3-.1-.31-.09-.31-.11h0l-.3-.09-.31-.1h0l-.29-.08-.3-.09h0l-.29-.09h0l-.29-.08h0l-.28-.09-.29-.07-.28-.09L157,12.2h0l-.26-.07h0l-.27-.07-.27-.06-.27-.08h0l-.25-.05-.25-.06-.25,0h0l-.22-.06-.24-.05-.23-.05h0l-.23,0-.23-.05h0l-.21,0-.21,0-.19,0c-.06,0-.13,0-.18,0a.75.75,0,0,0-.2,0h-.18a.32.32,0,0,1-.17,0h-.17c-.06,0-.11,0-.18,0l-.2,0c-.06,0-.13,0-.2,0a1,1,0,0,1-.21,0,1.38,1.38,0,0,1-.2,0l-.21,0-.24.06-.22,0-.25.06-.23,0-.25.06-.26,0-.24.05h0l-.28.08-.25.08h0l-.29,0-.26.07-.28.08-.3.08-.27.08h0l-.31.06h0l-.28.1-.3.09-.31.08h0l-.3.07h0l-.3.1-.31.08-.3.12-.31.08-.32.1h0l-.32.09-.31.11h0l-.33.09-.31.1-.32.09h0l-.32.09h0l-.32.12-.31.11h0l-.32.11h0l-.33.08h0l-.3.1-.33.12h0l-.33.11h0l-.31.11h0l-.31.1h0l-.32.09-.31.11h0l-.32.1-.31.12h0l-.3.1-.3.1-.31.1h0l-.3.1h0l-.3.1v0l-.29.07-.29.12h0l-.29.1-.29.09-.27.1-.28.1-.27.07-.27.12-.26.09-.25.09-.57.18-.58.19-.56.19-.57.2-.57.2-.57.21-.57.19-.57.2-.58.17-.58.21-.56.2-.58.17-.56.21-.58.19-.58.17-.58.21-.57.17-.58.17-.58.18h0l-.59.18h0l-.57.18-.58.19-.58.17-.58.16-.59.19h0l-.57.16h0l-.59.16h0l-.59.17h0c-.2.05-.39.11-.6.15l-.57.17-.58.15h0l-.59.16h0c-.2,0-.39.09-.59.15s-.4.09-.59.13h0l-.59.15h0a5.61,5.61,0,0,1-.59.13h0c-.2.06-.4.1-.6.15h0l-.56.13h0a4.93,4.93,0,0,0-.58.13h0c-.21.05-.4.08-.61.11h0c-.19,0-.39.1-.59.13h0l-.59.11h0l-.6.1a3.75,3.75,0,0,1-.6.13h0c-.18,0-.38.05-.57.09h0l-.61.1c-.2,0-.4.08-.59.11h0c-.21,0-.39.06-.6.07h0c-.2,0-.4.06-.6.11h0l-.6.07h0c-.19,0-.39,0-.59.08h0a5.79,5.79,0,0,0-.6.07h0l-.61.05h0a3.15,3.15,0,0,1-.59.07h0c-.21,0-.4.05-.61.06h0l-.61.05h0c-.19,0-.39,0-.6.05h0c-.2,0-.41,0-.6,0h0a4.18,4.18,0,0,1-.61.05h0l-.59,0h-.62c-.21,0-.41,0-.62,0h-1.2c-1.38,0-2.77,0-4.13-.11h0L92.07,25h0c-.4,0-.79-.05-1.18-.08h0c-.4-.05-.79-.1-1.2-.13h0c-.17,0-.37-.06-.57-.07h0c-.39-.06-.78-.1-1.17-.14h0c-.2,0-.41,0-.59-.09h0a5.58,5.58,0,0,1-.59-.1h0c-.2,0-.39-.05-.59-.08h0L85,24.11,84.43,24h0l-.58-.12h0l-1.18-.23h0l-1.16-.24h0c-.21,0-.4-.08-.6-.12a5.11,5.11,0,0,0-.59-.13h0l-.56-.14h0a5.43,5.43,0,0,1-.58-.13l-.59-.13h0l-1.16-.29-.59-.15h0l-.58-.16h0a4.51,4.51,0,0,1-.58-.15l-.58-.15h0l-.57-.16L74,21.57h0l-.58-.15h0l-.57-.16-.59-.18h0l-.57-.16h0l-.59-.19h0l-.57-.16h0l-.58-.18-.58-.18h0L68.77,20h0l-.58-.15-.57-.19h0L67,19.51h0l-.58-.17-.57-.21L65.32,19h0l-.57-.18-.57-.17h0l-.57-.21h0l-.56-.17h0L62.47,18h0l-.55-.19h0l-.58-.19h0l-.56-.19h0l-.57-.19h0l-.57-.18h0L59.3,17h0l-.34-.1h0l-.35-.13h0l-.35-.1h0l-.37-.12-.14-.05q7.83-4.29,16.54-8.17ZM37.39,29.37a125.51,125.51,0,0,0-19,17.09c5.32-2,12.2-4.63,16.9-5.47h0l.24-.05h0l.76-.11h0c.25,0,.51-.06.72-.08h.24c.22,0,.45,0,.64,0h.22l.45,0h.22l.25,0h0a1.14,1.14,0,0,0,.25,0h0a1.27,1.27,0,0,0,.26,0h0c.36.05.71.09,1.1.16h0l.3.06h0l.3.05.28,0h0l.32.06h0c.31.08.62.12.94.2h0l.67.17.34.08h0c.22,0,.45.09.67.15h0l.36.09.34.09h0l.35.08.36.1h0l.35.1h0l.37.1c.27,0,.49.14.74.2h0l.36.1.38.1h0l.37.12c.26.06.52.14.76.21h0l.38.14h0l.38.09h0l.38.11.38.13h0l.38.11h0l.39.11.39.14.76.23.38.13.38.09.37.14.39.12h0l.38.13.37.1.38.13h0l.39.13.36.13.36.1.38.12.37.14.35.1.36.11.37.15h0l.35.1h0l.35.1h0l.34.15h0l.34.08h0l.57.21h0l.57.18h0l.56.17h0l.58.21h0l.55.17h0l.58.19h0l.56.18h0l.57.19h0l.57.18.57.2h0l.57.18.57.18.58.18h0l.58.17h0l.57.19.58.19h0l.55.17h0l.58.18.58.16h0l.57.17h0l.59.17h0l.57.18h0l.59.15.57.17h0l.58.16h0l.58.15.57.16h0l.58.17a5.47,5.47,0,0,1,.58.15h0c.2.05.39.1.58.13h0c.2.07.4.12.59.17l1.16.28h0c.2,0,.39.1.59.13l.58.15h0c.2,0,.37.09.56.12h0a4.75,4.75,0,0,0,.59.12l.6.14h0c.39.08.78.18,1.16.24h0l1.18.22h0l.58.11h0a4.8,4.8,0,0,1,.57.11l1.18.19h0l.59.09h0c.2,0,.38.06.59.08h0a5.25,5.25,0,0,0,.59.08h0l1.17.18h0a3.36,3.36,0,0,1,.57.05h0l1.2.12h0c.39,0,.78.06,1.18.1h0l.59,0h0c1.36.09,2.75.14,4.13.14H98c.21,0,.41,0,.62,0h0c.22,0,.41,0,.62,0h0l.59,0h0c.2,0,.41,0,.61,0h0l.6,0h0l.6-.06h0c.2,0,.42,0,.61-.06h0a4.2,4.2,0,0,0,.61-.06h0l.59,0h0l.61-.07h0a4.25,4.25,0,0,0,.6-.07h0l.59-.07h0c.21,0,.41-.06.6-.07h0q.3-.06.6-.09h0a4.17,4.17,0,0,1,.6-.1h0a3.81,3.81,0,0,1,.59-.08l.61-.11h0l.57-.11h0c.21,0,.41-.08.6-.1s.41-.08.6-.12h0a5.13,5.13,0,0,0,.59-.12h0l.59-.1h0c.21-.06.4-.1.61-.14h0l.58-.13h0a4.58,4.58,0,0,0,.56-.14h0c.2,0,.4-.09.6-.11h0l.59-.15h0c.21,0,.4-.09.59-.15h0l.59-.14.59-.14h0c.2-.07.4-.11.59-.16h0l.58-.15.57-.16.6-.17h0l.59-.16h0l.59-.15h0l.57-.19h0l.59-.15.58-.18.58-.16.58-.19.57-.17h0l.59-.18h0l.58-.19.58-.19.57-.18.58-.19.58-.19.58-.19.56-.18.58-.2.56-.19.58-.18.58-.2.57-.2.57-.2.57-.18.57-.19.57-.2.56-.21.58-.19.57-.21.25-.07.26-.11.27-.07.27-.1.28-.08.27-.12.29-.08.29-.11h0l.29-.08.29-.11h0l.3-.11h0l.3-.1h0l.31-.1.3-.11.3-.11h0l.31-.09.32-.1h0l.31-.11.32-.11h0l.31-.11h0l.31-.08h0l.33-.12h0l.33-.09.3-.12h0l.33-.12h0l.32-.09h0l.31-.12.32-.07h0l.32-.12h0l.32-.09.31-.1.33-.1h0l.31-.09.32-.11h0l.32-.08.31-.11.3-.09.31-.11.3-.06h0l.3-.1h0l.31-.09.3-.07.28-.09h0l.31-.08h0l.27-.07.3-.08.28-.08.26-.07.29-.07h0l.25-.07.28-.06h0l.24,0,.26-.07.25-.05.23-.06.25-.05.22,0,.24,0,.21,0a.71.71,0,0,1,.2,0l.21,0a1.2,1.2,0,0,0,.2,0l.2,0h.7a.62.62,0,0,0,.2,0,1,1,0,0,0,.18,0l.19,0,.21,0a.65.65,0,0,1,.21,0h0l.23,0,.23,0h0l.23,0,.24,0,.22.06h0l.25.06.25,0,.25.06h0l.27.07.27.07.27.07h0l.26.08h0l.28.06.28.08.29.08.28.08h0l.29.08h0l.29.1h0l.3.08.29.1h0l.31.08.3.1h0l.31.08.31.12.3.09.3.1.33.09.31.1.31.12h0l.31.1.32.1.31.09.33.11c.3.12.61.22.93.32l.31.12h0l.3.1h0l.33.12.3.11.32.1.31.12.3.09h0l.3.13.3.11h0l.32.08.29.11h0l.29.11h0l.3.11h0l.27.11h0l.3.11h0l.29.08h0l.28.12h0l.27.1h0l.28.1h0l.27.1h0l.52.18h0l.54.2h0l1.08.39h0l.54.19h0l.54.18h0l.56.2h0l.53.2h0l.55.2.56.2.55.17h0a11.25,11.25,0,0,0,1.11.39l.57.21h0l.55.17h0l.55.2h0l.57.19.57.2h0l.59.17h0l.57.19.57.19.58.17c.18.06.38.13.58.18l.58.18.59.17.57.18.58.18a5.84,5.84,0,0,1,.6.15h0c.2,0,.4.13.6.19h0l.59.16c.19,0,.4.09.6.15h0c.2.07.4.12.6.17h0l.58.14a5,5,0,0,0,.61.16h0c.21,0,.4.1.62.15l.6.15c.6.13,1.21.28,1.83.39h0a3.36,3.36,0,0,0,.61.14h0l.6.15c.63.1,1.26.23,1.87.34h0c.42.08.83.16,1.25.21h0c.42.07.83.15,1.26.2h0c1.05.16,2.1.3,3.18.4h0a64.94,64.94,0,0,0,7.15.38h.19c1.54,0,3.07,0,4.57-.15h0c.88-.06,1.73-.13,2.59-.23h0c.22,0,.42-.06.64-.07h0l1.29-.15h0l.62-.09h0l.63-.09h0a4.22,4.22,0,0,0,.62-.1h0l.63-.1h0c.21,0,.41,0,.62-.1h0l.63-.11h0c.21,0,.41-.09.62-.11h0a4.56,4.56,0,0,0,.62-.13h0c.21,0,.42-.08.62-.1h0c.2-.06.41-.1.62-.15a3.26,3.26,0,0,0,.6-.14h0c.21,0,.42-.09.61-.11h0l.62-.15h0l.61-.13.6-.15h0c.21,0,.4-.12.61-.15h0a5,5,0,0,0,.61-.16l.57-.14h0a5.43,5.43,0,0,0,.61-.17h0l.6-.15h0l.6-.16h0c.2-.06.39-.14.6-.19h0l.58-.15.58-.18h0l.58-.18.6-.17h0l.58-.18h0l.57-.18h0l.58-.17h0l.58-.19h0l.58-.19h0l1.12-.37c.58-.19,1.13-.39,1.69-.56h0l.57-.21h0c.56-.19,1.12-.39,1.67-.56h0l.55-.2h0l.56-.2h0c1.45-.53,2.89-1.05,4.32-1.54l.54-.2h0l.25-.1h0l.86-.31h0l.58-.22h0l.6-.22.62-.19h0l.28-.13h0l.32-.09h0l.3-.12h0l.31-.1.31-.11.31-.12h0l.33-.1h0l.29-.12.33-.1h0l.32-.1h0l.3-.12.33-.11.3-.09.32-.1.32-.1h0l.31-.12.3-.1.33-.09.3-.1.31-.09h0l.3-.12.31-.08.29-.1.31-.08.3-.1.29-.08.3-.1h0l.28-.08.3-.08h0l.28-.08h0l.29-.08.27-.06.26-.08.28-.07h0l.27-.07h0l.26-.07.24-.06h0l.25,0,.26-.06.23-.06h0l.23,0h0l.24,0,.22,0h0a1.81,1.81,0,0,1,.23,0,.65.65,0,0,1,.2,0l.21,0,.2,0,.2,0h0a.65.65,0,0,0,.19,0h.7l.19,0,.2,0,.2,0h0l.21,0,.22,0,.23,0,.22,0,.24.05.25.06h0l.24.05h0l.26.07.26,0h0l.25.06.27.07h0l.27.07h0l.28.07.28.08.28.08.29.07h0l.28.08h0l.31.09.29.07.3.09h0l.31.1h0l.31.06.3.11.31.09.31.11.31.08h0l.32.11.3.09h0l.34.1.31.1.3.09.34.12.33.07.31.12h0l.64.21h0l.32.12.32.09h0l.32.12h0l.31.08.32.11h0l.31.11h0l.32.11.3.1.63.2h0l.29.11.32.1h0l.29.1h0l.29.11h0l.3.11h0l.29.08h0l.28.11.3.08h0l.27.12.28.08.26.1.28.07.26.11.26.07.57.21.57.19.56.21.56.2.58.19.57.18.57.2.58.2.57.2.56.18.58.19.58.2.56.18.59.19.57.19.57.19.59.18.58.19.58.19h0l.57.18h0l.58.17.58.19.58.16.58.18.58.15h0l.59.19h0l.59.15h0l.59.16h0l.58.17.58.16.58.15h0c.2,0,.4.09.6.16h0l.58.14.58.14h0l.6.15h0c.19.05.4.09.59.15h0c.2,0,.39.08.59.11h0a4.92,4.92,0,0,0,.58.14h0l.6.13c.2,0,.39.08.59.14.39.06.8.16,1.2.22h0c.19,0,.4.07.6.12s.36.06.57.1h0l1.2.22h0c.39,0,.8.1,1.2.18h0l1.19.16h0l.59.07h0l1.21.14h0c.82.09,1.6.16,2.41.22h0c.61,0,1.2.07,1.81.09h0c.81,0,1.62,0,2.44,0h1.17c.2,0,.4,0,.6,0h0a5.62,5.62,0,0,0,.59,0h0l.59,0h0c.18,0,.39,0,.59,0h0l.59,0h0l.58,0,.6,0h0a5.41,5.41,0,0,1,.59-.05h0a3.93,3.93,0,0,1,.6-.06h0l.57-.06h0a3.92,3.92,0,0,1,.59-.05h0a4.09,4.09,0,0,1,.58-.09h0c.21,0,.41-.05.59-.09a5.25,5.25,0,0,0,.59-.08c.21,0,.39-.07.59-.08h0l.59-.09h0c.2,0,.39-.07.59-.08h0l.57-.11h0c.2,0,.4-.09.6-.11h0l.57-.11h0c.21-.05.4-.07.59-.11h0l.59-.11h0a3.09,3.09,0,0,0,.59-.12h0l.58-.12h0l.58-.14a4.87,4.87,0,0,0,.57-.12l.59-.12.57-.15h0c.21,0,.41-.09.6-.13l.57-.14h0l.58-.14.58-.17h0l.59-.13h0l.58-.15.58-.17.56-.16.58-.15.59-.16.57-.17.59-.15.57-.18h0l.58-.17.57-.17h0l.58-.16.57-.18h0l.57-.17h0l.58-.19.58-.19h0l.57-.17h0l.57-.18.57-.18h0l.58-.18h0l.57-.2.57-.18h0l.56-.19h0l.56-.18h0l.57-.19h0l.58-.17h0l.58-.21h0l.56-.17h0l.57-.18h0l.57-.21h0l.33-.08h0l.35-.15h0l1.06-.35.36-.11.36-.1.36-.14.38-.12h0l.37-.1.36-.13.39-.13h0l.38-.13.36-.1h0l.37-.13h0l.4-.12.37-.14.38-.09.39-.13.76-.23.39-.14.38-.11h0l.37-.11h0l.39-.13.38-.11.38-.09h0l.38-.14.75-.21.39-.12.37-.1.37-.1.36-.1h0l.36-.1.36-.1.37-.1.35-.1h0L372,42h0l.35-.09h0l.36-.09.32-.1h0l.35-.05.34-.08h0l.32-.09h0l.31-.08h0l.35-.08h0l.3,0h0l.32-.08.31-.06.3,0h0l.3-.05h0l.29-.06h0l.28-.05h0a1.35,1.35,0,0,0,.28,0h0l.27,0h0l.25,0h0a1.26,1.26,0,0,0,.28,0h0a1.1,1.1,0,0,0,.25,0h0l.24,0h.25a.9.9,0,0,0,.22,0h.84l0,0h.46l.18,0h.05l.2,0h.05l.2,0h0l0,0,.22,0h0a2.6,2.6,0,0,0,.26,0h0l0,0,.22,0h0l.2.05h.06l.07,0,.17,0h0l0,0,.2,0h.06l.23,0h0v0l.19,0,.05,0c4.68,1,11,3.43,15.93,5.29,10.07,3.83,20.47,7.77,31.74,7.77a60.16,60.16,0,0,0,6.47-.4,100.91,100.91,0,0,0-9.79-11.44,139.63,139.63,0,0,1-14.57-4.92c-9.42-3.59-19.13-7.27-29.78-8h-.46a1.94,1.94,0,0,0-.34,0H382l-.35,0h-.16a3.17,3.17,0,0,0-.44,0h-.07a5.06,5.06,0,0,0-.55,0h0c-.37,0-.76,0-1.13,0h-.53a3.14,3.14,0,0,0-.53,0h-.53a4.7,4.7,0,0,1-.53,0h0l-.53,0h-.53l-.53,0h0c-.17,0-.35,0-.53.05h0a3.44,3.44,0,0,0-.53.06c-.17,0-.35,0-.53,0h0l-.53,0h0l-.54.07h0a3,3,0,0,1-.53.07h0a3.44,3.44,0,0,0-.53.06h0l-.52.06a3.23,3.23,0,0,1-.53.08h0c-.18,0-.35,0-.54.08h0a4.25,4.25,0,0,1-.53.07h0a4.71,4.71,0,0,1-.52.09,3.26,3.26,0,0,1-.53.09l-.53.1h0l-1.05.2h0c-.19,0-.37.08-.54.1h0l-.52.12-.55.11h0l-.51.1-.54.13h0l-.55.12-.52.11h0c-.18.06-.37.09-.54.15h0l-.53.12h0l-.51.12-.56.15-.53.15-.53.13h0l-.54.13h0l-.53.16h0l-.54.16h0l-.52.15-.56.15-.52.16h0l-.55.14h0l-.53.16h0l-.55.16h0l-.53.17h0l-.54.17h0l-.54.16-.55.18h0l-.54.16-.55.17h0l-.53.18L351,35h0l-.54.18h0l-.54.18-.54.17-.56.19h0l-.53.19h0l-.56.17h0l-.56.18h0l-.55.18h0l-.55.18h0l-.56.18h0l-.55.19h0l-.34.11h0l-.33.1h0l-.36.12h0l-.33.12h0l-.35.12h0l-.35.1h0l-.35.12-.35.11h0l-.36.12h0l-.35.1h0l-.36.14-.35.1h0l-.36.14h0l-.36.1h0l-.35.1-.37.13h0l-.37.12h0l-.37.12-.35.11h0l-.36.12h0l-.38.1-.35.13h0l-.36.1-.37.11-.36.12-.36.11-.36.11h0l-.37.09-.35.1-.38.12-.37.11-.35.11-.35.11-.37.1-.35.09-.35.11-.36.09-.35.11-.34.09h0l-.36.09-.36.09h0l-.34.09-.33.1-.35.07-.34.1h0l-.34.07h0l-.34.09-.31.07h0l-.35.1-.33.06h0l-.31.06h0l-.33.09h0l-.32,0h0l-.32.07h0l-.31.06h0l-.3.06h0l-.32.06h0l-.31.05h0l-.29,0h0l-.3,0h0l-.29.05h0l-.29,0h0l-.29,0h0a1.17,1.17,0,0,0-.27,0h0l-.58-.21h0l-.59-.18h0l-.59-.2h0l-.65-.21h0l-.67-.22h0l-.66-.24h0l-.69-.2h0l-.73-.24h0l-.73-.25h0l-.75-.24h0l-.78-.25h0l-.79-.25h0l-.8-.24h0l-.81-.26h0l-.84-.25h0l-.84-.27h0l-.86-.28h0l-.87-.26h0l-.89-.26h0l-.9-.28h0l-.91-.27h0l-.91-.27-.92-.26h0l-.93-.27h0l-.94-.28-.95-.26h0l-1-.28h0l-1-.29-1-.24h0c-.32-.09-.63-.21-1-.27h0c-.33-.08-.65-.18-1-.27h0l-1-.26c-.33-.09-.65-.19-1-.26h0l-1-.28c-.66-.15-1.33-.33-2-.5l-1-.24h0c-.34-.1-.67-.16-1-.26h0c-.34-.06-.67-.15-1-.22h0c-.32-.1-.64-.16-1-.24l-1-.24c-.32-.06-.64-.16-1-.22h0l-1-.22c-.33-.08-.66-.13-1-.22s-.64-.15-1-.2l-1-.21-1-.2h0c-.32-.07-.63-.12-.95-.2h0l-1-.18-1-.18h0l-.93-.15h0l-.91-.17h0l-1.84-.29c-.29,0-.6-.11-.88-.13h0c-.32,0-.6-.1-.89-.14h0c-.3,0-.58-.06-.89-.1h0c-.28,0-.58-.08-.85-.1h0c-.3,0-.57-.07-.84-.12h0c-.29,0-.56-.05-.85-.06h0c-.26,0-.54-.07-.82-.09s-.52-.05-.8-.06h0l-.8,0h0c-.26,0-.51,0-.77,0h0l0,0h-.57l0,0h-.85l-.05,0h-2.93a2.58,2.58,0,0,1-.47,0h0c-.18,0-.34,0-.5,0h-.48c-.17,0-.34,0-.5.05h0l-.47,0h0l-.49,0h0a3.93,3.93,0,0,0-.48.06h0a2.73,2.73,0,0,0-.49.06l-.48,0-.48.05-.48.09h0l-.48,0-.47.09a3.08,3.08,0,0,0-.48.09c-.16,0-.31,0-.47,0l-.46.1a2,2,0,0,0-.5.09h0c-.15,0-.31.06-.46.08s-.33.05-.48.09l-.48.11a2.08,2.08,0,0,0-.47.1c-.15,0-.31.07-.46.1s-.33.08-.49.1l-.46.11a4.34,4.34,0,0,0-.48.14h0a4.4,4.4,0,0,0-.47.1,4.12,4.12,0,0,0-.47.13h0a2.22,2.22,0,0,0-.46.12,4.05,4.05,0,0,0-.47.12l-.49.13c-.15,0-.3.1-.47.13l-.45.14-.5.12-.45.14-.48.15-.47.15-.46.15-.47.13-.47.16-.47.14-.49.16-.45.15-.49.16-.46.18-.47.16-.48.15-.47.19-.47.14-.47.17-.47.16-.48.18-.49.16-.46.18-.49.19-.47.14-.47.19-.48.19-.48.16-.48.18-.48.18-.48.17-.4.15-.41.14-.4.14-.39.16-.4.14h0l-.41.16-.42.13-.39.15-.41.17-.41.12-.41.16-.41.14-.41.15-.41.14-.41.16-.41.15-.42.13-.42.15-.4.14-.41.13-.42.14-.4.15h0L224,40l-.4.14-.43.13-.38.13-.43.14h0l-.41.12-.4.12-.42.13h0l-.39.12h0l-.41.14h0l-.4.09-.4.13-.4.11-.4.11-.4.12-.39.08-.39.12h0l-.39.11-.39.08a3.75,3.75,0,0,1-.39.1l-.39.08a2.79,2.79,0,0,1-.39.1l-.37.08a2.7,2.7,0,0,1-.39.08c-.12,0-.24,0-.36.08s-.25.06-.38.08a3.09,3.09,0,0,0-.35.07,1.22,1.22,0,0,0-.38.07c-.13,0-.25,0-.37.06l-.35,0-.36.06-.36.06-.35.05a1.46,1.46,0,0,0-.36,0,1.67,1.67,0,0,1-.34,0c-.11,0-.23,0-.34.05l-.34,0h0a1.16,1.16,0,0,0-.32,0h-2.61a1.12,1.12,0,0,0-.32,0h0l-.35,0h0a3.26,3.26,0,0,0-.33-.05h0a1.76,1.76,0,0,1-.34,0h0a1.5,1.5,0,0,0-.37,0h0l-.33-.05h0l-.36-.06h0l-.36-.06h0l-.35,0h0l-.38-.06h0a1.16,1.16,0,0,0-.37-.07h0c-.1,0-.24,0-.35-.07h0c-.13,0-.26-.07-.38-.08h0c-.12,0-.26,0-.37-.08h0a3,3,0,0,1-.39-.08h0l-.38-.08h0l-.38-.1h0l-.38-.08a2.79,2.79,0,0,1-.39-.1h0L200,42l-.39-.11h0l-.4-.12h0l-.4-.08-.38-.12-.4-.11h0l-.4-.11-.41-.13h0l-.39-.09h0l-.41-.14h0l-.41-.12h0l-.41-.13-.4-.12h0l-.4-.12h0l-.42-.14-.41-.13-.42-.13h0l-.4-.14-.41-.13h0l-.41-.15-.41-.14-.42-.13-.4-.14-.42-.15-.41-.13-.41-.15-.42-.16-.41-.14-.4-.15-.42-.14-.42-.16-.41-.12-.4-.17-.4-.15-.4-.13-.42-.16h0l-.39-.14-.41-.16-.4-.14-.39-.14-.4-.15c-10.28-3.76-20-7.34-30.46-7.34h-1.46l-.05,0H151l-.06,0h-.55l0,0h0c-.26,0-.52,0-.77,0h0l-.79,0h0c-.27,0-.55,0-.8.06s-.55.06-.84.09h0l-.83.06h0c-.29.05-.56.09-.85.12h0c-.28,0-.57.06-.85.1h0c-.3,0-.59.09-.88.1h0c-.29,0-.59.11-.9.14h0c-.27,0-.59.09-.89.13l-.89.13h0l-.94.16h0l-.92.17h0c-.31.06-.63.1-.94.15h0l-.93.18-1,.18h0c-.32.08-.64.13-1,.2h0l-1,.2-1,.21c-.32.05-.65.13-1,.2s-.66.14-1,.22l-1,.22h0c-.34.06-.66.16-1,.22l-1,.24c-.32.08-.65.14-1,.24s-.67.16-1,.22-.64.16-1,.26-.66.17-1,.24l-1,.25h0c-.33.1-.66.18-1,.25s-.65.19-1,.28-.68.17-1,.26l-1,.26-1,.27-1,.27-1,.24-1,.29-1,.28-1,.26-1,.28-.93.27-.93.26-.92.27-.89.27-.91.28-.89.26-.85.26-.87.28-.84.27-.84.25-.81.26-.8.24-.8.25-.77.25-.75.24-.73.25-.72.24-.7.2-.66.24-.68.22-.64.21-.61.2-.59.18-.56.21-.3,0-.27,0-.3,0L93,42.8l-.31,0-.3,0-.29-.05-.32-.06-.3-.06-.32-.06-.31-.07-.32,0-.33-.09-.33-.06-.33-.06h0l-.33-.1L88.91,42l-.34-.09-.34-.07-.34-.1-.35-.07h0l-.34-.1h0l-.33-.09h0l-.36-.09-.35-.09h0l-.35-.09-.36-.11h0L85.1,41l-.34-.11h0l-.36-.09h0l-.36-.1h0l-.35-.11h0l-.36-.11h0L83,40.36h0l-.36-.12h0l-.36-.1h0l-.36-.09h0l-1.81-.55h0l-.36-.13h0c-.73-.22-1.46-.45-2.18-.7h0l-2.85-.91h0L72.25,37l-3.31-1.08h0l-1.09-.38h0l-.55-.17h0c-.36-.13-.73-.24-1.09-.36h0l-.54-.16h0l-.53-.18-.57-.17h0L64,34.31h0l-.55-.18h0L63,34h0l-1.06-.34h0l-.55-.16h0l-.53-.16h0l-.55-.14h0L59.73,33l-.55-.15-.53-.15h0l-.53-.16-.55-.16L57,32.26l-.53-.13L56,32c-.17-.06-.35-.09-.53-.15l-.53-.12h0l-.53-.12h0c-.17-.06-.35-.09-.53-.15l-.53-.11-.54-.12c-.17,0-.35-.08-.53-.13l-.53-.1h0l-.53-.11-.52-.12h0l-1.6-.3h0l-.53-.1h0a3,3,0,0,1-.52-.09h0a4,4,0,0,1-.52-.09h0l-1.61-.23h0l-2.64-.3h0c-.18,0-.37,0-.53,0h0c-.35-.05-.7-.09-1-.11h0l-1.06,0h0l-.54,0h0a4.52,4.52,0,0,1-.52,0H39a3.26,3.26,0,0,0-.53,0H37.39Z"/><path d="M266.67,489.19c0-73.41-34.11-70.46-34.11-90.84V219c0-20.38,34.11-17.43,34.11-90.84,0-22.45-3.78-29-42-29s-42,6.57-42,29c0,73.41,34.1,70.46,34.1,90.84V398.35c0,20.38-34.1,17.43-34.1,90.84,0,22.45,3.78,29,42,29S266.67,511.64,266.67,489.19ZM245.42,111.41c.16,2,.5,4.93.7,8.4s.44,7.54.57,11.89c.05,2.18.16,4.42.16,6.71s0,4.6.06,6.92,0,4.64-.06,6.92-.11,4.53-.16,6.7c-.13,4.35-.33,8.41-.57,11.89s-.54,6.38-.7,8.41-.36,3.19-.36,3.19-.16-1.16-.36-3.19-.49-4.93-.7-8.41-.43-7.54-.56-11.89c-.06-2.17-.11-4.42-.16-6.7s-.05-4.6-.07-6.92,0-4.64.06-6.92.11-4.53.16-6.71c.13-4.35.33-8.41.57-11.89s.54-6.37.7-8.4.36-3.19.36-3.19S245.23,109.38,245.42,111.41ZM204,179.25c-.16-2-.49-4.93-.7-8.41s-.43-7.54-.57-11.89c-.05-2.17-.1-4.42-.16-6.7s0-4.6-.06-6.92,0-4.64.06-6.92.11-4.53.16-6.71c.13-4.35.33-8.41.57-11.89s.54-6.37.7-8.4.36-3.19.36-3.19.16,1.16.36,3.19.5,4.93.7,8.4.44,7.54.57,11.89c.05,2.18.16,4.42.16,6.71s0,4.6.06,6.92,0,4.64-.06,6.92-.11,4.53-.16,6.7c-.14,4.35-.33,8.41-.57,11.89s-.54,6.38-.7,8.41-.36,3.19-.36,3.19S204.16,181.28,204,179.25Zm22.93,223.56c-.15-12.84-.49-27.82-.56-43.87s-.16-33.17-.25-50.29c.08-17.12.17-34.24.25-50.29s.41-31,.56-43.87.53-23.54.68-31,.36-11.77.36-11.77.13,4.28.36,11.77.52,18.19.68,31,.51,27.82.57,43.87.16,33.17.24,50.29c-.08,17.12-.17,34.24-.24,50.29s-.42,31-.57,43.87-.53,23.54-.68,31-.36,11.77-.36,11.77-.13-4.28-.36-11.77S227.06,415.65,226.89,402.81ZM204,505.9c-.16-2-.5-4.93-.7-8.41s-.44-7.53-.57-11.88c-.05-2.18-.16-4.43-.16-6.71s0-4.6-.06-6.92,0-4.64.06-6.92.11-4.53.16-6.71c.14-4.35.33-8.41.57-11.88s.54-6.38.7-8.41.36-3.19.36-3.19.16,1.16.36,3.19.49,4.93.7,8.41.43,7.53.57,11.88q.08,3.27.16,6.71c0,2.28,0,4.6.06,6.92s0,4.64-.06,6.92-.11,4.53-.16,6.71c-.13,4.35-.33,8.4-.57,11.88s-.54,6.38-.7,8.41-.36,3.19-.36,3.19S204.16,507.93,204,505.9Zm40.74,0c-.16-2-.5-4.93-.7-8.41s-.44-7.53-.57-11.88c-.05-2.18-.16-4.43-.16-6.71s0-4.6-.06-6.92,0-4.64.07-6.92.1-4.53.15-6.71c.14-4.35.33-8.41.57-11.88s.54-6.38.7-8.41.36-3.19.36-3.19.16,1.16.36,3.19.49,4.93.7,8.41.44,7.53.57,11.88q.08,3.27.16,6.71c0,2.28,0,4.6.06,6.92s0,4.64-.06,6.92-.11,4.53-.16,6.71c-.13,4.35-.33,8.4-.57,11.88s-.54,6.38-.7,8.41-.36,3.19-.36,3.19S244.9,507.93,244.7,505.9Z"/><path d="M70.1,608c39,6.08,92.27,9.3,154.1,9.3,53.74,0,99.65-2.26,136.46-6.71,31.12-3.77,54.43-9,67.41-15.14,18.35-8.67,21.31-13,21.31-20.13s-3-11.45-21.31-20.13c-13-6.13-36.29-11.37-67.41-15.13-36.81-4.46-82.72-6.71-136.46-6.71-61.83,0-115.11,3.21-154.1,9.3C23.58,549.91,0,560.91,0,575.33S23.58,600.75,70.1,608ZM5.57,574.52a5.19,5.19,0,0,1,.19-1,7.9,7.9,0,0,1,.41-1.34c.7-2,2.67-4.87,6.66-7.73s10-5.62,17.4-8.05A210.26,210.26,0,0,1,56.51,550c9.75-1.81,20.51-3.31,32-4.62a87.34,87.34,0,0,0-16.62,8.29,39.68,39.68,0,0,0-8.75,7.56,20.52,20.52,0,0,0-4.63,9.3,12.1,12.1,0,0,0-.26,2.46l0,.62V574l0,.3.09,1.17a16.38,16.38,0,0,0,.38,2.42,19.23,19.23,0,0,0,.68,2.39,24.36,24.36,0,0,0,5.51,8.67,43.08,43.08,0,0,0,8.48,6.79,71.39,71.39,0,0,0,9.4,4.87,92.5,92.5,0,0,0,8.79,3.28c2.71.85,5.17,1.47,7.22,1.92a63.43,63.43,0,0,0,6.56,1.13s-2.27-.63-6.08-1.86c-1.91-.62-4.21-1.38-6.79-2.31s-5.43-2-8.39-3.37a68.54,68.54,0,0,1-8.89-4.83,40,40,0,0,1-7.8-6.56,22,22,0,0,1-4.83-8.17,18.28,18.28,0,0,1-.82-4.45l0-1.18,0-.29v-.07h0v-.18l0-.56a11.21,11.21,0,0,1,.32-2.23,19,19,0,0,1,4.42-8.43,37.64,37.64,0,0,1,8.28-6.91,96.62,96.62,0,0,1,19.82-9.15c2.6-.9,5.06-1.67,7.35-2.33q11.76-1.1,24.21-1.95c12.89-.89,26.28-1.48,39.88-2s27.46-.79,41.31-.9c6.92-.07,13.88-.13,20.74-.1s13.84,0,20.65.12l10.16.17c3.38,0,6.73.07,10.07.17l10,.25,4.92.13,4.88.18c6.48.25,12.86.49,19.08.82l9.24.46,9,.59q6.48.4,12.66.92c2.89.85,6.16,1.92,9.67,3.24a83.66,83.66,0,0,1,18.73,9.58,35.45,35.45,0,0,1,7.53,7.08,19.81,19.81,0,0,1,3.91,8.43,13.88,13.88,0,0,1,.27,2.22l.05.55c0,.12,0,.37,0,.54l0,1.16a20.55,20.55,0,0,1-.74,4.4,22.57,22.57,0,0,1-4.32,8.17c-4,5-9.91,8.93-15.5,11.73-2.81,1.41-5.54,2.57-8,3.56s-4.69,1.78-6.55,2.4-3.33,1.1-4.36,1.39l-1.58.46s.59-.08,1.68-.28,2.69-.51,4.65-1A81.75,81.75,0,0,0,359.4,601c5.85-2.78,12.13-6.73,16.59-12a24.63,24.63,0,0,0,4.91-8.58,22,22,0,0,0,1-4.7l.08-1.15c0-.21,0-.35,0-.61l0-.6a14.93,14.93,0,0,0-.19-2.4,21.1,21.1,0,0,0-4-9.18,37.39,37.39,0,0,0-7.87-7.7A82.12,82.12,0,0,0,350.69,544l8.54.82c10.2,1.19,19.56,2.32,27.7,3.71s15.16,2.8,20.85,4.12c2.77.77,5.31,1.38,7.44,2s3.93,1.21,5.34,1.73l4.26,1.66c18.23,8.63,19.09,12.09,19.09,17.31s-.86,8.69-19.09,17.31c-22.16,10.48-84.76,21.16-200.62,21.16S5.47,602.09,5.47,575.33C5.47,575.33,5.5,575.05,5.57,574.52Z"/><path d="M149.19,576.23c0,12.93.24,28.71,70,25.72s74.64-12.14,74.64-25.72-4.89-22.73-74.64-25.72S149.19,563.3,149.19,576.23Z"/><path d="M262.08,551.53c2.22.45,4.7.94,7.36,1.56s5.48,1.36,8.43,2.13l4.36,1.36c1.36.56,2.86,1,4.21,1.66a27.4,27.4,0,0,1,7.06,4.33,12.64,12.64,0,0,1,3.66,5.87,25.88,25.88,0,0,1,.95,6.86l0,1.77,0,1.7a24.62,24.62,0,0,1-.38,3.26,12.67,12.67,0,0,1-2.63,5.68A20.46,20.46,0,0,1,290,592c-1,.56-2,1.14-3,1.6s-2,.95-3,1.32c-1.91.8-3.7,1.4-5.16,1.92l-4.72,1.54,1.37-.17c.88-.12,2.21-.24,3.85-.53s3.67-.62,5.88-1.23a45.15,45.15,0,0,0,7.27-2.42,25.65,25.65,0,0,0,7.16-4.55,15.74,15.74,0,0,0,4.24-6.76,20.68,20.68,0,0,0,.79-3.7c.06-.62.13-1.25.19-1.88s0-1.22.07-1.83a24.57,24.57,0,0,0-.87-7.73,15.93,15.93,0,0,0-5-7.55,25.21,25.21,0,0,0-4.37-2.92,38.51,38.51,0,0,0-4.89-2.22c-1.67-.63-3.38-1.11-5-1.63l-5-1.18q-2.46-.45-4.77-.84c-1.53-.29-3.05-.41-4.49-.61s-2.8-.38-4.13-.47l-3.76-.29c-1.18-.08-2.27-.19-3.29-.23l-2.79-.1c-3.37-.11-5.31-.13-5.31-.13s1.84.4,5.08,1C257.91,550.69,259.88,551.07,262.08,551.53Z"/><path d="M138.27,569.11a58.2,58.2,0,0,0-.18,8.1,30.46,30.46,0,0,0,1.08,7.95,18.25,18.25,0,0,0,4.09,7.29,19.18,19.18,0,0,0,1.58,1.54l1.75,1.39c.62.43,1.3.81,1.93,1.2l.95.56,1,.48,2,.92c.66.27,1.34.5,2,.73s1.28.45,1.91.64l1.89.49a58.77,58.77,0,0,0,6.41,1.3c1.78.27,3.21.36,4.17.48l1.49.14-5.26-1.47c-1.58-.56-3.55-1.09-5.6-2l-1.6-.64c-.53-.23-1-.51-1.57-.78s-1.09-.52-1.63-.81l-1.54-1-.79-.48-.7-.56c-.45-.38-1-.74-1.4-1.14L149,592.24a12.74,12.74,0,0,1-1.08-1.37,15.77,15.77,0,0,1-2.62-6.32,36.72,36.72,0,0,1-.41-7.36c.08-2.59.06-5.24.38-7.74a18.36,18.36,0,0,1,2.18-7.11,17,17,0,0,1,5.56-5.68,35.53,35.53,0,0,1,8.25-3.85,75.36,75.36,0,0,1,8.85-2.4c2.87-.62,5.58-1.08,8-1.48s4.57-.69,6.35-.91l5.61-.72-1.5-.06c-1,0-2.41-.13-4.24-.11h-3c-1.11,0-2.31.07-3.59.1l-4.09.23c-1.43.13-3,.24-4.52.45A74.38,74.38,0,0,0,159,549.73a41.21,41.21,0,0,0-10.33,4,23.38,23.38,0,0,0-4.38,3.17,17.92,17.92,0,0,0-3.23,3.82A19.81,19.81,0,0,0,138.27,569.11Z"/><path d="M392.71,578.62a5.75,5.75,0,0,0,4.67-1.94h20.05a5.75,5.75,0,0,0,4.67,1.94c2.84,0,5.13-1.47,5.13-3.29S424.94,572,422.1,572a5.72,5.72,0,0,0-4.67,2H397.38a5.72,5.72,0,0,0-4.67-2c-2.84,0-5.13,1.48-5.13,3.29S389.87,578.62,392.71,578.62Zm14.7-3.74c3.67,0,7.34.08,10.1.19,1.38,0,2.52.14,3.33.18s1.26.08,1.26.08l-1.26.09c-.81,0-1.95.12-3.33.17-2.76.11-6.43.19-10.1.19s-7.35-.08-10.11-.19c-1.38-.05-2.52-.13-3.33-.17l-1.26-.09s.46,0,1.26-.08,1.95-.12,3.33-.17C400.06,575,403.73,574.89,407.41,574.88Z"/><path d="M20.92,578.62a5.75,5.75,0,0,0,4.67-1.94H45.64a5.74,5.74,0,0,0,4.67,1.94c2.83,0,5.13-1.47,5.13-3.29S53.14,572,50.31,572a5.71,5.71,0,0,0-4.67,2h-20a5.72,5.72,0,0,0-4.67-2c-2.84,0-5.14,1.48-5.14,3.29S18.08,578.62,20.92,578.62Zm1.26-3.37c.8,0,1.95-.12,3.33-.17,2.75-.12,6.43-.19,10.1-.2s7.35.08,10.11.19c1.37,0,2.52.14,3.33.18s1.26.08,1.26.08l-1.26.09c-.81,0-2,.12-3.33.17-2.76.11-6.43.19-10.11.19s-7.35-.08-10.1-.19c-1.38-.05-2.53-.13-3.33-.17l-1.26-.09S21.38,575.29,22.18,575.25Z"/><path d="M118.85,555.53c.92-.58,1.83-1.12,2.73-1.63a11,11,0,0,0,8.35.18c6.5-2.33,11.57-5.1,9.76-7.53,1.74-.42,2.76-.58,2.8-.58.84-.12,1.38-.66,1.19-1.2a1.57,1.57,0,0,0-1.53-.79l-.33,0a44.91,44.91,0,0,0-4.46,1c-6.77-3-14.9,2-17.86,4.17-1.17.85-1,2.13,0,3.27-.94.53-1.88,1.09-2.83,1.69a.78.78,0,0,0,0,1.42A2.23,2.23,0,0,0,118.85,555.53Zm-.28-1.33c.54-.38,1.26-1,2.26-1.56s2.16-1.32,3.48-2,2.82-1.39,4.35-2,3.14-1.23,4.7-1.71,3-.87,4.34-1.17,2.42-.46,3.21-.57,1.24-.14,1.24-.14l-1.16.3c-.74.19-1.77.51-3,.88s-2.61.85-4.07,1.39c-.75.26-1.47.57-2.24.85l-2.27.92c-1.51.62-3,1.29-4.36,1.92l-2,.93-1.74.85c-1.09.52-2,1-2.6,1.3s-1,.49-1,.49S118,554.58,118.57,554.2Z"/><path d="M143.27,606.25c-.89-.2-1.73-.41-2.57-.62a1.89,1.89,0,0,0-.32-2.87c-3-2.15-11.21-7.25-18-4.1a25.21,25.21,0,0,1-2.85-1.84,2,2,0,0,0-1.24-.38,2.18,2.18,0,0,0-1,.21c-.69.34-.81,1-.27,1.41a26.32,26.32,0,0,0,3.17,2.08c-1.88,2.44,3.2,5.23,9.73,7.57a10.84,10.84,0,0,0,8.78-.42c1.12.3,2.27.58,3.49.86a1.92,1.92,0,0,0,2-.61C144.52,607,144.09,606.44,143.27,606.25Zm-1.74.75c-.76-.15-1.89-.31-3.17-.62s-2.79-.67-4.36-1.13-3.19-1-4.78-1.61-3.1-1.27-4.45-1.95a37.39,37.39,0,0,1-3.55-2c-1-.63-1.7-1.2-2.21-1.6s-.73-.66-.73-.66.34.21.93.54,1.48.8,2.54,1.34,2.34,1.13,3.74,1.74c.68.31,1.44.59,2.16.92l2.29.9c1.54.6,3.12,1.15,4.6,1.67l2.17.73,2,.62c1.21.4,2.24.71,3,.94l1.13.36Z"/></g></g></svg>