<svg xmlns="http://www.w3.org/2000/svg" viewBox="0 0 449.58 617.28"><defs><style>.cls-1{fill-rule:evenodd;}.cls-2{fill:none;stroke:#000;stroke-miterlimit:10;stroke-width:5px;}</style></defs><g id="Layer_2" data-name="Layer 2"><g id="Layer_1-2" data-name="Layer 1"><path class="cls-1" d="M69.1,558.59a3.38,3.38,0,0,0-.55,0l.55,0Zm0,29.29a5.06,5.06,0,0,1-.55,0l.55,0Zm346.18-29.42h0l-.13,0h0l-.29,0h-.12l0,0h-.1l-.25,0h-.35l-.17,0h-.59l-.35,0h-2.31c-.17,0-.34,0-.53,0h-.52l-.54,0h0l-1.06-.08h0l-1-.07h0l-.53-.06h0c-.87-.09-1.75-.18-2.64-.29h0l-1.61-.23h0a4,4,0,0,0-.52-.1h0l-.52-.1h0c-.18,0-.36-.05-.53-.09h0c-.53-.08-1.06-.2-1.6-.29h0c-.17-.05-.36-.09-.52-.12l-.53-.11h0l-.53-.11-.54-.12-.53-.13-.53-.12-.53-.11h0l-.53-.14h0l-.53-.15-.54-.12-.54-.14-.53-.15-.53-.15-.55-.13-.53-.15h0l-.53-.16-.55-.14-.53-.16h0l-.55-.17h0l-.53-.16h0l-.55-.16h0l-1.06-.32h0l-.54-.15h0l-.55-.18h0l-.54-.17h0l-.56-.17-.53-.16h0l-.54-.17h0c-.36-.15-.73-.26-1.09-.38h0l-.55-.16h0l-1.09-.36h0c-1.08-.36-2.2-.74-3.31-1.09-.78-.26-1.59-.53-2.42-.79h0l-2.85-1h0c-.72-.21-1.45-.46-2.18-.67h0l-.36-.11h0l-1.81-.57h0l-.37-.12h0l-.35-.1h0l-.36-.09h0l-.39-.13h0l-.35-.1h0l-.35-.1h0l-.36-.1h0l-.36-.11h0l-.34-.09-.35-.1h0l-.36-.1-.35-.1h0l-.35-.09-.36-.08h0l-.33-.11h0l-.34-.07h0l-.35-.1-.34-.07-.35-.09-.33-.07-.32-.1-.33-.06h0l-.34-.07-.32-.08-.33-.07-.32-.07-.31,0-.32-.07-.3-.06-.33,0-.28-.05-.3-.07-.31-.05-.28,0-.3,0a1.26,1.26,0,0,1-.27,0l-.3,0-.56.17-.59.2-.61.22-.64.21-.68.22-.66.21-.7.24-.72.23-.73.22-.75.25-.77.24-.8.26-.8.25-.81.25-.84.26-.84.28-.87.24-.85.28-.89.27-.91.27-.89.26-.92.27-.93.28-.93.26-.95.3-.95.25-1,.27-1,.27-1,.29-1,.25c-.33.09-.64.19-1,.27s-.66.16-1,.26l-1,.27-1,.25-1,.27h0c-.33.07-.66.15-1,.24l-1,.26c-.34.09-.67.15-1,.23l-1,.25-1,.23c-.33.07-.67.16-1,.25s-.65.14-1,.19h0c-.33.11-.66.17-1,.25s-.65.16-1,.21-.65.15-1,.19-.65.14-1,.24-.64.11-1,.18h0l-1,.18h0l-1,.19c-.3.07-.62.11-.93.17h0c-.31.05-.64.1-.94.18h0l-.92.17h0c-.31,0-.62.08-.94.13h0c-.29.06-.59.09-.89.14s-.62.1-.89.13h0c-.31.05-.61.1-.9.13h0a5.18,5.18,0,0,1-.88.12h0l-.85.11h0l-.85.09h0c-.27,0-.56,0-.83.1h0c-.29,0-.56,0-.84.07l-.8.05v0l-.8.06h0a6.61,6.61,0,0,0-.76,0h-.53l0,0h-.7l-.06,0h-.66l-.05,0h-1c-10.48,0-20.18-3.55-30.46-7.32l-.4-.15-.4-.16-.39-.14-.41-.13-.39-.14h0l-.42-.16-.4-.16-.4-.14-.4-.15-.41-.13-.42-.16-.42-.14-.4-.15-.42-.16-.41-.13-.41-.14-.41-.15-.42-.14-.4-.15-.42-.14-.41-.15-.41-.13h0l-.41-.13-.41-.15h0l-.41-.13-.41-.12-.42-.14h0l-.4-.12h0l-.4-.12-.42-.14h0l-.4-.12h0l-.41-.12h0l-.39-.13h0l-.41-.11-.4-.1h0l-.4-.12-.39-.11-.39-.1h0l-.4-.11h0l-.39-.08a2.85,2.85,0,0,0-.39-.11h0a2.79,2.79,0,0,1-.39-.1l-.38-.09h0l-.38-.08h0l-.38-.09h0c-.13,0-.27-.06-.39-.07h0a1.53,1.53,0,0,0-.37-.08h0a2.32,2.32,0,0,0-.38-.07h0l-.35-.08h0l-.37-.07h0a2.45,2.45,0,0,0-.38,0h0A3.59,3.59,0,0,0,245,545h0l-.36,0h0l-.36-.06h0l-.34,0h0l-.37,0h0a2.46,2.46,0,0,0-.33-.06h0l-.33,0h0a2.06,2.06,0,0,0-.35,0h0a1.19,1.19,0,0,0-.32,0h0a2.06,2.06,0,0,0-.34,0h-.33l-.31,0h-.66l-.31,0h-.33a1.94,1.94,0,0,0-.33,0h0a1.16,1.16,0,0,0-.32,0h0a1.83,1.83,0,0,0-.34,0l-.34,0a2.63,2.63,0,0,0-.34.06l-.37,0-.34,0-.36.06-.36,0c-.11,0-.23,0-.35.08a2.46,2.46,0,0,0-.37,0l-.38.07-.35.08a2.53,2.53,0,0,0-.38.07,1.55,1.55,0,0,0-.36.08c-.13,0-.26,0-.39.07l-.37.09c-.13,0-.26,0-.39.08l-.39.09a2.22,2.22,0,0,1-.39.1l-.39.11-.39.08h0l-.4.11-.38.1-.4.11-.4.12-.4.1-.4.11-.4.13h0l-.41.12h0l-.4.12h0l-.41.14-.4.12-.41.12h0l-.43.14-.38.12-.43.13-.4.15-.42.13h0l-.4.13-.42.15-.41.14-.4.15-.42.14-.42.15-.41.14-.42.13-.4.16-.41.15-.41.14-.41.16-.41.13-.41.15-.39.14-.42.16-.41.16h0l-.4.14-.4.13-.4.14-.4.16-.4.15-.48.17-.48.18-.49.17-.47.18-.48.18-.47.16-.47.18-.49.17-.46.17-.49.16-.48.18-.47.16-.47.18-.48.16-.46.16-.48.18-.47.16-.47.16-.48.16-.45.14-.49.17-.48.15-.46.14-.47.16-.46.12-.47.15-.48.15-.46.15-.49.15-.45.11c-.18.06-.32.08-.47.14l-.49.14a2.7,2.7,0,0,0-.47.12l-.46.12h0a2.08,2.08,0,0,1-.47.1c-.17.05-.31.11-.47.15h0l-.48.09-.46.11c-.17,0-.32.1-.49.13a3.73,3.73,0,0,0-.46.09l-.47.11-.48.08-.48.11-.46.09h0c-.16,0-.33.07-.5.09l-.46.08a4.57,4.57,0,0,0-.48.1l-.47,0c-.16,0-.3.06-.47.07a3.7,3.7,0,0,0-.48.08h0l-.48,0-.48,0a2.67,2.67,0,0,1-.48.08l-.49,0h0l-.48.05h0a3.75,3.75,0,0,1-.5,0h0a3.28,3.28,0,0,1-.46,0h0c-.16,0-.33,0-.5,0l-.48,0h-.5l-.47,0h0a3.77,3.77,0,0,0-.48,0h-2l0,0h-.67l-.19,0h-.56l0,0h-.52a6.69,6.69,0,0,0-.78,0h0l-.79-.06v0l-.8-.05c-.28,0-.56-.06-.82-.07h0c-.29-.05-.56-.06-.85-.1h0c-.27,0-.54,0-.84-.09h0l-.85-.11h0a5.29,5.29,0,0,1-.89-.12h0c-.29,0-.57-.08-.89-.13h0c-.28,0-.59-.07-.88-.13-.61-.08-1.21-.19-1.84-.27h0l-.91-.17h0c-.32-.08-.63-.13-.93-.18h0c-.32-.06-.65-.1-1-.17l-1-.19h0l-1-.18h0c-.33-.07-.64-.13-1-.18s-.62-.16-1-.24-.65-.12-1-.19-.67-.14-1-.21-.65-.14-1-.25h0c-.34-.05-.67-.12-1-.19s-.66-.18-1-.25l-1-.23h0l-1-.25h0c-.32-.08-.65-.14-1-.23h0l-1-.26c-.66-.17-1.33-.33-2-.51l-1-.25h0c-.33-.1-.65-.19-1-.27l-1-.26h0l-1-.27h0l-1-.25h0l-1-.29-1-.27h0l-1-.27h0l-.95-.25-.94-.3h0l-.93-.26h0l-.92-.28-.91-.27h0l-.91-.26h0l-.9-.27h0l-.89-.27h0l-.87-.28h0l-.86-.24h0l-.84-.28h0l-.84-.26h0l-.81-.25h0l-.8-.25h0l-.79-.26h0l-.78-.24h0l-.75-.25h0l-.73-.22h0l-.73-.23h0l-.69-.24h0l-.67-.21h0l-.66-.22h0l-.65-.21h0l-.59-.22h0l-.59-.2h0l-.58-.17h0l-.27,0h0a1.35,1.35,0,0,1-.29,0h0l-.29,0h0l-.29,0h0l-.3.05h0l-.29.07h0l-.31.05h0l-.32,0h0l-.3.06h0l-.31.07h0l-.32,0h0l-.32.07h0l-.33.07h0l-.32.08h0l-.32.07-.35.06h0l-.31.1-.34.07h0l-.34.09h0l-.34.07-.35.1-.33.07-.34.11h0l-.36.08-.36.09h0l-.34.1-.35.1-.36.1-.35.09-.35.11-.37.1-.35.1-.36.1-.36.13-.38.09-.35.1-.37.12h0l-.36.11-.36.11-.36.12-.37.1-.36.13h0l-.35.11-.38.11h0l-.36.1h0l-.35.13-.37.12h0l-.37.1h0l-.37.11-.35.12h0l-.36.12h0l-.36.11h0l-.35.14-.36.1h0l-.35.11h0l-.36.12h0l-.35.13-.35.09h0l-.36.12h0l-.34.13h0l-.33.1h0l-.36.12h0l-.33.11h0l-.34.12h0l-.55.18h0l-.56.17h0l-.55.18h0l-.55.2h0l-.56.18h0l-.56.18h0l-.53.19h0l-.56.17-.54.16-.54.19h0l-.54.19h0l-.55.17-.53.16h0l-.55.17-.54.17h0l-.55.18-.54.15h0l-.54.18h0l-.53.14h0l-.55.16h0l-.53.16h0l-.55.17h0L92,555l-.56.14-.51.16h0l-.54.15h0l-.53.13h0l-.54.15h0l-.54.15-.53.14-.55.12-.51.15h0l-.53.14h0l-.54.11h0l-.52.12c-.19,0-.37.1-.55.13h0l-.54.12L84,557h0l-.55.11-.52.12h0l-.54.09h0c-.34.09-.7.14-1,.2h0l-.53.09-.53.1a4.76,4.76,0,0,0-.52.1h0a3.19,3.19,0,0,0-.54.07h0l-.53.08h0l-.53.08a4.35,4.35,0,0,0-.52.06h0l-.53,0v0l-.53.05h0l-.54.06h0l-.53.05h0l-.53.06-.53,0h0l-.53,0h0l-.53,0h0l-.53,0h0l-.54,0h-.52c-.19,0-.36,0-.53,0H69.1a3.38,3.38,0,0,0-.55,0H68l-.07,0h-.35l0,0h-.17l-.34,0-.17,0h-.07l-.22,0h0c-10.65-.72-20.36-4.42-29.78-8C31,548.31,22.41,545,18.84,545c-2.77,0-8.38,1-15.32,2.59A59.67,59.67,0,0,1,.1,536a104.89,104.89,0,0,1,18.74-2.34c11.27,0,21.67,3.95,31.73,7.76,4.92,1.88,11.26,4.27,15.94,5.29l0,0,.19,0h0l.23.06h0l0,0,.2,0h0l0,0h0l.17.05h.13l.2,0h0l.22,0h0a1.86,1.86,0,0,0,.26,0h0a.85.85,0,0,0,.22,0h0l.2,0h.29l.19,0h0a.47.47,0,0,0,.19,0H70a.47.47,0,0,0,.17,0h0a.86.86,0,0,0,.22,0h.43a.66.66,0,0,0,.25,0h0a1,1,0,0,0,.24,0h.25l.28,0h0a.71.71,0,0,0,.24,0h0a2.4,2.4,0,0,0,.28,0h0a2.23,2.23,0,0,0,.27,0h0L73,547h0l.29-.05h0l.3,0h0l.3,0,.31-.09.32,0h0l.3-.07h0l.34-.07h0l.32-.08h0l.32-.08h0l.34,0,.34-.11h0l.33-.08.36-.07h0l.35-.1h0l.36-.1h0l.35-.09.37-.09.36-.1.36-.09h0l.36-.12.36-.1.38-.11.39-.1.75-.22.37-.12h0l.39-.12.38-.1.39-.13h0l.37-.1h0l.38-.12.39-.12.76-.23.39-.14.38-.12.37-.11.4-.12h0l.37-.12h0l.36-.12.38-.13h0l.39-.11.36-.13.37-.13h0l.38-.12.36-.1.36-.14.36-.12,1-.33h0l.36-.12h0l.33-.13h0l.57-.17h0l.57-.18h0l.56-.21h0l.58-.17h0l.58-.2h0l.57-.17h0l.56-.18h0l.56-.19h0l.57-.18.57-.19h0l.58-.2h0l.57-.17.57-.19h0l.57-.18h0l.58-.17.58-.18h0l.57-.17h0l.57-.16.58-.17h0l.57-.2.58-.16h0l.57-.16.59-.18.57-.16.58-.16.58-.16.57-.16.58-.13.58-.17h0l.59-.15h0l.58-.14a5.45,5.45,0,0,1,.58-.14h0l.57-.15.6-.13h0l.57-.14c.2,0,.4-.09.58-.15a4.52,4.52,0,0,0,.58-.13l.58-.11h0c.19,0,.39-.07.58-.13h0c.2,0,.39-.08.59-.1h0a3.12,3.12,0,0,1,.59-.13h0c.19,0,.38-.08.59-.1h0a5.22,5.22,0,0,1,.57-.11h0l.59-.12h0l.58-.08h0a2.9,2.9,0,0,1,.59-.09h0c.2,0,.39-.08.59-.11h0l.59-.08c.18,0,.39,0,.59-.08s.38-.06.59-.08h0l.58-.07h0a3.8,3.8,0,0,1,.59-.06h0l.57-.08h0l.6,0h0l.59-.06h0l.6,0,.58,0h0a3.81,3.81,0,0,0,.59,0h0l.59,0h0l.59,0h0l.59,0h0l.6,0h1.17c.82,0,1.63,0,2.44,0h0c.61,0,1.2.06,1.81.12h0c.81,0,1.59.12,2.41.17h0c.4.08.81.11,1.21.17h0l.59.06h0l1.19.18h0c.4.06.81.1,1.2.17h0c.39.09.79.13,1.2.21h0l.57.11a3.06,3.06,0,0,1,.6.13h0a9.77,9.77,0,0,1,1.2.23c.2,0,.39.07.59.12l.6.12h0c.19,0,.39.09.58.13h0l.59.15h0l.59.12h0a5.82,5.82,0,0,0,.6.14h0a4.43,4.43,0,0,0,.58.14c.21,0,.38.11.58.17h0a4.39,4.39,0,0,1,.6.15h0l.58.16a4.91,4.91,0,0,1,.58.17,3.75,3.75,0,0,1,.58.13h0l.59.16h0l.59.18h0l.59.16h0l.58.17.58.17.58.18.58.17.57.19h0l.58.18h0l.58.17.58.2.59.17.57.2.57.18.59.19.56.18.58.2.58.2.56.2.56.18.59.19.57.19.57.2.58.19.56.21.56.19.57.19.57.2.26.09.26.08.28.1.26.1.28.09.27.09h0l.3.1.28.1h0l.29.1h0l.29.11h0l.3.09h0l.29.12h0l.32.07.29.12h0l.63.21.3.1.31.1h0l.32.11h0l.32.11.31.1h0l.32.11h0l.32.1.32.1h0l.64.21h0l.31.11.33.08.34.12.3.11.31.09.34.1h0l.3.1.32.1h0l.31.09.31.09.31.09.3.08.31.11h0l.31.07h0l.3.1.29.09.31.07h0l.28.08h0l.29.09.28.06.28.08.28.09h0l.27,0h0l.27.07.25.06h0l.26.06.26.06h0l.24,0h0l.25.07.24.06.22,0,.23.06.22,0,.21,0h0l.2,0h.2l.19,0a.5.5,0,0,1,.18,0,.47.47,0,0,0,.17,0h.35l.19,0h.2a1.8,1.8,0,0,1,.19,0h.21a1,1,0,0,1,.21,0,1.85,1.85,0,0,1,.23,0h0l.22-.05.24,0h0l.23-.06h0l.23-.05.26,0,.24-.07h0l.25-.06.26-.06h0l.27-.07h0l.28-.05.26-.07.27-.09.29-.08h0l.28-.07h0l.29-.09.29-.09h0l.3-.06.29-.1.3-.09.3-.09.3-.1.31-.09.3-.09h0l.31-.11.3-.1.33-.11.3-.09.31-.1h0l.32-.1.32-.12.3-.11.33-.09.3-.12h0l.32-.11h0l.33-.09.29-.12h0l.33-.1h0l.31-.12.31-.1.31-.11h0l.3-.11h0l.32-.1h0l.28-.11h0l.62-.21.6-.22h0l.58-.22h0l.85-.3h0l.26-.09h0l.54-.21c1.42-.52,2.87-1,4.32-1.55h0l.56-.18h0l.55-.2h0c.55-.2,1.11-.39,1.67-.56h0l.57-.2h0l1.69-.58,1.12-.39h0l.58-.17h0l.58-.17h0l.58-.2h0l.57-.19h0l.58-.15h0l.6-.18.57-.18h0l.59-.17.58-.17h0c.21-.06.4-.12.6-.16h0a5,5,0,0,1,.6-.17h0a5.25,5.25,0,0,1,.6-.16h0c.19,0,.4-.11.6-.16h0l.58-.16.61-.16h0l.61-.13h0l.6-.16c.21,0,.41-.1.6-.15h0c.21,0,.41-.08.63-.13h0l.61-.13h0l.6-.14.62-.13h0a4.83,4.83,0,0,0,.62-.12h0c.2,0,.42-.06.62-.11h0l.62-.12h0l.63-.1h0l.62-.12h0l.63-.1h0l.62-.08h0c.22,0,.43,0,.63-.1h0c.22,0,.43,0,.62-.09h0c.44-.06.87-.12,1.29-.15h0c.21,0,.42,0,.64-.06h0c.86-.1,1.71-.18,2.59-.24h0c1.5-.11,3-.17,4.57-.17H241a65.05,65.05,0,0,1,7.15.41h0c1.08.09,2.13.24,3.18.4h0l1.26.18h0c.42.07.83.16,1.25.22h0l1.86.35.61.13h0l.61.14h0c.62.13,1.22.26,1.83.41l.6.16.62.13h0l.6.16.59.16h0c.19.05.4.12.6.16h0a5.87,5.87,0,0,1,.6.16,4,4,0,0,1,.59.17h0c.2,0,.4.1.6.16h0a4.36,4.36,0,0,1,.59.17l.59.17.57.18.59.18.58.15.58.19.58.2.57.17.57.17h0l.59.21h0l.57.18.57.2h0l.55.19h0l.55.19h0l.57.2,1.11.36h0l.55.2.56.2.55.18h0l.53.2h0l.56.2h0l.54.19h0l.54.2h0l1.08.37h0l.54.21h0l.52.18h0l.27.1h0l.28.11h0l.27.09h0l.28.11h0l.29.1h0l.3.09h0l.27.11h0l.3.11h0l.29.1h0l.29.12.32.09h0l.29.12.31.11h0l.3.1.31.11.32.11.3.1.33.12h0l.3.1h0l.3.12a8.64,8.64,0,0,1,.94.32l.33.09.31.11.32.12.31.1h0l.31.1.31.09.33.11.3.1.3.11.31.09.31.09h0l.29.1.32.09h0l.29.09.3.1h0l.29.06h0l.29.09h0l.28.09.29.07.28.08.28.09h0l.26.07h0l.27.05.27.07.27.06h0l.25.06.25.07.25,0h0l.22.05.24.06.23,0h0l.23.05.23,0h0l.21,0h.2a1.46,1.46,0,0,1,.2,0h.18l.2,0h.35a.52.52,0,0,0,.17,0,.52.52,0,0,1,.18,0l.2,0h.19a.46.46,0,0,1,.21,0,1.33,1.33,0,0,0,.21,0l.21,0,.24-.06.22,0,.24-.06.24-.07.25,0,.26-.06.24-.06h0l.28-.06.25-.07h0l.29,0,.26-.09.28-.08.3-.06.27-.09h0l.31-.08h0l.28-.07.3-.09.3-.1h0l.31-.07h0l.3-.11.31-.08.3-.09.31-.09.32-.09h0l.32-.1.31-.1h0l.33-.1.31-.09.32-.11h0l.32-.12h0l.32-.08.31-.11h0l.32-.09h0l.33-.12h0l.3-.1.33-.1h0l.33-.11h0l.31-.1h0l.31-.11h0l.32-.11.31-.1h0l.32-.1.31-.1h0l.3-.11.3-.12.31-.07h0l.3-.12h0l.29-.09h0l.3-.11.29-.1h0l.29-.1.29-.1.27-.09.28-.09.27-.1.27-.1.26-.08.25-.09.57-.2.58-.19.56-.19.57-.21.57-.19.57-.2.56-.19.57-.19.59-.18.58-.2.56-.2.58-.2.56-.18.58-.19.58-.18.58-.2.57-.17.58-.2.58-.17h0l.59-.18h0l.57-.19.58-.17.58-.18.58-.17.59-.17h0l.57-.16h0l.59-.18h0l.59-.16h0a4,4,0,0,1,.6-.13,4.74,4.74,0,0,1,.57-.17l.57-.16h0a4.39,4.39,0,0,1,.6-.15h0l.59-.17a3.63,3.63,0,0,0,.59-.14h0c.19,0,.38-.08.59-.14h0c.19,0,.39-.09.59-.12h0c.2-.06.39-.09.6-.15h0c.18,0,.37-.1.56-.13h0l.59-.12h0c.21-.05.4-.09.61-.12h0a5.61,5.61,0,0,1,.59-.13h0a5.18,5.18,0,0,1,.59-.1h0a3.06,3.06,0,0,1,.6-.13l.59-.11h0a3.88,3.88,0,0,1,.58-.09h0a6,6,0,0,0,.61-.12c.2,0,.4-.07.59-.07h0c.21,0,.39-.08.6-.1h0a5.78,5.78,0,0,1,.6-.08h0c.19,0,.39,0,.6-.1h0l.59-.06h0l.6-.09h0a2.49,2.49,0,0,0,.61-.08h0a3.81,3.81,0,0,0,.59,0h0l.61,0h0l.61-.06h0a5.82,5.82,0,0,1,.6,0h0l.6,0h0a4,4,0,0,1,.6-.05h0l.6,0h0l.62,0h0l.62,0h1.2c1.38,0,2.76,0,4.13.15h0l.59,0h0c.4,0,.79.06,1.18.1h0c.4,0,.79.07,1.19.13h0a4.08,4.08,0,0,1,.58.06h0q.58.06,1.17.15h0c.2,0,.41.06.59.08h0l.59.08h0c.2,0,.39.06.59.11h0c.38,0,.78.12,1.17.17l.58.12h0c.19,0,.39.06.58.11h0a11.71,11.71,0,0,1,1.18.23h0c.38.07.77.14,1.16.23h0l.59.11c.2,0,.39.1.59.13h0l.57.15h0l.58.14.59.13h0c.4.08.79.18,1.16.29.19,0,.39.09.59.14h0l.58.15h0c.19,0,.38.1.58.17l.57.13h0l.58.16.58.16h0l.58.16h0l.57.16.59.18h0l.57.16h0l.59.16h0l.57.2h0l.58.17.58.16h0l.55.17h0l.58.18.57.17h0l.58.18h0l.58.19.56.17.57.2h0l.58.19.57.18h0l.57.19h0l.56.18h0l.58.17h0l.55.2h0l.58.17h0l.56.21h0l.57.18h0l.57.17h0l.34.13h0l.34.12h0l.35.1h0l.35.13h0l.37.1.36.12.35.14.37.1.38.12.36.13.36.13.39.11h0l.38.13.37.12.38.12h0l.39.12.37.11.38.12.38.14.76.23.39.12.39.12h0l.38.1h0l.38.13.38.1h0l.38.12h0l.38.12h0l.76.22.37.1h0l.37.11.37.1h0c.25.08.47.15.74.21l.37.1h0l.35.09h0l.36.09.35.1h0l.34.1.36.07h0c.22.05.45.12.67.19h0l.34,0a3.26,3.26,0,0,0,.67.16h0c.32.07.63.14.94.18h0l.32.09h0l.28,0,.29,0h0l.31.05h0c.39.07.74.12,1.1.16h0l.26,0h.25a1,1,0,0,0,.25,0h0a.58.58,0,0,0,.22,0h.45a.86.86,0,0,0,.22,0l.64,0h0a.53.53,0,0,0,.22,0h0c.21,0,.47,0,.72-.07h0l.76-.1h0l.24-.06h0c4.74-.84,11.71-3.49,17-5.52a151.55,151.55,0,0,1,18.27-6.06,62.28,62.28,0,0,1-4.84,15.23c-9.29,3.52-18.88,7.11-29.36,7.83ZM375.19,609l-.38-.14h0c-.94-.29-1.89-.62-2.85-.92h0c-.72-.24-1.45-.48-2.18-.69h0l-.36-.13h0l-1.81-.54h0l-.37-.11h0l-.35-.12h0l-.36-.11h0l-.39-.1h0l-.35-.1h0l-.35-.09h0l-.36-.11h0l-.36-.11h0l-.34-.1-.35-.09h0l-.36-.1-.35-.09h0l-.35-.11-.36-.09h0l-.33-.08h0l-.34-.1h0l-.35-.08-.34-.08-.35-.09-.33-.07-.32-.09-.33-.06h0l-.34-.09-.32-.06-.33-.08-.32-.07-.31,0L358,604l-.3,0-.33,0-.28-.05-.3-.06-.31,0-.28,0-.3,0-.27,0-.3,0-.56.19-.59.2-.61.19-.64.23-.68.21-.66.22-.7.22-.72.24-.73.24-.75.25-.77.24-.8.24-.8.26-.81.26-.84.25-.84.28-.87.24-.85.27-.89.27-.91.28-.89.26-.92.27-.93.26-.93.3-.95.26-.95.27-1,.27-1,.28-1,.25-1,.28c-.33.09-.64.18-1,.26s-.66.18-1,.29-.66.15-1,.23-.66.19-1,.27l-1,.26h0c-.33.07-.66.16-1,.25s-.67.16-1,.24l-1,.25-1,.24c-.33.08-.66.14-1,.24s-.67.17-1,.23l-1,.22h0c-.33.11-.66.15-1,.23l-1,.22-1,.21-1,.18-1,.21h0c-.33.06-.65.14-1,.18h0c-.32.08-.64.12-1,.2s-.62.12-.93.16h0c-.31.08-.64.14-.94.19h0l-.92.14h0c-.31.07-.62.1-.94.16h0l-.89.15c-.31.05-.62.08-.89.13h0c-.31,0-.61.07-.9.13h0l-.88.11h0l-.85.1h0c-.29.05-.56.08-.85.11h0l-.83.07h0a8.21,8.21,0,0,1-.84.08c-.26,0-.53.05-.8.06h0l-.8.06h0l-.76,0H299l0,0h-1.67l0,0h-1.15c-10.48,0-20.18-3.55-30.46-7.32l-.4-.14-.4-.14-.39-.16-.41-.15-.39-.14h0l-.42-.13-.4-.17-.4-.14-.4-.15-.41-.15-.42-.16-.42-.13-.4-.15-.42-.14-.41-.16-.41-.13-.41-.15-.42-.13-.4-.15-.42-.14-.41-.15-.41-.13h0l-.41-.14-.41-.14h0l-.41-.13-.41-.13-.42-.14h0l-.4-.13h0l-.4-.12-.42-.13h0l-.4-.13h0l-.41-.09h0l-.39-.13h0l-.41-.11-.4-.13h0L251,605l-.39-.12-.39-.1h0l-.4-.12h0l-.39-.09-.39-.1h0a2.74,2.74,0,0,1-.39-.09l-.38-.09h0l-.38-.09h0l-.38-.08h0c-.13,0-.27,0-.39-.09h0l-.37-.07h0c-.12,0-.25,0-.38-.06h0a1.59,1.59,0,0,0-.35-.08h0a2.58,2.58,0,0,0-.37-.06h0a2.5,2.5,0,0,0-.38-.06h0a2,2,0,0,0-.35-.08h0l-.36,0h0a2.2,2.2,0,0,0-.36,0h0l-.34-.06h0l-.37,0h0a1.57,1.57,0,0,0-.33,0h0a1.93,1.93,0,0,0-.33,0h0a1.41,1.41,0,0,1-.35,0h-.32a2.06,2.06,0,0,0-.34,0h0l-.33,0h-1.28l-.33,0a1.94,1.94,0,0,0-.33,0h-.32a1.47,1.47,0,0,1-.34,0,2,2,0,0,0-.34,0,1.67,1.67,0,0,0-.34,0l-.37,0-.34.06a2.47,2.47,0,0,0-.36,0l-.36,0a2.49,2.49,0,0,0-.35.08l-.37.06a2.71,2.71,0,0,0-.38.06,1.73,1.73,0,0,0-.35.08c-.13,0-.25,0-.38.06l-.36.07c-.13,0-.26.06-.39.09l-.37.08a2.74,2.74,0,0,1-.39.09l-.39.09a2.23,2.23,0,0,1-.39.09l-.39.1-.39.09h0l-.4.12-.38.1-.4.12-.4.09-.4.13-.4.11-.4.13h0l-.41.09h0l-.4.13h0l-.41.13-.4.12-.41.13h0l-.43.14-.38.13-.43.13-.4.14-.42.14h0l-.4.13-.42.15-.41.14-.4.15-.42.13-.42.15-.41.13-.42.16-.4.14-.41.15-.41.13-.41.16-.41.15-.41.15-.39.14-.42.17-.41.13h0l-.4.14-.4.15-.4.16-.4.14-.4.14-.48.2-.48.14-.49.19-.47.18-.48.17-.47.16-.47.19-.49.17-.46.17-.49.17-.48.17-.47.16-.47.2-.48.14-.46.16-.48.17-.47.15-.47.17-.48.16-.45.16-.49.15-.48.17-.46.14-.47.13-.46.16-.47.14-.48.15-.46.13-.49.14-.45.13c-.18.06-.32.09-.47.13l-.49.14a4.12,4.12,0,0,0-.47.13c-.15,0-.29.09-.46.12h0c-.16,0-.32.08-.47.12l-.47.11h0l-.48.1a4.61,4.61,0,0,1-.46.13l-.49.12-.46.08-.47.11-.48.11-.48.08a3.78,3.78,0,0,1-.46.1h0l-.5.08c-.14,0-.31.06-.46.07l-.48.09-.47.08-.47.07a3.7,3.7,0,0,0-.48.08h0a3.5,3.5,0,0,0-.48.06l-.48.05L191,617c-.16,0-.33,0-.49.06h0l-.48,0h0c-.15,0-.32,0-.5,0h0l-.46.06h0l-.5,0a3.58,3.58,0,0,1-.48,0h-1l-.48,0h-2.07l-.09,0H182.8l-.07,0h-.12l-.78,0h0l-.79-.06h0c-.28,0-.53,0-.8-.06a7.12,7.12,0,0,1-.82-.08h0l-.85-.07h0c-.27,0-.54-.06-.84-.11h0l-.85-.1h0l-.89-.11h0c-.29-.06-.57-.09-.89-.13h0l-.88-.13-1.84-.31h0l-.91-.14h0a9,9,0,0,1-.93-.19h0c-.32,0-.65-.11-1-.16s-.64-.12-1-.2h0c-.32,0-.63-.12-1-.18h0l-1-.21c-.33,0-.62-.12-1-.18l-1-.21-1-.22c-.32-.08-.65-.12-1-.23h0l-1-.22c-.33-.06-.66-.16-1-.23s-.66-.16-1-.24h0l-1-.24h0l-1-.25h0c-.34-.08-.66-.14-1-.24-.66-.18-1.33-.34-2-.51-.32-.08-.66-.17-1-.27h0c-.33-.08-.65-.18-1-.23l-1-.29h0l-1-.26h0l-1-.28h0l-1-.25-1-.28h0l-1-.27h0l-.95-.27-.94-.26h0l-.93-.3h0l-.92-.26-.91-.27h0l-.91-.26h0l-.9-.28h0l-.89-.27h0l-.87-.27h0l-.86-.24h0l-.84-.28h0l-.84-.25h0l-.81-.26h0l-.8-.26h0l-.79-.24h0l-.78-.24h0l-.75-.25h0l-.73-.24h0l-.73-.24h0l-.69-.22h0l-.67-.22h0l-.66-.21h0l-.65-.23h0l-.59-.19h0l-.59-.2h0l-.58-.19h0l-.27,0h0l-.29,0h0l-.29,0h0l-.29,0h0l-.3,0h0l-.29.06h0l-.31.05h0l-.32,0h0l-.3,0h0l-.31.08h0l-.32,0h0l-.32.07h0l-.33.08h0l-.32.06h0l-.32.09-.35.06h0l-.31.09-.34.07h0l-.34.09h0l-.34.08-.35.08-.33.1-.34.08h0l-.36.09-.36.11h0l-.34.09-.35.1-.36.09-.35.1-.35.11-.37.11L116,606l-.36.1-.36.1-.38.11-.35.12-.37.11h0l-.36.1-.36.12-.36.12-.37.11-.36.09h0l-.35.13-.38.12h0l-.36.09h0l-.35.14-.37.1h0l-.37.12h0l-.37.12-.35.13h0l-.36.1h0l-.36.12h0l-.35.11-.36.12h0l-.35.11h0l-.36.11h0l-.35.12-.35.11h0l-.36.13h0l-.34.11h0l-.33.1h0l-.36.13h0l-.33.11h0l-.34.1h0l-.55.18h0l-.56.2h0l-.55.19h0l-.55.17h0l-.56.2h0l-.56.17h0l-.53.17h0l-.56.18-.54.17-.54.17h0l-.54.18h0l-.55.18-.53.16h0l-.55.19-.54.15h0l-.55.18-.54.16h0l-.54.16h0l-.53.17h0l-.55.16h0l-.53.17h0l-.55.15h0l-.53.17-.56.13-.51.16h0l-.54.15h0l-.53.15h0l-.54.15h0l-.54.13-.53.14-.17,0c-7.55-2.85-14.73-5.94-21.48-9.26l.12,0h0l.23,0,0,0h0l.2,0h0l0,0h0l.17,0h.07l.06,0,.2,0h0l.22,0h0a1,1,0,0,0,.26,0h0v0l.22,0h0l.2,0h.05c.06,0,.13,0,.2,0h.23l0,0h.22a.49.49,0,0,0,.2,0h.87a.51.51,0,0,0,.22,0h.25l.24,0h0a.69.69,0,0,0,.25,0h0l.28,0h0l.24,0h0l.28-.05h0a2.23,2.23,0,0,0,.27,0h0l.29,0h0l.29,0h0l.3,0h0l.3-.07.31-.05.32-.07h0l.3-.07h0l.34-.07h0l.32-.08h0l.32-.06h0l.34-.07.34-.11h0l.33-.08.36-.08h0l.35-.08h0l.36-.1h0l.35-.09.37-.09.36-.11.36-.09h0l.36-.12.36-.09.38-.12.39-.11.75-.2.37-.1h0l.39-.14.38-.11.39-.11h0l.37-.13h0l.38-.09.39-.14.76-.22.39-.13.38-.13.37-.13.4-.1h0l.37-.14h0l.36-.12.38-.12h0l.39-.12.36-.11.37-.13h0l.38-.12.36-.12.36-.11.36-.12,1-.35h0l.36-.11h0l.33-.11h0l.57-.18h0l.57-.19h0l.56-.19h0l.58-.19h0l.58-.19h0l.57-.18h0l.56-.17h0l.56-.21h0l.57-.18.57-.17h0l.58-.18h0l.57-.21.57-.17h0l.57-.18h0l.58-.19.58-.15h0l.57-.18h0l.57-.18.58-.18h0l.57-.16.58-.19h0l.57-.16.59-.18.57-.16.58-.15.58-.16.57-.16.58-.15.58-.14h0l.59-.16h0l.58-.15c.19-.06.38-.09.58-.14h0l.57-.16c.19,0,.39-.07.6-.13h0l.57-.13.58-.13.58-.13c.2,0,.38-.1.58-.13h0l.58-.13h0l.59-.1h0l.59-.13h0l.59-.11h0l.57-.11h0l.59-.09h0l.58-.1h0l.59-.1h0l.59-.08h0a5.58,5.58,0,0,1,.59-.1l.59-.09.59-.06h0l.58-.07h0l.59-.08h0l.57,0h0l.6-.09h0c.21,0,.4,0,.59-.05h0l.6,0,.58-.06h0a2.88,2.88,0,0,0,.59,0h0l.59,0h0l.59,0h.59l.6,0h1.17c.82,0,1.63,0,2.44,0h0c.61,0,1.2.09,1.81.11h0c.81,0,1.59.12,2.41.22h0c.4,0,.81.09,1.21.13h0l.59.07h0a11.36,11.36,0,0,1,1.19.18h0c.4,0,.81.11,1.2.18h0c.39.07.79.14,1.2.19h0c.2,0,.38.09.57.13l.6.11h0c.4.07.81.14,1.2.23a4.12,4.12,0,0,1,.59.12l.6.13h0l.58.12h0l.59.15h0c.19,0,.4.09.59.13h0c.2,0,.39.11.6.15h0l.58.14.58.15h0l.6.15h0l.58.15.58.17.58.15h0l.59.17h0l.59.16h0l.59.16h0l.58.19.58.16.58.17.58.19.57.18h0l.58.18h0l.58.18.58.18.59.17.57.21.57.17.59.19.56.2.58.17.58.2.56.21.56.17.59.21.57.19.57.2.58.2.56.2.56.19.57.2.57.18.26.08.26.1.28.11.26.08.28.09.27.1h0l.3.1.28.09h0l.29.13h0l.29.06v0l.3.1h0l.29.11h0l.32.09.29.11h0l.63.21.3.11.31.1h0l.32.1h0l.32.09.31.11h0l.32.12h0l.32.11.32.1h0l.64.19h0l.31.12.33.11.34.09.3.1.31.09.34.1h0l.3.1.32.1h0l.31.09.31.09.31.12.3.07.31.11h0l.31.06h0l.3.09.29.08.31.11h0l.28.05h0l.29.08.28.09.28.07.28.08h0l.27,0h0l.27.09.25.07h0l.26,0,.26.06h0l.24,0h0l.25,0,.24.07.22,0,.23.05.22,0,.21,0h0l.2,0,.2,0,.19,0c.07,0,.13,0,.18,0H185a.4.4,0,0,1,.18,0h.36c.07,0,.14,0,.2,0l.19,0c.08,0,.14,0,.21,0l.21,0a1.89,1.89,0,0,1,.23,0h0l.22,0,.24-.06h0l.23,0h0l.23-.05.26,0,.24-.06h0l.25,0,.26-.08h0l.27-.06h0l.28-.06.26-.08.27-.05.29-.1h0l.28-.07h0l.29-.09.29-.08h0l.3-.09.29-.08.3-.09.3-.09.3-.1.31-.1.3-.1h0l.31-.1.3-.09.33-.11.3-.09.31-.11h0l.32-.1.32-.11.3-.1.33-.12.3-.11h0l.32-.09h0l.33-.12.29-.11h0l.33-.11h0l.31-.1.31-.11.31-.1h0l.3-.11h0l.32-.12h0l.28-.09h0l.62-.23.6-.22h0l.58-.21h0l.85-.29h0l.26-.1h0l.54-.19c1.42-.51,2.87-1,4.32-1.55h0l.56-.2h0l.55-.19h0c.55-.2,1.11-.4,1.67-.58h0l.57-.2h0l1.69-.58L213,597h0l.58-.18h0l.58-.17h0l.58-.18h0l.57-.19h0l.58-.16h0l.6-.2.57-.18h0l.59-.15.58-.18h0c.21-.07.4-.11.6-.17h0l.6-.15h0l.6-.17h0a5.87,5.87,0,0,1,.6-.16h0c.19-.06.39-.11.58-.15a6.06,6.06,0,0,0,.61-.16h0c.21,0,.4-.1.61-.15h0c.2,0,.4-.1.6-.13l.6-.15h0a3.36,3.36,0,0,1,.63-.13h0c.19-.06.4-.11.61-.16h0a4.25,4.25,0,0,0,.6-.12c.21,0,.41-.09.62-.12h0c.2,0,.41-.1.62-.13h0c.2,0,.42-.08.62-.09h0a3.46,3.46,0,0,1,.62-.14h0l.63-.11h0c.21,0,.41-.08.62-.1h0a4.58,4.58,0,0,1,.63-.1h0c.19,0,.42-.06.62-.11h0l.63-.08h0c.22,0,.43,0,.62-.09h0l1.29-.15h0l.64-.08h0c.86-.07,1.71-.16,2.59-.21h0c1.5-.12,3-.18,4.57-.18H241c2.42,0,4.79.16,7.15.39h0c1.08.12,2.13.27,3.18.4h0c.43.07.84.12,1.26.21h0l1.25.21h0c.61.1,1.24.23,1.86.36.21,0,.4.09.61.12h0a4.38,4.38,0,0,0,.61.12h0c.62.16,1.22.29,1.83.44.21,0,.41.09.6.13s.41.11.62.15h0c.2.06.4.12.6.16a5.66,5.66,0,0,1,.59.15h0c.19,0,.4.1.6.16h0l.6.17.59.15h0c.2.06.4.1.6.17h0l.59.18.59.15.57.18.59.2.58.16a3.58,3.58,0,0,1,.58.19l.58.18.57.17.57.18h0l.59.2h0l.57.17.57.2h0l.55.19h0l.55.19h0l.57.2c.38.13.74.24,1.11.38h0l.55.2.56.19.55.2h0l.53.18v0l.56.17h0l.54.21h0l.54.19h0l1.08.38h0l.54.19h0l.52.21h0l.27.08h0l.28.11h0l.27.1h0l.28.1h0l.29.11h0l.3.08h0l.27.12h0l.3.09h0l.29.12h0l.29.1.32.11h0l.29.12.31.09h0l.3.12.31.11.32.1.3.11.33.1h0l.3.11h0l.3.11.94.32.33.12.31.1.32.11.31.1h0l.31.11.31.09.33.11.3.09.3.1.31.1.31.1h0l.29.1.32.09h0l.29.09.3.08h0l.29.09h0l.29.08h0l.28.09.29.07.28.1.28.05h0l.26.08h0l.27.06.27.06.27.08h0l.25,0,.25.06.25,0h0l.22.05.24,0,.23.06h0l.23,0,.23,0h0l.21,0c.06,0,.13,0,.2,0l.2,0,.18,0h.37a.34.34,0,0,1,.18,0h.17c.06,0,.11,0,.18,0l.2,0,.19,0a1.18,1.18,0,0,1,.21,0,.86.86,0,0,1,.21,0l.21,0,.24-.05.22,0,.24-.07.24,0,.25,0,.26-.06.24,0h0l.28-.07.25-.09h0l.29,0,.26-.08.28-.07.3-.09.27-.08h0l.31-.05h0l.28-.11.3-.08.3-.09h0l.31-.06h0l.3-.11.31-.07.3-.12.31-.09.32-.09h0l.32-.1.31-.1h0l.33-.1.31-.09.32-.1h0l.32-.09h0l.32-.11.31-.12h0l.32-.11h0L308,603h0l.3-.1.33-.11h0l.33-.12h0l.31-.11h0l.31-.09h0l.32-.1.31-.1h0l.32-.11.31-.12h0l.3-.09.3-.11.31-.09h0l.3-.11h0l.29-.1v0l.3-.06.29-.13h0l.29-.09.29-.1.27-.1.28-.09.27-.08.27-.11.26-.1.25-.08.57-.18.58-.2.56-.19.57-.2.57-.2.57-.2.56-.19.57-.21.59-.17.58-.21.56-.2.58-.17.56-.2.58-.19.58-.17.58-.21.57-.17.58-.18L326,597h0l.59-.18h0l.57-.18.58-.19.58-.17.58-.16.59-.19h0l.57-.16h0l.59-.16h0l.59-.17h0l.6-.15.57-.17.57-.15h0l.6-.15h0l.59-.15.59-.14h0l.59-.15h0c.19,0,.39-.1.59-.13h0l.6-.15h0l.56-.12h0l.59-.13h0a4.38,4.38,0,0,1,.61-.12h0l.59-.13h0l.59-.1h0l.6-.11c.19,0,.38-.1.59-.13h0c.19,0,.39-.05.58-.09h0l.61-.1c.2,0,.4-.07.59-.1h0c.21,0,.39-.07.6-.08h0c.2-.05.39-.05.6-.1h0a5.44,5.44,0,0,1,.6-.08h0l.59-.07h0a5.78,5.78,0,0,0,.6-.08h0l.61,0h0c.21,0,.39-.05.59-.07h0c.21,0,.4,0,.61-.06h0l.61-.05h0c.19,0,.39,0,.6,0h0c.2,0,.41,0,.6,0h0a3.05,3.05,0,0,1,.6-.06h0l.6,0h.62l.62,0h1.2c1.38,0,2.76,0,4.13.11h0l.59.06h0c.4,0,.79.05,1.18.08h0c.4.06.79.1,1.19.13h0l.58.08h0l1.17.13h0l.59.09h0a5.58,5.58,0,0,1,.59.1h0l.59.08h0l1.17.2.58.09h0l.58.11h0c.4.08.79.15,1.18.24h0l1.16.23h0c.21,0,.4.09.59.13l.59.13h0l.57.13h0l.58.13c.2.06.39.09.59.13h0c.4.11.79.19,1.16.3a4.65,4.65,0,0,1,.59.15h0l.58.16h0a4.43,4.43,0,0,1,.58.14l.57.15h0l.58.16.58.16h0l.58.15h0l.57.16.59.18h0l.57.16h0l.59.19h0l.57.16h0l.58.18.58.18h0l.55.18h0l.58.15.57.19h0l.58.18h0l.58.17.56.21.57.18h0l.58.17.57.18h0l.57.21h0l.56.17h0l.58.18h0l.55.19h0l.58.19h0l.56.19h0l.57.19h0l.57.18h0l.34.11h0l.34.11h0l.35.12h0l.35.1h0l.37.13.14,0q-7.83,4.31-16.54,8.17Zm36.9-21.06a125.47,125.47,0,0,0,19-17.08c-5.33,2-12.2,4.63-16.9,5.47h0l-.24,0h0l-.76.12h0l-.72.07h-.24c-.22,0-.45,0-.64,0h-.22l-.45,0h-.22l-.25,0h0a1.14,1.14,0,0,0-.25,0h0a1.22,1.22,0,0,0-.26,0h0l-1.1-.16h0l-.31-.06h0l-.29-.06-.28,0h0l-.32,0h0c-.31-.09-.62-.13-.94-.21h0l-.67-.17-.34-.08h0a5.37,5.37,0,0,1-.67-.15h0l-.36-.08-.34-.1h0l-.35-.08-.36-.1h0l-.35-.1h0l-.37-.09c-.27-.06-.49-.15-.74-.2h0l-.37-.11-.37-.1h0l-.37-.11-.76-.22h0l-.38-.13h0l-.38-.1h0l-.38-.11-.38-.12h0l-.38-.12h0l-.39-.11-.39-.13-.76-.24-.38-.12-.38-.1-.37-.14-.39-.12h0l-.38-.12-.37-.11-.38-.13h0l-.39-.13-.36-.12-.36-.11-.38-.12-.37-.13-.35-.11-.36-.11-.37-.14h0l-.35-.11h0l-.35-.1h0l-.34-.14h0l-.34-.09h0l-.57-.2h0l-.57-.18h0l-.56-.17h0l-.58-.21h0l-.55-.18h0l-.58-.19h0l-.56-.18h0l-.57-.19h0l-.57-.18-.58-.2h0l-.57-.18-.56-.17-.58-.18h0l-.58-.17h0l-.57-.19-.58-.19h0l-.55-.17h0l-.58-.18-.58-.16h0l-.57-.18h0l-.59-.16h0l-.57-.18h0l-.59-.15-.57-.17h0l-.58-.16h0l-.58-.15-.58-.16h0a4.56,4.56,0,0,0-.57-.17,5.5,5.5,0,0,1-.58-.16h0c-.2,0-.39-.1-.58-.13h0l-.59-.17-1.16-.27h0a4.16,4.16,0,0,0-.59-.13l-.58-.16h0c-.2,0-.38-.09-.57-.12h0c-.2,0-.39-.09-.59-.12l-.59-.13h0c-.39-.09-.78-.18-1.16-.25h0c-.39-.06-.78-.15-1.18-.22h0l-.58-.11h0a5.4,5.4,0,0,1-.58-.1c-.39-.08-.79-.13-1.17-.19h0c-.2,0-.39-.06-.59-.1h0c-.2,0-.38-.05-.59-.07h0a3.64,3.64,0,0,0-.59-.09h0l-1.17-.18h0a3.6,3.6,0,0,1-.58,0h0l-1.19-.13h0c-.39,0-.78,0-1.18-.1h0l-.59,0h0c-1.37-.08-2.75-.14-4.13-.14h-1.2a4.29,4.29,0,0,0-.62,0h0c-.22,0-.41,0-.62,0h0l-.6,0h0c-.2,0-.4,0-.6,0h0l-.6,0h0l-.6.07h0c-.2,0-.42,0-.61.06h0a3.14,3.14,0,0,0-.61.05h0c-.2,0-.38,0-.59,0h0l-.61.07h0a3.13,3.13,0,0,0-.6.06h0a5.59,5.59,0,0,0-.59.08h0l-.6.06h0c-.21,0-.4.08-.6.1h0c-.21,0-.39.07-.6.09h0a3.82,3.82,0,0,1-.59.09l-.61.1h0l-.58.11h0l-.59.11-.6.11h0c-.21,0-.4.07-.59.12h0c-.2,0-.4.06-.59.11h0l-.61.13h0c-.18,0-.38.09-.59.13h0c-.19,0-.38.08-.56.14h0c-.21,0-.4.09-.6.12h0c-.2,0-.4.09-.59.15h0c-.21.05-.4.08-.59.14h0l-.59.14a4.2,4.2,0,0,1-.59.14h0a4.44,4.44,0,0,1-.6.16h0l-.57.15-.57.17a4.11,4.11,0,0,0-.6.17h0l-.59.16h0l-.59.15h0l-.57.19h0l-.59.15-.58.18-.58.16-.58.19-.57.17h0l-.59.18h0l-.58.18-.58.19-.57.18-.58.19-.58.19-.58.19-.56.18-.58.21-.56.19-.58.17-.59.2-.57.2-.56.2-.57.18-.57.2-.57.2-.56.2-.58.19-.57.21-.25.08-.26.1-.27.08-.27.09-.28.09-.27.12-.29.07-.29.12h0l-.29.07-.3.12h0l-.29.11h0l-.3.09h0l-.31.11-.3.1-.3.11h0l-.31.09-.32.1h0l-.31.12-.32.1h0l-.31.11h0l-.31.09h0l-.33.11h0l-.33.1-.3.11h0l-.33.12h0l-.32.1h0L307,574l-.32.08h0l-.32.11h0l-.32.09-.31.11-.33.09h0l-.31.1-.32.1h0l-.32.09-.31.11-.3.08-.31.12-.3,0h0l-.31.11h0l-.3.08-.3.08-.28.08h0l-.31.09h0l-.27.06-.3.08-.28.08-.26.07-.29.08h0l-.25.06-.28.06h0l-.24.06-.26.06-.25.06-.24.06-.24,0-.22,0-.24,0-.21,0-.21,0a1,1,0,0,1-.21,0,1.25,1.25,0,0,0-.19,0l-.2,0h-.7a.42.42,0,0,0-.2,0,1,1,0,0,0-.18,0l-.2,0-.2,0a.66.66,0,0,1-.21,0h0l-.23,0-.23,0h0l-.23-.05-.24,0-.22-.07h0l-.25-.06-.25,0-.25-.07h0l-.27-.07-.27-.06-.27-.08h0l-.26-.07h0l-.28-.07-.28-.07-.29-.09-.28-.08h0l-.29-.08h0l-.29-.1h0l-.3-.08-.29-.09h0l-.32-.09-.29-.09h0l-.31-.09-.31-.11-.3-.1-.3-.09-.33-.1-.31-.1-.31-.11h0l-.31-.11-.32-.09-.31-.1-.33-.11c-.3-.11-.61-.22-.94-.32l-.3-.11h0l-.3-.11h0l-.33-.11-.3-.11-.32-.11-.31-.12-.3-.09h0l-.31-.13-.29-.1h0l-.32-.09-.29-.11h0l-.29-.1h0l-.3-.12h0l-.27-.11h0l-.3-.1h0l-.29-.09h0l-.28-.11h0l-.27-.11h0l-.28-.09h0l-.27-.11h0l-.52-.17h0l-.54-.2h0l-1.08-.4h0l-.54-.19h0l-.54-.18h0l-.56-.2h0l-.53-.19h0l-.55-.2-.56-.2-.55-.18h0c-.37-.14-.73-.27-1.11-.39l-.57-.21h0l-.55-.17h0l-.55-.19h0l-.57-.19-.57-.2h0l-.59-.18h0l-.57-.19-.57-.19-.58-.17c-.18-.06-.38-.13-.58-.18l-.58-.18-.59-.17-.57-.18-.59-.18a4.25,4.25,0,0,1-.59-.15h0c-.2,0-.4-.13-.6-.19h0l-.59-.16a4.78,4.78,0,0,1-.6-.15h0l-.6-.17h0c-.19,0-.39-.08-.59-.14s-.4-.11-.6-.16h0c-.21,0-.4-.09-.62-.14s-.39-.1-.6-.15c-.61-.13-1.21-.29-1.83-.4h0a4.47,4.47,0,0,0-.61-.14h0l-.61-.14c-.62-.11-1.25-.24-1.86-.34h0c-.42-.09-.83-.16-1.25-.22h0l-1.26-.2h0c-1-.16-2.1-.29-3.18-.39h0a62.69,62.69,0,0,0-7.15-.38h-.19c-1.54,0-3.07,0-4.57.15h0c-.88.06-1.73.12-2.59.23h0c-.22,0-.43.05-.64.06h0q-.63.09-1.29.15h0c-.19,0-.4.06-.62.1h0l-.63.08h0a4.23,4.23,0,0,0-.62.11h0c-.22,0-.41.06-.63.09h0c-.21.06-.41.06-.62.1h0l-.63.12h0c-.21,0-.41.08-.62.1h0l-.62.13h0l-.62.11h0l-.62.14a4.34,4.34,0,0,0-.6.14h0c-.21,0-.42.1-.61.11h0l-.63.16h0c-.19,0-.39.07-.6.13l-.6.15h0c-.21.05-.4.11-.61.14h0c-.2.05-.4.09-.61.16s-.39.1-.58.14h0l-.6.17h0a5.26,5.26,0,0,1-.6.15h0l-.6.16h0a6,6,0,0,1-.6.19h0l-.58.15-.59.18h0l-.57.18-.6.17h0l-.58.18h0l-.57.18h0l-.58.17h0l-.58.19h0l-.58.19h0l-1.12.38c-.58.19-1.13.38-1.69.55h0l-.57.21h0l-1.67.57h0l-.55.2h0l-.56.2h0c-1.45.52-2.9,1-4.32,1.53l-.54.2h0l-.26.11h0l-.85.3h0l-.58.23h0l-.6.21-.62.19h0l-.28.13h0l-.32.09h0l-.3.12h0l-.31.11-.31.11-.31.11h0l-.33.11h0l-.29.11-.33.1h0l-.32.11h0l-.3.11-.33.11-.3.1-.32.09-.32.11h0l-.31.11-.3.1-.33.1-.3.09-.31.1h0l-.3.11-.31.09-.3.09-.3.09-.3.09-.29.08-.3.1h0l-.29.08-.29.08h0l-.28.09h0l-.29.07-.27.07-.26.07-.28.08h0l-.27.06h0l-.26.07-.25.07h0l-.24,0-.26.06-.23.07h0l-.23,0h0l-.24.05-.22,0h0a.93.93,0,0,1-.23,0,.66.66,0,0,1-.21,0l-.21,0-.19,0-.2,0h0a.44.44,0,0,0-.19,0h-.7s-.12,0-.19,0l-.2,0-.2,0h0l-.21,0-.22,0-.23,0-.22,0-.24,0-.25-.06h0l-.24-.06h0l-.26-.06-.26-.06h0l-.25-.06-.27-.06h0l-.27-.08h0l-.28-.07-.28-.08-.28-.08-.29-.06h0l-.28-.09h0l-.31-.08-.29-.08-.3-.08h0l-.31-.11h0l-.31,0-.3-.12-.31-.08-.31-.11-.31-.09h0l-.32-.1-.3-.1h0l-.34-.09-.31-.11-.3-.09-.34-.11-.33-.08-.31-.11h0l-.64-.22h0l-.32-.11-.32-.1h0l-.32-.11h0l-.31-.09-.32-.11h0l-.32-.1h0l-.31-.12-.3-.1-.63-.2h0l-.29-.1-.32-.11h0l-.29-.09h0l-.3-.11h0l-.29-.12h0l-.29-.07h0l-.28-.12-.3-.07h0l-.27-.12-.28-.09-.26-.09-.28-.08-.26-.1-.26-.08-.57-.21-.57-.19-.56-.2-.56-.2-.58-.2-.57-.18-.57-.2-.59-.2-.56-.2-.56-.17-.58-.19-.58-.21-.56-.18-.59-.19-.57-.19-.57-.19L157,568l-.58-.19-.58-.18h0l-.58-.18h0l-.57-.17-.58-.19-.58-.16-.58-.18-.58-.15h0l-.59-.19h0l-.59-.15h0l-.59-.16h0a3.86,3.86,0,0,0-.58-.17l-.58-.17-.58-.15h0a4.44,4.44,0,0,1-.6-.16h0a4.43,4.43,0,0,1-.58-.14l-.58-.14h0c-.21-.06-.4-.09-.6-.14h0c-.19-.06-.4-.1-.59-.15h0c-.2,0-.39-.09-.59-.12h0c-.19-.06-.39-.09-.58-.14h0l-.6-.13-.59-.13-1.2-.23h0l-.6-.11-.57-.11h0l-1.2-.21h0l-1.2-.18h0l-1.19-.16h0c-.19,0-.4-.06-.59-.08h0l-1.21-.13h0c-.82-.1-1.6-.16-2.41-.23h0c-.61,0-1.2-.06-1.81-.08h0c-.81-.05-1.62-.06-2.44-.06h-1.17a4,4,0,0,0-.6,0h0a5.62,5.62,0,0,0-.59,0h0l-.59,0h0a5.82,5.82,0,0,1-.59,0h0l-.59,0h0l-.58,0-.6.06h0a5.47,5.47,0,0,1-.59,0h0a3.93,3.93,0,0,1-.6.06h0l-.57.07h0a4,4,0,0,1-.59,0h0a4.09,4.09,0,0,1-.58.09h0l-.59.09a3.64,3.64,0,0,0-.59.09c-.21,0-.39.06-.59.07h0c-.2,0-.39,0-.59.1h0c-.2,0-.4.06-.59.07h0l-.58.12h0a5.58,5.58,0,0,1-.59.1h0l-.57.11h0c-.21,0-.4.07-.59.12h0l-.59.1h0a4.12,4.12,0,0,0-.59.12h0l-.58.13h0l-.58.13-.58.12c-.18,0-.38.09-.58.12l-.57.16h0a3.75,3.75,0,0,0-.6.13l-.57.13h0c-.2.06-.39.1-.58.14l-.58.17h0l-.59.13h0l-.58.16-.58.17-.57.16-.58.15-.58.16-.57.17-.59.15-.57.18h0l-.58.16-.57.18h0l-.58.16-.57.18h0l-.57.17h0l-.58.19-.58.19h0l-.57.17h0l-.57.18-.57.17h0l-.58.18h0l-.57.2-.57.18h0l-.56.19h0l-.56.18h0l-.57.19h0l-.58.18h0l-.58.21h0l-.56.17h0l-.57.18h0l-.57.2h0l-.33.09h0l-.36.14h0l-1,.35-.36.11-.36.11-.36.13-.38.12h0l-.37.11-.36.12-.39.13h0l-.38.13-.36.11h0l-.37.12h0l-.4.12-.37.14-.38.1-.39.12-.76.24-.39.13-.38.11h0l-.37.12h0l-.39.12-.38.11-.39.1h0l-.37.13-.75.22-.39.11-.38.1-.36.11-.36.09h0l-.36.11-.36.09-.37.1-.35.1h0l-.36.08h0l-.35.1h0l-.36.08-.33.11h0l-.34,0-.34.08h0l-.32.09h0l-.32.08h0l-.34.08h0l-.3,0h0l-.32.09-.31,0-.3,0h0l-.3.06h0l-.29.06h0l-.29,0h0a1.36,1.36,0,0,0-.27,0h0l-.28,0h0l-.24,0h0a1.27,1.27,0,0,0-.28,0h0a1.1,1.1,0,0,0-.25,0h0l-.24,0h-.25a.9.9,0,0,0-.22,0h-.84l0,0h-.46l-.19,0h0l-.2,0h-.27l0,0-.22,0h0a1.38,1.38,0,0,0-.26,0h0l0,0-.22,0h0l-.2,0H67.6l-.07,0-.17,0h0l0,0-.2,0H67l-.23,0h0v0l-.19,0,0,0c-4.68-1-11-3.43-15.94-5.29C40.51,567,30.11,563,18.84,563a62.65,62.65,0,0,0-6.47.39,100.91,100.91,0,0,0,9.79,11.44,142.82,142.82,0,0,1,14.57,4.92c9.42,3.59,19.13,7.27,29.78,8H67a1.31,1.31,0,0,0,.34,0h.22l.35,0h.67a5.06,5.06,0,0,0,.55,0h0c.37,0,.76,0,1.13,0h.53a3.14,3.14,0,0,0,.53,0h.53a4.61,4.61,0,0,1,.52,0h0l.54,0h.53a4.73,4.73,0,0,1,.53,0h0c.17,0,.35,0,.53,0h0a5.24,5.24,0,0,0,.53-.05c.17,0,.35,0,.53,0h0l.53,0h0l.54-.07h0a4.29,4.29,0,0,1,.53-.06h0a3.51,3.51,0,0,0,.53-.07h0l.52,0a4.89,4.89,0,0,1,.53-.09h0l.53-.07h0l.54-.08h0a4.71,4.71,0,0,1,.52-.09,4.89,4.89,0,0,1,.53-.09l.53-.1h0l1-.19h0c.19,0,.37-.09.54-.11h0a4,4,0,0,0,.52-.12l.55-.1h0l.51-.11.54-.13h0l.55-.11a4.37,4.37,0,0,1,.52-.12h0a4.77,4.77,0,0,0,.54-.15h0l.53-.12h0l.51-.11.55-.15.53-.16.54-.13h0l.54-.13h0l.53-.16h0l.54-.15h0l.51-.15.56-.15.53-.16h0l.55-.15h0l.53-.16h0l.55-.16h0l.53-.17h0l.54-.17h0l.54-.16.55-.18h0l.54-.16.55-.17h0l.53-.18.55-.16h0l.54-.18h0l.54-.18.54-.17.56-.19h0l.53-.18h0l.56-.17h0l.56-.18h0l.55-.18h0l.55-.18h0l.56-.18h0l.55-.19h0l.34-.11h0l.33-.11h0l.36-.11h0l.33-.12h0l.34-.13h0l.36-.09h0l.35-.12.35-.12h0l.36-.12h0l.35-.1h0l.36-.14.35-.1h0l.36-.13h0l.36-.11h0l.35-.09.37-.13h0l.37-.13h0l.37-.12.35-.1h0l.36-.13h0l.38-.1.35-.12h0l.36-.11.37-.11.36-.11.36-.12.36-.11h0l.37-.08.35-.11.38-.11.36-.12.36-.11.35-.1.37-.11.35-.09.35-.1.36-.1.35-.1.34-.1h0l.36-.08.36-.1h0l.34-.08.33-.11.35-.06.34-.11h0l.34-.06h0l.34-.1.31-.06h0l.35-.11.32,0h0l.32-.07h0l.33-.08h0l.32,0h0l.32-.08h0l.31,0h0l.3-.07h0l.32-.06h0l.31,0h0l.29-.06h0l.3,0h0l.29-.05h0l.29,0h0l.29,0h0a1.17,1.17,0,0,0,.27,0h0l.58.21h0l.59.18h0l.59.21h0l.65.21h0l.66.21h0l.67.25h0l.69.2h0l.73.23h0l.73.26h0l.75.23h0l.78.25h0l.79.25h0l.8.24h0l.81.26h0l.84.25h0l.84.27h0l.86.29h0l.87.25h0l.89.27h0l.9.27h0l.91.28h0l.91.26.92.26h0l.93.28h0l.94.27.95.27h0l1,.27h0l1,.29,1,.25h0c.32.08.63.21,1,.26h0l1,.28h0l1,.25c.33.1.65.19,1,.27h0l1,.27c.66.15,1.33.33,2,.5.33.08.65.15,1,.25h0l1,.25h0l1,.23h0c.32.09.64.16,1,.23l1,.24,1,.23h0l1,.21,1,.22c.31.08.64.15,1,.21l1,.21c.33.06.64.14,1,.19h0l1,.2h0c.32.05.63.13,1,.18l1,.18h0c.3.06.61.1.93.15h0l.91.17h0l1.84.3c.29,0,.6.1.88.13h0c.32,0,.6.09.89.13h0c.3,0,.58.07.89.1h0l.85.11h0c.3,0,.57.06.84.11h0c.29,0,.56.06.85.07h0l.82.08c.27,0,.52,0,.8.06h0l.79.06h0l.78,0h0l0,0h.57l0,0h.39l0,0h.42l0,0h2.93a2.53,2.53,0,0,1,.47,0h0l.5,0h.48c.17,0,.34,0,.5,0h0c.16,0,.32,0,.46,0h0c.18,0,.35,0,.5,0h0l.48-.06h0a4.07,4.07,0,0,0,.49-.05l.48,0c.14,0,.32,0,.48-.06l.48-.08h0l.48,0,.47-.1a2,2,0,0,0,.47-.08c.17,0,.32,0,.48-.06l.46-.09a2.77,2.77,0,0,0,.5-.1h0a3.69,3.69,0,0,0,.46-.08c.17,0,.33-.05.48-.09l.48-.11a3,3,0,0,0,.47-.09c.15,0,.31-.08.46-.11s.32-.07.49-.09.3-.08.46-.12a2.18,2.18,0,0,0,.48-.14h0a2.83,2.83,0,0,0,.47-.1L200,586h0a2.23,2.23,0,0,0,.46-.13,2.7,2.7,0,0,0,.47-.12l.49-.12a2.91,2.91,0,0,1,.47-.13l.45-.15.49-.12.46-.14.48-.14.47-.15.46-.15.47-.14.46-.16.48-.14.49-.16.45-.15.48-.16.47-.17.47-.16.48-.15.46-.19.48-.14.47-.17.47-.16.48-.18.49-.16.46-.18.49-.19.47-.14.47-.19.48-.19.47-.16.49-.18.48-.19.48-.17.4-.14.4-.14.4-.15.4-.16.4-.14h0l.41-.16.42-.13.39-.14.41-.17.41-.13.41-.16.41-.14.41-.15.4-.14.42-.15.41-.15.42-.14.42-.15.4-.14.41-.13.42-.14.4-.14h0l.42-.14.4-.14.43-.13.38-.12.43-.14h0l.41-.13.4-.12.41-.12h0l.4-.12h0l.41-.15h0l.4-.09.4-.12.4-.12.4-.11.4-.11.38-.09c.14,0,.27-.07.4-.11h0l.39-.12.39-.08a2.16,2.16,0,0,1,.39-.09l.39-.09a1.83,1.83,0,0,1,.39-.09l.37-.09a1.78,1.78,0,0,1,.39-.07c.12,0,.24,0,.36-.09s.25-.06.38-.07a3.09,3.09,0,0,0,.35-.07,1.61,1.61,0,0,0,.38-.08l.37-.05.35,0,.36-.06.36,0,.34-.06a1.5,1.5,0,0,0,.37,0,1.67,1.67,0,0,1,.34,0l.34,0,.34,0h0a1.16,1.16,0,0,0,.32,0h0l.33,0h1.94l.34,0h0a1.12,1.12,0,0,0,.32,0h0l.35,0h0l.33,0h0a1.57,1.57,0,0,1,.33,0h0a1.58,1.58,0,0,0,.37,0h0l.34.06h0l.36,0h0l.36.06h0l.35,0h0l.38.05h0a1.53,1.53,0,0,0,.37.08h0c.1,0,.24,0,.35.07h0c.13,0,.26.06.38.07h0c.12,0,.26.05.37.09h0a1.89,1.89,0,0,1,.39.07h0l.38.09h0l.38.09h0l.38.09a1.83,1.83,0,0,1,.39.09h0a1.8,1.8,0,0,0,.39.08l.39.12h0l.4.11h0l.39.09.39.11.4.11h0l.4.12.41.12h0l.39.09h0l.41.15h0l.4.12h0l.42.12.4.12h0l.4.13h0l.42.14.41.12.41.13h0l.41.14.41.14h0l.41.14.41.14.42.13.4.14.42.15.41.14.41.15.41.15.42.14.4.15.42.14.42.16.41.13.4.17.4.14.4.13.42.16h0l.39.14.41.16.39.15.4.14.4.14c10.28,3.77,20,7.35,30.46,7.35h1.46l.05,0h.42l.05,0h.38l.06,0h.55l.05,0h0c.26,0,.52,0,.76,0h0c.28,0,.55,0,.8-.06h0c.27,0,.54,0,.8-.06l.84-.08h0c.27,0,.56,0,.83-.07h0c.29-.05.56-.08.85-.11h0l.85-.11h0c.3,0,.59-.08.88-.1h0c.29,0,.59-.1.9-.13h0c.27,0,.58-.1.89-.13l.89-.14h0l.94-.16h0l.92-.17h0c.3,0,.63-.09.94-.15h0l.93-.18,1-.18h0l1-.2h0c.32-.05.62-.13,1-.19s.64-.14,1-.21.65-.13,1-.21l1-.22,1-.21h0l1-.23,1-.24c.33-.07.66-.14,1-.23l1-.23c.31-.09.64-.16,1-.25s.66-.17,1-.25.65-.17,1-.25h0c.33-.1.66-.18,1-.25l1-.27c.34-.08.68-.17,1-.27s.65-.17,1-.25l1-.28,1-.26,1-.25,1-.29,1-.27.95-.27.95-.27.93-.28.93-.26.92-.26.89-.28.91-.27.89-.27.85-.25.87-.29.84-.27.84-.25.81-.26.8-.24.8-.25.77-.25.75-.23.73-.26.72-.23.7-.2.66-.25.68-.21.64-.21.61-.21.59-.18.56-.21.3,0,.27,0,.3,0,.28.05.31,0,.3.06.28,0,.33.06.3.07.32,0,.31.08.32,0,.33.08.32.07.34,0h0l.33.11.32.06.33.1.35.06.34.11.35.06h0l.34.11h0l.33.08h0l.36.1.35.08h0l.35.1.36.1h0l.35.1.34.1h0l.36.09h0l.36.11h0l.35.1h0l.35.11h0l.39.12h0l.36.11h0l.35.11h0l.37.08h0l1.81.56h0l.36.12h0c.73.23,1.46.45,2.18.71h0c1,.29,1.91.59,2.85.91h0c.83.26,1.64.53,2.42.79l3.31,1.08h0l1.09.37h0l.55.17h0c.36.13.73.24,1.09.36h0l.54.16h0l.53.18.56.17h0l.54.16h0l.55.18h0l.54.16h0l1.06.34h0l.55.16h0l.53.16h0l.55.15h0l.53.16.55.15.53.15h0l.53.15.55.16.53.13.53.13.54.16a5.44,5.44,0,0,1,.54.15l.53.11h0l.53.12h0a4.61,4.61,0,0,0,.53.15l.53.12.53.11c.18,0,.36.09.54.13l.53.11h0l.53.1a4.37,4.37,0,0,0,.52.12h0c.54.12,1.07.21,1.6.3h0l.53.1h0a4.34,4.34,0,0,1,.52.09h0a4,4,0,0,1,.52.09h0c.55.08,1.07.17,1.61.24h0l2.64.3h0c.18,0,.37,0,.53,0h0c.35,0,.7.08,1,.1h0l1.06.05h0l.54,0h0a4.52,4.52,0,0,1,.52,0h.53a3.26,3.26,0,0,0,.53,0h1.08Z"/><path d="M252.34,351.79l-69-38-.56.31c.12,26.21,1.15,51.25,3,74.32Z"/><path d="M197.7,397.09,259.31,431c2.89-21.29,5-45.38,6.27-71.31Z"/><path d="M197.22,306.2l69,38h0c.36-11.38.56-23.07.56-35,0-14-.27-27.62-.77-40.85Z"/><path d="M197.4,214.9l67.86,37.37c-1.4-26-3.73-50-6.8-71Z"/><path d="M183.19,298.47l69.15-38.07L186.26,224c-1.95,23-3.14,48-3.4,74.29Z"/><path d="M201,485.77c6.76,23.78,14.95,37.71,23.78,37.71,12.07,0,22.95-26,30.61-67.65Z"/><path d="M188.13,204.65l64-35.26L199,140.11C194.58,157.66,190.88,179.6,188.13,204.65Z"/><path d="M254,155.23c-7.56-37.36-17.85-60.35-29.2-60.35-8.11,0-15.68,11.76-22.1,32.1Z"/><path d="M187.44,407.13c2.53,25.06,6,47.25,10.16,65.35l54.26-29.88Z"/><path d="M224.79,0C97.75,0-3.57,74.24.1,84c3.28,8.71,89.53-38.48,224.68-38.48S446.19,92.66,449.48,84C453.14,74.24,351.83,0,224.79,0Z"/><line class="cls-2" x1="224.79" y1="76.73" x2="155.12" y2="36.5"/><line class="cls-2" x1="224.79" y1="4.66" x2="224.79" y2="76.73"/><path d="M224.79,81a21.26,21.26,0,0,0-3.33-6l3.33,1.2,3.33-1.2A20.78,20.78,0,0,0,224.79,81Z"/><line class="cls-2" x1="294.46" y1="36.5" x2="224.79" y2="76.73"/></g></g></svg>