<svg xmlns="http://www.w3.org/2000/svg" viewBox="0 0 449.38 616.28"><defs><style>.cls-1{fill-rule:evenodd;}.cls-2{fill:none;stroke:#000;stroke-miterlimit:10;stroke-width:2px;}</style></defs><g id="Layer_2" data-name="Layer 2"><g id="Layer_1-2" data-name="Layer 1"><path class="cls-1" d="M69,557.58a5.06,5.06,0,0,0-.55,0l.55,0Zm0,29.3a5.06,5.06,0,0,1-.55,0l.55,0Zm346.19-29.42h-.06l-.12,0H415l-.29,0h-.12l-.05,0h-.09l-.26,0h-.35l-.17,0H413l-.35,0h-2.31l-.53,0h-.52l-.53,0h0l-1.07-.08h0l-1-.07h0l-.53-.06h0c-.86-.09-1.75-.18-2.64-.29h0l-1.6-.23h0a2.26,2.26,0,0,0-.53-.1h0l-.52-.1h0c-.18,0-.36-.05-.53-.09h0l-1.59-.29h0l-.53-.12-.53-.11h0l-.53-.11-.53-.12-.53-.13-.54-.12-.53-.12h0l-.53-.13h0l-.53-.15-.53-.12-.54-.14-.54-.16-.53-.14-.55-.13-.53-.15h0l-.53-.16-.55-.14-.52-.16h0l-.55-.17h0l-.53-.16h0l-.56-.16h0l-1.06-.33h0l-.54-.15h0l-.55-.18h0l-.53-.17h0l-.56-.17-.53-.16h0l-.54-.17h0c-.37-.14-.74-.25-1.1-.37h0l-.55-.16h0l-1.09-.36h0c-1.08-.36-2.19-.74-3.3-1.09l-2.42-.79h0l-2.85-1h0c-.72-.21-1.46-.46-2.19-.67h0l-.36-.11h0l-1.81-.57h0l-.36-.12h0l-.36-.1h0l-.35-.09h0l-.39-.13h0l-.35-.11h0l-.35-.09h0l-.37-.1h0l-.36-.11h0l-.34-.09-.35-.11h0l-.36-.09-.35-.1h0l-.34-.09-.36-.08h0l-.34-.11h0l-.34-.07h0l-.35-.1-.34-.07-.34-.09-.33-.07-.33-.1-.33-.06h0l-.33-.07-.32-.09-.34-.06-.32-.07-.3-.06-.33-.06-.3-.06-.32,0-.29-.05-.3-.07-.3-.05-.29,0-.29,0a1.35,1.35,0,0,1-.28,0l-.29,0-.56.17-.59.21-.62.22-.64.21-.68.21-.65.22-.71.24-.72.22-.73.23-.75.25-.77.24-.8.26-.79.25-.82.25-.84.26-.84.28-.87.24-.85.28-.89.27-.9.26-.9.27-.92.27-.93.28-.93.26-.95.29-.95.26-.95.27-1,.27-1,.29-1,.24-1,.28-1,.25-1,.28-1,.24-1,.28h0c-.33.07-.66.15-1,.24s-.68.16-1,.26l-1,.22c-.34.1-.68.17-1,.26l-1,.23c-.33.07-.68.16-1,.25l-1,.19h0c-.33.1-.65.17-1,.25s-.65.16-1,.2-.66.15-1,.2-.65.14-1,.24-.64.11-1,.18h0c-.33.05-.64.12-1,.18h0l-.95.19c-.31.07-.63.11-.94.16h0c-.31.06-.63.11-.94.18h0l-.92.18h0c-.31,0-.61.08-.94.13h0l-.89.14-.89.13h0c-.3.05-.61.1-.89.12h0a4.45,4.45,0,0,1-.89.13h0l-.85.11h0l-.85.09h0c-.27,0-.56,0-.83.1h0c-.29,0-.56,0-.84.06l-.79.06v0l-.8.06h0c-.25,0-.51,0-.77,0h-.52l0,0h-.33l-.06,0h-.3l-.07,0h-.66l0,0h-1c-10.48,0-20.17-3.55-30.45-7.32l-.4-.15-.4-.16-.4-.14-.41-.14-.39-.14h0l-.42-.16-.39-.15-.4-.14L262,549l-.41-.13-.42-.16-.42-.14-.39-.16-.42-.15-.42-.13-.41-.14-.41-.15-.41-.14-.4-.16-.43-.13-.41-.15-.41-.13h0l-.4-.13-.41-.15h0l-.42-.13-.41-.12-.42-.14h0l-.4-.12h0l-.39-.13-.42-.13h0L253,546h0l-.41-.13h0l-.39-.12h0l-.41-.11-.39-.1h0l-.4-.12-.39-.11-.39-.11h0l-.41-.1h0l-.39-.08c-.13,0-.25-.09-.39-.12h0a2.74,2.74,0,0,1-.39-.09l-.38-.1h0l-.38-.07h0l-.38-.1h0l-.39-.06h0a1.43,1.43,0,0,0-.37-.08h0a1.51,1.51,0,0,0-.38-.07h0l-.35-.08h0a2.41,2.41,0,0,0-.37-.07h0a2.22,2.22,0,0,0-.38,0h0a3.59,3.59,0,0,0-.35-.08h0l-.36,0h0l-.36-.06h0l-.33,0h0l-.37,0h0a1.75,1.75,0,0,0-.33-.06h0c-.12,0-.23,0-.34,0h0a2,2,0,0,0-.35,0h0a1.16,1.16,0,0,0-.32,0h0a1.94,1.94,0,0,0-.33,0h-.34c-.1,0-.2,0-.31,0h-.65c-.11,0-.19,0-.32,0h-.33a1.77,1.77,0,0,0-.32,0h0a1.19,1.19,0,0,0-.33,0h0a1.88,1.88,0,0,0-.34,0l-.34,0a1.72,1.72,0,0,0-.34.06l-.36,0-.34,0-.36.06-.37,0c-.11,0-.22,0-.35.08a2.6,2.6,0,0,0-.37,0,3.1,3.1,0,0,0-.38.07l-.35.08a1.8,1.8,0,0,0-.38.07,1.68,1.68,0,0,0-.36.08l-.39.06-.37.1-.39.07-.39.1a2.23,2.23,0,0,1-.39.09l-.38.12-.39.08h0l-.4.1-.39.11-.4.11-.4.12-.4.1-.4.11-.4.12h0l-.4.13h0l-.4.12h0l-.42.13-.4.13-.41.12h0l-.42.14-.38.12-.44.13-.4.15-.42.13h0l-.39.13-.42.15-.42.13-.4.16-.42.14-.42.15-.4.14-.42.13-.41.15-.41.16-.41.14-.4.16-.42.13-.41.15-.39.14-.42.15-.4.16h0l-.4.14-.4.14-.4.14-.41.16-.4.15-.47.17-.49.18-.48.17-.48.18-.48.18-.47.16-.47.18-.48.17-.47.17-.48.16-.49.18-.46.16-.48.18-.47.16-.47.16-.48.18-.47.16-.46.16-.49.16-.45.13-.49.17-.47.16-.47.14-.47.16-.46.12-.47.15-.48.15-.45.14-.5.15-.45.12c-.17.05-.31.08-.46.14l-.5.14c-.15,0-.3.06-.47.11l-.46.13h0a3.78,3.78,0,0,1-.46.1l-.48.15h0l-.47.09-.47.11c-.16,0-.31.1-.48.12l-.47.1-.46.11-.49.08-.47.11-.47.08h0c-.16,0-.32.08-.49.1l-.47.08a2.63,2.63,0,0,0-.47.1l-.48,0-.47.07a4.37,4.37,0,0,0-.48.08h0l-.48,0-.48,0a2.67,2.67,0,0,1-.48.08l-.48,0h0c-.17,0-.33,0-.49.06h0a3.74,3.74,0,0,1-.49,0h0a3.43,3.43,0,0,1-.47,0h0l-.5,0-.47,0h0l-.51,0h0l-.46,0h0a3.93,3.93,0,0,0-.49,0h-2l0,0h-.66l-.19,0h-.18l-.05,0h-.33l-.05,0h-.51c-.27,0-.52,0-.78,0h0l-.8-.06v0c-.28,0-.52-.05-.8-.06l-.81-.06h0c-.3-.05-.56-.06-.86-.1h0c-.26,0-.54,0-.83-.09h0l-.86-.11h0a4.45,4.45,0,0,1-.89-.13h0c-.28,0-.57-.07-.88-.12h0l-.89-.13c-.6-.09-1.21-.19-1.84-.27h0l-.91-.18h0l-.93-.18h0c-.32,0-.64-.09-1-.16l-1-.19h0c-.32-.06-.62-.13-1-.18h0c-.33-.07-.63-.14-1-.18s-.63-.16-1-.24a9.79,9.79,0,0,1-1-.2c-.33,0-.67-.13-1-.2s-.64-.15-1-.25h0l-1-.19c-.34-.09-.67-.18-1-.25l-1-.23h0l-1-.26h0l-1-.22h0l-1-.26-2-.52c-.33-.07-.67-.15-1-.24h0l-1-.28-1-.25h0l-1-.28h0l-1-.24h0l-1-.29-1-.27h0l-1-.27h0l-1-.26-.94-.29h0l-.93-.26h0l-.92-.28-.91-.27h0l-.91-.27h0l-.89-.26h0l-.9-.27h0l-.87-.28h0l-.85-.24h0l-.85-.28h0l-.83-.26h0l-.82-.25h0l-.8-.25h0l-.79-.26h0l-.77-.24h0l-.75-.25h0l-.73-.23h0l-.74-.22h0l-.69-.24h0l-.66-.22h0l-.67-.21h0l-.64-.21h0l-.6-.22h0l-.59-.21h0l-.58-.17h0a1.27,1.27,0,0,0-.26,0h0a1.54,1.54,0,0,1-.3,0h0l-.28,0h0l-.3,0h0l-.29.05h0l-.3.07h0l-.31.05h0l-.31,0h0l-.31.06h0l-.31.06h0l-.31.06h0l-.33.07h0l-.33.06h0l-.31.09h0l-.32.07-.35.06h0l-.32.1-.34.07h0l-.33.09h0l-.34.07-.36.1-.33.07-.34.11h0l-.36.08-.35.09h0l-.34.1-.35.09-.37.11-.35.09-.35.11-.37.1-.35.09-.35.11-.37.13-.37.09-.35.1-.37.12h0l-.36.11-.37.11-.35.11-.38.11-.36.13h0l-.35.11-.38.11h0l-.36.1h0l-.35.12-.37.13h0l-.37.1h0l-.37.11-.35.12h0l-.35.12h0l-.36.11h0l-.35.13-.37.11h0l-.35.11h0l-.36.11h0l-.35.14-.35.09h0l-.35.12h0l-.34.13h0l-.34.1h0l-.36.11h0l-.33.12h0l-.34.12h0l-.55.18h0l-.56.17h0l-.55.18h0l-.54.2h0l-.56.18h0l-.56.18h0l-.53.18h0l-.56.18-.55.16-.54.19h0l-.54.18h0l-.55.17-.53.16h0l-.55.17-.53.17h0l-.55.18-.54.15h0l-.55.18h0l-.53.15h0l-.55.16h0l-.53.16h0l-.55.17h0l-.52.16-.56.14-.51.16h0l-.55.15h0l-.53.13h0l-.54.14h0l-.53.16-.53.14-.55.12-.52.15h0l-.53.13h0l-.54.12h0c-.18,0-.35.08-.52.12l-.55.13h0l-.53.12-.52.11h0l-.55.11-.52.12h0l-.54.09h0c-.34.09-.69.14-1,.2h0l-.54.09-.53.1a2.39,2.39,0,0,0-.52.1h0a3,3,0,0,0-.53.07h0c-.19,0-.36,0-.53.08h0l-.54.08c-.16,0-.35,0-.52.05h0l-.53.06v0l-.53.05h0l-.54,0h0l-.52.06h0l-.53.06-.54,0h0c-.18,0-.36,0-.53,0h0l-.53,0h0l-.53,0h0l-.53,0h-.52l-.54,0H69a5.06,5.06,0,0,0-.55,0h-.6l-.06,0h-.36l0,0h-.17l-.35,0-.17,0h-.06l-.23,0h0c-10.64-.73-20.36-4.42-29.77-8-5.72-2.16-14.33-5.45-17.9-5.45-2.76,0-8.37,1-15.31,2.6A59.22,59.22,0,0,1,0,535a104.08,104.08,0,0,1,18.74-2.34c11.27,0,21.68,3.95,31.74,7.75,4.92,1.88,11.25,4.28,15.93,5.3l.06,0,.19,0h0l.23.05h0l0,0,.2,0h0l0,0h0l.17.05h.14l.2,0h0l.21,0h0a2.06,2.06,0,0,0,.26,0h0a.93.93,0,0,0,.23,0h0l.2,0h.3l.18,0h0a.62.62,0,0,0,.19,0h.47a.52.52,0,0,0,.17,0h0a.82.82,0,0,0,.22,0h.44a.9.9,0,0,0,.24,0h0a1,1,0,0,0,.24,0h.26l.27,0h0a.77.77,0,0,0,.25,0h0l.27,0h0a2.7,2.7,0,0,0,.28,0h0l.28,0h0l.3-.05h0l.29,0h0l.31,0,.3-.09.32,0h0l.31-.06h0l.34-.08h0l.31-.07h0l.32-.08h0l.35,0,.34-.11h0l.32-.08.36-.07h0l.35-.1h0l.36-.1h0l.35-.09.38-.1.36-.09.36-.1h0l.36-.11.36-.1.38-.11.39-.1c.23-.08.5-.15.75-.22l.37-.12h0l.39-.12.38-.1.39-.13h0l.37-.1h0l.38-.13.38-.11.76-.24.39-.13.38-.12.37-.11.4-.12h0l.37-.12h0l.36-.12.38-.14h0l.39-.1.36-.13.37-.13h0l.38-.12.36-.1.37-.14.35-.13,1.06-.33h0l.35-.11h0l.33-.13h0l.57-.17h0l.57-.18h0l.56-.21h0l.58-.17h0l.58-.2h0l.57-.17h0l.56-.19h0l.56-.19h0l.57-.18.57-.18h0l.59-.2h0l.57-.17.57-.19h0l.57-.18h0l.58-.17.58-.18h0l.56-.17h0l.57-.16.58-.17h0l.57-.2.58-.16h0l.57-.16.59-.18.57-.16.59-.16.58-.16.57-.16.58-.13.57-.17h0l.59-.15h0l.58-.15c.19,0,.38-.1.58-.13h0l.57-.15.6-.13h0a5.27,5.27,0,0,1,.57-.14c.2,0,.4-.09.59-.15a4.52,4.52,0,0,0,.58-.13l.58-.11h0l.58-.13h0l.58-.11h0a4.12,4.12,0,0,1,.59-.12h0a5.18,5.18,0,0,1,.59-.1h0c.18,0,.38-.08.57-.12h0l.6-.11h0a5.81,5.81,0,0,0,.58-.09h0a3.81,3.81,0,0,1,.59-.08h0a4.08,4.08,0,0,1,.59-.11h0l.58-.08.59-.08c.18,0,.38-.06.59-.08h0l.58-.07h0a3.93,3.93,0,0,1,.59-.06h0l.58-.09h0l.6,0h0l.58-.06h0l.6,0,.58,0h0a5.68,5.68,0,0,0,.59,0h0l.59,0h0l.6,0h0l.59,0h0l.59,0h.59a5.62,5.62,0,0,1,.58,0h0c.83,0,1.63,0,2.44.06h0c.61,0,1.21.06,1.81.11h0c.81,0,1.59.13,2.42.18h0c.39.08.8.11,1.2.16h0l.59.07h0c.41.06.81.11,1.2.18h0c.39.06.8.1,1.19.17h0c.39.08.79.13,1.2.21h0l.58.11a4,4,0,0,1,.6.12h0c.39.06.8.14,1.19.24a4.12,4.12,0,0,1,.59.12l.6.11h0l.59.14h0l.59.15h0l.59.12h0a3.63,3.63,0,0,0,.59.13h0a2.57,2.57,0,0,0,.58.14l.58.18h0a4.39,4.39,0,0,1,.6.15h0l.59.16a3.54,3.54,0,0,1,.58.17,2.86,2.86,0,0,1,.58.13h0l.58.16h0l.59.18h0l.59.16h0l.58.17.58.17.58.18.58.17.58.19h0l.58.18h0l.57.17.58.2.59.17.57.19.57.18.59.2.56.18.58.2.58.2.56.2.57.18.59.18.57.2.57.2.58.19.56.21.56.19.57.19.57.19.25.1.26.07.28.11.26.1.29.09.26.09h0l.3.1.28.1h0l.29.09h0l.3.12h0l.29.09h0l.3.11h0l.31.08.29.11h0l.63.22.31.1.31.1h0l.31.1h0l.32.12.32.1h0l.31.1h0l.32.11.33.1h0l.63.21h0l.31.1.34.09.33.12.3.11.32.09.33.09h0l.3.11.33.1h0l.3.09.31.09.32.09.29.08.31.11h0l.32.07h0l.29.1.3.09.3.07h0l.28.08h0l.29.09.28.06.28.08.28.08h0l.27.06h0l.28.07.24.06h0l.27.06.25.05h0l.24,0h0l.26.07.23,0,.22,0,.23.06.22,0,.22,0h0l.2,0h.2a1.25,1.25,0,0,0,.19,0,.55.55,0,0,1,.18,0,.52.52,0,0,0,.17,0h.34l.19,0h.2l.2,0h.21a.78.78,0,0,1,.21,0,1.7,1.7,0,0,1,.22,0h0l.22-.06.24,0h0l.24-.06h0l.22-.05.26-.06.25-.06h0l.25-.06.25-.06h0l.28-.07h0l.27-.06.26-.06.27-.1.29-.07h0l.28-.07h0l.3-.09.28-.09h0L191,545l.28-.1.3-.09.31-.1.29-.09.32-.1.29-.08h0l.31-.11.31-.1.32-.11.3-.1.32-.09h0l.31-.1.32-.12.31-.11.32-.1.3-.11h0l.33-.11h0l.32-.1.29-.11h0l.34-.1h0l.3-.12.31-.1.32-.12h0l.29-.1h0l.32-.1h0l.29-.12h0l.62-.2.59-.22h0l.58-.22h0l.86-.3h0l.25-.1h0l.54-.2,4.32-1.55h0l.56-.18h0l.56-.2h0c.55-.2,1.11-.4,1.67-.57h0l.57-.19h0l1.68-.58,1.12-.39h0l.58-.17h0l.58-.18h0l.58-.2h0l.57-.18h0l.58-.16h0l.6-.18.58-.17h0l.59-.17.58-.17h0l.59-.17h0c.21-.06.4-.12.6-.16h0l.6-.17h0a5.54,5.54,0,0,0,.61-.16h0c.19,0,.39-.1.58-.16s.41-.09.6-.15h0l.61-.13h0l.6-.16c.21,0,.41-.1.61-.15h0c.21,0,.41-.09.62-.13h0c.19,0,.4-.08.61-.14h0c.19,0,.41-.08.6-.13l.63-.13h0c.2,0,.41-.08.61-.12h0a4.52,4.52,0,0,0,.62-.12h0l.62-.11h0l.63-.1h0l.62-.12h0l.63-.1h0l.62-.09h0A6,6,0,0,0,231,533h0c.23,0,.44,0,.63-.09h0c.43-.06.86-.12,1.28-.16h0l.65,0h0c.85-.11,1.7-.18,2.59-.24h0c1.5-.11,3-.17,4.56-.17h.19a64.91,64.91,0,0,1,7.15.41h0c1.08.09,2.14.23,3.18.39h0l1.27.19h0l1.25.22h0l1.86.35.61.13h0a5.8,5.8,0,0,0,.6.13h0c.62.14,1.23.27,1.84.42l.59.16.62.13h0c.2.06.4.1.61.15a5.69,5.69,0,0,0,.59.16h0a4.08,4.08,0,0,0,.6.16h0l.59.17a5.69,5.69,0,0,1,.59.16h0l.6.17h0a3.63,3.63,0,0,1,.6.17l.59.17.57.17.59.18.58.16a4.66,4.66,0,0,0,.57.18l.58.2.57.18.57.17h0l.59.21h0l.57.18.57.2h0l.55.19h0l.55.19h0l.57.19,1.11.37h0l.55.2.56.2.55.18h0l.53.2h0l.57.2h0l.54.18h0l.54.21h0l1.07.37h0l.54.21h0l.52.18h0l.27.1h0l.28.1h0l.27.1h0l.28.1h0l.29.11h0l.3.09h0l.27.11h0l.3.11h0l.3.1h0l.28.12.32.09h0l.3.11.3.12h0l.31.1.3.1.32.12.31.1.32.12h0l.3.1h0l.31.11.94.32.32.1.31.11.33.12.3.1h0l.31.09.32.1.32.11.3.1.31.11.3.08.31.1h0l.3.09.31.1h0l.3.09.29.1h0l.29.06h0l.29.09h0l.28.09.29.07.28.07.28.1h0l.27.06h0l.26.06.28.07.26.06h0l.25.06.25.06.25.06h0l.22.05.25.06.23,0h0l.22.06.23,0h0a.86.86,0,0,1,.21,0h.21l.19,0h.19l.2,0h.35a.47.47,0,0,0,.16,0,.55.55,0,0,1,.18,0l.2,0h.2a.6.6,0,0,1,.21,0l.21,0,.21,0,.23-.06.22,0,.25,0,.24-.07.24,0,.26-.05.25-.06h0l.27-.06.26-.07h0l.28-.06.27-.08.27-.08.31-.06.26-.09h0l.32-.08h0l.27-.07.31-.09.3-.1h0l.3-.07h0l.31-.11.3-.08.3-.09.32-.09.31-.09h0l.32-.1.32-.11h0l.32-.09L306,544l.33-.11h0l.31-.12h0l.32-.09.31-.1h0l.33-.09h0l.32-.12h0l.3-.1.34-.11h0l.32-.1h0l.31-.1h0l.32-.12h0l.31-.1.31-.1h0l.33-.1.3-.1h0l.3-.12.31-.11.3-.08h0l.3-.11h0l.3-.09h0l.29-.12.3-.09h0l.28-.1.3-.1.26-.09.29-.09.26-.1.27-.11.26-.07.25-.1.57-.19.58-.19.56-.19.57-.21.57-.19.57-.2.57-.2.57-.18.59-.18.58-.2.56-.2.58-.2.56-.18.58-.2.57-.18.58-.19.57-.17.58-.2.58-.17h0l.59-.18h0l.58-.19.58-.17.58-.18.58-.17.58-.17h0l.57-.16h0l.59-.18h0l.59-.16h0a3.06,3.06,0,0,1,.6-.13,3.74,3.74,0,0,1,.57-.17l.58-.16h0a4.39,4.39,0,0,1,.6-.15h0l.58-.18a2.31,2.31,0,0,0,.59-.14h0a4.87,4.87,0,0,0,.59-.13h0c.19,0,.39-.09.59-.12h0c.2-.06.4-.1.6-.15h0l.56-.14h0l.59-.11h0a4.55,4.55,0,0,1,.6-.12h0a5.61,5.61,0,0,1,.59-.13h0c.19-.05.38-.07.59-.11h0a4,4,0,0,1,.6-.12l.6-.11h0a3.88,3.88,0,0,1,.58-.09h0c.21,0,.4-.07.6-.12s.4-.07.59-.08h0c.21,0,.39-.07.6-.09h0q.3-.06.6-.09h0c.19,0,.4,0,.61-.09h0l.58-.07h0l.6-.08h0a2.49,2.49,0,0,0,.61-.08h0l.59,0h0l.62,0h0l.6-.06h0a5.74,5.74,0,0,1,.6,0h0l.6,0h0c.2,0,.41,0,.61,0h0l.6,0h0l.61,0h0l.62,0h.6c.2,0,.4,0,.6,0h0c1.37,0,2.76.06,4.13.15h0l.58,0h0c.4,0,.79.06,1.18.1h0c.4,0,.79.07,1.2.13h0a4.08,4.08,0,0,1,.58.06h0c.39,0,.78.09,1.16.15h0l.59.08h0l.59.08h0a4.08,4.08,0,0,1,.59.11h0c.39,0,.78.12,1.18.17l.58.11h0c.19,0,.39.07.57.12h0a11.68,11.68,0,0,1,1.18.22h0c.38.08.77.14,1.16.24h0l.6.11a5.61,5.61,0,0,0,.59.13h0l.57.15h0c.19,0,.39.09.58.14l.58.13h0c.4.08.79.18,1.16.28l.59.15h0l.58.15h0a4.69,4.69,0,0,1,.58.17c.18,0,.38.09.58.13h0l.58.16.58.16h0l.58.16h0l.57.16.59.18h0l.56.16h0l.59.16h0l.57.2h0l.58.17.58.16h0l.55.17h0l.58.18.57.17h0l.58.18h0l.58.19.57.17.57.2h0l.58.18.57.18h0l.57.19h0l.56.19h0l.57.17h0l.56.2h0l.58.17h0l.56.21h0l.57.18h0l.57.17h0l.34.13h0l.34.11h0l.34.11h0l.35.13h0l.37.09.36.13.35.14.37.1.38.12.36.13.36.13.39.1h0l.38.14.37.12.38.12h0l.39.12.37.11.38.12.38.13.76.24.39.11.39.13h0l.38.1h0l.38.13.38.1h0l.38.12h0l.38.12h0l.76.22.37.1h0l.38.11.36.1h0c.26.08.47.15.74.21l.37.09h0l.35.1h0l.36.09.35.1h0l.35.1.36.07h0a6,6,0,0,1,.66.19h0l.34,0a3.32,3.32,0,0,0,.68.15h0c.31.08.62.14.94.19h0l.31.09h0l.28,0,.3,0h0l.3.05h0c.39.06.74.12,1.1.16h0l.26,0h.26a.86.86,0,0,0,.24,0h0a.9.9,0,0,0,.22,0h.46a.75.75,0,0,0,.21,0l.64,0h0a.75.75,0,0,0,.22,0h0c.22,0,.47,0,.72-.07h0l.76-.11h0l.25,0h0c4.73-.84,11.7-3.5,17-5.53a152.54,152.54,0,0,1,18.26-6.05,62.21,62.21,0,0,1-4.84,15.22c-9.28,3.53-18.87,7.11-29.35,7.84ZM375.09,608l-.37-.14h0c-.94-.29-1.89-.62-2.85-.92h0c-.72-.24-1.46-.48-2.19-.7h0l-.36-.12h0l-1.81-.55h0l-.36-.1h0l-.36-.12h0l-.35-.11h0l-.39-.1h0l-.35-.1h0l-.35-.09h0l-.37-.11h0l-.36-.12h0l-.34-.09-.35-.1h0l-.36-.09-.35-.09h0l-.34-.11-.36-.09h0l-.34-.08h0l-.34-.1h0l-.35-.08-.34-.08-.34-.09-.33-.07-.33-.09-.33-.06h0l-.33-.09-.32-.07-.34-.07-.32-.08-.3,0-.33-.08-.3-.06-.32,0-.29-.05-.3-.06-.3,0-.29,0-.29,0a2.74,2.74,0,0,0-.28-.05l-.29,0-.56.18-.59.21-.62.19-.64.23-.68.21-.65.22-.71.22-.72.24-.73.24-.75.25-.77.23-.8.25-.79.25-.82.27-.84.25-.84.28-.87.24-.85.27-.89.27-.9.27-.9.27-.92.26-.93.27-.93.3-.95.26-.95.27-.95.26-1,.29-1,.25-1,.28c-.32.09-.63.18-1,.26l-1,.28c-.32.06-.66.15-1,.24s-.67.19-1,.26-.67.17-1,.27h0c-.33.06-.66.16-1,.24s-.68.16-1,.25l-1,.24-1,.25c-.33.08-.66.14-1,.24s-.68.17-1,.22l-1,.23h0c-.33.1-.65.15-1,.23l-1,.21-1,.22-1,.18-1,.21h0c-.33.06-.64.14-1,.18h0c-.32.07-.63.12-.95.2s-.63.12-.94.16h0c-.31.08-.63.14-.94.19h0l-.92.14h0l-.94.16h0l-.89.15c-.3.05-.61.07-.89.13h0c-.3,0-.61.07-.89.12h0l-.89.12h0l-.85.1h0c-.29.05-.56.08-.85.11h0c-.27,0-.56,0-.83.07h0a8.21,8.21,0,0,1-.84.08l-.79.06h0l-.8.06h0l-.77,0H299l0,0h-.62l-.06,0h-1l0,0h-1.15c-10.48,0-20.17-3.55-30.45-7.32l-.4-.14-.4-.14-.4-.16-.41-.15-.39-.14h0l-.42-.14-.39-.17-.4-.13-.41-.15-.41-.15-.42-.16-.42-.13-.39-.15-.42-.14-.42-.16-.41-.13-.41-.15-.41-.13-.4-.15-.43-.15-.41-.15-.41-.12h0l-.4-.14-.41-.14h0l-.42-.14-.41-.12-.42-.14h0l-.4-.13h0l-.39-.12-.42-.13h0l-.41-.13h0l-.41-.09h0l-.39-.13h0l-.41-.11-.39-.13h0l-.4-.1-.39-.11-.39-.1h0l-.41-.12h0l-.39-.09-.39-.11h0a2.7,2.7,0,0,1-.39-.08l-.38-.1h0l-.38-.08h0l-.38-.09h0a2.7,2.7,0,0,1-.39-.08h0l-.37-.08h0l-.38-.05h0a1.47,1.47,0,0,0-.35-.08h0a2.38,2.38,0,0,0-.37-.06h0a2.16,2.16,0,0,0-.38-.06h0a2,2,0,0,0-.35-.09h0l-.36,0h0a2.09,2.09,0,0,0-.36,0h0l-.33-.06h0c-.13,0-.25,0-.37,0h0l-.33,0h0l-.34,0h0a1.48,1.48,0,0,1-.35,0h-.32a1.94,1.94,0,0,0-.33,0h0l-.34,0h-1.28c-.09,0-.21,0-.33,0a1.77,1.77,0,0,0-.32,0h-.33a1.4,1.4,0,0,1-.34,0,2,2,0,0,0-.34,0,3.31,3.31,0,0,0-.34,0l-.36,0-.34.06a2.2,2.2,0,0,0-.36,0l-.37,0-.35.09-.37.06a3,3,0,0,0-.38.06,1.9,1.9,0,0,0-.35.08l-.38.05-.36.08a2.45,2.45,0,0,1-.39.08l-.37.09a1.69,1.69,0,0,1-.39.08l-.39.1a2.24,2.24,0,0,1-.39.08l-.38.11-.39.09h0c-.14,0-.27.08-.4.12l-.39.1-.4.11-.4.1-.4.13-.4.11-.4.13h0l-.4.09h0l-.4.13h0l-.42.13-.4.12-.41.13h0l-.42.14-.38.12-.44.14-.4.14-.42.14h0l-.39.12-.42.15-.42.15-.4.15-.42.13-.42.15-.4.13-.42.16-.41.14-.41.15-.41.13-.4.16-.42.15-.41.15-.39.13-.42.17-.4.14h0l-.4.14-.4.15-.4.16-.41.14-.4.14-.47.2-.49.14-.48.19-.48.18-.48.17-.47.16-.47.19-.48.17-.47.17-.48.17-.49.17-.46.16-.48.2-.47.14-.47.16-.48.17-.47.15-.46.16-.49.16-.45.16-.49.15-.47.18-.47.14-.47.13-.46.16-.47.14-.48.15-.45.13-.5.14-.45.13c-.17.06-.31.09-.46.13l-.5.13-.47.14c-.15,0-.29.09-.46.12h0a3.9,3.9,0,0,0-.46.12l-.48.1h0l-.47.11c-.17.06-.32.09-.47.13s-.31.07-.48.11l-.47.09-.46.1-.49.12a4.63,4.63,0,0,0-.47.08,4.4,4.4,0,0,1-.47.1h0a4.53,4.53,0,0,0-.49.08c-.14,0-.32.06-.47.07l-.47.09-.48.08-.47.07a4.37,4.37,0,0,0-.48.08h0a3.5,3.5,0,0,0-.48.06c-.15,0-.33,0-.48.05l-.48.06a4.12,4.12,0,0,1-.48,0h0a3.91,3.91,0,0,0-.49,0h0a3.74,3.74,0,0,1-.49,0h0l-.47.06h0l-.5,0c-.14,0-.3,0-.47,0h0l-.51,0H187l-.49,0h-2.07l-.09,0h-1l-.05,0h-.6l-.08,0h-.11l-.78,0h0l-.8-.06h0c-.28,0-.52-.05-.8-.06a6.94,6.94,0,0,1-.81-.08h0c-.3,0-.56-.06-.86-.07h0c-.26,0-.54-.06-.83-.11h0l-.86-.1h0l-.89-.12h0c-.28,0-.57-.08-.88-.12h0c-.29-.06-.59-.08-.89-.13l-1.84-.31h0l-.91-.14h0c-.31-.05-.63-.11-.93-.19h0c-.32,0-.64-.11-1-.16s-.63-.13-1-.2h0c-.32,0-.62-.12-1-.18h0l-1-.21c-.34,0-.63-.12-1-.18l-1-.22-1-.21c-.31-.08-.64-.13-1-.23h0l-1-.23c-.34-.05-.67-.16-1-.22s-.66-.16-1-.24h0l-1-.25h0l-1-.24h0c-.35-.09-.67-.14-1-.25-.65-.18-1.33-.34-2-.51-.33-.07-.67-.17-1-.26h0c-.32-.09-.65-.18-1-.24l-1-.28h0l-1-.26h0l-1-.28h0l-1-.25-1-.29h0l-1-.26h0l-1-.27-.94-.26h0l-.93-.3h0l-.92-.27-.91-.26h0l-.91-.27h0l-.89-.27h0l-.9-.27h0l-.87-.27h0l-.85-.24h0l-.85-.28h0l-.83-.25h0l-.82-.27h0l-.8-.25h0l-.79-.25h0l-.77-.23h0l-.75-.25h0l-.73-.24h0l-.74-.24h0l-.69-.22h0l-.66-.22h0l-.67-.21h0l-.64-.23h0l-.6-.19h0l-.59-.21h0l-.58-.18h0l-.26,0h0c-.11,0-.19,0-.3.05h0l-.28,0h0l-.3,0h0l-.29,0h0l-.3.06h0l-.31.05h0l-.31,0h0l-.31.06h0l-.31.08h0l-.31,0h0l-.33.08h0l-.33.07h0l-.31.07h0l-.32.09-.35.06h0l-.32.09-.34.07h0l-.33.09h0l-.34.08-.36.08-.33.1-.34.08h0l-.36.09-.35.11h0l-.34.09-.35.09-.37.1-.35.09-.35.12-.37.11-.35.09-.35.1-.37.1-.37.11-.35.12-.37.1h0l-.36.11-.37.12-.35.11-.38.12-.36.09h0l-.35.12-.38.13h0l-.36.09h0l-.35.13-.37.11h0l-.37.12h0l-.37.12-.35.13h0l-.35.1h0l-.36.12h0l-.35.11-.37.12h0l-.35.11h0l-.36.11h0l-.35.12-.35.11h0l-.35.13h0l-.34.11h0l-.34.1h0l-.36.12h0l-.33.12h0l-.34.1h0l-.55.18h0l-.56.2h0l-.55.19h0l-.54.17h0l-.56.2h0l-.56.17h0l-.53.17h0l-.56.18-.55.17-.54.17h0l-.54.18h0l-.55.18-.53.16h0l-.55.19-.53.15h0l-.55.17-.54.17h0l-.55.16h0l-.53.17h0l-.55.16h0l-.53.17h0l-.55.15h0l-.52.17-.56.13-.51.16h0l-.55.15h0l-.53.14h0l-.54.16h0l-.53.13-.53.14-.17,0q-11.34-4.29-21.49-9.26l.13,0h0l.23,0H67l.2,0h0l0,0h0l.17,0h.07l.07,0,.2,0h0l.21,0h0a1.09,1.09,0,0,0,.26,0h0v0c.08,0,.15,0,.23,0h0l.2,0h0c.07,0,.14,0,.2,0h.23l0,0h.22a.65.65,0,0,0,.19,0h.25a.52.52,0,0,0,.17,0h0a.82.82,0,0,0,.22,0h.21a.86.86,0,0,0,.23,0H71l.24,0h0a.74.74,0,0,0,.26,0h0l.27,0h0c.08,0,.16,0,.25,0h0l.27-.06h0l.28,0h0l.28,0h0l.3,0h0l.29-.06h0l.31-.06.3-.05.32-.07h0l.31-.07h0l.34-.08h0l.31-.07h0l.32-.06h0L76,604l.34-.11h0l.32-.08.36-.08h0l.35-.08h0l.36-.11h0l.35-.08.38-.1.36-.1.36-.09h0l.36-.12.36-.09.38-.13.39-.1.75-.2.37-.1h0l.39-.14.38-.11L83,602h0l.37-.13h0l.38-.1.38-.13.76-.23.39-.12.38-.13.37-.13.4-.11h0l.37-.13h0l.36-.12.38-.13h0l.39-.11.36-.11.37-.13h0l.38-.13.36-.11.37-.11.35-.13,1.06-.35h0l.35-.1h0l.33-.11h0l.57-.18h0l.57-.19h0l.56-.19h0l.58-.19h0l.58-.19h0l.57-.19h0l.56-.17h0l.56-.2h0l.57-.18.57-.17h0l.59-.18h0l.57-.21.57-.17h0l.57-.18h0l.58-.19.58-.15h0l.56-.18h0l.57-.18.58-.18h0l.57-.16.58-.19h0l.57-.16L105,595l.57-.16.59-.15.58-.16.57-.16.58-.15.57-.14h0l.59-.16h0l.58-.15c.19-.06.38-.09.58-.15h0l.57-.15c.19,0,.39-.07.6-.13h0l.57-.13.59-.13c.21-.05.4-.08.58-.14s.38-.09.58-.12h0l.58-.13h0l.58-.11h0c.2,0,.39-.08.59-.12h0l.59-.11h0l.57-.11h0l.6-.09h0l.58-.1h0l.59-.1h0l.59-.08h0a5,5,0,0,1,.58-.1c.18,0,.39,0,.59-.09l.59-.06h0l.58-.07h0l.59-.08h0l.58,0h0l.6-.08h0c.2,0,.39,0,.58-.05h0l.6,0c.19,0,.38,0,.58-.06h0a2.88,2.88,0,0,0,.59,0h0l.59,0h0l.6,0h.59c.2,0,.39,0,.59,0H129c.83,0,1.63,0,2.44,0h0c.61,0,1.21.09,1.81.1h0c.81.06,1.59.13,2.42.23h0c.39,0,.8.09,1.2.13h0l.59.07h0a9.37,9.37,0,0,1,1.2.18h0c.39,0,.8.1,1.19.18h0c.39.07.79.14,1.2.19h0a4.93,4.93,0,0,1,.58.13l.6.1h0c.39.08.8.15,1.19.24.2,0,.39.06.59.11l.6.14h0c.2,0,.4.09.59.12h0l.59.15h0c.19,0,.39.08.59.13h0c.19,0,.38.11.59.15h0c.2,0,.39.1.58.13l.58.16h0l.6.15h0l.59.15.58.17.58.15h0l.58.17h0l.59.16h0l.59.16h0l.58.19.58.16.58.17.58.19.58.18h0l.58.18h0l.57.18.58.18.59.17.57.2.57.17.59.19.56.21.58.17.58.2.56.21.57.17.59.2.57.19.57.21.58.2.56.2.56.19.57.2.57.18.25.08.26.09.28.12.26.07.29.1.26.1h0l.3.1.28.09h0l.29.12h0l.3.07v0l.29.1h0l.3.11h0l.31.09.29.1h0l.63.22.31.11.31.1h0l.31.09h0l.32.1.32.11h0l.31.12h0l.32.11.33.1h0l.63.19h0l.31.11.34.12.33.09.3.1.32.09.33.1h0l.3.1.33.09h0l.3.1.31.08.32.13.29.07.31.11h0l.32.06h0l.29.09.3.08.3.11h0l.28.05h0l.29.08.28.08.28.08.28.07h0l.27.05h0l.28.09.24.07h0l.27,0,.25.06h0l.24,0h0l.26,0,.23.07.22,0,.23.06.22,0,.22,0h0l.2,0,.2,0a1.25,1.25,0,0,0,.19,0l.18,0h.17a.34.34,0,0,1,.17,0h.17a.55.55,0,0,0,.19,0h0l.2,0,.2,0c.07,0,.13,0,.21,0l.21,0a1.74,1.74,0,0,1,.22,0h0l.22,0,.24,0h0l.24,0h0l.22-.06.26,0,.25-.06h0l.25,0,.25-.08h0l.28-.06h0l.27-.06.26-.08.27-.06.29-.09h0l.28-.07h0l.3-.09.28-.08h0l.31-.09.28-.09.3-.08.31-.1.29-.09.32-.1.29-.1h0l.31-.1.31-.09.32-.11.3-.1.32-.1h0l.31-.1.32-.11.31-.1.32-.12.3-.11h0l.33-.09h0l.32-.13.29-.1h0l.34-.11h0l.3-.1.31-.11.32-.1h0l.29-.11h0l.32-.12h0l.29-.1h0l.62-.22.59-.22h0l.58-.22h0l.86-.28h0l.25-.1h0l.54-.19c1.43-.51,2.87-1,4.32-1.55h0l.56-.2h0l.56-.19h0c.55-.21,1.11-.41,1.67-.58h0l.57-.2h0l1.68-.58c.37-.11.75-.24,1.12-.38h0l.58-.18h0l.58-.17h0l.58-.17h0l.57-.19h0l.58-.17h0l.6-.19.58-.18h0l.59-.15.58-.18h0c.2-.07.4-.12.59-.17h0l.6-.15h0l.6-.17h0a5.43,5.43,0,0,1,.61-.16h0l.58-.16a3.76,3.76,0,0,0,.6-.15h0c.21,0,.4-.1.61-.15h0c.2-.05.4-.1.6-.13l.61-.15h0a3.42,3.42,0,0,1,.62-.13h0c.19-.06.4-.11.61-.16h0a4.25,4.25,0,0,0,.6-.12l.63-.12h0c.2,0,.41-.1.61-.13h0c.2,0,.42-.08.62-.1h0a4.56,4.56,0,0,1,.62-.13h0l.63-.11h0l.62-.11h0c.22,0,.41-.08.63-.09h0l.62-.11h0l.63-.08h0l.63-.09h0l1.28-.16h0l.65-.07h0c.85-.08,1.7-.16,2.59-.21h0q2.25-.18,4.56-.18h.19a70.25,70.25,0,0,1,7.15.39h0c1.08.12,2.14.26,3.18.4h0c.43.07.85.12,1.27.2h0l1.25.22h0c.61.1,1.23.23,1.86.36.21,0,.4.08.61.12h0a4,4,0,0,0,.6.12h0c.62.16,1.23.29,1.84.44a5.61,5.61,0,0,1,.59.13c.22,0,.41.11.62.15h0a4.18,4.18,0,0,0,.61.15l.59.16h0c.19,0,.4.1.6.16h0l.59.17.59.15h0c.2.05.4.1.6.17h0l.6.18.59.15.57.18.59.19.58.17a3.81,3.81,0,0,1,.57.19l.58.17.57.17.57.18h0l.59.21h0l.57.17.57.2h0l.55.19h0l.55.19h0l.57.2,1.11.37h0l.55.21.56.19.55.2h0l.53.18v0l.57.17h0l.54.2h0l.54.19h0l1.07.39h0l.54.19h0l.52.21h0l.27.08h0l.28.11h0l.27.1h0l.28.09h0l.29.12h0l.3.07h0l.27.13h0l.3.09h0l.3.11h0l.28.11.32.11h0l.3.11.3.1h0l.31.12.3.11.32.1.31.11.32.1h0l.3.11h0l.31.1c.32.13.63.22.94.33l.32.12.31.1.33.11.3.1h0l.31.1.32.1.32.11.3.09.31.1.3.1.31.1h0l.3.09.31.1h0l.3.08.29.09h0l.29.09h0l.29.08h0l.28.09.29.07.28.09.28.06h0l.27.08h0l.26.06.28.06.26.08h0l.25,0,.25.06.25,0h0l.22.06.25,0,.23,0h0l.22,0,.23,0h0l.21,0c.07,0,.13,0,.21,0l.19,0,.19,0a.68.68,0,0,0,.2,0h.17a.38.38,0,0,1,.18,0h.16c.07,0,.11,0,.18,0l.2,0,.2,0a1.05,1.05,0,0,1,.21,0,.71.71,0,0,1,.21,0l.21,0,.23-.06.22,0,.25-.07.24,0,.24,0,.26-.06.25,0h0l.27-.07.26-.09h0l.28-.05.27-.07.27-.08.31-.08.26-.08h0l.32-.05h0l.27-.11.31-.08.3-.09h0l.3-.06h0l.31-.11.3-.07.3-.13.32-.08.31-.1h0l.32-.09.32-.1h0l.32-.1.31-.09.33-.1h0l.31-.09h0l.32-.12.31-.11h0l.33-.11h0l.32-.08h0l.3-.1.34-.11h0l.32-.12h0l.31-.11h0l.32-.1h0l.31-.09.31-.1h0l.33-.11.3-.12h0l.3-.1.31-.1.3-.09h0l.3-.11h0l.3-.1v0l.29-.07.3-.12h0l.28-.09.3-.1.26-.1.29-.1.26-.07.27-.12.26-.09.25-.08.57-.18.58-.2.56-.19.57-.2.57-.2.57-.21.57-.19.57-.2.59-.17.58-.21.56-.2.58-.17.56-.21.58-.19.57-.17.58-.2.57-.17.58-.18.58-.18h0l.59-.18h0l.58-.18.58-.19.58-.17.58-.16.58-.19h0l.57-.16h0l.59-.16h0l.59-.17h0l.6-.15.57-.17.58-.15h0l.6-.15h0l.58-.16c.21,0,.4-.09.59-.13h0l.59-.15h0a5.61,5.61,0,0,1,.59-.13h0l.6-.15h0c.17,0,.37-.09.56-.12h0l.59-.14h0c.21,0,.4-.08.6-.11h0l.59-.13h0l.59-.11h0l.6-.1a5.29,5.29,0,0,1,.6-.13h0c.19,0,.39-.05.58-.09h0l.6-.1c.2,0,.4-.08.59-.11h0c.21,0,.39-.06.6-.07h0c.2-.05.4-.06.6-.1h0a5.63,5.63,0,0,1,.61-.08h0l.58-.07h0a5.78,5.78,0,0,0,.6-.08h0l.61,0h0a4.29,4.29,0,0,1,.59-.07h0c.22,0,.41,0,.62-.06h0l.6-.05h0c.19,0,.39,0,.6,0h.6a3.15,3.15,0,0,1,.61-.06h0l.6,0h.61c.21,0,.41,0,.62,0h1.21c1.37,0,2.76,0,4.13.12h0c.2,0,.39,0,.58.06h0c.4,0,.79.05,1.18.08h0c.4,0,.79.1,1.2.13h0l.58.08h0l1.16.13h0c.2,0,.41,0,.59.09h0a5.58,5.58,0,0,1,.59.1h0l.59.08h0l1.18.2.58.09h0l.57.11h0l1.18.23h0l1.16.24h0c.21,0,.4.09.6.12s.39.09.59.14h0l.57.13h0l.58.13c.2.06.39.08.58.13h0c.4.11.79.19,1.16.3a4.65,4.65,0,0,1,.59.15h0l.58.16h0a4.43,4.43,0,0,1,.58.14l.58.15h0l.58.16.58.16h0l.58.15h0l.57.16.59.18h0l.56.16h0l.59.19h0l.57.16h0l.58.18.58.18h0l.55.18h0l.58.15.57.19h0l.58.18h0l.58.17.57.21.57.18h0l.58.17.57.18h0l.57.2h0l.56.17h0l.57.19h0l.56.19h0l.58.19h0l.56.19h0l.57.19h0l.57.18h0l.34.11h0l.34.1h0l.34.13h0l.35.1h0l.37.12.14,0q-7.83,4.29-16.54,8.17ZM412,586.91a126.44,126.44,0,0,0,19-17.08c-5.33,2-12.2,4.62-16.9,5.46h0l-.25.05h0l-.76.11h0c-.25,0-.5.06-.72.08h-.24c-.22,0-.44,0-.64,0h-.21l-.46,0h-.22l-.24,0h0a1.23,1.23,0,0,0-.26,0h0a1.17,1.17,0,0,0-.26,0h0c-.36-.05-.71-.09-1.1-.16h0l-.3,0h0l-.3-.06-.28,0h0l-.31,0h0c-.32-.09-.63-.13-.94-.21h0l-.68-.17-.34-.08h0c-.22,0-.45-.09-.66-.15h0l-.36-.08-.35-.1h0l-.35-.08-.36-.1h0l-.35-.1h0l-.37-.1c-.27,0-.48-.14-.74-.19h0l-.36-.11-.38-.1h0l-.37-.12c-.26-.06-.51-.14-.76-.21h0l-.38-.14h0l-.38-.09h0l-.38-.11-.38-.13h0l-.38-.11h0l-.39-.11-.39-.13-.76-.24-.38-.12-.38-.1-.37-.14-.39-.12h0l-.38-.13-.37-.1-.38-.13h0l-.39-.13-.36-.13-.36-.1-.38-.12-.37-.13-.35-.11-.36-.11-.37-.14h0l-.35-.11h0l-.34-.1h0l-.34-.14h0l-.34-.09h0l-.57-.21h0l-.57-.18h0l-.56-.17h0l-.58-.2h0l-.56-.18h0l-.57-.19h0l-.56-.18h0l-.57-.19h0l-.57-.18-.58-.2h0l-.57-.18-.57-.18-.58-.18h0l-.58-.17h0l-.57-.19-.58-.18h0l-.55-.17h0l-.58-.18-.58-.16h0l-.57-.18h0l-.59-.16h0l-.56-.18h0l-.59-.15-.57-.17h0l-.58-.17h0l-.58-.15-.58-.16h0l-.58-.17a3.8,3.8,0,0,1-.58-.15h0c-.2,0-.39-.1-.58-.13h0c-.2-.07-.4-.11-.59-.17l-1.16-.27h0a5.45,5.45,0,0,0-.58-.14c-.19,0-.39-.09-.58-.15h0l-.57-.12h0l-.59-.12a5.8,5.8,0,0,0-.6-.13h0c-.39-.09-.78-.18-1.16-.25h0l-1.18-.22h0L365,563h0c-.2,0-.39-.07-.58-.1-.4-.08-.79-.14-1.18-.19h0c-.2,0-.39-.06-.59-.1h0c-.2,0-.38-.05-.59-.07h0a3.64,3.64,0,0,0-.59-.09h0l-1.16-.18h0a3.58,3.58,0,0,1-.58-.05h0c-.41,0-.8-.07-1.2-.12h0c-.39,0-.78,0-1.18-.1h0l-.58,0h0c-1.37-.08-2.76-.14-4.13-.14h-1.21a4.29,4.29,0,0,0-.62,0h0c-.22,0-.4,0-.61,0h-.6c-.2,0-.41,0-.61,0h0l-.6,0h0l-.6.07h0c-.2,0-.41,0-.6,0h0a4.48,4.48,0,0,0-.62.06h0c-.19,0-.38,0-.59,0h0l-.61.06h0a4.25,4.25,0,0,0-.6.07h0l-.58.07h0c-.21,0-.42.06-.61.07h0c-.2,0-.4.08-.6.1h0c-.21,0-.39.07-.6.09h0a3.82,3.82,0,0,1-.59.09l-.6.1h0l-.58.11h0l-.6.11-.6.11h0c-.21,0-.4.07-.59.12h0c-.2,0-.4.06-.59.11h0l-.6.13h0c-.18,0-.38.08-.59.13h0c-.19,0-.39.08-.56.14h0c-.2,0-.4.09-.6.11h0l-.59.16h0a5.09,5.09,0,0,0-.59.14h0l-.59.14c-.2.06-.38.1-.58.14h0c-.2.07-.4.11-.6.16h0l-.58.15-.57.16-.6.17h0l-.59.16h0l-.59.15h0l-.57.19h0l-.58.16-.58.17-.58.16-.58.19-.58.17h0l-.59.18h0l-.58.19-.58.19-.57.18-.58.19-.57.19-.58.19-.56.18-.58.2-.56.19-.58.18-.59.2-.57.2-.57.2-.57.18-.57.2-.57.19-.56.21-.58.19-.57.21-.25.07-.26.11-.27.07-.26.1-.29.08-.26.13-.3.07-.28.11h0l-.3.08-.29.11h0l-.3.12h0l-.3.09h0l-.3.1-.31.11-.3.11h0l-.3.09-.33.1h0l-.31.11-.31.11h0l-.32.11h0l-.31.09h0l-.32.11h0l-.34.09-.3.12h0l-.32.12h0l-.33.1h0l-.31.11-.32.07h0l-.31.12h0l-.33.09-.31.11-.32.09h0l-.32.09-.32.11h0l-.31.08-.32.12-.3.08-.3.11-.31.06h0l-.3.11h0l-.3.08-.31.08-.27.08h0l-.32.09h0l-.26.06-.31.08-.27.08-.27.07-.28.07h0L300,575l-.27.06h0l-.25.05-.26.07-.24.06-.24,0-.25.05-.22,0-.23,0-.21,0a.86.86,0,0,1-.21,0,1.07,1.07,0,0,1-.21,0l-.2,0-.2,0h-.69a.46.46,0,0,0-.2,0,1.25,1.25,0,0,0-.19,0l-.19,0-.21,0a.71.71,0,0,1-.21,0h0l-.23,0-.22,0h0l-.23-.05-.25,0-.22-.06h0l-.25-.06-.25,0-.25-.06h0l-.26-.07-.28-.06-.26-.08h0l-.27-.08h0l-.28-.06-.28-.08-.29-.08-.28-.08h0l-.29-.08h0l-.29-.1h0l-.29-.08-.3-.1h0l-.31-.08-.3-.1h0l-.31-.08-.3-.11-.31-.1-.3-.09-.32-.1-.32-.1-.31-.12h0l-.3-.1-.33-.09-.31-.1-.32-.11-.94-.32-.31-.12h0l-.3-.1h0l-.32-.11-.31-.12-.32-.1-.3-.12-.31-.09h0l-.3-.13-.3-.1h0l-.32-.09-.28-.11h0l-.3-.11h0l-.3-.11h0l-.27-.11h0l-.3-.11h0l-.29-.08h0l-.28-.11h0l-.27-.11h0l-.28-.09h0l-.27-.11h0l-.52-.18h0l-.54-.2h0L277,569.6h0l-.54-.19h0l-.54-.18h0l-.57-.2h0l-.53-.2h0l-.55-.2-.56-.19-.55-.18h0c-.37-.14-.73-.28-1.11-.39l-.57-.21h0l-.55-.17h0l-.55-.2h0l-.57-.19-.57-.19h0l-.59-.18h0l-.57-.19-.57-.19-.58-.17-.57-.18-.58-.18-.59-.17-.57-.18-.59-.18a5.84,5.84,0,0,1-.6-.15h0c-.2,0-.4-.13-.6-.19h0l-.59-.16c-.19,0-.4-.09-.59-.15h0c-.2-.07-.41-.11-.6-.17h0a5.63,5.63,0,0,1-.59-.14c-.21-.07-.41-.11-.61-.16h0c-.21,0-.4-.1-.62-.14l-.59-.16c-.61-.13-1.22-.28-1.84-.39h0a3.45,3.45,0,0,0-.6-.14h0l-.61-.14c-.63-.11-1.25-.24-1.86-.34h0c-.43-.09-.84-.16-1.25-.22h0l-1.27-.2h0c-1-.16-2.1-.29-3.18-.4h0a65,65,0,0,0-7.15-.37h-.19c-1.54,0-3.06,0-4.56.15h0c-.89,0-1.74.12-2.59.22h0c-.22,0-.43.06-.65.07h0c-.42.06-.85.1-1.28.15h0l-.63.09h0l-.63.09h0c-.2,0-.42.06-.62.1h0l-.63.1h0c-.21.06-.41.06-.62.1h0l-.63.12h0c-.21,0-.41.08-.62.1h0c-.2,0-.42.07-.62.13h0l-.61.11h0l-.63.14a3.26,3.26,0,0,0-.6.14h0c-.21,0-.42.09-.61.11h0c-.21.06-.41.11-.62.15h0l-.61.13-.6.16h0c-.21,0-.4.11-.61.14h0c-.19.05-.39.09-.6.16s-.39.1-.58.14h0c-.21.06-.42.1-.61.17h0l-.6.15h0l-.6.16h0c-.19.06-.39.14-.59.19h0l-.58.15-.59.18h0l-.58.18-.6.17h0l-.58.18h0l-.57.18h0l-.58.17h0l-.58.19h0l-.58.19h0l-1.12.37c-.57.19-1.12.39-1.68.56h0l-.57.21h0l-1.67.57h0l-.56.19h0l-.56.2h0c-1.45.53-2.89,1-4.32,1.54l-.54.2h0l-.25.11h0l-.86.3h0l-.58.22h0l-.59.22-.62.19h0l-.29.13h0l-.32.09h0l-.29.12h0l-.32.1-.31.12-.3.11h0l-.34.1h0l-.29.12-.32.1h0l-.33.11h0l-.3.11-.32.11-.31.1-.32.09-.31.1h0l-.32.12-.3.1-.32.1-.31.09-.31.1h0l-.29.11-.32.08-.29.1-.31.08-.3.1-.28.08-.31.1h0l-.28.08-.3.08h0l-.28.08h0l-.29.08-.27.06-.26.08-.27.08h0l-.28.06h0l-.25.07-.25.06h0l-.25,0-.26.06-.22.06h0l-.24,0h0l-.24.05-.22,0h0a.83.83,0,0,1-.22,0,.78.78,0,0,1-.21,0l-.21,0-.2,0-.2,0h0a.47.47,0,0,0-.19,0h-.69l-.19,0-.2,0-.2,0h0l-.22,0-.22,0-.23,0-.22,0-.23-.05-.26,0h0l-.24-.06h0l-.25-.07-.27-.05h0l-.24-.06-.28-.07h0l-.27-.07h0l-.28-.07-.28-.08-.28-.08-.29-.06h0l-.28-.09h0l-.3-.08-.3-.08-.29-.08h0l-.32-.11h0l-.31-.06-.29-.11-.32-.08-.31-.12-.3-.08h0l-.33-.11-.3-.09h0l-.33-.09-.32-.11-.3-.09-.33-.12-.34-.07-.31-.11h0l-.63-.22h0l-.33-.12-.32-.09h0l-.31-.11h0l-.32-.09-.32-.11h0l-.31-.11h0l-.31-.11-.31-.1-.63-.2h0l-.29-.11-.31-.1h0l-.3-.09h0l-.29-.12h0l-.3-.11h0l-.29-.08h0l-.28-.11-.3-.07h0l-.26-.13-.29-.08-.26-.1-.28-.07-.26-.11-.25-.07-.57-.21-.57-.19-.56-.21-.56-.19-.58-.2-.57-.18-.57-.2-.59-.2-.57-.2-.56-.18-.58-.19-.58-.2-.56-.18-.59-.19-.57-.19-.57-.19-.59-.18-.58-.19-.57-.19h0l-.58-.18h0l-.58-.17-.58-.19-.58-.16-.58-.17-.58-.16h0l-.59-.19h0l-.59-.15h0l-.58-.16h0l-.58-.17-.58-.16-.59-.15h0c-.2-.05-.4-.09-.6-.16h0l-.58-.14-.58-.14h0c-.21-.06-.4-.1-.59-.14h0l-.59-.16h0c-.2,0-.39-.08-.59-.11h0c-.19-.06-.39-.09-.59-.14h0l-.6-.13-.59-.13-1.19-.23h0l-.6-.11-.58-.11h0l-1.2-.21h0c-.39-.06-.8-.11-1.19-.18h0l-1.2-.17h0l-.59-.07h0c-.4,0-.81-.1-1.2-.13h0c-.83-.1-1.61-.16-2.42-.23h0c-.6,0-1.2-.07-1.81-.08h0c-.81-.05-1.61-.06-2.44-.06h-1.17a3.89,3.89,0,0,0-.59,0h0a5.62,5.62,0,0,0-.59,0H126c-.18,0-.39,0-.59,0h0l-.59,0h0l-.58,0a4.16,4.16,0,0,1-.6,0h0a5.44,5.44,0,0,1-.58,0h0a3.93,3.93,0,0,1-.6.06h0a5.42,5.42,0,0,1-.58.06h0a3.92,3.92,0,0,1-.59.05h0a4.09,4.09,0,0,1-.58.09h0c-.21,0-.41,0-.59.09a3.64,3.64,0,0,0-.59.09c-.21,0-.39.06-.58.07h0c-.2,0-.39,0-.59.1h0c-.2,0-.4.06-.59.07h0l-.58.12h0c-.2,0-.4.08-.6.1h0l-.57.11h0c-.21,0-.4.07-.59.12h0l-.59.1h0a3.73,3.73,0,0,0-.58.12h0l-.58.13h0c-.2,0-.38.08-.58.13l-.58.12-.59.12c-.19.06-.39.11-.57.15h0a5.27,5.27,0,0,0-.6.14l-.57.13h0c-.2.06-.39.1-.58.14l-.58.17h0l-.59.13h0l-.57.15-.58.17-.57.16-.58.15-.59.17-.57.17-.59.15-.57.18h0l-.58.16-.57.18h0l-.58.16-.57.18h0l-.56.17h0l-.58.18-.58.19h0l-.57.17h0l-.57.18-.57.18h0l-.59.18h0l-.57.2-.57.18h0l-.56.19h0l-.56.18h0l-.57.19h0l-.58.18h0l-.58.2h0l-.56.17h0l-.57.18h0l-.57.21h0l-.33.09h0l-.35.14h0l-1.06.35-.35.11-.37.11-.36.13-.38.12h0l-.37.1-.36.13-.39.13h0l-.38.13-.36.1h0l-.37.13h0l-.4.12-.37.14-.38.1-.39.12-.76.24-.38.13-.38.11h0l-.37.11h0l-.39.13-.38.11-.39.09h0l-.37.14-.75.21-.39.12-.38.1-.36.11-.36.09h0l-.36.1-.36.1-.38.1-.35.1h0l-.36.08h0l-.35.1h0l-.36.08-.32.1h0l-.34,0-.35.08h0l-.32.09h0l-.31.08h0l-.34.08h0l-.31,0h0l-.32.09-.3,0-.31,0h0l-.29.06h0l-.3,0h0l-.28.05h0a1.35,1.35,0,0,0-.28,0h0l-.27,0h0a1.9,1.9,0,0,0-.25,0h0a1.17,1.17,0,0,0-.27,0h0a1.18,1.18,0,0,0-.26,0h0l-.24,0h-.24a.93.93,0,0,0-.23,0h-.84l0,0h-.46l-.18,0h0l-.2,0h0l-.2,0h0v0h-.23a1.27,1.27,0,0,0-.26,0h0l0,0-.21,0h0l-.2-.05H67.5l-.07,0-.17,0h0l0,0-.2,0h-.07l-.23,0h0v0l-.19,0-.06,0c-4.68-1-11-3.43-15.93-5.29C40.42,565.94,30,562,18.74,562a62.31,62.31,0,0,0-6.46.39,99.79,99.79,0,0,0,9.78,11.44,140.58,140.58,0,0,1,14.58,4.92c9.41,3.59,19.13,7.27,29.77,8h.46a1.34,1.34,0,0,0,.35,0H68a3,3,0,0,0,.43,0h.07a5.06,5.06,0,0,0,.55,0h0c.37,0,.76,0,1.13,0h.53a3.14,3.14,0,0,0,.53,0h.54a4.61,4.61,0,0,1,.52,0h0l.53,0h.53a4.73,4.73,0,0,1,.53,0h0c.17,0,.35,0,.53,0h0a3.57,3.57,0,0,0,.54-.06,4.61,4.61,0,0,1,.53,0h0l.52,0h0l.54-.07h0a2.26,2.26,0,0,1,.53-.06h0a3.51,3.51,0,0,0,.53-.07h0l.52-.06.54-.08h0c.17,0,.34,0,.53-.08h0l.53-.07h0a4.71,4.71,0,0,1,.52-.09,3.26,3.26,0,0,1,.53-.09l.54-.1h0l1-.2h0c.19,0,.37-.08.54-.1h0c.18,0,.36-.07.52-.12l.55-.11h0l.52-.1.53-.13h0l.55-.12.52-.11h0c.18-.06.37-.08.54-.15h0l.53-.12h0l.52-.12.55-.15.53-.15.53-.13h0l.54-.13h0l.53-.16h0l.55-.15h0l.51-.16.56-.15.52-.16h0L93,583h0l.53-.16h0l.55-.16h0l.53-.17h0l.55-.17h0l.54-.16.55-.18h0l.53-.16.55-.17h0l.53-.18.55-.16h0l.54-.18h0l.54-.18.55-.17.56-.19h0l.53-.19h0l.56-.17h0l.56-.18h0l.54-.18h0l.55-.18h0l.56-.17h0l.55-.19h0l.34-.12h0l.33-.1h0l.36-.11h0l.34-.13h0l.34-.12h0l.35-.09h0l.35-.13.35-.11h0l.36-.12h0l.35-.1h0l.37-.14.35-.1h0l.36-.14h0l.35-.1h0l.35-.09.37-.14h0l.37-.12h0l.37-.12.35-.11h0l.36-.12h0l.38-.1.35-.12h0l.36-.11.38-.11.35-.12.37-.11.36-.11h0l.37-.09.35-.1.37-.11.37-.12.35-.11.35-.1.37-.11.35-.09.35-.11.37-.09.35-.1.34-.1h0l.35-.08.36-.1h0l.34-.08.33-.11.36-.06.34-.11h0l.33-.06h0l.34-.1.32-.06h0l.35-.11.32-.06h0l.31-.06h0l.33-.09h0l.33,0h0l.31-.08h0l.31-.06h0l.31-.06h0l.31-.06h0l.31,0h0l.3-.05h0l.29,0h0l.3-.05h0l.28,0h0l.3,0h0a1.09,1.09,0,0,0,.26,0h0l.58.21h0l.59.18h0l.6.21h0l.64.2h0l.67.22h0l.66.25h0l.69.19h0l.74.24h0l.73.26h0l.75.23h0l.77.25h0l.79.25h0l.8.24h0l.82.26h0l.83.25h0l.85.27h0l.85.29h0l.87.25h0l.9.26h0l.89.28h0l.91.27h0l.91.27.92.26h0l.93.28h0l.94.27,1,.26h0l1,.28h0l1,.29,1,.25h0c.32.08.63.2,1,.26h0l1,.27h0l1,.26c.33.09.66.19,1,.26h0l1,.28c.65.15,1.33.33,2,.5l1,.24h0c.33.1.66.16,1,.26h0l1,.23h0c.32.09.65.16,1,.23s.66.16,1,.24.63.16,1,.22h0l1,.22c.33.08.67.13,1,.22s.64.15,1,.21l1,.2c.33.07.63.15,1,.2h0c.33.07.63.12,1,.2h0c.33.05.64.12,1,.18l1,.18h0c.3.06.62.09.93.15h0l.91.17h0l1.84.29c.3,0,.6.11.89.14h0c.31,0,.6.09.88.13h0c.3,0,.58.06.89.1h0l.86.11h0a6.94,6.94,0,0,1,.83.11h0c.3,0,.56.06.86.07h0l.81.08c.28,0,.52,0,.8.06h0c.28,0,.53,0,.8.05h0c.26,0,.51,0,.78,0h0l0,0h.57l0,0h.39l0,0H184l0,0H187a2.42,2.42,0,0,1,.46,0h0l.51,0h.47c.17,0,.34,0,.5,0h0l.47,0h0c.17,0,.34,0,.49,0h0l.49-.06h0a2.74,2.74,0,0,0,.48-.06l.48,0c.15,0,.33,0,.48-.06l.48-.09h0l.48,0,.47-.1a4,4,0,0,0,.48-.08c.16,0,.31,0,.47-.06a4.3,4.3,0,0,1,.47-.09,2.66,2.66,0,0,0,.49-.1h0c.15,0,.31-.06.47-.08s.32-.05.47-.09l.49-.11a2.12,2.12,0,0,0,.46-.1c.15,0,.31-.07.47-.1s.32-.08.48-.09.3-.08.47-.12a2.79,2.79,0,0,0,.47-.14h0c.16,0,.3-.06.48-.1a4,4,0,0,0,.46-.13h0a2.22,2.22,0,0,0,.46-.12,3.23,3.23,0,0,0,.47-.12l.5-.12c.15,0,.29-.11.46-.14l.45-.14.5-.12.45-.14.48-.14.47-.16.46-.15.47-.13.47-.16.47-.14.49-.16.45-.15.49-.16.46-.17.47-.16.48-.15.47-.19.47-.15.48-.17.46-.16.49-.18.48-.16.47-.18.48-.18.47-.15.47-.18.48-.19.48-.17L215,580l.49-.19.47-.17.4-.14.41-.15.4-.14.4-.16.4-.14h0l.4-.16.42-.13.39-.14.41-.17.42-.13.4-.16.41-.14.41-.15.41-.14.42-.15.4-.15.42-.14.42-.15.4-.14.42-.13.42-.14.39-.15h0l.42-.13.4-.14.44-.13.38-.12.42-.15h0l.41-.12.4-.12.42-.12h0l.4-.13h0l.4-.14h0l.4-.09.4-.13.4-.11.4-.11.4-.12.39-.08a2.62,2.62,0,0,1,.4-.11h0l.39-.12.38-.08a3.75,3.75,0,0,1,.39-.1l.39-.08a3.2,3.2,0,0,1,.39-.1l.37-.08a3,3,0,0,1,.39-.08c.13,0,.24,0,.36-.08s.25-.06.38-.08.25,0,.35-.06a1.51,1.51,0,0,0,.38-.08,3.58,3.58,0,0,0,.37-.06l.35,0,.37-.06.36-.06.34,0a1.42,1.42,0,0,0,.36,0,1.76,1.76,0,0,1,.34,0c.11,0,.23,0,.34,0l.34,0h0a1.88,1.88,0,0,0,.33,0h0l.32,0h2l.33,0h0a1.72,1.72,0,0,0,.32,0h0l.35,0h0c.11,0,.22,0,.34,0h0a1.75,1.75,0,0,1,.33,0h0a1.5,1.5,0,0,0,.37,0h0l.33,0h0l.36.06h0l.36.06h0l.35,0h0l.38.06h0a1.63,1.63,0,0,0,.37.08h0c.11,0,.24,0,.35.06h0c.14,0,.26.07.38.08h0c.13,0,.26.05.37.08h0a2.7,2.7,0,0,1,.39.08h0l.38.08h0l.38.1h0l.38.08a2.79,2.79,0,0,1,.39.1h0a3,3,0,0,0,.39.08l.39.12h0l.41.11h0l.39.08.39.12.4.11h0l.39.11.41.13h0l.39.09h0l.41.14h0l.41.13h0l.42.12.39.12h0l.4.12h0l.42.15.41.12.42.13h0l.41.14.4.13h0l.41.15.41.14.43.13.4.14.41.15.41.14.41.15.42.15.42.14.39.15.42.14.42.16.41.13.41.17.4.14.39.13.42.16h0l.39.14.41.16.4.14.4.15.4.14c10.28,3.77,20,7.35,30.45,7.35h1.46l.05,0H298l0,0h.39l.05,0H299l.05,0h0c.26,0,.52,0,.77,0h0c.27,0,.54,0,.8-.05h0c.26,0,.54,0,.79-.06l.84-.08h0c.27,0,.56,0,.83-.07h0a8.24,8.24,0,0,1,.85-.11h0l.85-.11h0c.31,0,.59-.08.89-.1h0c.28,0,.59-.11.89-.13h0c.28,0,.59-.1.89-.14l.89-.13h0l.94-.16h0l.92-.17h0c.31-.06.63-.09.94-.15h0l.94-.18c.32-.06.63-.13.95-.18h0c.33-.08.64-.13,1-.2h0c.32-.05.63-.13,1-.2l1-.2,1-.21c.32-.09.65-.14,1-.22s.65-.14,1-.22h0c.35-.06.66-.16,1-.22s.67-.15,1-.24.65-.14,1-.23l1-.23c.31-.1.65-.16,1-.26s.66-.17,1-.24l1-.25h0c.33-.1.67-.18,1-.25s.65-.19,1-.28.67-.17,1-.26l1-.26,1-.27,1-.26,1-.25,1-.29.95-.28.95-.26.95-.27.93-.28.93-.26.92-.27.9-.27.9-.28.89-.26.85-.25.87-.29.84-.27.84-.25.82-.26L347,576l.8-.25.77-.25.75-.23.73-.26.72-.24.71-.19.65-.25.68-.22.64-.2.62-.21.59-.18.56-.21.29,0,.28,0,.29,0,.29.05.3,0,.3.05.29,0,.32.06.3.06.33.06.3.08.32,0,.34.09.32.06.33.06h0l.33.11.33.06.33.1.34.06.34.11.35.06h0l.34.11h0l.34.08h0l.36.1.34.08h0l.35.1.36.1h0l.35.09.34.11h0l.36.09h0l.37.11h0l.35.1h0l.35.11h0l.39.12h0l.35.11h0l.36.1h0l.36.09h0l1.81.56h0l.36.12h0c.73.22,1.47.45,2.19.71h0q1.44.43,2.85.9h0l2.42.8,3.3,1.07h0l1.09.38h0l.55.17h0c.36.13.73.24,1.1.36h0l.54.16h0l.53.18.56.17h0l.53.16h0l.55.18h0l.54.16h0l1.06.34h0l.56.16h0l.53.16h0l.55.14h0l.52.16.55.15.53.16h0l.53.15.55.16.53.13.54.13.54.15c.17.06.35.09.53.15l.53.12h0l.53.12h0c.17.07.35.09.53.15l.54.11.53.12c.17,0,.35.08.53.13l.53.1h0l.53.11c.16.05.35.08.53.12h0l1.59.3h0l.53.1h0a3,3,0,0,1,.52.09h0a4.18,4.18,0,0,1,.53.09h0c.55.07,1.07.17,1.6.23h0c.89.12,1.78.21,2.64.31h0a4.52,4.52,0,0,1,.53,0h0c.35.05.7.09,1,.11h0l1.07.05h0c.18,0,.36,0,.53,0h0a4.52,4.52,0,0,1,.52,0h.53a3.26,3.26,0,0,0,.53,0H412Z"/><path d="M252.24,339.86l-69-38-.57.31c.12,26.21,1.16,51.25,3,74.32Z"/><path d="M197.6,385.16l61.62,33.93c2.88-21.29,5-45.37,6.26-71.3Z"/><path d="M197.13,294.27l68.95,38h0c.37-11.38.56-23.06.56-35,0-14-.26-27.62-.76-40.85Z"/><path d="M197.3,203l67.86,37.37c-1.4-26-3.73-50-6.79-71Z"/><path d="M183.09,286.55l69.15-38.08-66.08-36.39c-1.95,23-3.14,48-3.4,74.28Z"/><path d="M200.9,473.84c6.76,23.78,15,37.71,23.79,37.71,12.06,0,22.94-26,30.6-67.65Z"/><path d="M188,192.72l64-35.26-53.18-29.28C194.49,145.73,190.78,167.67,188,192.72Z"/><path d="M253.88,143.3C246.33,106,236,83,224.69,83c-8.12,0-15.69,11.76-22.11,32.1Z"/><path d="M187.34,395.2c2.53,25.07,6,47.25,10.17,65.35l54.26-29.87Z"/><rect x="101.19" y="-39.69" width="23.21" height="161.4" transform="translate(71.78 153.8) rotate(-90)"/><path d="M233.11-4.44h11.67a0,0,0,0,1,0,0v90a.87.87,0,0,1-.87.87H234a.87.87,0,0,1-.87-.87v-90A0,0,0,0,1,233.11-4.44Z" transform="translate(197.93 279.96) rotate(-90)"/><rect x="289.06" y="32.53" width="7.64" height="16.97" transform="translate(251.87 333.89) rotate(-90)"/><rect x="314.23" y="22.36" width="11.58" height="37.31" transform="translate(279.01 361.03) rotate(-90)"/><path d="M338.68,37.81v6.41c0,13,15.41,23.49,34.42,23.49H415c19,0,34.42-10.52,34.42-23.49v-.09h-78V37.89h78v-.08c0-13-15.41-23.5-34.42-23.5H373.1C354.09,14.31,338.68,24.83,338.68,37.81Z"/><path d="M0,41H0c0,7.77,9.23,14.08,20.62,14.08H35.5V26.94H20.62C9.23,26.94,0,33.24,0,41Zm27.75-7.93V48.94H19.37C13,48.94,7.75,45.39,7.75,41s5.2-7.93,11.62-7.93Z"/><path class="cls-2" d="M93.83,5.22c-16.3,6.39-32.11,20-32.36,35.08C61.2,55.93,77.68,70.37,94.91,77,138.66,93.7,170.06,53.22,243.2,54.13,311.58,55,335.87,91,383,76.81,401,71.41,421.4,59,424.5,44.13h-5.31V37.89h5.57C422.89,23.64,404.9,11.3,388.26,5.6c-46-15.74-73.91,21.83-145,22.25C169.39,28.28,137.32-11.82,93.83,5.22Z"/></g></g></svg>