<svg xmlns="http://www.w3.org/2000/svg" viewBox="0 0 449.38 617.28"><defs><style>.cls-1{fill-rule:evenodd;}</style></defs><g id="Layer_2" data-name="Layer 2"><g id="Layer_1-2" data-name="Layer 1"><path class="cls-1" d="M266.67,100h-84V517.29h19.87V497.41H246.8v19.88h19.87V129.8M246.8,491.63H202.59V464.71H246.8v26.92Zm0-32.72H202.59V432H246.8v26.89Zm0-32.69H202.59V399.3H246.8v26.92Zm0-32.71H202.59V366.6H246.8v26.91Zm0-32.71H202.59V333.9H246.8v26.9Zm0-32.69H202.59V301.19H246.8v26.92Zm0-32.71H202.59V268.48H246.8V295.4Zm0-32.71H202.59V235.77H246.8v26.92Zm0-32.71H202.59v-26.9H246.8V230Zm0-32.7H202.59V170.37H246.8v26.91Zm0-32.71H202.59V129.8H246.8v34.77Z"/><path class="cls-1" d="M299.32,0C267,0,238.7,8.26,223.3,20.57,207.9,8.26,179.63,0,147.28,0c-23.77,0-45.34,4.46-61.23,11.72H68.88c-12.27,0-22.3,7.18-22.3,16v28c0,8.79,10,16,22.3,16h16C100.83,79.27,122.9,84,147.28,84c32.35,0,60.62-8.25,76-20.57C238.7,75.7,267,84,299.32,84c24.4,0,46.47-4.68,62.46-12.27h18.34c12.28,0,22.33-7.19,22.33-16v-28c0-8.8-10.05-16-22.33-16H360.57C344.68,4.46,323.1,0,299.32,0ZM64.87,26.28h5.6c1.86,0,3.36,1.07,3.36,2.4v26c0,1.31-1.5,2.43-3.36,2.43h-5.6c-1.87,0-3.38-1.12-3.38-2.43v-26c0-1.33,1.51-2.4,3.38-2.4Zm231.88-4.35c20.67,0,37.37,9,37.37,20s-16.7,20.08-37.37,20.08-37.33-9-37.33-20.08,16.72-20,37.33-20Zm85.94,4.35h5.62c1.86,0,3.36,1.07,3.36,2.4v26c0,1.31-1.5,2.43-3.36,2.43h-5.62c-1.86,0-3.34-1.12-3.34-2.43v-26c0-1.33,1.48-2.4,3.34-2.4ZM152,21.93c20.62,0,37.35,9,37.35,20S172.58,62.06,152,62.06,114.6,53.07,114.6,42s16.71-20,37.36-20ZM11.49,26.28H24.36c6.31,0,11.46,3.7,11.46,8.21v14.4c0,4.51-5.19,8.25-11.46,8.25H11.49C5.2,57.14,0,53.43,0,48.89V34.49C0,30,5.17,26.28,11.49,26.28Zm413.55,0h12.88c6.33,0,11.46,3.7,11.46,8.21v14.4c0,4.54-5.17,8.25-11.46,8.25H425c-6.31,0-11.48-3.71-11.48-8.25V34.49C413.56,30,418.73,26.28,425,26.28Z"/><path class="cls-1" d="M69,558.59a3.38,3.38,0,0,0-.55,0l.55,0Zm0,29.29a5.06,5.06,0,0,1-.55,0l.55,0Zm346.19-29.42h-.06l-.12,0H415l-.29,0h-.12l-.05,0h-.09l-.26,0h-.35l-.17,0H413l-.35,0h-2.31c-.17,0-.34,0-.53,0h-.52l-.53,0h0l-1.07-.08h0l-1-.07h0l-.53-.06h0c-.86-.09-1.75-.18-2.64-.29h0l-1.6-.23h0a4.15,4.15,0,0,0-.53-.1h0l-.52-.1h0c-.18,0-.36-.05-.53-.09h0c-.53-.08-1.05-.2-1.59-.29h0l-.53-.12-.53-.11h0l-.53-.11-.53-.12-.53-.13-.54-.12-.53-.11h0l-.53-.14h0l-.53-.15c-.18,0-.36-.07-.53-.12l-.54-.14-.54-.15-.53-.15-.55-.13-.53-.15h0l-.53-.16-.55-.14-.52-.16h0l-.55-.17h0l-.53-.16h0l-.56-.16h0l-1.06-.32h0l-.54-.15h0l-.55-.18h0l-.53-.17h0l-.56-.17-.53-.16h0l-.54-.17h0c-.37-.15-.74-.26-1.1-.38h0l-.55-.16h0l-1.09-.36h0c-1.08-.36-2.19-.74-3.3-1.09l-2.42-.79h0l-2.85-1h0c-.72-.21-1.46-.46-2.19-.67h0l-.36-.11h0l-1.81-.57h0l-.36-.12h0l-.36-.1h0l-.35-.09h0l-.39-.13h0l-.35-.1h0l-.35-.1h0l-.37-.1h0l-.36-.11h0l-.34-.09-.35-.1h0l-.36-.1-.35-.1h0l-.34-.09-.36-.08h0l-.34-.11h0l-.34-.07h0l-.35-.1-.34-.07-.34-.09-.33-.07-.33-.1-.33-.06h0l-.33-.07-.32-.08-.34-.07-.32-.07-.3,0-.33-.07-.3-.06-.32,0-.29-.05-.3-.07-.3-.05-.29,0-.29,0a1.35,1.35,0,0,1-.28,0l-.29,0-.56.17-.59.2-.62.22-.64.21-.68.22-.65.21-.71.24-.72.23-.73.22-.75.25-.77.24-.8.26-.79.25-.82.25-.84.26-.84.28-.87.24-.85.28-.89.27-.9.27-.9.26-.92.27-.93.28-.93.26-.95.3-.95.25-.95.27-1,.27-1,.29-1,.25c-.32.09-.63.19-1,.27s-.65.16-1,.26l-1,.27-1,.25-1,.27h0c-.33.07-.66.15-1,.24s-.68.17-1,.26-.67.15-1,.23l-1,.25-1,.23c-.33.07-.68.16-1,.25s-.64.14-1,.19h0c-.33.11-.65.17-1,.25s-.65.16-1,.21-.66.15-1,.19-.65.14-1,.24-.64.11-1,.18h0l-1,.18h0l-.95.19c-.31.07-.63.11-.94.17h0c-.31.05-.63.1-.94.18h0l-.92.17h0c-.31,0-.61.08-.94.13h0c-.29.06-.58.09-.89.14s-.61.1-.89.13h0c-.3.05-.61.1-.89.13h0a5.29,5.29,0,0,1-.89.12h0l-.85.11h0l-.85.09h0c-.27,0-.56,0-.83.1h0c-.29,0-.56,0-.84.07l-.79.05v0l-.8.06h0a6.69,6.69,0,0,0-.77,0h-.52l0,0h-.69l-.07,0h-.66l0,0h-1c-10.48,0-20.17-3.55-30.45-7.32l-.4-.15-.4-.16-.4-.14-.41-.13-.39-.14h0l-.42-.16-.39-.16-.4-.14L262,550l-.41-.13-.42-.16-.42-.14-.39-.15-.42-.16-.42-.13-.41-.14-.41-.15-.41-.14-.4-.15-.43-.14-.41-.15-.41-.13h0l-.4-.13-.41-.15h0l-.42-.13-.41-.12-.42-.14h0l-.4-.12h0l-.39-.12-.42-.14h0L253,547h0l-.41-.12h0l-.39-.13h0l-.41-.11-.39-.1h0l-.4-.12-.39-.11-.39-.1h0l-.41-.11h0l-.39-.08a2.5,2.5,0,0,0-.39-.11h0a2.79,2.79,0,0,1-.39-.1l-.38-.09h0l-.38-.08h0l-.38-.09h0c-.13,0-.26-.06-.39-.07h0a1.43,1.43,0,0,0-.37-.08h0a2.14,2.14,0,0,0-.38-.07h0l-.35-.08h0l-.37-.07h0a2.22,2.22,0,0,0-.38,0h0a3.59,3.59,0,0,0-.35-.08h0l-.36,0h0l-.36-.06h0l-.33,0h0l-.37,0h0a3.23,3.23,0,0,0-.33-.06h0c-.12,0-.23,0-.34,0h0a2,2,0,0,0-.35,0h0a1.16,1.16,0,0,0-.32,0h0a1.94,1.94,0,0,0-.33,0h-.34l-.31,0h-.65l-.32,0h-.33a1.77,1.77,0,0,0-.32,0h0a1.19,1.19,0,0,0-.33,0h0a1.88,1.88,0,0,0-.34,0l-.34,0a3,3,0,0,0-.34.06l-.36,0-.34,0-.36.06-.37,0c-.11,0-.22,0-.35.08a2.6,2.6,0,0,0-.37,0l-.38.07-.35.08a2.79,2.79,0,0,0-.38.07,1.68,1.68,0,0,0-.36.08c-.13,0-.25,0-.39.07l-.37.09c-.13,0-.25,0-.39.08l-.39.09a2.22,2.22,0,0,1-.39.1l-.38.11-.39.08h0l-.4.11-.39.1-.4.11-.4.12-.4.1-.4.11-.4.13h0l-.4.12h0l-.4.12h0l-.42.14-.4.12-.41.12h0l-.42.14-.38.12-.44.13-.4.15-.42.13h0l-.39.13-.42.15-.42.14-.4.15-.42.14-.42.15-.4.14-.42.13-.41.16-.41.15-.41.14-.4.16-.42.13-.41.15-.39.14-.42.16-.4.16h0l-.4.14-.4.13-.4.14-.41.16-.4.15-.47.17-.49.18-.48.17-.48.18-.48.18-.47.16-.47.18-.48.17-.47.17-.48.16-.49.18-.46.16-.48.18-.47.16-.47.16-.48.18-.47.16-.46.16-.49.16-.45.14-.49.17-.47.15-.47.14-.47.16-.46.12-.47.15-.48.15-.45.15-.5.15-.45.11c-.17.06-.31.08-.46.14l-.5.14a3.25,3.25,0,0,0-.47.12l-.46.12h0a1.9,1.9,0,0,1-.46.1l-.48.15h0l-.47.09-.47.11c-.16,0-.31.1-.48.13a3.55,3.55,0,0,0-.47.09l-.46.11-.49.08-.47.11-.47.09h0c-.16,0-.32.07-.49.09l-.47.08a3.94,3.94,0,0,0-.47.1l-.48,0c-.16,0-.3.06-.47.07a4.37,4.37,0,0,0-.48.08h0l-.48,0-.48,0a2.67,2.67,0,0,1-.48.08l-.48,0h0l-.49.05h0a3.74,3.74,0,0,1-.49,0h0a3.43,3.43,0,0,1-.47,0h0c-.16,0-.33,0-.5,0l-.47,0h-.51l-.46,0h0a3.93,3.93,0,0,0-.49,0h-2l0,0h-.66l-.19,0h-.56l-.05,0h-.51a6.87,6.87,0,0,0-.78,0h0l-.8-.06v0l-.8-.05c-.27,0-.56-.06-.81-.07h0c-.3-.05-.56-.06-.86-.1h0c-.26,0-.54,0-.83-.09h0l-.86-.11h0a5.29,5.29,0,0,1-.89-.12h0c-.28,0-.57-.08-.88-.13h0c-.29,0-.59-.07-.89-.13-.6-.08-1.21-.19-1.84-.27h0l-.91-.17h0c-.31-.08-.63-.13-.93-.18h0c-.32-.06-.64-.1-1-.17l-1-.19h0l-1-.18h0c-.33-.07-.63-.13-1-.18s-.63-.16-1-.24a9.79,9.79,0,0,1-1-.19c-.33,0-.67-.14-1-.21s-.64-.14-1-.25h0c-.34-.05-.66-.12-1-.19s-.67-.18-1-.25l-1-.23h0l-1-.25h0c-.32-.08-.65-.14-1-.23h0l-1-.26c-.65-.17-1.33-.33-2-.51l-1-.25h0c-.32-.1-.65-.19-1-.27l-1-.26h0l-1-.27h0l-1-.25h0l-1-.29-1-.27h0l-1-.27h0l-1-.25-.94-.3h0l-.93-.26h0l-.92-.28-.91-.27h0l-.91-.26h0l-.89-.27h0l-.9-.27h0l-.87-.28h0l-.85-.24h0l-.85-.28h0l-.83-.26h0l-.82-.25h0l-.8-.25h0l-.79-.26h0l-.77-.24h0l-.75-.25h0l-.73-.22h0l-.74-.23h0l-.69-.24h0l-.66-.21h0l-.67-.22h0l-.64-.21h0l-.6-.22h0l-.59-.2h0l-.58-.17h0l-.26,0h0a1.54,1.54,0,0,1-.3,0h0l-.28,0h0l-.3,0h0l-.29.05h0l-.3.07h0l-.31.05h0l-.31,0h0l-.31.06h0l-.31.07h0l-.31,0h0l-.33.07h0l-.33.07h0l-.31.08h0l-.32.07-.35.06h0l-.32.1-.34.07h0l-.33.09h0l-.34.07-.36.1-.33.07-.34.11h0l-.36.08-.35.09h0l-.34.1-.35.1-.37.1-.35.09-.35.11-.37.1-.35.1-.35.1-.37.13-.37.09-.35.1-.37.12h0l-.36.11-.37.11-.35.12-.38.1-.36.13h0l-.35.11-.38.11h0l-.36.1h0l-.35.13-.37.12h0l-.37.1h0l-.37.11-.35.12h0l-.35.12h0l-.36.11h0l-.35.14-.37.1h0l-.35.11h0l-.36.12h0l-.35.13-.35.09h0l-.35.12h0l-.34.13h0l-.34.1h0l-.36.12h0l-.33.11h0l-.34.12h0l-.55.18h0l-.56.17h0l-.55.18h0l-.54.2h0l-.56.18h0l-.56.18h0l-.53.19h0l-.56.17-.55.16-.54.19h0l-.54.19h0l-.55.17-.53.16h0l-.55.17-.53.17h0l-.55.18-.54.15h0l-.55.18h0l-.53.14h0l-.55.16h0l-.53.16h0l-.55.17h0l-.52.16-.56.14-.51.16h0l-.55.15h0l-.53.13h0l-.54.15h0l-.53.15-.53.14-.55.12-.52.15h0l-.53.14h0l-.54.11h0l-.52.12c-.19,0-.36.1-.55.13h0l-.53.12-.52.11h0l-.55.11-.52.12h0l-.54.09h0c-.34.09-.69.14-1,.2h0l-.54.09-.53.1a4.76,4.76,0,0,0-.52.1h0a3,3,0,0,0-.53.07h0l-.53.08h0l-.54.08a4.88,4.88,0,0,0-.52.06h0l-.53,0v0l-.53.05h0l-.54.06h0l-.52.05h0l-.53.06-.54,0h0l-.53,0h0l-.53,0h0l-.53,0h0l-.53,0h-.52c-.2,0-.37,0-.54,0H69a3.38,3.38,0,0,0-.55,0h-.6l-.06,0h-.36l0,0h-.17l-.35,0-.17,0h-.06l-.23,0h0c-10.64-.72-20.36-4.42-29.77-8-5.72-2.17-14.33-5.45-17.9-5.45-2.76,0-8.37,1-15.31,2.59A59,59,0,0,1,0,536a105,105,0,0,1,18.74-2.34c11.27,0,21.68,3.95,31.74,7.76,4.92,1.88,11.25,4.27,15.93,5.29l.06,0,.19,0h0l.23.06h0l0,0,.2,0h0l0,0h0l.17.05h.14l.2,0h0l.21,0h0a2.06,2.06,0,0,0,.26,0h0a.93.93,0,0,0,.23,0h0l.2,0h.3l.18,0h0a.42.42,0,0,0,.19,0h.47a.52.52,0,0,0,.17,0h0a.82.82,0,0,0,.22,0h.44a.61.61,0,0,0,.24,0h0a1,1,0,0,0,.24,0h.26l.27,0h0a.77.77,0,0,0,.25,0h0l.27,0h0a2.66,2.66,0,0,0,.28,0h0l.28-.06h0l.3-.05h0l.29,0h0l.31,0,.3-.09.32,0h0l.31-.07h0l.34-.07h0l.31-.08h0l.32-.08h0l.35,0,.34-.11h0l.32-.08.36-.07h0l.35-.1h0l.36-.1h0l.35-.09.38-.09.36-.1.36-.09h0l.36-.12.36-.1.38-.11.39-.1.75-.22.37-.12h0l.39-.12.38-.1.39-.13h0l.37-.1h0l.38-.12.38-.12.76-.23.39-.14.38-.12.37-.11.4-.12h0l.37-.12h0l.36-.12.38-.13h0l.39-.11.36-.13.37-.13h0l.38-.12.36-.1.37-.14.35-.12,1.06-.33h0l.35-.12h0l.33-.13h0l.57-.17h0l.57-.18h0l.56-.21h0l.58-.17h0l.58-.2h0l.57-.17h0l.56-.18h0l.56-.19h0l.57-.18.57-.19h0l.59-.2h0l.57-.17.57-.19h0l.57-.18h0l.58-.17.58-.18h0l.56-.17h0l.57-.16.58-.17h0l.57-.2.58-.16h0l.57-.16.59-.18.57-.16.59-.16.58-.16.57-.16.58-.13.57-.17h0l.59-.15h0l.58-.14a5.45,5.45,0,0,1,.58-.14h0l.57-.15.6-.13h0l.57-.14c.2,0,.4-.09.59-.15a4.52,4.52,0,0,0,.58-.13l.58-.11h0c.19,0,.39-.07.58-.13h0c.19,0,.38-.08.58-.1h0a3.12,3.12,0,0,1,.59-.13h0c.19,0,.38-.08.59-.1h0a5.22,5.22,0,0,1,.57-.11h0l.6-.12h0l.58-.08h0a2.9,2.9,0,0,1,.59-.09h0c.2,0,.39-.08.59-.11h0l.58-.08c.18,0,.39,0,.59-.08s.38-.06.59-.08h0l.58-.07h0a3.93,3.93,0,0,1,.59-.06h0l.58-.08h0l.6,0h0l.58-.06h0l.6,0,.58,0h0a3.81,3.81,0,0,0,.59,0h0l.59,0h0l.6,0h0l.59,0h0l.59,0H129c.83,0,1.63,0,2.44,0h0c.61,0,1.21.06,1.81.12h0c.81,0,1.59.12,2.42.17h0c.39.08.8.11,1.2.17h0l.59.06h0l1.2.18h0c.39.06.8.1,1.19.17h0c.39.09.79.13,1.2.21h0l.58.11a3.06,3.06,0,0,1,.6.13h0a10,10,0,0,1,1.19.23c.2,0,.39.07.59.12l.6.12h0c.2,0,.4.09.59.13h0l.59.15h0c.19,0,.39.09.59.12h0a5.09,5.09,0,0,0,.59.14h0a4.43,4.43,0,0,0,.58.14c.21,0,.38.11.58.17h0a4.39,4.39,0,0,1,.6.15h0l.59.16a4.91,4.91,0,0,1,.58.17,3.75,3.75,0,0,1,.58.13h0l.58.16h0l.59.18h0l.59.16h0l.58.17.58.17.58.18.58.17.58.19h0l.58.18h0l.57.17.58.2.59.17.57.2.57.18.59.19.56.18.58.2.58.2.56.2.57.18.59.19.57.19.57.2.58.19.56.21.56.19.57.19.57.2.25.09.26.08.28.1.26.1.29.09.26.09h0l.3.1.28.1h0l.29.1h0l.3.11h0l.29.09h0l.3.12h0l.31.07.29.12h0l.63.21.31.1.31.1h0l.31.11h0l.32.11.32.1h0l.31.11h0l.32.1.33.1h0l.63.21h0l.31.11.34.08.33.12.3.11.32.09.33.1h0l.3.1.33.1h0l.3.09.31.09.32.09.29.08.31.11h0l.32.07h0l.29.1.3.09.3.07h0l.28.08h0l.29.09.28.06.28.08.28.09h0l.27,0h0l.28.07.24.06h0l.27.06.25.06h0l.24,0h0l.26.07.23.06.22,0,.23.06.22,0,.22,0h0l.2,0h.2a1.25,1.25,0,0,0,.19,0,.55.55,0,0,1,.18,0,.52.52,0,0,0,.17,0h.34l.19,0h.2l.2,0h.21a.78.78,0,0,1,.21,0,1.7,1.7,0,0,1,.22,0h0l.22-.05.24,0h0l.24-.06h0l.22-.05.26,0,.25-.07h0l.25-.06.25-.06h0l.28-.07h0l.27-.05.26-.07.27-.09.29-.08h0l.28-.07h0l.3-.09.28-.09h0L191,546l.28-.1.3-.09.31-.09.29-.1.32-.09.29-.09h0l.31-.11.31-.1.32-.11.3-.09.32-.1h0l.31-.1.32-.12.31-.11.32-.09.3-.12h0l.33-.11h0l.32-.09.29-.12h0l.34-.1h0l.3-.12.31-.1.32-.11h0l.29-.11h0l.32-.1h0l.29-.11h0l.62-.21.59-.22h0l.58-.22h0l.86-.3h0l.25-.09h0l.54-.21,4.32-1.55h0l.56-.18h0l.56-.2h0c.55-.2,1.11-.39,1.67-.56h0l.57-.2h0l1.68-.58c.37-.13.75-.25,1.12-.39h0l.58-.17h0l.58-.17h0l.58-.2h0l.57-.19h0l.58-.15h0l.6-.18.58-.18h0l.59-.17.58-.17h0c.2-.06.4-.12.59-.16h0a5,5,0,0,1,.6-.17h0a5.25,5.25,0,0,1,.6-.16h0l.61-.16h0l.58-.16.6-.16h0l.61-.13h0l.6-.16c.21,0,.41-.1.61-.15h0c.21,0,.41-.08.62-.13h0l.61-.13h0l.6-.14.63-.13h0a4.38,4.38,0,0,0,.61-.12h0c.2,0,.42-.06.62-.11h0l.62-.12h0l.63-.1h0l.62-.12h0l.63-.1h0l.62-.08h0c.22,0,.43,0,.63-.1h0c.23,0,.44,0,.63-.09h0c.43-.06.86-.12,1.28-.15h0l.65-.06h0c.85-.1,1.7-.18,2.59-.24h0c1.5-.11,3-.17,4.56-.17h.19a64.91,64.91,0,0,1,7.15.41h0c1.08.09,2.14.24,3.18.4h0l1.27.18h0c.41.07.82.16,1.25.22h0l1.86.35.61.13h0l.6.14h0c.62.13,1.23.26,1.84.41l.59.16.62.13h0l.61.16.59.16h0c.19.05.4.12.6.16h0c.19,0,.4.1.59.16a4,4,0,0,1,.59.17h0c.2,0,.4.1.6.16h0a5,5,0,0,1,.6.17l.59.17.57.18.59.18.58.15c.19.07.39.14.57.19l.58.2.57.17.57.17h0l.59.21h0l.57.18.57.2h0l.55.19h0l.55.19h0l.57.2,1.11.36h0l.55.2.56.2.55.18h0l.53.2h0l.57.2h0l.54.19h0l.54.2h0l1.07.37h0l.54.21h0l.52.18h0l.27.1h0l.28.11h0l.27.09h0l.28.11h0l.29.1h0l.3.09h0l.27.11h0l.3.11h0l.3.1h0l.28.12.32.09h0l.3.12.3.11h0l.31.1.3.11.32.11.31.1.32.12h0l.3.1h0l.31.12c.32.09.63.2.94.32l.32.09.31.11.33.12.3.1h0l.31.1.32.09.32.11.3.1.31.11.3.09.31.09h0l.3.1.31.09h0l.3.09.29.1h0l.29.06h0l.29.09h0l.28.09.29.07.28.08.28.09h0l.27.07h0l.26.05.28.07.26.06h0l.25.06.25.07.25,0h0l.22.05.25.06.23,0h0l.22.05.23,0h0a.86.86,0,0,1,.21,0h.21a1.8,1.8,0,0,1,.19,0h.19l.2,0h.35a.47.47,0,0,0,.16,0,.55.55,0,0,1,.18,0l.2,0h.2a.43.43,0,0,1,.21,0l.21,0,.21,0,.23-.06.22,0,.25-.06.24-.07.24,0,.26-.06.25-.06h0l.27-.06.26-.07h0l.28,0,.27-.09.27-.08.31-.06.26-.09h0l.32-.08h0l.27-.07.31-.09.3-.1h0l.3-.07h0l.31-.11.3-.08.3-.09.32-.09.31-.09h0l.32-.1.32-.1h0l.32-.1L306,545l.33-.11h0l.31-.12h0l.32-.08.31-.11h0l.33-.09h0l.32-.12h0l.3-.1.34-.1h0l.32-.11h0l.31-.1h0l.32-.11h0l.31-.11.31-.1h0l.33-.1.3-.1h0l.3-.11.31-.12.3-.07h0l.3-.12h0l.3-.09h0l.29-.11.3-.1h0l.28-.1.3-.1.26-.09.29-.09.26-.1.27-.1.26-.08L315,542l.57-.2.58-.19.56-.19.57-.21.57-.19.57-.2.57-.19.57-.19.59-.18.58-.2.56-.2.58-.2.56-.18.58-.19.57-.18.58-.2.57-.17.58-.2.58-.17h0l.59-.18h0l.58-.19.58-.17.58-.18.58-.17.58-.17h0l.57-.16h0l.59-.18h0l.59-.16h0a4,4,0,0,1,.6-.13,5.36,5.36,0,0,1,.57-.17l.58-.16h0a4.39,4.39,0,0,1,.6-.15h0l.58-.17a3.63,3.63,0,0,0,.59-.14h0c.19,0,.38-.08.59-.14h0c.19,0,.39-.09.59-.12h0c.2-.06.4-.09.6-.15h0c.17,0,.37-.1.56-.13h0l.59-.12h0l.6-.12h0a5.61,5.61,0,0,1,.59-.13h0a5.18,5.18,0,0,1,.59-.1h0a3.06,3.06,0,0,1,.6-.13l.6-.11h0a3.88,3.88,0,0,1,.58-.09h0a5.79,5.79,0,0,0,.6-.12c.2,0,.4-.07.59-.07h0c.21,0,.39-.08.6-.1h0c.2,0,.4-.06.6-.08h0c.19,0,.4,0,.61-.1h0l.58-.06h0l.6-.09h0a2.49,2.49,0,0,0,.61-.08h0a3.73,3.73,0,0,0,.59,0h0l.62,0h0l.6-.06h0a5.82,5.82,0,0,1,.6,0h0l.6,0h0a4.18,4.18,0,0,1,.61-.05h0l.6,0h0l.61,0h0l.62,0h1.21c1.37,0,2.76,0,4.13.15h0l.58,0h0c.4,0,.79.06,1.18.1h0c.4,0,.79.07,1.2.13h0a4.08,4.08,0,0,1,.58.06h0c.39,0,.78.09,1.16.15h0c.2,0,.41.06.59.08h0l.59.08h0c.2,0,.39.06.59.11h0c.39,0,.78.12,1.18.17l.58.12h0a5.22,5.22,0,0,1,.57.11h0a11.71,11.71,0,0,1,1.18.23h0c.38.07.77.14,1.16.23h0l.6.11a5.61,5.61,0,0,0,.59.13h0l.57.15h0l.58.14.58.13h0c.4.08.79.18,1.16.29.19,0,.39.09.59.14h0l.58.15h0c.19,0,.38.1.58.17l.58.13h0l.58.16.58.16h0l.58.16h0l.57.16.59.18h0l.56.16h0l.59.16h0l.57.2h0l.58.17.58.16h0l.55.17h0l.58.18.57.17h0l.58.18h0l.58.19.57.17.57.2h0l.58.19.57.18h0l.57.19h0l.56.18h0l.57.17h0l.56.2h0l.58.17h0l.56.21h0l.57.18h0l.57.17h0l.34.13h0l.34.12h0l.34.1h0l.35.13h0l.37.1.36.12.35.14.37.1.38.12.36.13.36.13.39.11h0l.38.13.37.12.38.12h0l.39.12.37.11.38.12.38.14.76.23.39.12.39.12h0l.38.1h0l.38.13.38.1h0l.38.12h0l.38.12h0l.76.22.37.1h0l.38.11.36.1h0c.26.08.47.15.74.21l.37.1h0l.35.09h0l.36.09.35.1h0l.35.1.36.07h0c.21.05.44.12.66.19h0l.34,0a3.35,3.35,0,0,0,.68.16h0c.31.07.62.14.94.18h0l.31.09h0l.28,0,.3,0h0l.3.05h0c.39.07.74.12,1.1.16h0l.26,0h.26a.86.86,0,0,0,.24,0h0a.61.61,0,0,0,.22,0h.46a.75.75,0,0,0,.21,0l.64,0h0a.51.51,0,0,0,.22,0h0c.22,0,.47,0,.72-.07h0l.76-.1h0l.25-.06h0c4.73-.84,11.7-3.49,17-5.52a150.82,150.82,0,0,1,18.26-6.06,62.28,62.28,0,0,1-4.84,15.23c-9.28,3.52-18.87,7.11-29.35,7.83ZM375.09,609l-.37-.14h0c-.94-.29-1.89-.62-2.85-.92h0c-.72-.24-1.46-.48-2.19-.69h0l-.36-.13h0l-1.81-.54h0l-.36-.11h0l-.36-.12h0l-.35-.11h0l-.39-.1h0l-.35-.1h0l-.35-.09h0l-.37-.11h0l-.36-.11h0l-.34-.1-.35-.09h0l-.36-.1-.35-.09h0l-.34-.11-.36-.09h0l-.34-.08h0l-.34-.1h0l-.35-.08-.34-.08-.34-.09-.33-.07-.33-.09-.33-.06h0l-.33-.09-.32-.06-.34-.08-.32-.07-.3,0-.33-.08-.3,0-.32,0-.29-.05-.3-.06-.3,0-.29,0-.29,0-.28,0-.29,0-.56.19-.59.2-.62.19-.64.23-.68.21-.65.22-.71.22-.72.24-.73.24-.75.25-.77.24-.8.24-.79.26-.82.26-.84.25-.84.28-.87.24-.85.27-.89.27-.9.28-.9.26-.92.27-.93.26-.93.3-.95.26-.95.27-.95.27-1,.28-1,.25-1,.28c-.32.09-.63.18-1,.26s-.65.18-1,.29-.66.15-1,.23l-1,.27-1,.26h0c-.33.07-.66.16-1,.25s-.68.16-1,.24l-1,.25-1,.24c-.33.08-.66.14-1,.24s-.68.17-1,.23l-1,.22h0c-.33.11-.65.15-1,.23l-1,.22c-.33.06-.66.15-1,.21l-1,.18-1,.21h0c-.33.06-.64.14-1,.18h0c-.32.08-.63.12-.95.2s-.63.12-.94.16h0c-.31.08-.63.14-.94.19h0l-.92.14h0c-.31.07-.61.1-.94.16h0l-.89.15-.89.13h0c-.3,0-.61.07-.89.13h0l-.89.11h0l-.85.1h0c-.29.05-.56.08-.85.11h0l-.83.07h0a8.21,8.21,0,0,1-.84.08l-.79.06h0l-.8.06h0l-.77,0H299l0,0h-1.66l0,0h-1.15c-10.48,0-20.17-3.55-30.45-7.32l-.4-.14-.4-.14-.4-.16-.41-.15-.39-.14h0l-.42-.13-.39-.17-.4-.14-.41-.15-.41-.15-.42-.16-.42-.13-.39-.15-.42-.14-.42-.16-.41-.13-.41-.15-.41-.13-.4-.15-.43-.14-.41-.15-.41-.13h0l-.4-.14-.41-.14h0l-.42-.13-.41-.13-.42-.14h0l-.4-.13h0l-.39-.12-.42-.13h0l-.41-.13h0l-.41-.09h0l-.39-.13h0l-.41-.11-.39-.13h0L251,605l-.39-.12-.39-.1h0l-.41-.12h0l-.39-.09-.39-.1h0a2.74,2.74,0,0,1-.39-.09l-.38-.09h0l-.38-.09h0l-.38-.08h0c-.13,0-.26,0-.39-.09h0l-.37-.07h0a3.79,3.79,0,0,0-.38-.06h0a1.47,1.47,0,0,0-.35-.08h0a2.38,2.38,0,0,0-.37-.06h0a2.16,2.16,0,0,0-.38-.06h0a2,2,0,0,0-.35-.08h0l-.36,0h0a2.09,2.09,0,0,0-.36,0h0l-.33-.06h0l-.37,0h0a1.75,1.75,0,0,0-.33,0h0l-.34,0h0a1.48,1.48,0,0,1-.35,0h-.32a1.94,1.94,0,0,0-.33,0h0l-.34,0h-1.28l-.33,0a1.77,1.77,0,0,0-.32,0h-.33a1.4,1.4,0,0,1-.34,0,2,2,0,0,0-.34,0,1.76,1.76,0,0,0-.34,0l-.36,0-.34.06a2.2,2.2,0,0,0-.36,0l-.37,0a2.85,2.85,0,0,0-.35.08l-.37.06a3,3,0,0,0-.38.06,1.9,1.9,0,0,0-.35.08c-.13,0-.24,0-.38.06l-.36.07c-.13,0-.25.06-.39.09l-.37.08a2.46,2.46,0,0,1-.39.09l-.39.09a2.23,2.23,0,0,1-.39.09l-.38.1-.39.09h0c-.14,0-.27.08-.4.12l-.39.1-.4.12-.4.09-.4.13-.4.11-.4.13h0l-.4.09h0l-.4.13h0l-.42.13-.4.12-.41.13h0l-.42.14-.38.13-.44.13-.4.14-.42.14h0l-.39.13-.42.15-.42.14-.4.15-.42.13-.42.15-.4.13-.42.16-.41.14-.41.15-.41.13-.4.16-.42.15-.41.15-.39.14-.42.17-.4.13h0l-.4.14-.4.15-.4.16-.41.14-.4.14-.47.2-.49.14-.48.19-.48.18-.48.17-.47.16-.47.19-.48.17-.47.17-.48.17-.49.17-.46.16-.48.2-.47.14-.47.16-.48.17-.47.15-.46.17-.49.16-.45.16-.49.15-.47.17-.47.14-.47.13-.46.16-.47.14-.48.15-.45.13-.5.14-.45.13c-.17.06-.31.09-.46.13l-.5.14c-.15,0-.3.08-.47.13s-.29.09-.46.12h0l-.46.12-.48.11h0l-.47.1c-.17.06-.32.09-.47.13l-.48.12-.47.08-.46.11-.49.11-.47.08a4.4,4.4,0,0,1-.47.1h0l-.49.08c-.14,0-.32.06-.47.07l-.47.09-.48.08-.47.07a4.37,4.37,0,0,0-.48.08h0a3.5,3.5,0,0,0-.48.06l-.48.05-.48.06-.48.06h0a3.91,3.91,0,0,0-.49,0h0c-.15,0-.32,0-.49,0h0l-.47.06h0l-.5,0a3.3,3.3,0,0,1-.47,0h-1l-.49,0h-2.07l-.09,0h-1.64l-.08,0h-.11l-.78,0h0l-.8-.06h0c-.28,0-.52,0-.8-.06a6.94,6.94,0,0,1-.81-.08h0l-.86-.07h0c-.26,0-.54-.06-.83-.11h0l-.86-.1h0l-.89-.11h0c-.28-.06-.57-.09-.88-.13h0l-.89-.13-1.84-.31h0l-.91-.14h0c-.31-.05-.63-.11-.93-.19h0c-.32,0-.64-.11-1-.16s-.63-.12-1-.2h0c-.32,0-.62-.12-1-.18h0l-1-.21c-.34,0-.63-.12-1-.18s-.66-.15-1-.21l-1-.22c-.31-.08-.64-.12-1-.23h0l-1-.22c-.34-.06-.67-.16-1-.23s-.66-.16-1-.24h0l-1-.24h0l-1-.25h0c-.35-.08-.67-.14-1-.24-.65-.18-1.33-.34-2-.51-.33-.08-.67-.17-1-.27h0c-.32-.08-.65-.18-1-.23l-1-.29h0l-1-.26h0l-1-.28h0l-1-.25-1-.28h0l-1-.27h0l-1-.27-.94-.26h0l-.93-.3h0l-.92-.26-.91-.27h0l-.91-.26h0l-.89-.28h0l-.9-.27h0l-.87-.27h0l-.85-.24h0l-.85-.28h0l-.83-.25h0l-.82-.26h0l-.8-.26h0l-.79-.24h0l-.77-.24h0l-.75-.25h0l-.73-.24h0l-.74-.24h0l-.69-.22h0l-.66-.22h0l-.67-.21h0l-.64-.23h0l-.6-.19h0l-.59-.2h0l-.58-.19h0l-.26,0h0l-.3,0h0l-.28,0h0l-.3,0h0l-.29,0h0l-.3.06h0l-.31.05h0l-.31,0h0l-.31,0h0l-.31.08h0l-.31,0h0l-.33.07h0l-.33.08h0l-.31.06h0l-.32.09-.35.06h0l-.32.09-.34.07h0l-.33.09h0l-.34.08-.36.08-.33.1-.34.08h0l-.36.09-.35.11h0l-.34.09-.35.1-.37.09-.35.1-.35.11-.37.11-.35.09-.35.1-.37.1-.37.11-.35.12-.37.11h0l-.36.1-.37.12-.35.12-.38.11-.36.09h0l-.35.13-.38.12h0l-.36.09h0l-.35.14-.37.1h0l-.37.12h0l-.37.12-.35.13h0l-.35.1h0l-.36.12h0l-.35.11-.37.12h0l-.35.11h0l-.36.11h0l-.35.12-.35.11h0l-.35.13h0l-.34.11h0l-.34.1h0l-.36.13h0l-.33.11h0l-.34.1h0l-.55.18h0l-.56.2h0l-.55.19h0l-.54.17h0l-.56.2h0l-.56.17h0l-.53.17h0l-.56.18-.55.17-.54.17h0l-.54.18h0l-.55.18-.53.16h0l-.55.19-.53.15h0l-.55.18-.54.16h0l-.55.16h0l-.53.17h0l-.55.16h0l-.53.17h0l-.55.15h0l-.52.17-.56.13-.51.16h0l-.55.15h0l-.53.15h0l-.54.15h0l-.53.13-.53.14-.17,0q-11.34-4.27-21.49-9.26l.13,0h0l.23,0,0,0h0l.2,0h0l0,0h0l.17,0h.07l.07,0,.2,0h0l.21,0h0a1.09,1.09,0,0,0,.26,0h0v0c.08,0,.15,0,.23,0h0l.2,0h0c.07,0,.14,0,.2,0h.23l0,0h.22a.44.44,0,0,0,.19,0h.87a.58.58,0,0,0,.23,0H71l.24,0h0a.74.74,0,0,0,.26,0h0l.27,0h0c.08,0,.16,0,.25,0h0l.27-.05h0a2.66,2.66,0,0,0,.28,0h0l.28,0h0l.3,0h0l.29,0h0l.31-.07.3-.05.32-.07h0l.31-.07h0l.34-.07h0l.31-.08h0l.32-.06h0L76,605l.34-.11h0l.32-.08.36-.08h0l.35-.08h0l.36-.1h0l.35-.09.38-.09.36-.11.36-.09h0l.36-.12.36-.09.38-.12.39-.11.75-.2.37-.1h0l.39-.14.38-.11L83,603h0l.37-.13h0l.38-.09.38-.14.76-.22.39-.13.38-.13.37-.13.4-.1h0l.37-.14h0l.36-.12.38-.12h0l.39-.12.36-.11.37-.13h0l.38-.12.36-.12.37-.11.35-.12,1.06-.35h0l.35-.11h0l.33-.11h0l.57-.18h0l.57-.19h0l.56-.19h0l.58-.19h0l.58-.19h0l.57-.18h0l.56-.17h0l.56-.21h0l.57-.18.57-.17h0l.59-.18h0l.57-.21.57-.17h0l.57-.18h0l.58-.19.58-.15h0l.56-.18h0l.57-.18.58-.18h0l.57-.16.58-.19h0l.57-.16L105,596l.57-.16.59-.15.58-.16.57-.16.58-.15.57-.14h0l.59-.16h0l.58-.15c.19-.06.38-.09.58-.14h0l.57-.16c.19,0,.39-.07.6-.13h0l.57-.13.59-.13.58-.13c.2,0,.38-.1.58-.13h0l.58-.13h0l.58-.1h0l.59-.13h0l.59-.11h0l.57-.11h0l.6-.09h0l.58-.1h0l.59-.1h0l.59-.08h0a5,5,0,0,1,.58-.1l.59-.09.59-.06h0l.58-.07h0l.59-.08h0l.58,0h0l.6-.09h0c.2,0,.39,0,.58-.05h0l.6,0,.58-.06h0a2.88,2.88,0,0,0,.59,0h0l.59,0h0l.6,0h.59l.59,0H129c.83,0,1.63,0,2.44,0h0c.61,0,1.21.09,1.81.11h0c.81,0,1.59.12,2.42.22h0c.39,0,.8.09,1.2.13h0l.59.07h0a11.55,11.55,0,0,1,1.2.18h0c.39,0,.8.11,1.19.18h0c.39.07.79.14,1.2.19h0c.21,0,.39.09.58.13l.6.11h0c.39.07.8.14,1.19.23a4.12,4.12,0,0,1,.59.12l.6.13h0l.59.12h0l.59.15h0c.19,0,.39.09.59.13h0c.19,0,.38.11.59.15h0l.58.14.58.15h0l.6.15h0l.59.15.58.17.58.15h0l.58.17h0l.59.16h0l.59.16h0l.58.19.58.16.58.17.58.19.58.18h0l.58.18h0l.57.18.58.18.59.17.57.21.57.17.59.19.56.2.58.17.58.2.56.21.57.17.59.21.57.19.57.2.58.2.56.2.56.19.57.2.57.18.25.08.26.1.28.11.26.08.29.09.26.1h0l.3.1.28.09h0l.29.13h0l.3.06v0l.29.1h0l.3.11h0l.31.09.29.11h0l.63.21.31.11.31.1h0l.31.1h0l.32.09.32.11h0l.31.12h0l.32.11.33.1h0l.63.19h0l.31.12.34.11.33.09.3.1.32.09.33.1h0l.3.1.33.1h0l.3.09.31.09.32.12.29.07.31.11h0l.32.06h0l.29.09.3.08.3.11h0l.28.05h0l.29.08.28.09.28.07.28.08h0l.27,0h0l.28.09.24.07h0l.27,0,.25.06h0l.24,0h0l.26,0,.23.07.22,0,.23.05.22,0,.22,0h0l.2,0,.2,0,.19,0,.18,0h.17a.34.34,0,0,1,.17,0h.36c.08,0,.14,0,.2,0l.2,0c.07,0,.13,0,.21,0l.21,0a1.74,1.74,0,0,1,.22,0h0l.22,0,.24-.06h0l.24,0h0l.22-.05.26,0,.25-.06h0l.25,0,.25-.08h0l.28-.06h0l.27-.06.26-.08.27-.05.29-.1h0l.28-.07h0l.3-.09.28-.08h0l.31-.09.28-.08.3-.09.31-.09.29-.1.32-.1.29-.1h0l.31-.1.31-.09.32-.11.3-.09.32-.11h0l.31-.1.32-.11.31-.1.32-.12.3-.11h0l.33-.09h0l.32-.12.29-.11h0l.34-.11h0l.3-.1.31-.11.32-.1h0l.29-.11h0l.32-.12h0l.29-.09h0l.62-.23.59-.22h0l.58-.21h0l.86-.29h0l.25-.1h0l.54-.19c1.43-.51,2.87-1,4.32-1.55h0l.56-.2h0l.56-.19h0c.55-.2,1.11-.4,1.67-.58h0l.57-.2h0l1.68-.58c.37-.11.75-.24,1.12-.37h0l.58-.18h0l.58-.17h0l.58-.18h0l.57-.19h0l.58-.16h0l.6-.2.58-.18h0l.59-.15.58-.18h0c.2-.07.4-.11.59-.17h0l.6-.15h0l.6-.17h0a5.43,5.43,0,0,1,.61-.16h0c.19-.06.39-.11.58-.15a5.25,5.25,0,0,0,.6-.16h0c.21,0,.4-.1.61-.15h0c.2,0,.4-.1.6-.13l.61-.15h0a3.42,3.42,0,0,1,.62-.13h0c.19-.06.4-.11.61-.16h0a4.25,4.25,0,0,0,.6-.12l.63-.12h0c.2,0,.41-.1.61-.13h0c.2,0,.42-.08.62-.09h0a3.46,3.46,0,0,1,.62-.14h0l.63-.11h0c.21,0,.41-.08.62-.1h0a4.58,4.58,0,0,1,.63-.1h0c.2,0,.42-.06.62-.11h0l.63-.08h0c.23,0,.44,0,.63-.09h0l1.28-.15h0l.65-.08h0c.85-.07,1.7-.16,2.59-.21h0q2.25-.18,4.56-.18h.19c2.42,0,4.8.16,7.15.39h0c1.08.12,2.14.27,3.18.4h0c.43.07.85.12,1.27.21h0l1.25.21h0c.61.1,1.23.23,1.86.36.21,0,.4.09.61.12h0a4,4,0,0,0,.6.12h0c.62.16,1.23.29,1.84.44.2,0,.4.09.59.13s.41.11.62.15h0a6.06,6.06,0,0,0,.61.16l.59.15h0c.19,0,.4.1.6.16h0l.59.17.59.15h0c.2.06.4.1.6.17h0l.6.18.59.15.57.18.59.2.58.16a3.81,3.81,0,0,1,.57.19l.58.18.57.17.57.18h0l.59.2h0l.57.17.57.2h0l.55.19h0l.55.19h0l.57.2c.38.13.74.24,1.11.38h0l.55.2.56.19.55.2h0l.53.18v0l.57.17h0l.54.21h0l.54.19h0l1.07.38h0l.54.19h0l.52.21h0l.27.08h0l.28.11h0l.27.1h0l.28.1h0l.29.11h0l.3.08h0l.27.12h0l.3.09h0l.3.12h0l.28.1.32.11h0l.3.12.3.09h0l.31.12.3.11.32.1.31.11.32.1h0l.3.11h0l.31.11c.32.12.63.21.94.32l.32.12.31.1.33.11.3.1h0l.31.11.32.09.32.11.3.09.31.1.3.1.31.1h0l.3.1.31.09h0l.3.09.29.08h0l.29.09h0l.29.08h0l.28.09.29.07.28.1.28.05h0l.27.08h0l.26.06.28.06.26.08h0l.25,0,.25.06.25,0h0l.22.05.25,0,.23.06h0l.22,0,.23,0h0l.21,0c.07,0,.13,0,.21,0l.19,0,.19,0h.37a.38.38,0,0,1,.18,0h.16c.07,0,.11,0,.18,0l.2,0c.07,0,.13,0,.2,0a1.05,1.05,0,0,1,.21,0,.71.71,0,0,1,.21,0l.21,0,.23-.05.22,0,.25-.07.24,0,.24,0,.26-.06.25,0h0l.27-.07.26-.09h0l.28,0,.27-.08.27-.07.31-.09.26-.08h0l.32-.05h0l.27-.11.31-.08.3-.09h0l.3-.06h0l.31-.11.3-.07.3-.12.32-.09.31-.09h0l.32-.1.32-.1h0l.32-.1.31-.09.33-.1h0l.31-.09h0l.32-.11.31-.12h0l.33-.11h0l.32-.08h0l.3-.1.34-.11h0l.32-.12h0l.31-.11h0l.32-.09h0l.31-.1.31-.1h0l.33-.11.3-.12h0l.3-.09.31-.11.3-.09h0l.3-.11h0l.3-.1v0l.29-.06.3-.13h0l.28-.09.3-.1.26-.1.29-.09.26-.08.27-.11.26-.1.25-.08.57-.18.58-.2.56-.19.57-.2.57-.2.57-.2.57-.19.57-.21.59-.17.58-.21.56-.2.58-.17.56-.2.58-.19.57-.17.58-.21.57-.17.58-.18.58-.18h0l.59-.18h0l.58-.18.58-.19.58-.17.58-.16.58-.19h0l.57-.16h0l.59-.16h0l.59-.17h0l.6-.15.57-.17.58-.15h0l.6-.15h0l.58-.15.59-.14h0l.59-.15h0c.19,0,.39-.1.59-.13h0l.6-.15h0l.56-.12h0l.59-.13h0a4.55,4.55,0,0,1,.6-.12h0l.59-.13h0l.59-.1h0l.6-.11c.19,0,.39-.1.6-.13h0c.19,0,.39-.05.58-.09h0l.6-.1c.2,0,.4-.07.59-.1h0c.21,0,.39-.07.6-.08h0c.2-.05.4-.05.6-.1h0a5.63,5.63,0,0,1,.61-.08h0l.58-.07h0a5.78,5.78,0,0,0,.6-.08h0l.61,0h0c.21,0,.4-.05.59-.07h0c.22,0,.41,0,.62-.06h0l.6-.05h0c.19,0,.39,0,.6,0h0c.2,0,.41,0,.6,0h0a3.15,3.15,0,0,1,.61-.06h0l.6,0h.61l.62,0h1.21c1.37,0,2.76,0,4.13.11h0l.58.06h0c.4,0,.79.05,1.18.08h0c.4.06.79.1,1.2.13h0l.58.08h0l1.16.13h0l.59.09h0a5.58,5.58,0,0,1,.59.1h0l.59.08h0l1.18.2.58.09h0l.57.11h0c.4.08.79.15,1.18.24h0l1.16.23h0c.21,0,.4.09.6.13l.59.13h0l.57.13h0l.58.13c.2.06.39.09.58.13h0c.4.11.79.19,1.16.3a4.65,4.65,0,0,1,.59.15h0l.58.16h0a4.43,4.43,0,0,1,.58.14l.58.15h0l.58.16.58.16h0l.58.15h0l.57.16.59.18h0l.56.16h0l.59.19h0l.57.16h0l.58.18.58.18h0l.55.18h0l.58.15.57.19h0l.58.18h0l.58.17.57.21.57.18h0l.58.17.57.18h0l.57.21h0l.56.17h0l.57.18h0l.56.19h0l.58.19h0l.56.19h0l.57.19h0l.57.18h0l.34.11h0l.34.11h0l.34.12h0l.35.1h0l.37.13.14,0q-7.83,4.31-16.54,8.17ZM412,587.91a126.44,126.44,0,0,0,19-17.08c-5.33,2-12.2,4.63-16.9,5.47h0l-.25,0h0l-.76.12h0l-.72.07h-.24c-.22,0-.44,0-.64,0h-.21l-.46,0h-.22l-.24,0h0a1.23,1.23,0,0,0-.26,0h0a1.15,1.15,0,0,0-.26,0h0l-1.1-.16h0l-.3-.06h0l-.3-.06-.28,0h0l-.31,0h0c-.32-.09-.63-.13-.94-.21h0l-.68-.17-.34-.08h0a4.86,4.86,0,0,1-.66-.15h0l-.36-.08-.35-.1h0l-.35-.08-.36-.1h0l-.35-.1h0l-.37-.09c-.27-.06-.48-.15-.74-.2h0l-.36-.11-.38-.1h0l-.37-.11-.76-.22h0l-.38-.13h0l-.38-.1h0l-.38-.11-.38-.12h0l-.38-.12h0l-.39-.11-.39-.13-.76-.24-.38-.12-.38-.1-.37-.14-.39-.12h0l-.38-.12-.37-.11-.38-.13h0l-.39-.13-.36-.12-.36-.11-.38-.12-.37-.13-.35-.11-.36-.11-.37-.14h0l-.35-.11h0l-.34-.1h0l-.34-.14h0l-.34-.09h0l-.57-.2h0l-.57-.18h0l-.56-.17h0l-.58-.21h0l-.56-.18h0l-.57-.19h0l-.56-.18h0l-.57-.19h0l-.57-.18-.58-.2h0l-.57-.18-.57-.17-.58-.18h0l-.58-.17h0l-.57-.19-.58-.19h0l-.55-.17h0l-.58-.18-.58-.16h0l-.57-.18h0l-.59-.16h0l-.56-.18h0l-.59-.15-.57-.17h0l-.58-.16h0l-.58-.15-.58-.16h0a5.26,5.26,0,0,0-.58-.17,5.5,5.5,0,0,1-.58-.16h0c-.2,0-.39-.1-.58-.13h0l-.59-.17-1.16-.27h0a3.75,3.75,0,0,0-.58-.13l-.58-.16h0c-.2,0-.38-.09-.57-.12h0l-.59-.12-.6-.13h0c-.39-.09-.78-.18-1.16-.25h0c-.39-.06-.78-.15-1.18-.22h0L365,564h0a5.4,5.4,0,0,1-.58-.1c-.4-.08-.79-.13-1.18-.19h0c-.2,0-.39-.06-.59-.1h0c-.2,0-.38-.05-.59-.07h0a3.64,3.64,0,0,0-.59-.09h0l-1.16-.18h0a3.6,3.6,0,0,1-.58,0h0l-1.2-.13h0c-.39,0-.78,0-1.18-.1h0l-.58,0h0c-1.37-.08-2.76-.14-4.13-.14h-1.21a4.29,4.29,0,0,0-.62,0h0c-.22,0-.4,0-.61,0h0l-.6,0h0c-.2,0-.41,0-.61,0h0l-.6,0h0l-.6.07h0c-.2,0-.41,0-.6.06h0a3.31,3.31,0,0,0-.62.05h0c-.19,0-.38,0-.59,0h0l-.61.07h0a3.13,3.13,0,0,0-.6.06h0a5.77,5.77,0,0,0-.58.08h0l-.61.06h0c-.2,0-.4.08-.6.1h0c-.21,0-.39.07-.6.09h0a3.82,3.82,0,0,1-.59.09l-.6.1h0l-.58.11h0l-.6.11-.6.11h0c-.21,0-.4.07-.59.12h0c-.2,0-.4.06-.59.11h0l-.6.13h0c-.18,0-.38.09-.59.13h0c-.19,0-.39.08-.56.14h0l-.6.12h0c-.2,0-.4.09-.59.15h0c-.21.05-.4.08-.59.14h0l-.59.14a4.07,4.07,0,0,1-.58.14h0a4.44,4.44,0,0,1-.6.16h0l-.58.15-.57.17a4.11,4.11,0,0,0-.6.17h0l-.59.16h0l-.59.15h0l-.57.19h0l-.58.15-.58.18-.58.16-.58.19-.58.17h0l-.59.18h0l-.58.18-.58.19-.57.18-.58.19-.57.19-.58.19-.56.18-.58.21-.56.19-.58.17-.59.2-.57.2-.57.2-.57.18-.57.2-.57.2-.56.2-.58.19-.57.21-.25.08-.26.1-.27.08-.26.09-.29.09-.26.12-.3.07-.28.12h0l-.3.07-.29.12h0l-.3.11h0l-.3.09h0l-.3.11-.31.1-.3.11h0l-.3.09-.33.1h0l-.31.12-.31.1h0l-.32.11h0l-.31.09h0l-.32.11h0l-.34.1-.3.11h0l-.32.12h0l-.33.1h0l-.31.11-.32.08h0l-.31.11h0l-.33.09-.31.11-.32.09h0l-.32.1-.32.1h0l-.31.09-.32.11-.3.08-.3.12-.31,0h0l-.3.11h0l-.3.08-.31.08-.27.08h0l-.32.09h0l-.26.06-.31.08-.27.08-.27.07-.28.08h0L300,576l-.27.06h0l-.25.06-.26.06-.24.06-.24.06-.25,0-.22,0-.23,0-.21,0-.21,0a1.07,1.07,0,0,1-.21,0l-.2,0-.2,0h-.69a.46.46,0,0,0-.2,0,1.25,1.25,0,0,0-.19,0l-.19,0-.21,0a.71.71,0,0,1-.21,0h0l-.23,0-.22,0h0l-.23-.05-.25,0-.22-.07h0l-.25-.06-.25,0-.25-.07h0l-.26-.07-.28-.06-.26-.08h0l-.27-.07h0l-.28-.07-.28-.07-.29-.09-.28-.08h0l-.29-.08h0l-.29-.1h0l-.29-.08-.3-.09h0l-.31-.09-.3-.09h0l-.31-.09-.3-.11-.31-.1-.3-.09-.32-.1-.32-.1-.31-.11h0l-.3-.11-.33-.09-.31-.1-.32-.11-.94-.32-.31-.11h0l-.3-.11h0l-.32-.11-.31-.11-.32-.11-.3-.12-.31-.09h0l-.3-.13-.3-.1h0l-.32-.09-.28-.11h0l-.3-.1h0l-.3-.12h0l-.27-.11h0l-.3-.1h0l-.29-.09h0l-.28-.11h0l-.27-.11h0l-.28-.09h0l-.27-.11h0l-.52-.17h0l-.54-.2h0l-1.07-.4h0l-.54-.19h0l-.54-.18h0l-.57-.2h0l-.53-.19h0l-.55-.2-.56-.2-.55-.18h0c-.37-.14-.73-.27-1.11-.39l-.57-.21h0l-.55-.17h0l-.55-.19h0l-.57-.19-.57-.2h0l-.59-.18h0l-.57-.19-.57-.19-.58-.17-.57-.18-.58-.18-.59-.17-.57-.18-.59-.18a4,4,0,0,1-.6-.15h0c-.2,0-.4-.13-.6-.19h0l-.59-.16a4.25,4.25,0,0,1-.59-.15h0l-.6-.17h0a5.63,5.63,0,0,1-.59-.14c-.21-.07-.41-.11-.61-.16h0c-.21,0-.4-.09-.62-.14s-.39-.1-.59-.15c-.61-.13-1.22-.29-1.84-.4h0a4.7,4.7,0,0,0-.6-.14h0l-.61-.14c-.63-.11-1.25-.24-1.86-.34h0c-.43-.09-.84-.16-1.25-.22h0l-1.27-.2h0q-1.56-.24-3.18-.39h0a62.57,62.57,0,0,0-7.15-.38h-.19c-1.54,0-3.06,0-4.56.15h0c-.89.06-1.74.12-2.59.23h0c-.22,0-.43.05-.65.06h0c-.42.06-.85.11-1.28.15h0c-.19,0-.4.06-.63.1h0l-.63.08h0a4.48,4.48,0,0,0-.62.11h0c-.22,0-.41.06-.63.09h0c-.21.06-.41.06-.62.1h0l-.63.12h0c-.21,0-.41.08-.62.1h0l-.62.13h0l-.61.11h0l-.63.14a4.34,4.34,0,0,0-.6.14h0c-.21,0-.42.1-.61.11h0l-.62.16h0c-.2,0-.4.07-.61.13l-.6.15h0c-.21.05-.4.11-.61.14h0c-.19.05-.39.09-.6.16s-.39.1-.58.14h0l-.61.17h0a5.26,5.26,0,0,1-.6.15h0l-.6.16h0a5.8,5.8,0,0,1-.59.19h0l-.58.15-.59.18h0l-.58.18-.6.17h0l-.58.18h0l-.57.18h0l-.58.17h0l-.58.19h0l-.58.19h0l-1.12.38c-.57.19-1.12.38-1.68.55h0l-.57.21h0l-1.67.57h0l-.56.2h0l-.56.2h0c-1.45.52-2.89,1-4.32,1.53l-.54.2h0l-.25.11h0l-.86.3h0l-.58.23h0l-.59.21-.62.19h0l-.29.13h0l-.32.09h0l-.29.12h0l-.32.11-.31.11-.3.11h0l-.34.11h0l-.29.11-.32.1h0l-.33.11h0l-.3.11-.32.11-.31.1-.32.09-.31.11h0l-.32.11-.3.1-.32.1-.31.09-.31.1h0l-.29.11-.32.09-.29.09-.31.09-.3.09-.28.08-.31.1h0l-.28.08-.3.08h0l-.28.09h0l-.29.07-.27.07-.26.07-.27.08h0l-.28.06h0l-.25.07-.25.07h0l-.25,0-.26.06-.22.07h0l-.24,0h0l-.24.05-.22,0h0a.85.85,0,0,1-.22,0l-.21,0-.21,0-.2,0-.2,0h0a.47.47,0,0,0-.19,0h-.69l-.19,0-.2,0-.2,0h0l-.22,0-.22,0-.23,0-.22,0-.23,0-.26-.06h0l-.24-.06h0l-.25-.06-.27-.06h0l-.24-.06-.28-.06h0l-.27-.08h0l-.28-.07-.28-.08-.28-.08-.29-.06h0l-.28-.09h0l-.3-.08-.3-.08-.29-.08h0l-.32-.11h0l-.31,0-.29-.12-.32-.08-.31-.11-.3-.09h0l-.33-.1-.3-.1h0l-.33-.09-.32-.11-.3-.09-.33-.11-.34-.08-.31-.11h0l-.63-.22h0l-.33-.11-.32-.1h0l-.31-.11h0l-.32-.09-.32-.11h0l-.31-.1h0l-.31-.12-.31-.1-.63-.2h0l-.29-.1-.31-.11h0l-.3-.09h0l-.29-.11h0l-.3-.12h0l-.29-.07h0l-.28-.12-.3-.07h0l-.26-.12-.29-.09-.26-.09-.28-.08-.26-.1-.25-.08-.57-.21-.57-.19-.56-.2-.56-.2-.58-.2-.57-.18-.57-.2-.59-.2-.57-.2-.56-.17-.58-.19-.58-.21-.56-.18-.59-.19-.57-.19-.57-.19-.59-.18-.58-.19-.57-.18h0l-.58-.18h0l-.58-.17-.58-.19-.58-.16-.58-.18-.58-.15h0l-.59-.19h0l-.59-.15h0l-.58-.16h0a3.86,3.86,0,0,0-.58-.17l-.58-.17-.59-.15h0a4.44,4.44,0,0,1-.6-.16h0a4.43,4.43,0,0,1-.58-.14l-.58-.14h0c-.21-.06-.4-.09-.59-.14h0l-.59-.15h0c-.2,0-.39-.09-.59-.12h0c-.19-.06-.39-.09-.59-.14h0l-.6-.13-.59-.13-1.19-.23h0l-.6-.11-.58-.11h0l-1.2-.21h0c-.39-.06-.8-.11-1.19-.18h0l-1.2-.16h0c-.19,0-.4-.06-.59-.08h0l-1.2-.13h0c-.83-.1-1.61-.16-2.42-.23h0c-.6,0-1.2-.06-1.81-.08h0c-.81-.05-1.61-.06-2.44-.06h-1.17a3.89,3.89,0,0,0-.59,0h0a5.62,5.62,0,0,0-.59,0h0l-.6,0h0a5.62,5.62,0,0,1-.59,0h0l-.59,0h0l-.58,0-.6.06h0a5.46,5.46,0,0,1-.58,0h0a3.93,3.93,0,0,1-.6.06h0l-.58.07h0a3.9,3.9,0,0,1-.59,0h0a4.09,4.09,0,0,1-.58.09h0l-.59.09a3.64,3.64,0,0,0-.59.09c-.21,0-.39.06-.58.07h0c-.2,0-.39,0-.59.1h0c-.2,0-.4.06-.59.07h0l-.58.12h0c-.2,0-.4.08-.6.1h0l-.57.11h0c-.21,0-.4.07-.59.12h0l-.59.1h0a3.73,3.73,0,0,0-.58.12h0l-.58.13h0l-.58.13-.58.12c-.19,0-.39.09-.59.12l-.57.16h0a3.75,3.75,0,0,0-.6.13l-.57.13h0c-.2.06-.39.1-.58.14l-.58.17h0l-.59.13h0l-.57.16-.58.17-.57.16-.58.15-.59.16-.57.17-.59.15-.57.18h0l-.58.16-.57.18h0l-.58.16-.57.18h0l-.56.17h0l-.58.19-.58.19h0l-.57.17h0l-.57.18-.57.17h0l-.59.18h0l-.57.2-.57.18h0l-.56.19h0l-.56.18h0l-.57.19h0l-.58.18h0l-.58.21h0l-.56.17h0l-.57.18h0l-.57.2h0l-.33.09h0l-.35.14h0l-1.06.35-.35.11-.37.11-.36.13-.38.12h0l-.37.11-.36.12-.39.13h0l-.38.13-.36.11h0l-.37.12h0l-.4.12-.37.14-.38.1-.39.12-.76.24-.38.13-.38.11h0l-.37.12h0l-.39.12-.38.11-.39.1h0l-.37.13-.75.22-.39.11-.38.1-.36.11-.36.09h0l-.36.11-.36.09-.38.1-.35.1h0l-.36.08h0l-.35.1h0l-.36.08-.32.11h0l-.34,0-.35.08h0l-.32.09h0l-.31.08h0l-.34.08h0l-.31,0h0l-.32.09-.3,0-.31,0h0l-.29.06h0l-.3.06h0l-.28,0h0a1.35,1.35,0,0,0-.28,0h0l-.27,0h0l-.25,0h0a1.18,1.18,0,0,0-.27,0h0a1.18,1.18,0,0,0-.26,0h0l-.24,0h-.24a.93.93,0,0,0-.23,0h-.84l0,0h-.46l-.18,0h0l-.2,0h-.27v0l-.23,0h0a1.27,1.27,0,0,0-.26,0h0l0,0-.21,0h0l-.2,0H67.5l-.07,0-.17,0h0l0,0-.2,0h-.07l-.23,0h0v0l-.19,0-.06,0c-4.68-1-11-3.43-15.93-5.29C40.42,567,30,563,18.74,563a62.31,62.31,0,0,0-6.46.39,99.79,99.79,0,0,0,9.78,11.44,143,143,0,0,1,14.58,4.92c9.41,3.59,19.13,7.27,29.77,8h.46a1.34,1.34,0,0,0,.35,0h.21l.36,0h.66a5.06,5.06,0,0,0,.55,0h0c.37,0,.76,0,1.13,0h.53a3.14,3.14,0,0,0,.53,0h.54a4.61,4.61,0,0,1,.52,0h0l.53,0h.53a4.73,4.73,0,0,1,.53,0h0c.17,0,.35,0,.53,0h0c.16,0,.36,0,.54-.05s.35,0,.53,0h0l.52,0h0l.54-.07h0a4.29,4.29,0,0,1,.53-.06h0a3.51,3.51,0,0,0,.53-.07h0l.52,0,.54-.09h0l.53-.07h0l.53-.08h0a4.71,4.71,0,0,1,.52-.09,4.89,4.89,0,0,1,.53-.09l.54-.1h0l1-.19h0c.19,0,.37-.09.54-.11h0a4,4,0,0,0,.52-.12l.55-.1h0l.52-.11.53-.13h0l.55-.11a4.37,4.37,0,0,1,.52-.12h0a4.77,4.77,0,0,0,.54-.15h0l.53-.12h0l.52-.11.55-.15.53-.16.53-.13h0l.54-.13h0l.53-.16h0l.55-.15h0l.51-.15.56-.15.52-.16h0L93,584h0l.53-.16h0l.55-.16h0l.53-.17h0l.55-.17h0l.54-.16.55-.18h0l.53-.16.55-.17h0l.53-.18.55-.16h0l.54-.18h0l.54-.18.55-.17.56-.19h0l.53-.18h0l.56-.17h0l.56-.18h0l.54-.18h0l.55-.18h0l.56-.18h0l.55-.19h0l.34-.11h0l.33-.11h0l.36-.11h0l.34-.12h0l.34-.13h0l.35-.09h0l.35-.12.35-.12h0l.36-.12h0l.35-.1h0l.37-.14.35-.1h0l.36-.13h0l.35-.11h0l.35-.09.37-.13h0l.37-.13h0l.37-.12.35-.1h0l.36-.13h0l.38-.1.35-.12h0l.36-.11.38-.11.35-.11.37-.12.36-.11h0l.37-.08.35-.11.37-.11.37-.12.35-.11.35-.1.37-.11.35-.09.35-.1.37-.1.35-.1.34-.1h0l.35-.08.36-.1h0l.34-.08.33-.11.36-.06.34-.11h0l.33-.06h0l.34-.1.32-.06h0l.35-.11.32,0h0l.31-.07h0l.33-.08h0l.33,0h0l.31-.08h0l.31,0h0l.31-.07h0l.31-.06h0l.31,0h0l.3-.06h0l.29,0h0l.3-.05h0l.28,0h0l.3,0h0a1.09,1.09,0,0,0,.26,0h0l.58.21h0l.59.18h0l.6.21h0l.64.21h0l.67.21h0l.66.25h0l.69.2h0l.74.23h0l.73.26h0l.75.23h0l.77.25h0l.79.25h0l.8.24h0l.82.26h0l.83.25h0l.85.27h0l.85.29h0l.87.25h0l.9.27h0l.89.27h0l.91.28h0l.91.26.92.26h0l.93.28h0l.94.27,1,.27h0l1,.27h0l1,.29,1,.25h0a9.85,9.85,0,0,0,1,.26h0l1,.28h0l1,.25,1,.27h0l1,.27c.65.15,1.33.33,2,.5.33.08.65.15,1,.25h0l1,.25h0l1,.23h0c.32.09.65.16,1,.23s.66.16,1,.24.63.16,1,.23h0l1,.21,1,.22c.31.08.64.15,1,.21l1,.21c.33.06.63.14,1,.19h0l1,.2h0c.33.05.64.13,1,.18l1,.18h0c.3.06.62.1.93.15h0l.91.17h0l1.84.3c.3,0,.6.1.89.13h0c.31,0,.6.09.88.13h0c.3,0,.58.07.89.1h0l.86.11h0c.29,0,.57.06.83.11h0c.3,0,.56.06.86.07h0l.81.08c.28,0,.52,0,.8.06h0l.8.06h0c.26,0,.51,0,.78,0h0l0,0h.57l0,0h.39l0,0H184l0,0H187a2.42,2.42,0,0,1,.46,0h0l.51,0h.47c.17,0,.34,0,.5,0h0c.16,0,.33,0,.47,0h0c.17,0,.34,0,.49,0h0l.49-.06h0a4.12,4.12,0,0,0,.48-.05l.48,0c.15,0,.33,0,.48-.06l.48-.08h0l.48,0,.47-.1a2,2,0,0,0,.48-.08c.16,0,.31,0,.47-.06l.47-.09a2.66,2.66,0,0,0,.49-.1h0a4.2,4.2,0,0,0,.47-.08c.17,0,.32-.05.47-.09l.49-.11a2.86,2.86,0,0,0,.46-.09c.15,0,.31-.08.47-.11s.32-.07.48-.09.3-.08.47-.12a2.1,2.1,0,0,0,.47-.14h0a3.17,3.17,0,0,0,.48-.1l.46-.12h0a2.23,2.23,0,0,0,.46-.13,2.31,2.31,0,0,0,.47-.12l.5-.12a3.09,3.09,0,0,1,.46-.13l.45-.15.5-.12.45-.14.48-.14.47-.15.46-.15.47-.14.47-.16.47-.14.49-.16.45-.15.49-.16.46-.17.47-.16.48-.15.47-.19.47-.14.48-.17.46-.16.49-.18.48-.16.47-.18.48-.19.47-.14.47-.19.48-.19.48-.16L215,581l.49-.19.47-.17.4-.14.41-.14.4-.15.4-.16.4-.14h0l.4-.16.42-.13.39-.14.41-.17.42-.13.4-.16.41-.14.41-.15.41-.14.42-.15.4-.15.42-.14.42-.15.4-.14.42-.13.42-.14.39-.14h0l.42-.14.4-.14.44-.13.38-.12.42-.14h0l.41-.13.4-.12.42-.12h0l.4-.12h0l.4-.15h0l.4-.09.4-.12.4-.12.4-.11.4-.11.39-.09c.13,0,.26-.07.4-.11h0l.39-.12.38-.08a2.16,2.16,0,0,1,.39-.09l.39-.09a2,2,0,0,1,.39-.09l.37-.09a1.89,1.89,0,0,1,.39-.07c.13,0,.24,0,.36-.09s.25-.06.38-.07a2.7,2.7,0,0,0,.35-.07,1.51,1.51,0,0,0,.38-.08l.37-.05.35,0,.37-.06.36,0,.34-.06a1.42,1.42,0,0,0,.36,0,1.76,1.76,0,0,1,.34,0l.34,0,.34,0h0a1.27,1.27,0,0,0,.33,0h0l.32,0h2l.33,0h0a1.16,1.16,0,0,0,.32,0h0l.35,0h0l.34,0h0a1.75,1.75,0,0,1,.33,0h0a1.5,1.5,0,0,0,.37,0h0l.33.06h0l.36,0h0l.36.06h0l.35,0h0l.38.05h0a1.63,1.63,0,0,0,.37.08h0c.11,0,.24,0,.35.07h0c.14,0,.26.06.38.07h0c.13,0,.26.05.37.09h0a1.78,1.78,0,0,1,.39.07h0l.38.09h0l.38.09h0l.38.09a1.83,1.83,0,0,1,.39.09h0a1.93,1.93,0,0,0,.39.08l.39.12h0l.41.11h0l.39.09.39.11.4.11h0l.39.12.41.12h0l.39.09h0l.41.15h0l.41.12h0l.42.12.39.12h0l.4.13h0l.42.14.41.12.42.13h0l.41.14.4.14h0l.41.14.41.14.43.13.4.14.41.15.41.14.41.15.42.15.42.14.39.15.42.14.42.16.41.13.41.17.4.14.39.13.42.16h0l.39.14.41.16.4.15.4.14.4.14c10.28,3.77,20,7.35,30.45,7.35h1.46l.05,0H298l0,0h.39l.05,0H299l.05,0h0c.26,0,.52,0,.77,0h0c.27,0,.54,0,.8-.06h0c.26,0,.54,0,.79-.06l.84-.08h0c.27,0,.56,0,.83-.07h0c.29-.05.56-.08.85-.11h0l.85-.11h0c.31,0,.59-.08.89-.1h0c.28,0,.59-.1.89-.13h0c.28,0,.59-.1.89-.13l.89-.14h0l.94-.16h0l.92-.17h0c.31,0,.63-.09.94-.15h0l.94-.18c.32-.05.63-.13.95-.18h0l1-.2h0c.32-.05.63-.13,1-.19s.65-.14,1-.21l1-.21,1-.22c.33-.06.65-.14,1-.21h0c.35-.07.66-.16,1-.23s.67-.15,1-.24.65-.14,1-.23l1-.23c.31-.09.65-.16,1-.25s.66-.17,1-.25l1-.25h0c.33-.1.67-.18,1-.25s.65-.19,1-.27.67-.17,1-.27.65-.17,1-.25l1-.28,1-.26,1-.25,1-.29.95-.27.95-.27.95-.27.93-.28.93-.26.92-.26.9-.28.9-.27.89-.27.85-.25.87-.29.84-.27.84-.25.82-.26L347,577l.8-.25.77-.25.75-.23.73-.26.72-.23.71-.2.65-.25.68-.21.64-.21.62-.21.59-.18.56-.21.29,0,.28,0,.29,0,.29.05.3,0,.3.06.29,0,.32.06.3.07.33,0,.3.08.32,0,.34.08.32.07.33,0h0l.33.11.33.06.33.1.34.06.34.11.35.06h0l.34.11h0l.34.08h0l.36.1.34.08h0l.35.1.36.1h0l.35.1.34.1h0l.36.09h0l.37.11h0l.35.1h0l.35.11h0l.39.12h0l.35.11h0l.36.11h0l.36.08h0l1.81.56h0l.36.12h0c.73.23,1.47.45,2.19.71h0c1,.29,1.91.59,2.85.91h0l2.42.79,3.3,1.08h0l1.09.37h0l.55.17h0c.36.13.73.24,1.1.36h0l.54.16h0l.53.18.56.17h0l.53.16h0l.55.18h0l.54.16h0l1.06.34h0l.56.16h0l.53.16h0l.55.15h0l.52.16.55.15.53.15h0l.53.15.55.16.53.13.54.13.54.16c.17.05.35.08.53.15l.53.11h0l.53.12h0a4.61,4.61,0,0,0,.53.15,5.23,5.23,0,0,1,.54.12l.53.11c.17,0,.35.09.53.13l.53.11h0l.53.1a4.12,4.12,0,0,0,.53.12h0c.54.12,1.06.21,1.59.3h0l.53.1h0a4.34,4.34,0,0,1,.52.09h0a4.18,4.18,0,0,1,.53.09h0l1.6.24h0l2.64.3h0c.18,0,.37,0,.53,0h0c.35,0,.7.08,1,.1h0l1.07.05h0l.53,0h0a4.52,4.52,0,0,1,.52,0h.53a3.26,3.26,0,0,0,.53,0H412Z"/></g></g></svg>